<?xml version="1.0" encoding="utf-8" standalone="no"?>
<!DOCTYPE svg PUBLIC "-//W3C//DTD SVG 1.1//EN"
  "http://www.w3.org/Graphics/SVG/1.1/DTD/svg11.dtd">
<!-- Created with matplotlib (https://matplotlib.org/) -->
<svg height="504pt" version="1.1" viewBox="0 0 936 504" width="936pt" xmlns="http://www.w3.org/2000/svg" xmlns:xlink="http://www.w3.org/1999/xlink">
 <defs>
  <style type="text/css">
*{stroke-linecap:butt;stroke-linejoin:round;white-space:pre;}
  </style>
 </defs>
 <g id="figure_1">
  <g id="patch_1">
   <path d="M 0 504 
L 936 504 
L 936 0 
L 0 0 
z
" style="fill:#ffffff;"/>
  </g>
  <g id="axes_1">
   <g id="patch_2">
    <path d="M 117 448.56 
L 842.4 448.56 
L 842.4 60.48 
L 117 60.48 
z
" style="fill:#ffffff;"/>
   </g>
   <g id="matplotlib.axis_1">
    <g id="xtick_1">
     <g id="line2d_1">
      <defs>
       <path d="M 0 0 
L 0 3.5 
" id="m34d13d97de" style="stroke:#000000;stroke-width:0.8;"/>
      </defs>
      <g>
       <use style="stroke:#000000;stroke-width:0.8;" x="149.972727" xlink:href="#m34d13d97de" y="448.56"/>
      </g>
     </g>
     <g id="text_1">
      <!-- 9 -->
      <defs>
       <path d="M 10.984375 1.515625 
L 10.984375 10.5 
Q 14.703125 8.734375 18.5 7.8125 
Q 22.3125 6.890625 25.984375 6.890625 
Q 35.75 6.890625 40.890625 13.453125 
Q 46.046875 20.015625 46.78125 33.40625 
Q 43.953125 29.203125 39.59375 26.953125 
Q 35.25 24.703125 29.984375 24.703125 
Q 19.046875 24.703125 12.671875 31.3125 
Q 6.296875 37.9375 6.296875 49.421875 
Q 6.296875 60.640625 12.9375 67.421875 
Q 19.578125 74.21875 30.609375 74.21875 
Q 43.265625 74.21875 49.921875 64.515625 
Q 56.59375 54.828125 56.59375 36.375 
Q 56.59375 19.140625 48.40625 8.859375 
Q 40.234375 -1.421875 26.421875 -1.421875 
Q 22.703125 -1.421875 18.890625 -0.6875 
Q 15.09375 0.046875 10.984375 1.515625 
z
M 30.609375 32.421875 
Q 37.25 32.421875 41.125 36.953125 
Q 45.015625 41.5 45.015625 49.421875 
Q 45.015625 57.28125 41.125 61.84375 
Q 37.25 66.40625 30.609375 66.40625 
Q 23.96875 66.40625 20.09375 61.84375 
Q 16.21875 57.28125 16.21875 49.421875 
Q 16.21875 41.5 20.09375 36.953125 
Q 23.96875 32.421875 30.609375 32.421875 
z
" id="DejaVuSans-57"/>
      </defs>
      <g transform="translate(146.791477 463.158437)scale(0.1 -0.1)">
       <use xlink:href="#DejaVuSans-57"/>
      </g>
     </g>
    </g>
    <g id="xtick_2">
     <g id="line2d_2">
      <g>
       <use style="stroke:#000000;stroke-width:0.8;" x="179.947934" xlink:href="#m34d13d97de" y="448.56"/>
      </g>
     </g>
     <g id="text_2">
      <!-- 10 -->
      <defs>
       <path d="M 12.40625 8.296875 
L 28.515625 8.296875 
L 28.515625 63.921875 
L 10.984375 60.40625 
L 10.984375 69.390625 
L 28.421875 72.90625 
L 38.28125 72.90625 
L 38.28125 8.296875 
L 54.390625 8.296875 
L 54.390625 0 
L 12.40625 0 
z
" id="DejaVuSans-49"/>
       <path d="M 31.78125 66.40625 
Q 24.171875 66.40625 20.328125 58.90625 
Q 16.5 51.421875 16.5 36.375 
Q 16.5 21.390625 20.328125 13.890625 
Q 24.171875 6.390625 31.78125 6.390625 
Q 39.453125 6.390625 43.28125 13.890625 
Q 47.125 21.390625 47.125 36.375 
Q 47.125 51.421875 43.28125 58.90625 
Q 39.453125 66.40625 31.78125 66.40625 
z
M 31.78125 74.21875 
Q 44.046875 74.21875 50.515625 64.515625 
Q 56.984375 54.828125 56.984375 36.375 
Q 56.984375 17.96875 50.515625 8.265625 
Q 44.046875 -1.421875 31.78125 -1.421875 
Q 19.53125 -1.421875 13.0625 8.265625 
Q 6.59375 17.96875 6.59375 36.375 
Q 6.59375 54.828125 13.0625 64.515625 
Q 19.53125 74.21875 31.78125 74.21875 
z
" id="DejaVuSans-48"/>
      </defs>
      <g transform="translate(173.585434 463.158437)scale(0.1 -0.1)">
       <use xlink:href="#DejaVuSans-49"/>
       <use x="63.623047" xlink:href="#DejaVuSans-48"/>
      </g>
     </g>
    </g>
    <g id="xtick_3">
     <g id="line2d_3">
      <g>
       <use style="stroke:#000000;stroke-width:0.8;" x="209.92314" xlink:href="#m34d13d97de" y="448.56"/>
      </g>
     </g>
     <g id="text_3">
      <!-- 11 -->
      <g transform="translate(203.56064 463.158437)scale(0.1 -0.1)">
       <use xlink:href="#DejaVuSans-49"/>
       <use x="63.623047" xlink:href="#DejaVuSans-49"/>
      </g>
     </g>
    </g>
    <g id="xtick_4">
     <g id="line2d_4">
      <g>
       <use style="stroke:#000000;stroke-width:0.8;" x="239.898347" xlink:href="#m34d13d97de" y="448.56"/>
      </g>
     </g>
     <g id="text_4">
      <!-- 12 -->
      <defs>
       <path d="M 19.1875 8.296875 
L 53.609375 8.296875 
L 53.609375 0 
L 7.328125 0 
L 7.328125 8.296875 
Q 12.9375 14.109375 22.625 23.890625 
Q 32.328125 33.6875 34.8125 36.53125 
Q 39.546875 41.84375 41.421875 45.53125 
Q 43.3125 49.21875 43.3125 52.78125 
Q 43.3125 58.59375 39.234375 62.25 
Q 35.15625 65.921875 28.609375 65.921875 
Q 23.96875 65.921875 18.8125 64.3125 
Q 13.671875 62.703125 7.8125 59.421875 
L 7.8125 69.390625 
Q 13.765625 71.78125 18.9375 73 
Q 24.125 74.21875 28.421875 74.21875 
Q 39.75 74.21875 46.484375 68.546875 
Q 53.21875 62.890625 53.21875 53.421875 
Q 53.21875 48.921875 51.53125 44.890625 
Q 49.859375 40.875 45.40625 35.40625 
Q 44.1875 33.984375 37.640625 27.21875 
Q 31.109375 20.453125 19.1875 8.296875 
z
" id="DejaVuSans-50"/>
      </defs>
      <g transform="translate(233.535847 463.158437)scale(0.1 -0.1)">
       <use xlink:href="#DejaVuSans-49"/>
       <use x="63.623047" xlink:href="#DejaVuSans-50"/>
      </g>
     </g>
    </g>
    <g id="xtick_5">
     <g id="line2d_5">
      <g>
       <use style="stroke:#000000;stroke-width:0.8;" x="269.873554" xlink:href="#m34d13d97de" y="448.56"/>
      </g>
     </g>
     <g id="text_5">
      <!-- 13 -->
      <defs>
       <path d="M 40.578125 39.3125 
Q 47.65625 37.796875 51.625 33 
Q 55.609375 28.21875 55.609375 21.1875 
Q 55.609375 10.40625 48.1875 4.484375 
Q 40.765625 -1.421875 27.09375 -1.421875 
Q 22.515625 -1.421875 17.65625 -0.515625 
Q 12.796875 0.390625 7.625 2.203125 
L 7.625 11.71875 
Q 11.71875 9.328125 16.59375 8.109375 
Q 21.484375 6.890625 26.8125 6.890625 
Q 36.078125 6.890625 40.9375 10.546875 
Q 45.796875 14.203125 45.796875 21.1875 
Q 45.796875 27.640625 41.28125 31.265625 
Q 36.765625 34.90625 28.71875 34.90625 
L 20.21875 34.90625 
L 20.21875 43.015625 
L 29.109375 43.015625 
Q 36.375 43.015625 40.234375 45.921875 
Q 44.09375 48.828125 44.09375 54.296875 
Q 44.09375 59.90625 40.109375 62.90625 
Q 36.140625 65.921875 28.71875 65.921875 
Q 24.65625 65.921875 20.015625 65.03125 
Q 15.375 64.15625 9.8125 62.3125 
L 9.8125 71.09375 
Q 15.4375 72.65625 20.34375 73.4375 
Q 25.25 74.21875 29.59375 74.21875 
Q 40.828125 74.21875 47.359375 69.109375 
Q 53.90625 64.015625 53.90625 55.328125 
Q 53.90625 49.265625 50.4375 45.09375 
Q 46.96875 40.921875 40.578125 39.3125 
z
" id="DejaVuSans-51"/>
      </defs>
      <g transform="translate(263.511054 463.158437)scale(0.1 -0.1)">
       <use xlink:href="#DejaVuSans-49"/>
       <use x="63.623047" xlink:href="#DejaVuSans-51"/>
      </g>
     </g>
    </g>
    <g id="xtick_6">
     <g id="line2d_6">
      <g>
       <use style="stroke:#000000;stroke-width:0.8;" x="299.84876" xlink:href="#m34d13d97de" y="448.56"/>
      </g>
     </g>
     <g id="text_6">
      <!-- 14 -->
      <defs>
       <path d="M 37.796875 64.3125 
L 12.890625 25.390625 
L 37.796875 25.390625 
z
M 35.203125 72.90625 
L 47.609375 72.90625 
L 47.609375 25.390625 
L 58.015625 25.390625 
L 58.015625 17.1875 
L 47.609375 17.1875 
L 47.609375 0 
L 37.796875 0 
L 37.796875 17.1875 
L 4.890625 17.1875 
L 4.890625 26.703125 
z
" id="DejaVuSans-52"/>
      </defs>
      <g transform="translate(293.48626 463.158437)scale(0.1 -0.1)">
       <use xlink:href="#DejaVuSans-49"/>
       <use x="63.623047" xlink:href="#DejaVuSans-52"/>
      </g>
     </g>
    </g>
    <g id="xtick_7">
     <g id="line2d_7">
      <g>
       <use style="stroke:#000000;stroke-width:0.8;" x="329.823967" xlink:href="#m34d13d97de" y="448.56"/>
      </g>
     </g>
     <g id="text_7">
      <!-- 15 -->
      <defs>
       <path d="M 10.796875 72.90625 
L 49.515625 72.90625 
L 49.515625 64.59375 
L 19.828125 64.59375 
L 19.828125 46.734375 
Q 21.96875 47.46875 24.109375 47.828125 
Q 26.265625 48.1875 28.421875 48.1875 
Q 40.625 48.1875 47.75 41.5 
Q 54.890625 34.8125 54.890625 23.390625 
Q 54.890625 11.625 47.5625 5.09375 
Q 40.234375 -1.421875 26.90625 -1.421875 
Q 22.3125 -1.421875 17.546875 -0.640625 
Q 12.796875 0.140625 7.71875 1.703125 
L 7.71875 11.625 
Q 12.109375 9.234375 16.796875 8.0625 
Q 21.484375 6.890625 26.703125 6.890625 
Q 35.15625 6.890625 40.078125 11.328125 
Q 45.015625 15.765625 45.015625 23.390625 
Q 45.015625 31 40.078125 35.4375 
Q 35.15625 39.890625 26.703125 39.890625 
Q 22.75 39.890625 18.8125 39.015625 
Q 14.890625 38.140625 10.796875 36.28125 
z
" id="DejaVuSans-53"/>
      </defs>
      <g transform="translate(323.461467 463.158437)scale(0.1 -0.1)">
       <use xlink:href="#DejaVuSans-49"/>
       <use x="63.623047" xlink:href="#DejaVuSans-53"/>
      </g>
     </g>
    </g>
    <g id="xtick_8">
     <g id="line2d_8">
      <g>
       <use style="stroke:#000000;stroke-width:0.8;" x="359.799174" xlink:href="#m34d13d97de" y="448.56"/>
      </g>
     </g>
     <g id="text_8">
      <!-- 16 -->
      <defs>
       <path d="M 33.015625 40.375 
Q 26.375 40.375 22.484375 35.828125 
Q 18.609375 31.296875 18.609375 23.390625 
Q 18.609375 15.53125 22.484375 10.953125 
Q 26.375 6.390625 33.015625 6.390625 
Q 39.65625 6.390625 43.53125 10.953125 
Q 47.40625 15.53125 47.40625 23.390625 
Q 47.40625 31.296875 43.53125 35.828125 
Q 39.65625 40.375 33.015625 40.375 
z
M 52.59375 71.296875 
L 52.59375 62.3125 
Q 48.875 64.0625 45.09375 64.984375 
Q 41.3125 65.921875 37.59375 65.921875 
Q 27.828125 65.921875 22.671875 59.328125 
Q 17.53125 52.734375 16.796875 39.40625 
Q 19.671875 43.65625 24.015625 45.921875 
Q 28.375 48.1875 33.59375 48.1875 
Q 44.578125 48.1875 50.953125 41.515625 
Q 57.328125 34.859375 57.328125 23.390625 
Q 57.328125 12.15625 50.6875 5.359375 
Q 44.046875 -1.421875 33.015625 -1.421875 
Q 20.359375 -1.421875 13.671875 8.265625 
Q 6.984375 17.96875 6.984375 36.375 
Q 6.984375 53.65625 15.1875 63.9375 
Q 23.390625 74.21875 37.203125 74.21875 
Q 40.921875 74.21875 44.703125 73.484375 
Q 48.484375 72.75 52.59375 71.296875 
z
" id="DejaVuSans-54"/>
      </defs>
      <g transform="translate(353.436674 463.158437)scale(0.1 -0.1)">
       <use xlink:href="#DejaVuSans-49"/>
       <use x="63.623047" xlink:href="#DejaVuSans-54"/>
      </g>
     </g>
    </g>
    <g id="xtick_9">
     <g id="line2d_9">
      <g>
       <use style="stroke:#000000;stroke-width:0.8;" x="389.77438" xlink:href="#m34d13d97de" y="448.56"/>
      </g>
     </g>
     <g id="text_9">
      <!-- 17 -->
      <defs>
       <path d="M 8.203125 72.90625 
L 55.078125 72.90625 
L 55.078125 68.703125 
L 28.609375 0 
L 18.3125 0 
L 43.21875 64.59375 
L 8.203125 64.59375 
z
" id="DejaVuSans-55"/>
      </defs>
      <g transform="translate(383.41188 463.158437)scale(0.1 -0.1)">
       <use xlink:href="#DejaVuSans-49"/>
       <use x="63.623047" xlink:href="#DejaVuSans-55"/>
      </g>
     </g>
    </g>
    <g id="xtick_10">
     <g id="line2d_10">
      <g>
       <use style="stroke:#000000;stroke-width:0.8;" x="419.749587" xlink:href="#m34d13d97de" y="448.56"/>
      </g>
     </g>
     <g id="text_10">
      <!-- 18 -->
      <defs>
       <path d="M 31.78125 34.625 
Q 24.75 34.625 20.71875 30.859375 
Q 16.703125 27.09375 16.703125 20.515625 
Q 16.703125 13.921875 20.71875 10.15625 
Q 24.75 6.390625 31.78125 6.390625 
Q 38.8125 6.390625 42.859375 10.171875 
Q 46.921875 13.96875 46.921875 20.515625 
Q 46.921875 27.09375 42.890625 30.859375 
Q 38.875 34.625 31.78125 34.625 
z
M 21.921875 38.8125 
Q 15.578125 40.375 12.03125 44.71875 
Q 8.5 49.078125 8.5 55.328125 
Q 8.5 64.0625 14.71875 69.140625 
Q 20.953125 74.21875 31.78125 74.21875 
Q 42.671875 74.21875 48.875 69.140625 
Q 55.078125 64.0625 55.078125 55.328125 
Q 55.078125 49.078125 51.53125 44.71875 
Q 48 40.375 41.703125 38.8125 
Q 48.828125 37.15625 52.796875 32.3125 
Q 56.78125 27.484375 56.78125 20.515625 
Q 56.78125 9.90625 50.3125 4.234375 
Q 43.84375 -1.421875 31.78125 -1.421875 
Q 19.734375 -1.421875 13.25 4.234375 
Q 6.78125 9.90625 6.78125 20.515625 
Q 6.78125 27.484375 10.78125 32.3125 
Q 14.796875 37.15625 21.921875 38.8125 
z
M 18.3125 54.390625 
Q 18.3125 48.734375 21.84375 45.5625 
Q 25.390625 42.390625 31.78125 42.390625 
Q 38.140625 42.390625 41.71875 45.5625 
Q 45.3125 48.734375 45.3125 54.390625 
Q 45.3125 60.0625 41.71875 63.234375 
Q 38.140625 66.40625 31.78125 66.40625 
Q 25.390625 66.40625 21.84375 63.234375 
Q 18.3125 60.0625 18.3125 54.390625 
z
" id="DejaVuSans-56"/>
      </defs>
      <g transform="translate(413.387087 463.158437)scale(0.1 -0.1)">
       <use xlink:href="#DejaVuSans-49"/>
       <use x="63.623047" xlink:href="#DejaVuSans-56"/>
      </g>
     </g>
    </g>
    <g id="xtick_11">
     <g id="line2d_11">
      <g>
       <use style="stroke:#000000;stroke-width:0.8;" x="449.724793" xlink:href="#m34d13d97de" y="448.56"/>
      </g>
     </g>
     <g id="text_11">
      <!-- 19 -->
      <g transform="translate(443.362293 463.158437)scale(0.1 -0.1)">
       <use xlink:href="#DejaVuSans-49"/>
       <use x="63.623047" xlink:href="#DejaVuSans-57"/>
      </g>
     </g>
    </g>
    <g id="xtick_12">
     <g id="line2d_12">
      <g>
       <use style="stroke:#000000;stroke-width:0.8;" x="479.7" xlink:href="#m34d13d97de" y="448.56"/>
      </g>
     </g>
     <g id="text_12">
      <!-- 20 -->
      <g transform="translate(473.3375 463.158437)scale(0.1 -0.1)">
       <use xlink:href="#DejaVuSans-50"/>
       <use x="63.623047" xlink:href="#DejaVuSans-48"/>
      </g>
     </g>
    </g>
    <g id="xtick_13">
     <g id="line2d_13">
      <g>
       <use style="stroke:#000000;stroke-width:0.8;" x="509.675207" xlink:href="#m34d13d97de" y="448.56"/>
      </g>
     </g>
     <g id="text_13">
      <!-- 21 -->
      <g transform="translate(503.312707 463.158437)scale(0.1 -0.1)">
       <use xlink:href="#DejaVuSans-50"/>
       <use x="63.623047" xlink:href="#DejaVuSans-49"/>
      </g>
     </g>
    </g>
    <g id="xtick_14">
     <g id="line2d_14">
      <g>
       <use style="stroke:#000000;stroke-width:0.8;" x="539.650413" xlink:href="#m34d13d97de" y="448.56"/>
      </g>
     </g>
     <g id="text_14">
      <!-- 22 -->
      <g transform="translate(533.287913 463.158437)scale(0.1 -0.1)">
       <use xlink:href="#DejaVuSans-50"/>
       <use x="63.623047" xlink:href="#DejaVuSans-50"/>
      </g>
     </g>
    </g>
    <g id="xtick_15">
     <g id="line2d_15">
      <g>
       <use style="stroke:#000000;stroke-width:0.8;" x="569.62562" xlink:href="#m34d13d97de" y="448.56"/>
      </g>
     </g>
     <g id="text_15">
      <!-- 23 -->
      <g transform="translate(563.26312 463.158437)scale(0.1 -0.1)">
       <use xlink:href="#DejaVuSans-50"/>
       <use x="63.623047" xlink:href="#DejaVuSans-51"/>
      </g>
     </g>
    </g>
    <g id="xtick_16">
     <g id="line2d_16">
      <g>
       <use style="stroke:#000000;stroke-width:0.8;" x="599.600826" xlink:href="#m34d13d97de" y="448.56"/>
      </g>
     </g>
     <g id="text_16">
      <!-- 24 -->
      <g transform="translate(593.238326 463.158437)scale(0.1 -0.1)">
       <use xlink:href="#DejaVuSans-50"/>
       <use x="63.623047" xlink:href="#DejaVuSans-52"/>
      </g>
     </g>
    </g>
    <g id="xtick_17">
     <g id="line2d_17">
      <g>
       <use style="stroke:#000000;stroke-width:0.8;" x="629.576033" xlink:href="#m34d13d97de" y="448.56"/>
      </g>
     </g>
     <g id="text_17">
      <!-- 25 -->
      <g transform="translate(623.213533 463.158437)scale(0.1 -0.1)">
       <use xlink:href="#DejaVuSans-50"/>
       <use x="63.623047" xlink:href="#DejaVuSans-53"/>
      </g>
     </g>
    </g>
    <g id="xtick_18">
     <g id="line2d_18">
      <g>
       <use style="stroke:#000000;stroke-width:0.8;" x="659.55124" xlink:href="#m34d13d97de" y="448.56"/>
      </g>
     </g>
     <g id="text_18">
      <!-- 26 -->
      <g transform="translate(653.18874 463.158437)scale(0.1 -0.1)">
       <use xlink:href="#DejaVuSans-50"/>
       <use x="63.623047" xlink:href="#DejaVuSans-54"/>
      </g>
     </g>
    </g>
    <g id="xtick_19">
     <g id="line2d_19">
      <g>
       <use style="stroke:#000000;stroke-width:0.8;" x="689.526446" xlink:href="#m34d13d97de" y="448.56"/>
      </g>
     </g>
     <g id="text_19">
      <!-- 27 -->
      <g transform="translate(683.163946 463.158437)scale(0.1 -0.1)">
       <use xlink:href="#DejaVuSans-50"/>
       <use x="63.623047" xlink:href="#DejaVuSans-55"/>
      </g>
     </g>
    </g>
    <g id="xtick_20">
     <g id="line2d_20">
      <g>
       <use style="stroke:#000000;stroke-width:0.8;" x="719.501653" xlink:href="#m34d13d97de" y="448.56"/>
      </g>
     </g>
     <g id="text_20">
      <!-- 28 -->
      <g transform="translate(713.139153 463.158437)scale(0.1 -0.1)">
       <use xlink:href="#DejaVuSans-50"/>
       <use x="63.623047" xlink:href="#DejaVuSans-56"/>
      </g>
     </g>
    </g>
    <g id="xtick_21">
     <g id="line2d_21">
      <g>
       <use style="stroke:#000000;stroke-width:0.8;" x="749.47686" xlink:href="#m34d13d97de" y="448.56"/>
      </g>
     </g>
     <g id="text_21">
      <!-- 29 -->
      <g transform="translate(743.11436 463.158437)scale(0.1 -0.1)">
       <use xlink:href="#DejaVuSans-50"/>
       <use x="63.623047" xlink:href="#DejaVuSans-57"/>
      </g>
     </g>
    </g>
    <g id="xtick_22">
     <g id="line2d_22">
      <g>
       <use style="stroke:#000000;stroke-width:0.8;" x="779.452066" xlink:href="#m34d13d97de" y="448.56"/>
      </g>
     </g>
     <g id="text_22">
      <!-- 30 -->
      <g transform="translate(773.089566 463.158437)scale(0.1 -0.1)">
       <use xlink:href="#DejaVuSans-51"/>
       <use x="63.623047" xlink:href="#DejaVuSans-48"/>
      </g>
     </g>
    </g>
    <g id="xtick_23">
     <g id="line2d_23">
      <g>
       <use style="stroke:#000000;stroke-width:0.8;" x="809.427273" xlink:href="#m34d13d97de" y="448.56"/>
      </g>
     </g>
     <g id="text_23">
      <!-- 31 -->
      <g transform="translate(803.064773 463.158437)scale(0.1 -0.1)">
       <use xlink:href="#DejaVuSans-51"/>
       <use x="63.623047" xlink:href="#DejaVuSans-49"/>
      </g>
     </g>
    </g>
    <g id="text_24">
     <!-- Semana Epidemiológica -->
     <defs>
      <path d="M 53.515625 70.515625 
L 53.515625 60.890625 
Q 47.90625 63.578125 42.921875 64.890625 
Q 37.9375 66.21875 33.296875 66.21875 
Q 25.25 66.21875 20.875 63.09375 
Q 16.5 59.96875 16.5 54.203125 
Q 16.5 49.359375 19.40625 46.890625 
Q 22.3125 44.4375 30.421875 42.921875 
L 36.375 41.703125 
Q 47.40625 39.59375 52.65625 34.296875 
Q 57.90625 29 57.90625 20.125 
Q 57.90625 9.515625 50.796875 4.046875 
Q 43.703125 -1.421875 29.984375 -1.421875 
Q 24.8125 -1.421875 18.96875 -0.25 
Q 13.140625 0.921875 6.890625 3.21875 
L 6.890625 13.375 
Q 12.890625 10.015625 18.65625 8.296875 
Q 24.421875 6.59375 29.984375 6.59375 
Q 38.421875 6.59375 43.015625 9.90625 
Q 47.609375 13.234375 47.609375 19.390625 
Q 47.609375 24.75 44.3125 27.78125 
Q 41.015625 30.8125 33.5 32.328125 
L 27.484375 33.5 
Q 16.453125 35.6875 11.515625 40.375 
Q 6.59375 45.0625 6.59375 53.421875 
Q 6.59375 63.09375 13.40625 68.65625 
Q 20.21875 74.21875 32.171875 74.21875 
Q 37.3125 74.21875 42.625 73.28125 
Q 47.953125 72.359375 53.515625 70.515625 
z
" id="DejaVuSans-83"/>
      <path d="M 56.203125 29.59375 
L 56.203125 25.203125 
L 14.890625 25.203125 
Q 15.484375 15.921875 20.484375 11.0625 
Q 25.484375 6.203125 34.421875 6.203125 
Q 39.59375 6.203125 44.453125 7.46875 
Q 49.3125 8.734375 54.109375 11.28125 
L 54.109375 2.78125 
Q 49.265625 0.734375 44.1875 -0.34375 
Q 39.109375 -1.421875 33.890625 -1.421875 
Q 20.796875 -1.421875 13.15625 6.1875 
Q 5.515625 13.8125 5.515625 26.8125 
Q 5.515625 40.234375 12.765625 48.109375 
Q 20.015625 56 32.328125 56 
Q 43.359375 56 49.78125 48.890625 
Q 56.203125 41.796875 56.203125 29.59375 
z
M 47.21875 32.234375 
Q 47.125 39.59375 43.09375 43.984375 
Q 39.0625 48.390625 32.421875 48.390625 
Q 24.90625 48.390625 20.390625 44.140625 
Q 15.875 39.890625 15.1875 32.171875 
z
" id="DejaVuSans-101"/>
      <path d="M 52 44.1875 
Q 55.375 50.25 60.0625 53.125 
Q 64.75 56 71.09375 56 
Q 79.640625 56 84.28125 50.015625 
Q 88.921875 44.046875 88.921875 33.015625 
L 88.921875 0 
L 79.890625 0 
L 79.890625 32.71875 
Q 79.890625 40.578125 77.09375 44.375 
Q 74.3125 48.1875 68.609375 48.1875 
Q 61.625 48.1875 57.5625 43.546875 
Q 53.515625 38.921875 53.515625 30.90625 
L 53.515625 0 
L 44.484375 0 
L 44.484375 32.71875 
Q 44.484375 40.625 41.703125 44.40625 
Q 38.921875 48.1875 33.109375 48.1875 
Q 26.21875 48.1875 22.15625 43.53125 
Q 18.109375 38.875 18.109375 30.90625 
L 18.109375 0 
L 9.078125 0 
L 9.078125 54.6875 
L 18.109375 54.6875 
L 18.109375 46.1875 
Q 21.1875 51.21875 25.484375 53.609375 
Q 29.78125 56 35.6875 56 
Q 41.65625 56 45.828125 52.96875 
Q 50 49.953125 52 44.1875 
z
" id="DejaVuSans-109"/>
      <path d="M 34.28125 27.484375 
Q 23.390625 27.484375 19.1875 25 
Q 14.984375 22.515625 14.984375 16.5 
Q 14.984375 11.71875 18.140625 8.90625 
Q 21.296875 6.109375 26.703125 6.109375 
Q 34.1875 6.109375 38.703125 11.40625 
Q 43.21875 16.703125 43.21875 25.484375 
L 43.21875 27.484375 
z
M 52.203125 31.203125 
L 52.203125 0 
L 43.21875 0 
L 43.21875 8.296875 
Q 40.140625 3.328125 35.546875 0.953125 
Q 30.953125 -1.421875 24.3125 -1.421875 
Q 15.921875 -1.421875 10.953125 3.296875 
Q 6 8.015625 6 15.921875 
Q 6 25.140625 12.171875 29.828125 
Q 18.359375 34.515625 30.609375 34.515625 
L 43.21875 34.515625 
L 43.21875 35.40625 
Q 43.21875 41.609375 39.140625 45 
Q 35.0625 48.390625 27.6875 48.390625 
Q 23 48.390625 18.546875 47.265625 
Q 14.109375 46.140625 10.015625 43.890625 
L 10.015625 52.203125 
Q 14.9375 54.109375 19.578125 55.046875 
Q 24.21875 56 28.609375 56 
Q 40.484375 56 46.34375 49.84375 
Q 52.203125 43.703125 52.203125 31.203125 
z
" id="DejaVuSans-97"/>
      <path d="M 54.890625 33.015625 
L 54.890625 0 
L 45.90625 0 
L 45.90625 32.71875 
Q 45.90625 40.484375 42.875 44.328125 
Q 39.84375 48.1875 33.796875 48.1875 
Q 26.515625 48.1875 22.3125 43.546875 
Q 18.109375 38.921875 18.109375 30.90625 
L 18.109375 0 
L 9.078125 0 
L 9.078125 54.6875 
L 18.109375 54.6875 
L 18.109375 46.1875 
Q 21.34375 51.125 25.703125 53.5625 
Q 30.078125 56 35.796875 56 
Q 45.21875 56 50.046875 50.171875 
Q 54.890625 44.34375 54.890625 33.015625 
z
" id="DejaVuSans-110"/>
      <path id="DejaVuSans-32"/>
      <path d="M 9.8125 72.90625 
L 55.90625 72.90625 
L 55.90625 64.59375 
L 19.671875 64.59375 
L 19.671875 43.015625 
L 54.390625 43.015625 
L 54.390625 34.71875 
L 19.671875 34.71875 
L 19.671875 8.296875 
L 56.78125 8.296875 
L 56.78125 0 
L 9.8125 0 
z
" id="DejaVuSans-69"/>
      <path d="M 18.109375 8.203125 
L 18.109375 -20.796875 
L 9.078125 -20.796875 
L 9.078125 54.6875 
L 18.109375 54.6875 
L 18.109375 46.390625 
Q 20.953125 51.265625 25.265625 53.625 
Q 29.59375 56 35.59375 56 
Q 45.5625 56 51.78125 48.09375 
Q 58.015625 40.1875 58.015625 27.296875 
Q 58.015625 14.40625 51.78125 6.484375 
Q 45.5625 -1.421875 35.59375 -1.421875 
Q 29.59375 -1.421875 25.265625 0.953125 
Q 20.953125 3.328125 18.109375 8.203125 
z
M 48.6875 27.296875 
Q 48.6875 37.203125 44.609375 42.84375 
Q 40.53125 48.484375 33.40625 48.484375 
Q 26.265625 48.484375 22.1875 42.84375 
Q 18.109375 37.203125 18.109375 27.296875 
Q 18.109375 17.390625 22.1875 11.75 
Q 26.265625 6.109375 33.40625 6.109375 
Q 40.53125 6.109375 44.609375 11.75 
Q 48.6875 17.390625 48.6875 27.296875 
z
" id="DejaVuSans-112"/>
      <path d="M 9.421875 54.6875 
L 18.40625 54.6875 
L 18.40625 0 
L 9.421875 0 
z
M 9.421875 75.984375 
L 18.40625 75.984375 
L 18.40625 64.59375 
L 9.421875 64.59375 
z
" id="DejaVuSans-105"/>
      <path d="M 45.40625 46.390625 
L 45.40625 75.984375 
L 54.390625 75.984375 
L 54.390625 0 
L 45.40625 0 
L 45.40625 8.203125 
Q 42.578125 3.328125 38.25 0.953125 
Q 33.9375 -1.421875 27.875 -1.421875 
Q 17.96875 -1.421875 11.734375 6.484375 
Q 5.515625 14.40625 5.515625 27.296875 
Q 5.515625 40.1875 11.734375 48.09375 
Q 17.96875 56 27.875 56 
Q 33.9375 56 38.25 53.625 
Q 42.578125 51.265625 45.40625 46.390625 
z
M 14.796875 27.296875 
Q 14.796875 17.390625 18.875 11.75 
Q 22.953125 6.109375 30.078125 6.109375 
Q 37.203125 6.109375 41.296875 11.75 
Q 45.40625 17.390625 45.40625 27.296875 
Q 45.40625 37.203125 41.296875 42.84375 
Q 37.203125 48.484375 30.078125 48.484375 
Q 22.953125 48.484375 18.875 42.84375 
Q 14.796875 37.203125 14.796875 27.296875 
z
" id="DejaVuSans-100"/>
      <path d="M 30.609375 48.390625 
Q 23.390625 48.390625 19.1875 42.75 
Q 14.984375 37.109375 14.984375 27.296875 
Q 14.984375 17.484375 19.15625 11.84375 
Q 23.34375 6.203125 30.609375 6.203125 
Q 37.796875 6.203125 41.984375 11.859375 
Q 46.1875 17.53125 46.1875 27.296875 
Q 46.1875 37.015625 41.984375 42.703125 
Q 37.796875 48.390625 30.609375 48.390625 
z
M 30.609375 56 
Q 42.328125 56 49.015625 48.375 
Q 55.71875 40.765625 55.71875 27.296875 
Q 55.71875 13.875 49.015625 6.21875 
Q 42.328125 -1.421875 30.609375 -1.421875 
Q 18.84375 -1.421875 12.171875 6.21875 
Q 5.515625 13.875 5.515625 27.296875 
Q 5.515625 40.765625 12.171875 48.375 
Q 18.84375 56 30.609375 56 
z
" id="DejaVuSans-111"/>
      <path d="M 9.421875 75.984375 
L 18.40625 75.984375 
L 18.40625 0 
L 9.421875 0 
z
" id="DejaVuSans-108"/>
      <path d="M 30.609375 48.390625 
Q 23.390625 48.390625 19.1875 42.75 
Q 14.984375 37.109375 14.984375 27.296875 
Q 14.984375 17.484375 19.15625 11.84375 
Q 23.34375 6.203125 30.609375 6.203125 
Q 37.796875 6.203125 41.984375 11.859375 
Q 46.1875 17.53125 46.1875 27.296875 
Q 46.1875 37.015625 41.984375 42.703125 
Q 37.796875 48.390625 30.609375 48.390625 
z
M 30.609375 56 
Q 42.328125 56 49.015625 48.375 
Q 55.71875 40.765625 55.71875 27.296875 
Q 55.71875 13.875 49.015625 6.21875 
Q 42.328125 -1.421875 30.609375 -1.421875 
Q 18.84375 -1.421875 12.171875 6.21875 
Q 5.515625 13.875 5.515625 27.296875 
Q 5.515625 40.765625 12.171875 48.375 
Q 18.84375 56 30.609375 56 
z
M 37.40625 79.984375 
L 47.125 79.984375 
L 31.203125 61.625 
L 23.734375 61.625 
z
" id="DejaVuSans-243"/>
      <path d="M 45.40625 27.984375 
Q 45.40625 37.75 41.375 43.109375 
Q 37.359375 48.484375 30.078125 48.484375 
Q 22.859375 48.484375 18.828125 43.109375 
Q 14.796875 37.75 14.796875 27.984375 
Q 14.796875 18.265625 18.828125 12.890625 
Q 22.859375 7.515625 30.078125 7.515625 
Q 37.359375 7.515625 41.375 12.890625 
Q 45.40625 18.265625 45.40625 27.984375 
z
M 54.390625 6.78125 
Q 54.390625 -7.171875 48.1875 -13.984375 
Q 42 -20.796875 29.203125 -20.796875 
Q 24.46875 -20.796875 20.265625 -20.09375 
Q 16.0625 -19.390625 12.109375 -17.921875 
L 12.109375 -9.1875 
Q 16.0625 -11.328125 19.921875 -12.34375 
Q 23.78125 -13.375 27.78125 -13.375 
Q 36.625 -13.375 41.015625 -8.765625 
Q 45.40625 -4.15625 45.40625 5.171875 
L 45.40625 9.625 
Q 42.625 4.78125 38.28125 2.390625 
Q 33.9375 0 27.875 0 
Q 17.828125 0 11.671875 7.65625 
Q 5.515625 15.328125 5.515625 27.984375 
Q 5.515625 40.671875 11.671875 48.328125 
Q 17.828125 56 27.875 56 
Q 33.9375 56 38.28125 53.609375 
Q 42.625 51.21875 45.40625 46.390625 
L 45.40625 54.6875 
L 54.390625 54.6875 
z
" id="DejaVuSans-103"/>
      <path d="M 48.78125 52.59375 
L 48.78125 44.1875 
Q 44.96875 46.296875 41.140625 47.34375 
Q 37.3125 48.390625 33.40625 48.390625 
Q 24.65625 48.390625 19.8125 42.84375 
Q 14.984375 37.3125 14.984375 27.296875 
Q 14.984375 17.28125 19.8125 11.734375 
Q 24.65625 6.203125 33.40625 6.203125 
Q 37.3125 6.203125 41.140625 7.25 
Q 44.96875 8.296875 48.78125 10.40625 
L 48.78125 2.09375 
Q 45.015625 0.34375 40.984375 -0.53125 
Q 36.96875 -1.421875 32.421875 -1.421875 
Q 20.0625 -1.421875 12.78125 6.34375 
Q 5.515625 14.109375 5.515625 27.296875 
Q 5.515625 40.671875 12.859375 48.328125 
Q 20.21875 56 33.015625 56 
Q 37.15625 56 41.109375 55.140625 
Q 45.0625 54.296875 48.78125 52.59375 
z
" id="DejaVuSans-99"/>
     </defs>
     <g transform="translate(419.575781 477.236562)scale(0.1 -0.1)">
      <use xlink:href="#DejaVuSans-83"/>
      <use x="63.476562" xlink:href="#DejaVuSans-101"/>
      <use x="125" xlink:href="#DejaVuSans-109"/>
      <use x="222.412109" xlink:href="#DejaVuSans-97"/>
      <use x="283.691406" xlink:href="#DejaVuSans-110"/>
      <use x="347.070312" xlink:href="#DejaVuSans-97"/>
      <use x="408.349609" xlink:href="#DejaVuSans-32"/>
      <use x="440.136719" xlink:href="#DejaVuSans-69"/>
      <use x="503.320312" xlink:href="#DejaVuSans-112"/>
      <use x="566.796875" xlink:href="#DejaVuSans-105"/>
      <use x="594.580078" xlink:href="#DejaVuSans-100"/>
      <use x="658.056641" xlink:href="#DejaVuSans-101"/>
      <use x="719.580078" xlink:href="#DejaVuSans-109"/>
      <use x="816.992188" xlink:href="#DejaVuSans-105"/>
      <use x="844.775391" xlink:href="#DejaVuSans-111"/>
      <use x="905.957031" xlink:href="#DejaVuSans-108"/>
      <use x="933.740234" xlink:href="#DejaVuSans-243"/>
      <use x="994.921875" xlink:href="#DejaVuSans-103"/>
      <use x="1058.398438" xlink:href="#DejaVuSans-105"/>
      <use x="1086.181641" xlink:href="#DejaVuSans-99"/>
      <use x="1141.162109" xlink:href="#DejaVuSans-97"/>
     </g>
    </g>
   </g>
   <g id="matplotlib.axis_2">
    <g id="ytick_1">
     <g id="line2d_24">
      <defs>
       <path d="M 0 0 
L -3.5 0 
" id="m786703ffc3" style="stroke:#000000;stroke-width:0.8;"/>
      </defs>
      <g>
       <use style="stroke:#000000;stroke-width:0.8;" x="117" xlink:href="#m786703ffc3" y="430.92"/>
      </g>
     </g>
     <g id="text_25">
      <!-- 0 -->
      <g transform="translate(103.6375 434.719219)scale(0.1 -0.1)">
       <use xlink:href="#DejaVuSans-48"/>
      </g>
     </g>
    </g>
    <g id="ytick_2">
     <g id="line2d_25">
      <g>
       <use style="stroke:#000000;stroke-width:0.8;" x="117" xlink:href="#m786703ffc3" y="365.539447"/>
      </g>
     </g>
     <g id="text_26">
      <!-- 20000 -->
      <g transform="translate(78.1875 369.338666)scale(0.1 -0.1)">
       <use xlink:href="#DejaVuSans-50"/>
       <use x="63.623047" xlink:href="#DejaVuSans-48"/>
       <use x="127.246094" xlink:href="#DejaVuSans-48"/>
       <use x="190.869141" xlink:href="#DejaVuSans-48"/>
       <use x="254.492188" xlink:href="#DejaVuSans-48"/>
      </g>
     </g>
    </g>
    <g id="ytick_3">
     <g id="line2d_26">
      <g>
       <use style="stroke:#000000;stroke-width:0.8;" x="117" xlink:href="#m786703ffc3" y="300.158895"/>
      </g>
     </g>
     <g id="text_27">
      <!-- 40000 -->
      <g transform="translate(78.1875 303.958114)scale(0.1 -0.1)">
       <use xlink:href="#DejaVuSans-52"/>
       <use x="63.623047" xlink:href="#DejaVuSans-48"/>
       <use x="127.246094" xlink:href="#DejaVuSans-48"/>
       <use x="190.869141" xlink:href="#DejaVuSans-48"/>
       <use x="254.492188" xlink:href="#DejaVuSans-48"/>
      </g>
     </g>
    </g>
    <g id="ytick_4">
     <g id="line2d_27">
      <g>
       <use style="stroke:#000000;stroke-width:0.8;" x="117" xlink:href="#m786703ffc3" y="234.778342"/>
      </g>
     </g>
     <g id="text_28">
      <!-- 60000 -->
      <g transform="translate(78.1875 238.577561)scale(0.1 -0.1)">
       <use xlink:href="#DejaVuSans-54"/>
       <use x="63.623047" xlink:href="#DejaVuSans-48"/>
       <use x="127.246094" xlink:href="#DejaVuSans-48"/>
       <use x="190.869141" xlink:href="#DejaVuSans-48"/>
       <use x="254.492188" xlink:href="#DejaVuSans-48"/>
      </g>
     </g>
    </g>
    <g id="ytick_5">
     <g id="line2d_28">
      <g>
       <use style="stroke:#000000;stroke-width:0.8;" x="117" xlink:href="#m786703ffc3" y="169.39779"/>
      </g>
     </g>
     <g id="text_29">
      <!-- 80000 -->
      <g transform="translate(78.1875 173.197008)scale(0.1 -0.1)">
       <use xlink:href="#DejaVuSans-56"/>
       <use x="63.623047" xlink:href="#DejaVuSans-48"/>
       <use x="127.246094" xlink:href="#DejaVuSans-48"/>
       <use x="190.869141" xlink:href="#DejaVuSans-48"/>
       <use x="254.492188" xlink:href="#DejaVuSans-48"/>
      </g>
     </g>
    </g>
    <g id="ytick_6">
     <g id="line2d_29">
      <g>
       <use style="stroke:#000000;stroke-width:0.8;" x="117" xlink:href="#m786703ffc3" y="104.017237"/>
      </g>
     </g>
     <g id="text_30">
      <!-- 100000 -->
      <g transform="translate(71.825 107.816456)scale(0.1 -0.1)">
       <use xlink:href="#DejaVuSans-49"/>
       <use x="63.623047" xlink:href="#DejaVuSans-48"/>
       <use x="127.246094" xlink:href="#DejaVuSans-48"/>
       <use x="190.869141" xlink:href="#DejaVuSans-48"/>
       <use x="254.492188" xlink:href="#DejaVuSans-48"/>
       <use x="318.115234" xlink:href="#DejaVuSans-48"/>
      </g>
     </g>
    </g>
    <g id="text_31">
     <!-- Número de Casos Acumulados -->
     <defs>
      <path d="M 9.8125 72.90625 
L 23.09375 72.90625 
L 55.421875 11.921875 
L 55.421875 72.90625 
L 64.984375 72.90625 
L 64.984375 0 
L 51.703125 0 
L 19.390625 60.984375 
L 19.390625 0 
L 9.8125 0 
z
" id="DejaVuSans-78"/>
      <path d="M 8.5 21.578125 
L 8.5 54.6875 
L 17.484375 54.6875 
L 17.484375 21.921875 
Q 17.484375 14.15625 20.5 10.265625 
Q 23.53125 6.390625 29.59375 6.390625 
Q 36.859375 6.390625 41.078125 11.03125 
Q 45.3125 15.671875 45.3125 23.6875 
L 45.3125 54.6875 
L 54.296875 54.6875 
L 54.296875 0 
L 45.3125 0 
L 45.3125 8.40625 
Q 42.046875 3.421875 37.71875 1 
Q 33.40625 -1.421875 27.6875 -1.421875 
Q 18.265625 -1.421875 13.375 4.4375 
Q 8.5 10.296875 8.5 21.578125 
z
M 31.109375 56 
z
M 37.796875 79.984375 
L 47.515625 79.984375 
L 31.59375 61.625 
L 24.125 61.625 
z
" id="DejaVuSans-250"/>
      <path d="M 41.109375 46.296875 
Q 39.59375 47.171875 37.8125 47.578125 
Q 36.03125 48 33.890625 48 
Q 26.265625 48 22.1875 43.046875 
Q 18.109375 38.09375 18.109375 28.8125 
L 18.109375 0 
L 9.078125 0 
L 9.078125 54.6875 
L 18.109375 54.6875 
L 18.109375 46.1875 
Q 20.953125 51.171875 25.484375 53.578125 
Q 30.03125 56 36.53125 56 
Q 37.453125 56 38.578125 55.875 
Q 39.703125 55.765625 41.0625 55.515625 
z
" id="DejaVuSans-114"/>
      <path d="M 64.40625 67.28125 
L 64.40625 56.890625 
Q 59.421875 61.53125 53.78125 63.8125 
Q 48.140625 66.109375 41.796875 66.109375 
Q 29.296875 66.109375 22.65625 58.46875 
Q 16.015625 50.828125 16.015625 36.375 
Q 16.015625 21.96875 22.65625 14.328125 
Q 29.296875 6.6875 41.796875 6.6875 
Q 48.140625 6.6875 53.78125 8.984375 
Q 59.421875 11.28125 64.40625 15.921875 
L 64.40625 5.609375 
Q 59.234375 2.09375 53.4375 0.328125 
Q 47.65625 -1.421875 41.21875 -1.421875 
Q 24.65625 -1.421875 15.125 8.703125 
Q 5.609375 18.84375 5.609375 36.375 
Q 5.609375 53.953125 15.125 64.078125 
Q 24.65625 74.21875 41.21875 74.21875 
Q 47.75 74.21875 53.53125 72.484375 
Q 59.328125 70.75 64.40625 67.28125 
z
" id="DejaVuSans-67"/>
      <path d="M 44.28125 53.078125 
L 44.28125 44.578125 
Q 40.484375 46.53125 36.375 47.5 
Q 32.28125 48.484375 27.875 48.484375 
Q 21.1875 48.484375 17.84375 46.4375 
Q 14.5 44.390625 14.5 40.28125 
Q 14.5 37.15625 16.890625 35.375 
Q 19.28125 33.59375 26.515625 31.984375 
L 29.59375 31.296875 
Q 39.15625 29.25 43.1875 25.515625 
Q 47.21875 21.78125 47.21875 15.09375 
Q 47.21875 7.46875 41.1875 3.015625 
Q 35.15625 -1.421875 24.609375 -1.421875 
Q 20.21875 -1.421875 15.453125 -0.5625 
Q 10.6875 0.296875 5.421875 2 
L 5.421875 11.28125 
Q 10.40625 8.6875 15.234375 7.390625 
Q 20.0625 6.109375 24.8125 6.109375 
Q 31.15625 6.109375 34.5625 8.28125 
Q 37.984375 10.453125 37.984375 14.40625 
Q 37.984375 18.0625 35.515625 20.015625 
Q 33.0625 21.96875 24.703125 23.78125 
L 21.578125 24.515625 
Q 13.234375 26.265625 9.515625 29.90625 
Q 5.8125 33.546875 5.8125 39.890625 
Q 5.8125 47.609375 11.28125 51.796875 
Q 16.75 56 26.8125 56 
Q 31.78125 56 36.171875 55.265625 
Q 40.578125 54.546875 44.28125 53.078125 
z
" id="DejaVuSans-115"/>
      <path d="M 34.1875 63.1875 
L 20.796875 26.90625 
L 47.609375 26.90625 
z
M 28.609375 72.90625 
L 39.796875 72.90625 
L 67.578125 0 
L 57.328125 0 
L 50.6875 18.703125 
L 17.828125 18.703125 
L 11.1875 0 
L 0.78125 0 
z
" id="DejaVuSans-65"/>
      <path d="M 8.5 21.578125 
L 8.5 54.6875 
L 17.484375 54.6875 
L 17.484375 21.921875 
Q 17.484375 14.15625 20.5 10.265625 
Q 23.53125 6.390625 29.59375 6.390625 
Q 36.859375 6.390625 41.078125 11.03125 
Q 45.3125 15.671875 45.3125 23.6875 
L 45.3125 54.6875 
L 54.296875 54.6875 
L 54.296875 0 
L 45.3125 0 
L 45.3125 8.40625 
Q 42.046875 3.421875 37.71875 1 
Q 33.40625 -1.421875 27.6875 -1.421875 
Q 18.265625 -1.421875 13.375 4.4375 
Q 8.5 10.296875 8.5 21.578125 
z
M 31.109375 56 
z
" id="DejaVuSans-117"/>
     </defs>
     <g transform="translate(65.745312 330.999687)rotate(-90)scale(0.1 -0.1)">
      <use xlink:href="#DejaVuSans-78"/>
      <use x="74.804688" xlink:href="#DejaVuSans-250"/>
      <use x="138.183594" xlink:href="#DejaVuSans-109"/>
      <use x="235.595703" xlink:href="#DejaVuSans-101"/>
      <use x="297.119141" xlink:href="#DejaVuSans-114"/>
      <use x="338.201172" xlink:href="#DejaVuSans-111"/>
      <use x="399.382812" xlink:href="#DejaVuSans-32"/>
      <use x="431.169922" xlink:href="#DejaVuSans-100"/>
      <use x="494.646484" xlink:href="#DejaVuSans-101"/>
      <use x="556.169922" xlink:href="#DejaVuSans-32"/>
      <use x="587.957031" xlink:href="#DejaVuSans-67"/>
      <use x="657.78125" xlink:href="#DejaVuSans-97"/>
      <use x="719.060547" xlink:href="#DejaVuSans-115"/>
      <use x="771.160156" xlink:href="#DejaVuSans-111"/>
      <use x="832.341797" xlink:href="#DejaVuSans-115"/>
      <use x="884.441406" xlink:href="#DejaVuSans-32"/>
      <use x="916.228516" xlink:href="#DejaVuSans-65"/>
      <use x="984.621094" xlink:href="#DejaVuSans-99"/>
      <use x="1039.601562" xlink:href="#DejaVuSans-117"/>
      <use x="1102.980469" xlink:href="#DejaVuSans-109"/>
      <use x="1200.392578" xlink:href="#DejaVuSans-117"/>
      <use x="1263.771484" xlink:href="#DejaVuSans-108"/>
      <use x="1291.554688" xlink:href="#DejaVuSans-97"/>
      <use x="1352.833984" xlink:href="#DejaVuSans-100"/>
      <use x="1416.310547" xlink:href="#DejaVuSans-111"/>
      <use x="1477.492188" xlink:href="#DejaVuSans-115"/>
     </g>
    </g>
   </g>
   <g id="line2d_30">
    <path clip-path="url(#p1d709f5316)" d="M 149.972727 430.92 
L 179.947934 430.92 
L 209.92314 430.906924 
L 239.898347 430.857888 
L 269.873554 430.736934 
L 299.84876 430.58329 
L 329.823967 430.236773 
L 359.799174 429.684308 
L 389.77438 429.265872 
L 419.749587 428.223052 
L 449.724793 427.425409 
L 479.7 425.519566 
L 509.675207 422.959918 
L 539.650413 419.122079 
L 569.62562 412.057711 
L 599.600826 404.960652 
L 629.576033 380.413523 
L 659.55124 359.442711 
L 689.526446 337.667718 
L 719.501653 312.342561 
L 749.47686 297.648282 
L 779.452066 249.269942 
L 809.427273 202.676491 
" style="fill:none;stroke:#1f77b4;stroke-linecap:square;stroke-width:1.5;"/>
    <defs>
     <path d="M 0 3 
C 0.795609 3 1.55874 2.683901 2.12132 2.12132 
C 2.683901 1.55874 3 0.795609 3 0 
C 3 -0.795609 2.683901 -1.55874 2.12132 -2.12132 
C 1.55874 -2.683901 0.795609 -3 0 -3 
C -0.795609 -3 -1.55874 -2.683901 -2.12132 -2.12132 
C -2.683901 -1.55874 -3 -0.795609 -3 0 
C -3 0.795609 -2.683901 1.55874 -2.12132 2.12132 
C -1.55874 2.683901 -0.795609 3 0 3 
z
" id="m341e4de07d" style="stroke:#1f77b4;"/>
    </defs>
    <g clip-path="url(#p1d709f5316)">
     <use style="fill:#1f77b4;stroke:#1f77b4;" x="149.972727" xlink:href="#m341e4de07d" y="430.92"/>
     <use style="fill:#1f77b4;stroke:#1f77b4;" x="179.947934" xlink:href="#m341e4de07d" y="430.92"/>
     <use style="fill:#1f77b4;stroke:#1f77b4;" x="209.92314" xlink:href="#m341e4de07d" y="430.906924"/>
     <use style="fill:#1f77b4;stroke:#1f77b4;" x="239.898347" xlink:href="#m341e4de07d" y="430.857888"/>
     <use style="fill:#1f77b4;stroke:#1f77b4;" x="269.873554" xlink:href="#m341e4de07d" y="430.736934"/>
     <use style="fill:#1f77b4;stroke:#1f77b4;" x="299.84876" xlink:href="#m341e4de07d" y="430.58329"/>
     <use style="fill:#1f77b4;stroke:#1f77b4;" x="329.823967" xlink:href="#m341e4de07d" y="430.236773"/>
     <use style="fill:#1f77b4;stroke:#1f77b4;" x="359.799174" xlink:href="#m341e4de07d" y="429.684308"/>
     <use style="fill:#1f77b4;stroke:#1f77b4;" x="389.77438" xlink:href="#m341e4de07d" y="429.265872"/>
     <use style="fill:#1f77b4;stroke:#1f77b4;" x="419.749587" xlink:href="#m341e4de07d" y="428.223052"/>
     <use style="fill:#1f77b4;stroke:#1f77b4;" x="449.724793" xlink:href="#m341e4de07d" y="427.425409"/>
     <use style="fill:#1f77b4;stroke:#1f77b4;" x="479.7" xlink:href="#m341e4de07d" y="425.519566"/>
     <use style="fill:#1f77b4;stroke:#1f77b4;" x="509.675207" xlink:href="#m341e4de07d" y="422.959918"/>
     <use style="fill:#1f77b4;stroke:#1f77b4;" x="539.650413" xlink:href="#m341e4de07d" y="419.122079"/>
     <use style="fill:#1f77b4;stroke:#1f77b4;" x="569.62562" xlink:href="#m341e4de07d" y="412.057711"/>
     <use style="fill:#1f77b4;stroke:#1f77b4;" x="599.600826" xlink:href="#m341e4de07d" y="404.960652"/>
     <use style="fill:#1f77b4;stroke:#1f77b4;" x="629.576033" xlink:href="#m341e4de07d" y="380.413523"/>
     <use style="fill:#1f77b4;stroke:#1f77b4;" x="659.55124" xlink:href="#m341e4de07d" y="359.442711"/>
     <use style="fill:#1f77b4;stroke:#1f77b4;" x="689.526446" xlink:href="#m341e4de07d" y="337.667718"/>
     <use style="fill:#1f77b4;stroke:#1f77b4;" x="719.501653" xlink:href="#m341e4de07d" y="312.342561"/>
     <use style="fill:#1f77b4;stroke:#1f77b4;" x="749.47686" xlink:href="#m341e4de07d" y="297.648282"/>
     <use style="fill:#1f77b4;stroke:#1f77b4;" x="779.452066" xlink:href="#m341e4de07d" y="249.269942"/>
     <use style="fill:#1f77b4;stroke:#1f77b4;" x="809.427273" xlink:href="#m341e4de07d" y="202.676491"/>
    </g>
   </g>
   <g id="line2d_31">
    <path clip-path="url(#p1d709f5316)" d="M 149.972727 430.92 
L 179.947934 430.92 
L 209.92314 430.92 
L 239.898347 430.916731 
L 269.873554 430.884041 
L 299.84876 430.723858 
L 329.823967 430.524448 
L 359.799174 430.360996 
L 389.77438 430.115819 
L 419.749587 429.831414 
L 449.724793 429.278948 
L 479.7 428.118443 
L 509.675207 426.464315 
L 539.650413 423.031836 
L 569.62562 418.536923 
L 599.600826 412.15905 
L 629.576033 400.642266 
L 659.55124 384.735178 
L 689.526446 364.450861 
L 719.501653 337.667718 
L 749.47686 323.807041 
L 779.452066 289.524748 
L 809.427273 257.167912 
" style="fill:none;stroke:#ff7f0e;stroke-linecap:square;stroke-width:1.5;"/>
    <defs>
     <path d="M 0 3 
C 0.795609 3 1.55874 2.683901 2.12132 2.12132 
C 2.683901 1.55874 3 0.795609 3 0 
C 3 -0.795609 2.683901 -1.55874 2.12132 -2.12132 
C 1.55874 -2.683901 0.795609 -3 0 -3 
C -0.795609 -3 -1.55874 -2.683901 -2.12132 -2.12132 
C -2.683901 -1.55874 -3 -0.795609 -3 0 
C -3 0.795609 -2.683901 1.55874 -2.12132 2.12132 
C -1.55874 2.683901 -0.795609 3 0 3 
z
" id="m3df0a3b9fe" style="stroke:#ff7f0e;"/>
    </defs>
    <g clip-path="url(#p1d709f5316)">
     <use style="fill:#ff7f0e;stroke:#ff7f0e;" x="149.972727" xlink:href="#m3df0a3b9fe" y="430.92"/>
     <use style="fill:#ff7f0e;stroke:#ff7f0e;" x="179.947934" xlink:href="#m3df0a3b9fe" y="430.92"/>
     <use style="fill:#ff7f0e;stroke:#ff7f0e;" x="209.92314" xlink:href="#m3df0a3b9fe" y="430.92"/>
     <use style="fill:#ff7f0e;stroke:#ff7f0e;" x="239.898347" xlink:href="#m3df0a3b9fe" y="430.916731"/>
     <use style="fill:#ff7f0e;stroke:#ff7f0e;" x="269.873554" xlink:href="#m3df0a3b9fe" y="430.884041"/>
     <use style="fill:#ff7f0e;stroke:#ff7f0e;" x="299.84876" xlink:href="#m3df0a3b9fe" y="430.723858"/>
     <use style="fill:#ff7f0e;stroke:#ff7f0e;" x="329.823967" xlink:href="#m3df0a3b9fe" y="430.524448"/>
     <use style="fill:#ff7f0e;stroke:#ff7f0e;" x="359.799174" xlink:href="#m3df0a3b9fe" y="430.360996"/>
     <use style="fill:#ff7f0e;stroke:#ff7f0e;" x="389.77438" xlink:href="#m3df0a3b9fe" y="430.115819"/>
     <use style="fill:#ff7f0e;stroke:#ff7f0e;" x="419.749587" xlink:href="#m3df0a3b9fe" y="429.831414"/>
     <use style="fill:#ff7f0e;stroke:#ff7f0e;" x="449.724793" xlink:href="#m3df0a3b9fe" y="429.278948"/>
     <use style="fill:#ff7f0e;stroke:#ff7f0e;" x="479.7" xlink:href="#m3df0a3b9fe" y="428.118443"/>
     <use style="fill:#ff7f0e;stroke:#ff7f0e;" x="509.675207" xlink:href="#m3df0a3b9fe" y="426.464315"/>
     <use style="fill:#ff7f0e;stroke:#ff7f0e;" x="539.650413" xlink:href="#m3df0a3b9fe" y="423.031836"/>
     <use style="fill:#ff7f0e;stroke:#ff7f0e;" x="569.62562" xlink:href="#m3df0a3b9fe" y="418.536923"/>
     <use style="fill:#ff7f0e;stroke:#ff7f0e;" x="599.600826" xlink:href="#m3df0a3b9fe" y="412.15905"/>
     <use style="fill:#ff7f0e;stroke:#ff7f0e;" x="629.576033" xlink:href="#m3df0a3b9fe" y="400.642266"/>
     <use style="fill:#ff7f0e;stroke:#ff7f0e;" x="659.55124" xlink:href="#m3df0a3b9fe" y="384.735178"/>
     <use style="fill:#ff7f0e;stroke:#ff7f0e;" x="689.526446" xlink:href="#m3df0a3b9fe" y="364.450861"/>
     <use style="fill:#ff7f0e;stroke:#ff7f0e;" x="719.501653" xlink:href="#m3df0a3b9fe" y="337.667718"/>
     <use style="fill:#ff7f0e;stroke:#ff7f0e;" x="749.47686" xlink:href="#m3df0a3b9fe" y="323.807041"/>
     <use style="fill:#ff7f0e;stroke:#ff7f0e;" x="779.452066" xlink:href="#m3df0a3b9fe" y="289.524748"/>
     <use style="fill:#ff7f0e;stroke:#ff7f0e;" x="809.427273" xlink:href="#m3df0a3b9fe" y="257.167912"/>
    </g>
   </g>
   <g id="line2d_32">
    <path clip-path="url(#p1d709f5316)" d="M 149.972727 430.92 
L 179.947934 430.92 
L 209.92314 430.913462 
L 239.898347 430.867696 
L 269.873554 430.81866 
L 299.84876 430.71732 
L 329.823967 430.593097 
L 359.799174 430.393687 
L 389.77438 430.210621 
L 419.749587 430.050439 
L 449.724793 429.788916 
L 479.7 429.259334 
L 509.675207 428.115174 
L 539.650413 426.052418 
L 569.62562 423.554881 
L 599.600826 419.697428 
L 629.576033 413.800102 
L 659.55124 406.314029 
L 689.526446 397.93878 
L 719.501653 387.778642 
L 749.47686 377.29814 
L 779.452066 360.59014 
L 809.427273 345.915475 
" style="fill:none;stroke:#2ca02c;stroke-linecap:square;stroke-width:1.5;"/>
    <defs>
     <path d="M 0 3 
C 0.795609 3 1.55874 2.683901 2.12132 2.12132 
C 2.683901 1.55874 3 0.795609 3 0 
C 3 -0.795609 2.683901 -1.55874 2.12132 -2.12132 
C 1.55874 -2.683901 0.795609 -3 0 -3 
C -0.795609 -3 -1.55874 -2.683901 -2.12132 -2.12132 
C -2.683901 -1.55874 -3 -0.795609 -3 0 
C -3 0.795609 -2.683901 1.55874 -2.12132 2.12132 
C -1.55874 2.683901 -0.795609 3 0 3 
z
" id="m2c57fed0fa" style="stroke:#2ca02c;"/>
    </defs>
    <g clip-path="url(#p1d709f5316)">
     <use style="fill:#2ca02c;stroke:#2ca02c;" x="149.972727" xlink:href="#m2c57fed0fa" y="430.92"/>
     <use style="fill:#2ca02c;stroke:#2ca02c;" x="179.947934" xlink:href="#m2c57fed0fa" y="430.92"/>
     <use style="fill:#2ca02c;stroke:#2ca02c;" x="209.92314" xlink:href="#m2c57fed0fa" y="430.913462"/>
     <use style="fill:#2ca02c;stroke:#2ca02c;" x="239.898347" xlink:href="#m2c57fed0fa" y="430.867696"/>
     <use style="fill:#2ca02c;stroke:#2ca02c;" x="269.873554" xlink:href="#m2c57fed0fa" y="430.81866"/>
     <use style="fill:#2ca02c;stroke:#2ca02c;" x="299.84876" xlink:href="#m2c57fed0fa" y="430.71732"/>
     <use style="fill:#2ca02c;stroke:#2ca02c;" x="329.823967" xlink:href="#m2c57fed0fa" y="430.593097"/>
     <use style="fill:#2ca02c;stroke:#2ca02c;" x="359.799174" xlink:href="#m2c57fed0fa" y="430.393687"/>
     <use style="fill:#2ca02c;stroke:#2ca02c;" x="389.77438" xlink:href="#m2c57fed0fa" y="430.210621"/>
     <use style="fill:#2ca02c;stroke:#2ca02c;" x="419.749587" xlink:href="#m2c57fed0fa" y="430.050439"/>
     <use style="fill:#2ca02c;stroke:#2ca02c;" x="449.724793" xlink:href="#m2c57fed0fa" y="429.788916"/>
     <use style="fill:#2ca02c;stroke:#2ca02c;" x="479.7" xlink:href="#m2c57fed0fa" y="429.259334"/>
     <use style="fill:#2ca02c;stroke:#2ca02c;" x="509.675207" xlink:href="#m2c57fed0fa" y="428.115174"/>
     <use style="fill:#2ca02c;stroke:#2ca02c;" x="539.650413" xlink:href="#m2c57fed0fa" y="426.052418"/>
     <use style="fill:#2ca02c;stroke:#2ca02c;" x="569.62562" xlink:href="#m2c57fed0fa" y="423.554881"/>
     <use style="fill:#2ca02c;stroke:#2ca02c;" x="599.600826" xlink:href="#m2c57fed0fa" y="419.697428"/>
     <use style="fill:#2ca02c;stroke:#2ca02c;" x="629.576033" xlink:href="#m2c57fed0fa" y="413.800102"/>
     <use style="fill:#2ca02c;stroke:#2ca02c;" x="659.55124" xlink:href="#m2c57fed0fa" y="406.314029"/>
     <use style="fill:#2ca02c;stroke:#2ca02c;" x="689.526446" xlink:href="#m2c57fed0fa" y="397.93878"/>
     <use style="fill:#2ca02c;stroke:#2ca02c;" x="719.501653" xlink:href="#m2c57fed0fa" y="387.778642"/>
     <use style="fill:#2ca02c;stroke:#2ca02c;" x="749.47686" xlink:href="#m2c57fed0fa" y="377.29814"/>
     <use style="fill:#2ca02c;stroke:#2ca02c;" x="779.452066" xlink:href="#m2c57fed0fa" y="360.59014"/>
     <use style="fill:#2ca02c;stroke:#2ca02c;" x="809.427273" xlink:href="#m2c57fed0fa" y="345.915475"/>
    </g>
   </g>
   <g id="line2d_33">
    <path clip-path="url(#p1d709f5316)" d="M 149.972727 430.92 
L 179.947934 430.916731 
L 209.92314 430.893848 
L 239.898347 430.566945 
L 269.873554 430.070053 
L 299.84876 429.429323 
L 329.823967 428.984736 
L 359.799174 428.317854 
L 389.77438 427.585592 
L 419.749587 425.673211 
L 449.724793 422.498985 
L 479.7 417.386226 
L 509.675207 410.495115 
L 539.650413 399.949232 
L 569.62562 379.105912 
L 599.600826 359.135422 
L 629.576033 325.533087 
L 659.55124 291.116764 
L 689.526446 248.639019 
L 719.501653 207.298896 
L 749.47686 165.59591 
L 779.452066 123.020095 
L 809.427273 78.12 
" style="fill:none;stroke:#d62728;stroke-linecap:square;stroke-width:1.5;"/>
    <defs>
     <path d="M 0 3 
C 0.795609 3 1.55874 2.683901 2.12132 2.12132 
C 2.683901 1.55874 3 0.795609 3 0 
C 3 -0.795609 2.683901 -1.55874 2.12132 -2.12132 
C 1.55874 -2.683901 0.795609 -3 0 -3 
C -0.795609 -3 -1.55874 -2.683901 -2.12132 -2.12132 
C -2.683901 -1.55874 -3 -0.795609 -3 0 
C -3 0.795609 -2.683901 1.55874 -2.12132 2.12132 
C -1.55874 2.683901 -0.795609 3 0 3 
z
" id="m678fe4eebb" style="stroke:#d62728;"/>
    </defs>
    <g clip-path="url(#p1d709f5316)">
     <use style="fill:#d62728;stroke:#d62728;" x="149.972727" xlink:href="#m678fe4eebb" y="430.92"/>
     <use style="fill:#d62728;stroke:#d62728;" x="179.947934" xlink:href="#m678fe4eebb" y="430.916731"/>
     <use style="fill:#d62728;stroke:#d62728;" x="209.92314" xlink:href="#m678fe4eebb" y="430.893848"/>
     <use style="fill:#d62728;stroke:#d62728;" x="239.898347" xlink:href="#m678fe4eebb" y="430.566945"/>
     <use style="fill:#d62728;stroke:#d62728;" x="269.873554" xlink:href="#m678fe4eebb" y="430.070053"/>
     <use style="fill:#d62728;stroke:#d62728;" x="299.84876" xlink:href="#m678fe4eebb" y="429.429323"/>
     <use style="fill:#d62728;stroke:#d62728;" x="329.823967" xlink:href="#m678fe4eebb" y="428.984736"/>
     <use style="fill:#d62728;stroke:#d62728;" x="359.799174" xlink:href="#m678fe4eebb" y="428.317854"/>
     <use style="fill:#d62728;stroke:#d62728;" x="389.77438" xlink:href="#m678fe4eebb" y="427.585592"/>
     <use style="fill:#d62728;stroke:#d62728;" x="419.749587" xlink:href="#m678fe4eebb" y="425.673211"/>
     <use style="fill:#d62728;stroke:#d62728;" x="449.724793" xlink:href="#m678fe4eebb" y="422.498985"/>
     <use style="fill:#d62728;stroke:#d62728;" x="479.7" xlink:href="#m678fe4eebb" y="417.386226"/>
     <use style="fill:#d62728;stroke:#d62728;" x="509.675207" xlink:href="#m678fe4eebb" y="410.495115"/>
     <use style="fill:#d62728;stroke:#d62728;" x="539.650413" xlink:href="#m678fe4eebb" y="399.949232"/>
     <use style="fill:#d62728;stroke:#d62728;" x="569.62562" xlink:href="#m678fe4eebb" y="379.105912"/>
     <use style="fill:#d62728;stroke:#d62728;" x="599.600826" xlink:href="#m678fe4eebb" y="359.135422"/>
     <use style="fill:#d62728;stroke:#d62728;" x="629.576033" xlink:href="#m678fe4eebb" y="325.533087"/>
     <use style="fill:#d62728;stroke:#d62728;" x="659.55124" xlink:href="#m678fe4eebb" y="291.116764"/>
     <use style="fill:#d62728;stroke:#d62728;" x="689.526446" xlink:href="#m678fe4eebb" y="248.639019"/>
     <use style="fill:#d62728;stroke:#d62728;" x="719.501653" xlink:href="#m678fe4eebb" y="207.298896"/>
     <use style="fill:#d62728;stroke:#d62728;" x="749.47686" xlink:href="#m678fe4eebb" y="165.59591"/>
     <use style="fill:#d62728;stroke:#d62728;" x="779.452066" xlink:href="#m678fe4eebb" y="123.020095"/>
     <use style="fill:#d62728;stroke:#d62728;" x="809.427273" xlink:href="#m678fe4eebb" y="78.12"/>
    </g>
   </g>
   <g id="patch_3">
    <path d="M 117 448.56 
L 117 60.48 
" style="fill:none;stroke:#000000;stroke-linecap:square;stroke-linejoin:miter;stroke-width:0.8;"/>
   </g>
   <g id="patch_4">
    <path d="M 117 448.56 
L 842.4 448.56 
" style="fill:none;stroke:#000000;stroke-linecap:square;stroke-linejoin:miter;stroke-width:0.8;"/>
   </g>
   <g id="text_32">
    <!-- Avanço do Coronavírus na Região Centro-Oeste -->
    <defs>
     <path d="M 2.984375 54.6875 
L 12.5 54.6875 
L 29.59375 8.796875 
L 46.6875 54.6875 
L 56.203125 54.6875 
L 35.6875 0 
L 23.484375 0 
z
" id="DejaVuSans-118"/>
     <path d="M 48.78125 52.59375 
L 48.78125 44.1875 
Q 44.96875 46.296875 41.140625 47.34375 
Q 37.3125 48.390625 33.40625 48.390625 
Q 24.65625 48.390625 19.8125 42.84375 
Q 14.984375 37.3125 14.984375 27.296875 
Q 14.984375 17.28125 19.8125 11.734375 
Q 24.65625 6.203125 33.40625 6.203125 
Q 37.3125 6.203125 41.140625 7.25 
Q 44.96875 8.296875 48.78125 10.40625 
L 48.78125 2.09375 
Q 45.015625 0.34375 40.984375 -0.53125 
Q 36.96875 -1.421875 32.421875 -1.421875 
Q 20.0625 -1.421875 12.78125 6.34375 
Q 5.515625 14.109375 5.515625 27.296875 
Q 5.515625 40.671875 12.859375 48.328125 
Q 20.21875 56 33.015625 56 
Q 37.15625 56 41.109375 55.140625 
Q 45.0625 54.296875 48.78125 52.59375 
z
M 36.078125 0 
Q 38.765625 -3.03125 40.078125 -5.59375 
Q 41.40625 -8.15625 41.40625 -10.5 
Q 41.40625 -14.84375 38.46875 -17.0625 
Q 35.546875 -19.28125 29.78125 -19.28125 
Q 27.546875 -19.28125 25.421875 -18.984375 
Q 23.296875 -18.703125 21.1875 -18.109375 
L 21.1875 -11.71875 
Q 22.859375 -12.546875 24.65625 -12.90625 
Q 26.46875 -13.28125 28.765625 -13.28125 
Q 31.640625 -13.28125 33.109375 -12.109375 
Q 34.578125 -10.9375 34.578125 -8.6875 
Q 34.578125 -7.234375 33.515625 -5.109375 
Q 32.46875 -2.984375 30.28125 0 
z
" id="DejaVuSans-231"/>
     <path d="M 20.703125 79.984375 
L 30.421875 79.984375 
L 14.5 61.625 
L 7.03125 61.625 
z
M 9.421875 54.6875 
L 18.40625 54.6875 
L 18.40625 0 
L 9.421875 0 
z
M 13.921875 56 
z
" id="DejaVuSans-237"/>
     <path d="M 44.390625 34.1875 
Q 47.5625 33.109375 50.5625 29.59375 
Q 53.5625 26.078125 56.59375 19.921875 
L 66.609375 0 
L 56 0 
L 46.6875 18.703125 
Q 43.0625 26.03125 39.671875 28.421875 
Q 36.28125 30.8125 30.421875 30.8125 
L 19.671875 30.8125 
L 19.671875 0 
L 9.8125 0 
L 9.8125 72.90625 
L 32.078125 72.90625 
Q 44.578125 72.90625 50.734375 67.671875 
Q 56.890625 62.453125 56.890625 51.90625 
Q 56.890625 45.015625 53.6875 40.46875 
Q 50.484375 35.9375 44.390625 34.1875 
z
M 19.671875 64.796875 
L 19.671875 38.921875 
L 32.078125 38.921875 
Q 39.203125 38.921875 42.84375 42.21875 
Q 46.484375 45.515625 46.484375 51.90625 
Q 46.484375 58.296875 42.84375 61.546875 
Q 39.203125 64.796875 32.078125 64.796875 
z
" id="DejaVuSans-82"/>
     <path d="M 34.28125 27.484375 
Q 23.390625 27.484375 19.1875 25 
Q 14.984375 22.515625 14.984375 16.5 
Q 14.984375 11.71875 18.140625 8.90625 
Q 21.296875 6.109375 26.703125 6.109375 
Q 34.1875 6.109375 38.703125 11.40625 
Q 43.21875 16.703125 43.21875 25.484375 
L 43.21875 27.484375 
z
M 52.203125 31.203125 
L 52.203125 0 
L 43.21875 0 
L 43.21875 8.296875 
Q 40.140625 3.328125 35.546875 0.953125 
Q 30.953125 -1.421875 24.3125 -1.421875 
Q 15.921875 -1.421875 10.953125 3.296875 
Q 6 8.015625 6 15.921875 
Q 6 25.140625 12.171875 29.828125 
Q 18.359375 34.515625 30.609375 34.515625 
L 43.21875 34.515625 
L 43.21875 35.40625 
Q 43.21875 41.609375 39.140625 45 
Q 35.0625 48.390625 27.6875 48.390625 
Q 23 48.390625 18.546875 47.265625 
Q 14.109375 46.140625 10.015625 43.890625 
L 10.015625 52.203125 
Q 14.9375 54.109375 19.578125 55.046875 
Q 24.21875 56 28.609375 56 
Q 40.484375 56 46.34375 49.84375 
Q 52.203125 43.703125 52.203125 31.203125 
z
M 28.8125 66.890625 
L 26.03125 69.578125 
Q 24.953125 70.5625 24.140625 71.015625 
Q 23.34375 71.484375 22.703125 71.484375 
Q 20.84375 71.484375 19.96875 69.703125 
Q 19.09375 67.921875 19 63.921875 
L 12.890625 63.921875 
Q 12.984375 70.515625 15.46875 74.09375 
Q 17.96875 77.6875 22.40625 77.6875 
Q 24.265625 77.6875 25.828125 77 
Q 27.390625 76.3125 29.203125 74.703125 
L 31.984375 72.015625 
Q 33.0625 71.046875 33.859375 70.578125 
Q 34.671875 70.125 35.296875 70.125 
Q 37.15625 70.125 38.03125 71.90625 
Q 38.921875 73.6875 39.015625 77.6875 
L 45.125 77.6875 
Q 45.015625 71.09375 42.53125 67.5 
Q 40.046875 63.921875 35.59375 63.921875 
Q 33.734375 63.921875 32.171875 64.59375 
Q 30.609375 65.28125 28.8125 66.890625 
z
" id="DejaVuSans-227"/>
     <path d="M 18.3125 70.21875 
L 18.3125 54.6875 
L 36.8125 54.6875 
L 36.8125 47.703125 
L 18.3125 47.703125 
L 18.3125 18.015625 
Q 18.3125 11.328125 20.140625 9.421875 
Q 21.96875 7.515625 27.59375 7.515625 
L 36.8125 7.515625 
L 36.8125 0 
L 27.59375 0 
Q 17.1875 0 13.234375 3.875 
Q 9.28125 7.765625 9.28125 18.015625 
L 9.28125 47.703125 
L 2.6875 47.703125 
L 2.6875 54.6875 
L 9.28125 54.6875 
L 9.28125 70.21875 
z
" id="DejaVuSans-116"/>
     <path d="M 4.890625 31.390625 
L 31.203125 31.390625 
L 31.203125 23.390625 
L 4.890625 23.390625 
z
" id="DejaVuSans-45"/>
     <path d="M 39.40625 66.21875 
Q 28.65625 66.21875 22.328125 58.203125 
Q 16.015625 50.203125 16.015625 36.375 
Q 16.015625 22.609375 22.328125 14.59375 
Q 28.65625 6.59375 39.40625 6.59375 
Q 50.140625 6.59375 56.421875 14.59375 
Q 62.703125 22.609375 62.703125 36.375 
Q 62.703125 50.203125 56.421875 58.203125 
Q 50.140625 66.21875 39.40625 66.21875 
z
M 39.40625 74.21875 
Q 54.734375 74.21875 63.90625 63.9375 
Q 73.09375 53.65625 73.09375 36.375 
Q 73.09375 19.140625 63.90625 8.859375 
Q 54.734375 -1.421875 39.40625 -1.421875 
Q 24.03125 -1.421875 14.8125 8.828125 
Q 5.609375 19.09375 5.609375 36.375 
Q 5.609375 53.65625 14.8125 63.9375 
Q 24.03125 74.21875 39.40625 74.21875 
z
" id="DejaVuSans-79"/>
    </defs>
    <g transform="translate(300.588281 54.48)scale(0.15 -0.15)">
     <use xlink:href="#DejaVuSans-65"/>
     <use x="68.330078" xlink:href="#DejaVuSans-118"/>
     <use x="127.509766" xlink:href="#DejaVuSans-97"/>
     <use x="188.789062" xlink:href="#DejaVuSans-110"/>
     <use x="252.167969" xlink:href="#DejaVuSans-231"/>
     <use x="307.148438" xlink:href="#DejaVuSans-111"/>
     <use x="368.330078" xlink:href="#DejaVuSans-32"/>
     <use x="400.117188" xlink:href="#DejaVuSans-100"/>
     <use x="463.59375" xlink:href="#DejaVuSans-111"/>
     <use x="524.775391" xlink:href="#DejaVuSans-32"/>
     <use x="556.5625" xlink:href="#DejaVuSans-67"/>
     <use x="626.386719" xlink:href="#DejaVuSans-111"/>
     <use x="687.568359" xlink:href="#DejaVuSans-114"/>
     <use x="728.650391" xlink:href="#DejaVuSans-111"/>
     <use x="789.832031" xlink:href="#DejaVuSans-110"/>
     <use x="853.210938" xlink:href="#DejaVuSans-97"/>
     <use x="914.490234" xlink:href="#DejaVuSans-118"/>
     <use x="973.669922" xlink:href="#DejaVuSans-237"/>
     <use x="1001.453125" xlink:href="#DejaVuSans-114"/>
     <use x="1042.566406" xlink:href="#DejaVuSans-117"/>
     <use x="1105.945312" xlink:href="#DejaVuSans-115"/>
     <use x="1158.044922" xlink:href="#DejaVuSans-32"/>
     <use x="1189.832031" xlink:href="#DejaVuSans-110"/>
     <use x="1253.210938" xlink:href="#DejaVuSans-97"/>
     <use x="1314.490234" xlink:href="#DejaVuSans-32"/>
     <use x="1346.277344" xlink:href="#DejaVuSans-82"/>
     <use x="1415.697266" xlink:href="#DejaVuSans-101"/>
     <use x="1477.220703" xlink:href="#DejaVuSans-103"/>
     <use x="1540.697266" xlink:href="#DejaVuSans-105"/>
     <use x="1568.480469" xlink:href="#DejaVuSans-227"/>
     <use x="1629.759766" xlink:href="#DejaVuSans-111"/>
     <use x="1690.941406" xlink:href="#DejaVuSans-32"/>
     <use x="1722.728516" xlink:href="#DejaVuSans-67"/>
     <use x="1792.552734" xlink:href="#DejaVuSans-101"/>
     <use x="1854.076172" xlink:href="#DejaVuSans-110"/>
     <use x="1917.455078" xlink:href="#DejaVuSans-116"/>
     <use x="1956.664062" xlink:href="#DejaVuSans-114"/>
     <use x="1997.746094" xlink:href="#DejaVuSans-111"/>
     <use x="2058.943359" xlink:href="#DejaVuSans-45"/>
     <use x="2095.058594" xlink:href="#DejaVuSans-79"/>
     <use x="2173.769531" xlink:href="#DejaVuSans-101"/>
     <use x="2235.292969" xlink:href="#DejaVuSans-115"/>
     <use x="2287.392578" xlink:href="#DejaVuSans-116"/>
     <use x="2326.601562" xlink:href="#DejaVuSans-101"/>
    </g>
   </g>
   <g id="legend_1">
    <g id="line2d_34">
     <path d="M 126 73.578438 
L 146 73.578438 
" style="fill:none;stroke:#1f77b4;stroke-linecap:square;stroke-width:1.5;"/>
    </g>
    <g id="line2d_35">
     <g>
      <use style="fill:#1f77b4;stroke:#1f77b4;" x="136" xlink:href="#m341e4de07d" y="73.578438"/>
     </g>
    </g>
    <g id="text_33">
     <!-- GO -->
     <defs>
      <path d="M 59.515625 10.40625 
L 59.515625 29.984375 
L 43.40625 29.984375 
L 43.40625 38.09375 
L 69.28125 38.09375 
L 69.28125 6.78125 
Q 63.578125 2.734375 56.6875 0.65625 
Q 49.8125 -1.421875 42 -1.421875 
Q 24.90625 -1.421875 15.25 8.5625 
Q 5.609375 18.5625 5.609375 36.375 
Q 5.609375 54.25 15.25 64.234375 
Q 24.90625 74.21875 42 74.21875 
Q 49.125 74.21875 55.546875 72.453125 
Q 61.96875 70.703125 67.390625 67.28125 
L 67.390625 56.78125 
Q 61.921875 61.421875 55.765625 63.765625 
Q 49.609375 66.109375 42.828125 66.109375 
Q 29.4375 66.109375 22.71875 58.640625 
Q 16.015625 51.171875 16.015625 36.375 
Q 16.015625 21.625 22.71875 14.15625 
Q 29.4375 6.6875 42.828125 6.6875 
Q 48.046875 6.6875 52.140625 7.59375 
Q 56.25 8.5 59.515625 10.40625 
z
" id="DejaVuSans-71"/>
     </defs>
     <g transform="translate(154 77.078438)scale(0.1 -0.1)">
      <use xlink:href="#DejaVuSans-71"/>
      <use x="77.490234" xlink:href="#DejaVuSans-79"/>
     </g>
    </g>
    <g id="line2d_36">
     <path d="M 126 88.256563 
L 146 88.256563 
" style="fill:none;stroke:#ff7f0e;stroke-linecap:square;stroke-width:1.5;"/>
    </g>
    <g id="line2d_37">
     <g>
      <use style="fill:#ff7f0e;stroke:#ff7f0e;" x="136" xlink:href="#m3df0a3b9fe" y="88.256563"/>
     </g>
    </g>
    <g id="text_34">
     <!-- MT -->
     <defs>
      <path d="M 9.8125 72.90625 
L 24.515625 72.90625 
L 43.109375 23.296875 
L 61.8125 72.90625 
L 76.515625 72.90625 
L 76.515625 0 
L 66.890625 0 
L 66.890625 64.015625 
L 48.09375 14.015625 
L 38.1875 14.015625 
L 19.390625 64.015625 
L 19.390625 0 
L 9.8125 0 
z
" id="DejaVuSans-77"/>
      <path d="M -0.296875 72.90625 
L 61.375 72.90625 
L 61.375 64.59375 
L 35.5 64.59375 
L 35.5 0 
L 25.59375 0 
L 25.59375 64.59375 
L -0.296875 64.59375 
z
" id="DejaVuSans-84"/>
     </defs>
     <g transform="translate(154 91.756563)scale(0.1 -0.1)">
      <use xlink:href="#DejaVuSans-77"/>
      <use x="86.279297" xlink:href="#DejaVuSans-84"/>
     </g>
    </g>
    <g id="line2d_38">
     <path d="M 126 102.934688 
L 146 102.934688 
" style="fill:none;stroke:#2ca02c;stroke-linecap:square;stroke-width:1.5;"/>
    </g>
    <g id="line2d_39">
     <g>
      <use style="fill:#2ca02c;stroke:#2ca02c;" x="136" xlink:href="#m2c57fed0fa" y="102.934688"/>
     </g>
    </g>
    <g id="text_35">
     <!-- MS -->
     <g transform="translate(154 106.434688)scale(0.1 -0.1)">
      <use xlink:href="#DejaVuSans-77"/>
      <use x="86.279297" xlink:href="#DejaVuSans-83"/>
     </g>
    </g>
    <g id="line2d_40">
     <path d="M 126 117.612813 
L 146 117.612813 
" style="fill:none;stroke:#d62728;stroke-linecap:square;stroke-width:1.5;"/>
    </g>
    <g id="line2d_41">
     <g>
      <use style="fill:#d62728;stroke:#d62728;" x="136" xlink:href="#m678fe4eebb" y="117.612813"/>
     </g>
    </g>
    <g id="text_36">
     <!-- DF -->
     <defs>
      <path d="M 19.671875 64.796875 
L 19.671875 8.109375 
L 31.59375 8.109375 
Q 46.6875 8.109375 53.6875 14.9375 
Q 60.6875 21.78125 60.6875 36.53125 
Q 60.6875 51.171875 53.6875 57.984375 
Q 46.6875 64.796875 31.59375 64.796875 
z
M 9.8125 72.90625 
L 30.078125 72.90625 
Q 51.265625 72.90625 61.171875 64.09375 
Q 71.09375 55.28125 71.09375 36.53125 
Q 71.09375 17.671875 61.125 8.828125 
Q 51.171875 0 30.078125 0 
L 9.8125 0 
z
" id="DejaVuSans-68"/>
      <path d="M 9.8125 72.90625 
L 51.703125 72.90625 
L 51.703125 64.59375 
L 19.671875 64.59375 
L 19.671875 43.109375 
L 48.578125 43.109375 
L 48.578125 34.8125 
L 19.671875 34.8125 
L 19.671875 0 
L 9.8125 0 
z
" id="DejaVuSans-70"/>
     </defs>
     <g transform="translate(154 121.112813)scale(0.1 -0.1)">
      <use xlink:href="#DejaVuSans-68"/>
      <use x="77.001953" xlink:href="#DejaVuSans-70"/>
     </g>
    </g>
   </g>
  </g>
 </g>
 <defs>
  <clipPath id="p1d709f5316">
   <rect height="388.08" width="725.4" x="117" y="60.48"/>
  </clipPath>
 </defs>
</svg>
