<?xml version="1.0" encoding="utf-8" standalone="no"?>
<!DOCTYPE svg PUBLIC "-//W3C//DTD SVG 1.1//EN"
  "http://www.w3.org/Graphics/SVG/1.1/DTD/svg11.dtd">
<!-- Created with matplotlib (https://matplotlib.org/) -->
<svg height="720pt" version="1.1" viewBox="0 0 1440 720" width="1440pt" xmlns="http://www.w3.org/2000/svg" xmlns:xlink="http://www.w3.org/1999/xlink">
 <defs>
  <style type="text/css">
*{stroke-linecap:butt;stroke-linejoin:round;}
  </style>
 </defs>
 <g id="figure_1">
  <g id="patch_1">
   <path d="M 0 720 
L 1440 720 
L 1440 0 
L 0 0 
z
" style="fill:#ffffff;"/>
  </g>
  <g id="axes_1">
   <g id="patch_2">
    <path d="M 180 630 
L 1296 630 
L 1296 86.4 
L 180 86.4 
z
" style="fill:#ffffff;"/>
   </g>
   <g id="matplotlib.axis_1">
    <g id="xtick_1">
     <g id="line2d_1">
      <defs>
       <path d="M 0 0 
L 0 3.5 
" id="m374a663e5b" style="stroke:#000000;stroke-width:0.8;"/>
      </defs>
      <g>
       <use style="stroke:#000000;stroke-width:0.8;" x="230.727273" xlink:href="#m374a663e5b" y="630"/>
      </g>
     </g>
     <g id="text_1">
      <!-- 9 -->
      <defs>
       <path d="M 10.984375 1.515625 
L 10.984375 10.5 
Q 14.703125 8.734375 18.5 7.8125 
Q 22.3125 6.890625 25.984375 6.890625 
Q 35.75 6.890625 40.890625 13.453125 
Q 46.046875 20.015625 46.78125 33.40625 
Q 43.953125 29.203125 39.59375 26.953125 
Q 35.25 24.703125 29.984375 24.703125 
Q 19.046875 24.703125 12.671875 31.3125 
Q 6.296875 37.9375 6.296875 49.421875 
Q 6.296875 60.640625 12.9375 67.421875 
Q 19.578125 74.21875 30.609375 74.21875 
Q 43.265625 74.21875 49.921875 64.515625 
Q 56.59375 54.828125 56.59375 36.375 
Q 56.59375 19.140625 48.40625 8.859375 
Q 40.234375 -1.421875 26.421875 -1.421875 
Q 22.703125 -1.421875 18.890625 -0.6875 
Q 15.09375 0.046875 10.984375 1.515625 
z
M 30.609375 32.421875 
Q 37.25 32.421875 41.125 36.953125 
Q 45.015625 41.5 45.015625 49.421875 
Q 45.015625 57.28125 41.125 61.84375 
Q 37.25 66.40625 30.609375 66.40625 
Q 23.96875 66.40625 20.09375 61.84375 
Q 16.21875 57.28125 16.21875 49.421875 
Q 16.21875 41.5 20.09375 36.953125 
Q 23.96875 32.421875 30.609375 32.421875 
z
" id="DejaVuSans-57"/>
      </defs>
      <g transform="translate(224.364773 652.196875)scale(0.2 -0.2)">
       <use xlink:href="#DejaVuSans-57"/>
      </g>
     </g>
    </g>
    <g id="xtick_2">
     <g id="line2d_2">
      <g>
       <use style="stroke:#000000;stroke-width:0.8;" x="276.842975" xlink:href="#m374a663e5b" y="630"/>
      </g>
     </g>
     <g id="text_2">
      <!-- 10 -->
      <defs>
       <path d="M 12.40625 8.296875 
L 28.515625 8.296875 
L 28.515625 63.921875 
L 10.984375 60.40625 
L 10.984375 69.390625 
L 28.421875 72.90625 
L 38.28125 72.90625 
L 38.28125 8.296875 
L 54.390625 8.296875 
L 54.390625 0 
L 12.40625 0 
z
" id="DejaVuSans-49"/>
       <path d="M 31.78125 66.40625 
Q 24.171875 66.40625 20.328125 58.90625 
Q 16.5 51.421875 16.5 36.375 
Q 16.5 21.390625 20.328125 13.890625 
Q 24.171875 6.390625 31.78125 6.390625 
Q 39.453125 6.390625 43.28125 13.890625 
Q 47.125 21.390625 47.125 36.375 
Q 47.125 51.421875 43.28125 58.90625 
Q 39.453125 66.40625 31.78125 66.40625 
z
M 31.78125 74.21875 
Q 44.046875 74.21875 50.515625 64.515625 
Q 56.984375 54.828125 56.984375 36.375 
Q 56.984375 17.96875 50.515625 8.265625 
Q 44.046875 -1.421875 31.78125 -1.421875 
Q 19.53125 -1.421875 13.0625 8.265625 
Q 6.59375 17.96875 6.59375 36.375 
Q 6.59375 54.828125 13.0625 64.515625 
Q 19.53125 74.21875 31.78125 74.21875 
z
" id="DejaVuSans-48"/>
      </defs>
      <g transform="translate(264.117975 652.196875)scale(0.2 -0.2)">
       <use xlink:href="#DejaVuSans-49"/>
       <use x="63.623047" xlink:href="#DejaVuSans-48"/>
      </g>
     </g>
    </g>
    <g id="xtick_3">
     <g id="line2d_3">
      <g>
       <use style="stroke:#000000;stroke-width:0.8;" x="322.958678" xlink:href="#m374a663e5b" y="630"/>
      </g>
     </g>
     <g id="text_3">
      <!-- 11 -->
      <g transform="translate(310.233678 652.196875)scale(0.2 -0.2)">
       <use xlink:href="#DejaVuSans-49"/>
       <use x="63.623047" xlink:href="#DejaVuSans-49"/>
      </g>
     </g>
    </g>
    <g id="xtick_4">
     <g id="line2d_4">
      <g>
       <use style="stroke:#000000;stroke-width:0.8;" x="369.07438" xlink:href="#m374a663e5b" y="630"/>
      </g>
     </g>
     <g id="text_4">
      <!-- 12 -->
      <defs>
       <path d="M 19.1875 8.296875 
L 53.609375 8.296875 
L 53.609375 0 
L 7.328125 0 
L 7.328125 8.296875 
Q 12.9375 14.109375 22.625 23.890625 
Q 32.328125 33.6875 34.8125 36.53125 
Q 39.546875 41.84375 41.421875 45.53125 
Q 43.3125 49.21875 43.3125 52.78125 
Q 43.3125 58.59375 39.234375 62.25 
Q 35.15625 65.921875 28.609375 65.921875 
Q 23.96875 65.921875 18.8125 64.3125 
Q 13.671875 62.703125 7.8125 59.421875 
L 7.8125 69.390625 
Q 13.765625 71.78125 18.9375 73 
Q 24.125 74.21875 28.421875 74.21875 
Q 39.75 74.21875 46.484375 68.546875 
Q 53.21875 62.890625 53.21875 53.421875 
Q 53.21875 48.921875 51.53125 44.890625 
Q 49.859375 40.875 45.40625 35.40625 
Q 44.1875 33.984375 37.640625 27.21875 
Q 31.109375 20.453125 19.1875 8.296875 
z
" id="DejaVuSans-50"/>
      </defs>
      <g transform="translate(356.34938 652.196875)scale(0.2 -0.2)">
       <use xlink:href="#DejaVuSans-49"/>
       <use x="63.623047" xlink:href="#DejaVuSans-50"/>
      </g>
     </g>
    </g>
    <g id="xtick_5">
     <g id="line2d_5">
      <g>
       <use style="stroke:#000000;stroke-width:0.8;" x="415.190083" xlink:href="#m374a663e5b" y="630"/>
      </g>
     </g>
     <g id="text_5">
      <!-- 13 -->
      <defs>
       <path d="M 40.578125 39.3125 
Q 47.65625 37.796875 51.625 33 
Q 55.609375 28.21875 55.609375 21.1875 
Q 55.609375 10.40625 48.1875 4.484375 
Q 40.765625 -1.421875 27.09375 -1.421875 
Q 22.515625 -1.421875 17.65625 -0.515625 
Q 12.796875 0.390625 7.625 2.203125 
L 7.625 11.71875 
Q 11.71875 9.328125 16.59375 8.109375 
Q 21.484375 6.890625 26.8125 6.890625 
Q 36.078125 6.890625 40.9375 10.546875 
Q 45.796875 14.203125 45.796875 21.1875 
Q 45.796875 27.640625 41.28125 31.265625 
Q 36.765625 34.90625 28.71875 34.90625 
L 20.21875 34.90625 
L 20.21875 43.015625 
L 29.109375 43.015625 
Q 36.375 43.015625 40.234375 45.921875 
Q 44.09375 48.828125 44.09375 54.296875 
Q 44.09375 59.90625 40.109375 62.90625 
Q 36.140625 65.921875 28.71875 65.921875 
Q 24.65625 65.921875 20.015625 65.03125 
Q 15.375 64.15625 9.8125 62.3125 
L 9.8125 71.09375 
Q 15.4375 72.65625 20.34375 73.4375 
Q 25.25 74.21875 29.59375 74.21875 
Q 40.828125 74.21875 47.359375 69.109375 
Q 53.90625 64.015625 53.90625 55.328125 
Q 53.90625 49.265625 50.4375 45.09375 
Q 46.96875 40.921875 40.578125 39.3125 
z
" id="DejaVuSans-51"/>
      </defs>
      <g transform="translate(402.465083 652.196875)scale(0.2 -0.2)">
       <use xlink:href="#DejaVuSans-49"/>
       <use x="63.623047" xlink:href="#DejaVuSans-51"/>
      </g>
     </g>
    </g>
    <g id="xtick_6">
     <g id="line2d_6">
      <g>
       <use style="stroke:#000000;stroke-width:0.8;" x="461.305785" xlink:href="#m374a663e5b" y="630"/>
      </g>
     </g>
     <g id="text_6">
      <!-- 14 -->
      <defs>
       <path d="M 37.796875 64.3125 
L 12.890625 25.390625 
L 37.796875 25.390625 
z
M 35.203125 72.90625 
L 47.609375 72.90625 
L 47.609375 25.390625 
L 58.015625 25.390625 
L 58.015625 17.1875 
L 47.609375 17.1875 
L 47.609375 0 
L 37.796875 0 
L 37.796875 17.1875 
L 4.890625 17.1875 
L 4.890625 26.703125 
z
" id="DejaVuSans-52"/>
      </defs>
      <g transform="translate(448.580785 652.196875)scale(0.2 -0.2)">
       <use xlink:href="#DejaVuSans-49"/>
       <use x="63.623047" xlink:href="#DejaVuSans-52"/>
      </g>
     </g>
    </g>
    <g id="xtick_7">
     <g id="line2d_7">
      <g>
       <use style="stroke:#000000;stroke-width:0.8;" x="507.421488" xlink:href="#m374a663e5b" y="630"/>
      </g>
     </g>
     <g id="text_7">
      <!-- 15 -->
      <defs>
       <path d="M 10.796875 72.90625 
L 49.515625 72.90625 
L 49.515625 64.59375 
L 19.828125 64.59375 
L 19.828125 46.734375 
Q 21.96875 47.46875 24.109375 47.828125 
Q 26.265625 48.1875 28.421875 48.1875 
Q 40.625 48.1875 47.75 41.5 
Q 54.890625 34.8125 54.890625 23.390625 
Q 54.890625 11.625 47.5625 5.09375 
Q 40.234375 -1.421875 26.90625 -1.421875 
Q 22.3125 -1.421875 17.546875 -0.640625 
Q 12.796875 0.140625 7.71875 1.703125 
L 7.71875 11.625 
Q 12.109375 9.234375 16.796875 8.0625 
Q 21.484375 6.890625 26.703125 6.890625 
Q 35.15625 6.890625 40.078125 11.328125 
Q 45.015625 15.765625 45.015625 23.390625 
Q 45.015625 31 40.078125 35.4375 
Q 35.15625 39.890625 26.703125 39.890625 
Q 22.75 39.890625 18.8125 39.015625 
Q 14.890625 38.140625 10.796875 36.28125 
z
" id="DejaVuSans-53"/>
      </defs>
      <g transform="translate(494.696488 652.196875)scale(0.2 -0.2)">
       <use xlink:href="#DejaVuSans-49"/>
       <use x="63.623047" xlink:href="#DejaVuSans-53"/>
      </g>
     </g>
    </g>
    <g id="xtick_8">
     <g id="line2d_8">
      <g>
       <use style="stroke:#000000;stroke-width:0.8;" x="553.53719" xlink:href="#m374a663e5b" y="630"/>
      </g>
     </g>
     <g id="text_8">
      <!-- 16 -->
      <defs>
       <path d="M 33.015625 40.375 
Q 26.375 40.375 22.484375 35.828125 
Q 18.609375 31.296875 18.609375 23.390625 
Q 18.609375 15.53125 22.484375 10.953125 
Q 26.375 6.390625 33.015625 6.390625 
Q 39.65625 6.390625 43.53125 10.953125 
Q 47.40625 15.53125 47.40625 23.390625 
Q 47.40625 31.296875 43.53125 35.828125 
Q 39.65625 40.375 33.015625 40.375 
z
M 52.59375 71.296875 
L 52.59375 62.3125 
Q 48.875 64.0625 45.09375 64.984375 
Q 41.3125 65.921875 37.59375 65.921875 
Q 27.828125 65.921875 22.671875 59.328125 
Q 17.53125 52.734375 16.796875 39.40625 
Q 19.671875 43.65625 24.015625 45.921875 
Q 28.375 48.1875 33.59375 48.1875 
Q 44.578125 48.1875 50.953125 41.515625 
Q 57.328125 34.859375 57.328125 23.390625 
Q 57.328125 12.15625 50.6875 5.359375 
Q 44.046875 -1.421875 33.015625 -1.421875 
Q 20.359375 -1.421875 13.671875 8.265625 
Q 6.984375 17.96875 6.984375 36.375 
Q 6.984375 53.65625 15.1875 63.9375 
Q 23.390625 74.21875 37.203125 74.21875 
Q 40.921875 74.21875 44.703125 73.484375 
Q 48.484375 72.75 52.59375 71.296875 
z
" id="DejaVuSans-54"/>
      </defs>
      <g transform="translate(540.81219 652.196875)scale(0.2 -0.2)">
       <use xlink:href="#DejaVuSans-49"/>
       <use x="63.623047" xlink:href="#DejaVuSans-54"/>
      </g>
     </g>
    </g>
    <g id="xtick_9">
     <g id="line2d_9">
      <g>
       <use style="stroke:#000000;stroke-width:0.8;" x="599.652893" xlink:href="#m374a663e5b" y="630"/>
      </g>
     </g>
     <g id="text_9">
      <!-- 17 -->
      <defs>
       <path d="M 8.203125 72.90625 
L 55.078125 72.90625 
L 55.078125 68.703125 
L 28.609375 0 
L 18.3125 0 
L 43.21875 64.59375 
L 8.203125 64.59375 
z
" id="DejaVuSans-55"/>
      </defs>
      <g transform="translate(586.927893 652.196875)scale(0.2 -0.2)">
       <use xlink:href="#DejaVuSans-49"/>
       <use x="63.623047" xlink:href="#DejaVuSans-55"/>
      </g>
     </g>
    </g>
    <g id="xtick_10">
     <g id="line2d_10">
      <g>
       <use style="stroke:#000000;stroke-width:0.8;" x="645.768595" xlink:href="#m374a663e5b" y="630"/>
      </g>
     </g>
     <g id="text_10">
      <!-- 18 -->
      <defs>
       <path d="M 31.78125 34.625 
Q 24.75 34.625 20.71875 30.859375 
Q 16.703125 27.09375 16.703125 20.515625 
Q 16.703125 13.921875 20.71875 10.15625 
Q 24.75 6.390625 31.78125 6.390625 
Q 38.8125 6.390625 42.859375 10.171875 
Q 46.921875 13.96875 46.921875 20.515625 
Q 46.921875 27.09375 42.890625 30.859375 
Q 38.875 34.625 31.78125 34.625 
z
M 21.921875 38.8125 
Q 15.578125 40.375 12.03125 44.71875 
Q 8.5 49.078125 8.5 55.328125 
Q 8.5 64.0625 14.71875 69.140625 
Q 20.953125 74.21875 31.78125 74.21875 
Q 42.671875 74.21875 48.875 69.140625 
Q 55.078125 64.0625 55.078125 55.328125 
Q 55.078125 49.078125 51.53125 44.71875 
Q 48 40.375 41.703125 38.8125 
Q 48.828125 37.15625 52.796875 32.3125 
Q 56.78125 27.484375 56.78125 20.515625 
Q 56.78125 9.90625 50.3125 4.234375 
Q 43.84375 -1.421875 31.78125 -1.421875 
Q 19.734375 -1.421875 13.25 4.234375 
Q 6.78125 9.90625 6.78125 20.515625 
Q 6.78125 27.484375 10.78125 32.3125 
Q 14.796875 37.15625 21.921875 38.8125 
z
M 18.3125 54.390625 
Q 18.3125 48.734375 21.84375 45.5625 
Q 25.390625 42.390625 31.78125 42.390625 
Q 38.140625 42.390625 41.71875 45.5625 
Q 45.3125 48.734375 45.3125 54.390625 
Q 45.3125 60.0625 41.71875 63.234375 
Q 38.140625 66.40625 31.78125 66.40625 
Q 25.390625 66.40625 21.84375 63.234375 
Q 18.3125 60.0625 18.3125 54.390625 
z
" id="DejaVuSans-56"/>
      </defs>
      <g transform="translate(633.043595 652.196875)scale(0.2 -0.2)">
       <use xlink:href="#DejaVuSans-49"/>
       <use x="63.623047" xlink:href="#DejaVuSans-56"/>
      </g>
     </g>
    </g>
    <g id="xtick_11">
     <g id="line2d_11">
      <g>
       <use style="stroke:#000000;stroke-width:0.8;" x="691.884298" xlink:href="#m374a663e5b" y="630"/>
      </g>
     </g>
     <g id="text_11">
      <!-- 19 -->
      <g transform="translate(679.159298 652.196875)scale(0.2 -0.2)">
       <use xlink:href="#DejaVuSans-49"/>
       <use x="63.623047" xlink:href="#DejaVuSans-57"/>
      </g>
     </g>
    </g>
    <g id="xtick_12">
     <g id="line2d_12">
      <g>
       <use style="stroke:#000000;stroke-width:0.8;" x="738" xlink:href="#m374a663e5b" y="630"/>
      </g>
     </g>
     <g id="text_12">
      <!-- 20 -->
      <g transform="translate(725.275 652.196875)scale(0.2 -0.2)">
       <use xlink:href="#DejaVuSans-50"/>
       <use x="63.623047" xlink:href="#DejaVuSans-48"/>
      </g>
     </g>
    </g>
    <g id="xtick_13">
     <g id="line2d_13">
      <g>
       <use style="stroke:#000000;stroke-width:0.8;" x="784.115702" xlink:href="#m374a663e5b" y="630"/>
      </g>
     </g>
     <g id="text_13">
      <!-- 21 -->
      <g transform="translate(771.390702 652.196875)scale(0.2 -0.2)">
       <use xlink:href="#DejaVuSans-50"/>
       <use x="63.623047" xlink:href="#DejaVuSans-49"/>
      </g>
     </g>
    </g>
    <g id="xtick_14">
     <g id="line2d_14">
      <g>
       <use style="stroke:#000000;stroke-width:0.8;" x="830.231405" xlink:href="#m374a663e5b" y="630"/>
      </g>
     </g>
     <g id="text_14">
      <!-- 22 -->
      <g transform="translate(817.506405 652.196875)scale(0.2 -0.2)">
       <use xlink:href="#DejaVuSans-50"/>
       <use x="63.623047" xlink:href="#DejaVuSans-50"/>
      </g>
     </g>
    </g>
    <g id="xtick_15">
     <g id="line2d_15">
      <g>
       <use style="stroke:#000000;stroke-width:0.8;" x="876.347107" xlink:href="#m374a663e5b" y="630"/>
      </g>
     </g>
     <g id="text_15">
      <!-- 23 -->
      <g transform="translate(863.622107 652.196875)scale(0.2 -0.2)">
       <use xlink:href="#DejaVuSans-50"/>
       <use x="63.623047" xlink:href="#DejaVuSans-51"/>
      </g>
     </g>
    </g>
    <g id="xtick_16">
     <g id="line2d_16">
      <g>
       <use style="stroke:#000000;stroke-width:0.8;" x="922.46281" xlink:href="#m374a663e5b" y="630"/>
      </g>
     </g>
     <g id="text_16">
      <!-- 24 -->
      <g transform="translate(909.73781 652.196875)scale(0.2 -0.2)">
       <use xlink:href="#DejaVuSans-50"/>
       <use x="63.623047" xlink:href="#DejaVuSans-52"/>
      </g>
     </g>
    </g>
    <g id="xtick_17">
     <g id="line2d_17">
      <g>
       <use style="stroke:#000000;stroke-width:0.8;" x="968.578512" xlink:href="#m374a663e5b" y="630"/>
      </g>
     </g>
     <g id="text_17">
      <!-- 25 -->
      <g transform="translate(955.853512 652.196875)scale(0.2 -0.2)">
       <use xlink:href="#DejaVuSans-50"/>
       <use x="63.623047" xlink:href="#DejaVuSans-53"/>
      </g>
     </g>
    </g>
    <g id="xtick_18">
     <g id="line2d_18">
      <g>
       <use style="stroke:#000000;stroke-width:0.8;" x="1014.694215" xlink:href="#m374a663e5b" y="630"/>
      </g>
     </g>
     <g id="text_18">
      <!-- 26 -->
      <g transform="translate(1001.969215 652.196875)scale(0.2 -0.2)">
       <use xlink:href="#DejaVuSans-50"/>
       <use x="63.623047" xlink:href="#DejaVuSans-54"/>
      </g>
     </g>
    </g>
    <g id="xtick_19">
     <g id="line2d_19">
      <g>
       <use style="stroke:#000000;stroke-width:0.8;" x="1060.809917" xlink:href="#m374a663e5b" y="630"/>
      </g>
     </g>
     <g id="text_19">
      <!-- 27 -->
      <g transform="translate(1048.084917 652.196875)scale(0.2 -0.2)">
       <use xlink:href="#DejaVuSans-50"/>
       <use x="63.623047" xlink:href="#DejaVuSans-55"/>
      </g>
     </g>
    </g>
    <g id="xtick_20">
     <g id="line2d_20">
      <g>
       <use style="stroke:#000000;stroke-width:0.8;" x="1106.92562" xlink:href="#m374a663e5b" y="630"/>
      </g>
     </g>
     <g id="text_20">
      <!-- 28 -->
      <g transform="translate(1094.20062 652.196875)scale(0.2 -0.2)">
       <use xlink:href="#DejaVuSans-50"/>
       <use x="63.623047" xlink:href="#DejaVuSans-56"/>
      </g>
     </g>
    </g>
    <g id="xtick_21">
     <g id="line2d_21">
      <g>
       <use style="stroke:#000000;stroke-width:0.8;" x="1153.041322" xlink:href="#m374a663e5b" y="630"/>
      </g>
     </g>
     <g id="text_21">
      <!-- 29 -->
      <g transform="translate(1140.316322 652.196875)scale(0.2 -0.2)">
       <use xlink:href="#DejaVuSans-50"/>
       <use x="63.623047" xlink:href="#DejaVuSans-57"/>
      </g>
     </g>
    </g>
    <g id="xtick_22">
     <g id="line2d_22">
      <g>
       <use style="stroke:#000000;stroke-width:0.8;" x="1199.157025" xlink:href="#m374a663e5b" y="630"/>
      </g>
     </g>
     <g id="text_22">
      <!-- 30 -->
      <g transform="translate(1186.432025 652.196875)scale(0.2 -0.2)">
       <use xlink:href="#DejaVuSans-51"/>
       <use x="63.623047" xlink:href="#DejaVuSans-48"/>
      </g>
     </g>
    </g>
    <g id="xtick_23">
     <g id="line2d_23">
      <g>
       <use style="stroke:#000000;stroke-width:0.8;" x="1245.272727" xlink:href="#m374a663e5b" y="630"/>
      </g>
     </g>
     <g id="text_23">
      <!-- 31 -->
      <g transform="translate(1232.547727 652.196875)scale(0.2 -0.2)">
       <use xlink:href="#DejaVuSans-51"/>
       <use x="63.623047" xlink:href="#DejaVuSans-49"/>
      </g>
     </g>
    </g>
    <g id="text_24">
     <!-- Semana Epidemiológica -->
     <defs>
      <path d="M 53.515625 70.515625 
L 53.515625 60.890625 
Q 47.90625 63.578125 42.921875 64.890625 
Q 37.9375 66.21875 33.296875 66.21875 
Q 25.25 66.21875 20.875 63.09375 
Q 16.5 59.96875 16.5 54.203125 
Q 16.5 49.359375 19.40625 46.890625 
Q 22.3125 44.4375 30.421875 42.921875 
L 36.375 41.703125 
Q 47.40625 39.59375 52.65625 34.296875 
Q 57.90625 29 57.90625 20.125 
Q 57.90625 9.515625 50.796875 4.046875 
Q 43.703125 -1.421875 29.984375 -1.421875 
Q 24.8125 -1.421875 18.96875 -0.25 
Q 13.140625 0.921875 6.890625 3.21875 
L 6.890625 13.375 
Q 12.890625 10.015625 18.65625 8.296875 
Q 24.421875 6.59375 29.984375 6.59375 
Q 38.421875 6.59375 43.015625 9.90625 
Q 47.609375 13.234375 47.609375 19.390625 
Q 47.609375 24.75 44.3125 27.78125 
Q 41.015625 30.8125 33.5 32.328125 
L 27.484375 33.5 
Q 16.453125 35.6875 11.515625 40.375 
Q 6.59375 45.0625 6.59375 53.421875 
Q 6.59375 63.09375 13.40625 68.65625 
Q 20.21875 74.21875 32.171875 74.21875 
Q 37.3125 74.21875 42.625 73.28125 
Q 47.953125 72.359375 53.515625 70.515625 
z
" id="DejaVuSans-83"/>
      <path d="M 56.203125 29.59375 
L 56.203125 25.203125 
L 14.890625 25.203125 
Q 15.484375 15.921875 20.484375 11.0625 
Q 25.484375 6.203125 34.421875 6.203125 
Q 39.59375 6.203125 44.453125 7.46875 
Q 49.3125 8.734375 54.109375 11.28125 
L 54.109375 2.78125 
Q 49.265625 0.734375 44.1875 -0.34375 
Q 39.109375 -1.421875 33.890625 -1.421875 
Q 20.796875 -1.421875 13.15625 6.1875 
Q 5.515625 13.8125 5.515625 26.8125 
Q 5.515625 40.234375 12.765625 48.109375 
Q 20.015625 56 32.328125 56 
Q 43.359375 56 49.78125 48.890625 
Q 56.203125 41.796875 56.203125 29.59375 
z
M 47.21875 32.234375 
Q 47.125 39.59375 43.09375 43.984375 
Q 39.0625 48.390625 32.421875 48.390625 
Q 24.90625 48.390625 20.390625 44.140625 
Q 15.875 39.890625 15.1875 32.171875 
z
" id="DejaVuSans-101"/>
      <path d="M 52 44.1875 
Q 55.375 50.25 60.0625 53.125 
Q 64.75 56 71.09375 56 
Q 79.640625 56 84.28125 50.015625 
Q 88.921875 44.046875 88.921875 33.015625 
L 88.921875 0 
L 79.890625 0 
L 79.890625 32.71875 
Q 79.890625 40.578125 77.09375 44.375 
Q 74.3125 48.1875 68.609375 48.1875 
Q 61.625 48.1875 57.5625 43.546875 
Q 53.515625 38.921875 53.515625 30.90625 
L 53.515625 0 
L 44.484375 0 
L 44.484375 32.71875 
Q 44.484375 40.625 41.703125 44.40625 
Q 38.921875 48.1875 33.109375 48.1875 
Q 26.21875 48.1875 22.15625 43.53125 
Q 18.109375 38.875 18.109375 30.90625 
L 18.109375 0 
L 9.078125 0 
L 9.078125 54.6875 
L 18.109375 54.6875 
L 18.109375 46.1875 
Q 21.1875 51.21875 25.484375 53.609375 
Q 29.78125 56 35.6875 56 
Q 41.65625 56 45.828125 52.96875 
Q 50 49.953125 52 44.1875 
z
" id="DejaVuSans-109"/>
      <path d="M 34.28125 27.484375 
Q 23.390625 27.484375 19.1875 25 
Q 14.984375 22.515625 14.984375 16.5 
Q 14.984375 11.71875 18.140625 8.90625 
Q 21.296875 6.109375 26.703125 6.109375 
Q 34.1875 6.109375 38.703125 11.40625 
Q 43.21875 16.703125 43.21875 25.484375 
L 43.21875 27.484375 
z
M 52.203125 31.203125 
L 52.203125 0 
L 43.21875 0 
L 43.21875 8.296875 
Q 40.140625 3.328125 35.546875 0.953125 
Q 30.953125 -1.421875 24.3125 -1.421875 
Q 15.921875 -1.421875 10.953125 3.296875 
Q 6 8.015625 6 15.921875 
Q 6 25.140625 12.171875 29.828125 
Q 18.359375 34.515625 30.609375 34.515625 
L 43.21875 34.515625 
L 43.21875 35.40625 
Q 43.21875 41.609375 39.140625 45 
Q 35.0625 48.390625 27.6875 48.390625 
Q 23 48.390625 18.546875 47.265625 
Q 14.109375 46.140625 10.015625 43.890625 
L 10.015625 52.203125 
Q 14.9375 54.109375 19.578125 55.046875 
Q 24.21875 56 28.609375 56 
Q 40.484375 56 46.34375 49.84375 
Q 52.203125 43.703125 52.203125 31.203125 
z
" id="DejaVuSans-97"/>
      <path d="M 54.890625 33.015625 
L 54.890625 0 
L 45.90625 0 
L 45.90625 32.71875 
Q 45.90625 40.484375 42.875 44.328125 
Q 39.84375 48.1875 33.796875 48.1875 
Q 26.515625 48.1875 22.3125 43.546875 
Q 18.109375 38.921875 18.109375 30.90625 
L 18.109375 0 
L 9.078125 0 
L 9.078125 54.6875 
L 18.109375 54.6875 
L 18.109375 46.1875 
Q 21.34375 51.125 25.703125 53.5625 
Q 30.078125 56 35.796875 56 
Q 45.21875 56 50.046875 50.171875 
Q 54.890625 44.34375 54.890625 33.015625 
z
" id="DejaVuSans-110"/>
      <path id="DejaVuSans-32"/>
      <path d="M 9.8125 72.90625 
L 55.90625 72.90625 
L 55.90625 64.59375 
L 19.671875 64.59375 
L 19.671875 43.015625 
L 54.390625 43.015625 
L 54.390625 34.71875 
L 19.671875 34.71875 
L 19.671875 8.296875 
L 56.78125 8.296875 
L 56.78125 0 
L 9.8125 0 
z
" id="DejaVuSans-69"/>
      <path d="M 18.109375 8.203125 
L 18.109375 -20.796875 
L 9.078125 -20.796875 
L 9.078125 54.6875 
L 18.109375 54.6875 
L 18.109375 46.390625 
Q 20.953125 51.265625 25.265625 53.625 
Q 29.59375 56 35.59375 56 
Q 45.5625 56 51.78125 48.09375 
Q 58.015625 40.1875 58.015625 27.296875 
Q 58.015625 14.40625 51.78125 6.484375 
Q 45.5625 -1.421875 35.59375 -1.421875 
Q 29.59375 -1.421875 25.265625 0.953125 
Q 20.953125 3.328125 18.109375 8.203125 
z
M 48.6875 27.296875 
Q 48.6875 37.203125 44.609375 42.84375 
Q 40.53125 48.484375 33.40625 48.484375 
Q 26.265625 48.484375 22.1875 42.84375 
Q 18.109375 37.203125 18.109375 27.296875 
Q 18.109375 17.390625 22.1875 11.75 
Q 26.265625 6.109375 33.40625 6.109375 
Q 40.53125 6.109375 44.609375 11.75 
Q 48.6875 17.390625 48.6875 27.296875 
z
" id="DejaVuSans-112"/>
      <path d="M 9.421875 54.6875 
L 18.40625 54.6875 
L 18.40625 0 
L 9.421875 0 
z
M 9.421875 75.984375 
L 18.40625 75.984375 
L 18.40625 64.59375 
L 9.421875 64.59375 
z
" id="DejaVuSans-105"/>
      <path d="M 45.40625 46.390625 
L 45.40625 75.984375 
L 54.390625 75.984375 
L 54.390625 0 
L 45.40625 0 
L 45.40625 8.203125 
Q 42.578125 3.328125 38.25 0.953125 
Q 33.9375 -1.421875 27.875 -1.421875 
Q 17.96875 -1.421875 11.734375 6.484375 
Q 5.515625 14.40625 5.515625 27.296875 
Q 5.515625 40.1875 11.734375 48.09375 
Q 17.96875 56 27.875 56 
Q 33.9375 56 38.25 53.625 
Q 42.578125 51.265625 45.40625 46.390625 
z
M 14.796875 27.296875 
Q 14.796875 17.390625 18.875 11.75 
Q 22.953125 6.109375 30.078125 6.109375 
Q 37.203125 6.109375 41.296875 11.75 
Q 45.40625 17.390625 45.40625 27.296875 
Q 45.40625 37.203125 41.296875 42.84375 
Q 37.203125 48.484375 30.078125 48.484375 
Q 22.953125 48.484375 18.875 42.84375 
Q 14.796875 37.203125 14.796875 27.296875 
z
" id="DejaVuSans-100"/>
      <path d="M 30.609375 48.390625 
Q 23.390625 48.390625 19.1875 42.75 
Q 14.984375 37.109375 14.984375 27.296875 
Q 14.984375 17.484375 19.15625 11.84375 
Q 23.34375 6.203125 30.609375 6.203125 
Q 37.796875 6.203125 41.984375 11.859375 
Q 46.1875 17.53125 46.1875 27.296875 
Q 46.1875 37.015625 41.984375 42.703125 
Q 37.796875 48.390625 30.609375 48.390625 
z
M 30.609375 56 
Q 42.328125 56 49.015625 48.375 
Q 55.71875 40.765625 55.71875 27.296875 
Q 55.71875 13.875 49.015625 6.21875 
Q 42.328125 -1.421875 30.609375 -1.421875 
Q 18.84375 -1.421875 12.171875 6.21875 
Q 5.515625 13.875 5.515625 27.296875 
Q 5.515625 40.765625 12.171875 48.375 
Q 18.84375 56 30.609375 56 
z
" id="DejaVuSans-111"/>
      <path d="M 9.421875 75.984375 
L 18.40625 75.984375 
L 18.40625 0 
L 9.421875 0 
z
" id="DejaVuSans-108"/>
      <path d="M 30.609375 48.390625 
Q 23.390625 48.390625 19.1875 42.75 
Q 14.984375 37.109375 14.984375 27.296875 
Q 14.984375 17.484375 19.15625 11.84375 
Q 23.34375 6.203125 30.609375 6.203125 
Q 37.796875 6.203125 41.984375 11.859375 
Q 46.1875 17.53125 46.1875 27.296875 
Q 46.1875 37.015625 41.984375 42.703125 
Q 37.796875 48.390625 30.609375 48.390625 
z
M 30.609375 56 
Q 42.328125 56 49.015625 48.375 
Q 55.71875 40.765625 55.71875 27.296875 
Q 55.71875 13.875 49.015625 6.21875 
Q 42.328125 -1.421875 30.609375 -1.421875 
Q 18.84375 -1.421875 12.171875 6.21875 
Q 5.515625 13.875 5.515625 27.296875 
Q 5.515625 40.765625 12.171875 48.375 
Q 18.84375 56 30.609375 56 
z
M 37.40625 79.984375 
L 47.125 79.984375 
L 31.203125 61.625 
L 23.734375 61.625 
z
" id="DejaVuSans-243"/>
      <path d="M 45.40625 27.984375 
Q 45.40625 37.75 41.375 43.109375 
Q 37.359375 48.484375 30.078125 48.484375 
Q 22.859375 48.484375 18.828125 43.109375 
Q 14.796875 37.75 14.796875 27.984375 
Q 14.796875 18.265625 18.828125 12.890625 
Q 22.859375 7.515625 30.078125 7.515625 
Q 37.359375 7.515625 41.375 12.890625 
Q 45.40625 18.265625 45.40625 27.984375 
z
M 54.390625 6.78125 
Q 54.390625 -7.171875 48.1875 -13.984375 
Q 42 -20.796875 29.203125 -20.796875 
Q 24.46875 -20.796875 20.265625 -20.09375 
Q 16.0625 -19.390625 12.109375 -17.921875 
L 12.109375 -9.1875 
Q 16.0625 -11.328125 19.921875 -12.34375 
Q 23.78125 -13.375 27.78125 -13.375 
Q 36.625 -13.375 41.015625 -8.765625 
Q 45.40625 -4.15625 45.40625 5.171875 
L 45.40625 9.625 
Q 42.625 4.78125 38.28125 2.390625 
Q 33.9375 0 27.875 0 
Q 17.828125 0 11.671875 7.65625 
Q 5.515625 15.328125 5.515625 27.984375 
Q 5.515625 40.671875 11.671875 48.328125 
Q 17.828125 56 27.875 56 
Q 33.9375 56 38.28125 53.609375 
Q 42.625 51.21875 45.40625 46.390625 
L 45.40625 54.6875 
L 54.390625 54.6875 
z
" id="DejaVuSans-103"/>
      <path d="M 48.78125 52.59375 
L 48.78125 44.1875 
Q 44.96875 46.296875 41.140625 47.34375 
Q 37.3125 48.390625 33.40625 48.390625 
Q 24.65625 48.390625 19.8125 42.84375 
Q 14.984375 37.3125 14.984375 27.296875 
Q 14.984375 17.28125 19.8125 11.734375 
Q 24.65625 6.203125 33.40625 6.203125 
Q 37.3125 6.203125 41.140625 7.25 
Q 44.96875 8.296875 48.78125 10.40625 
L 48.78125 2.09375 
Q 45.015625 0.34375 40.984375 -0.53125 
Q 36.96875 -1.421875 32.421875 -1.421875 
Q 20.0625 -1.421875 12.78125 6.34375 
Q 5.515625 14.109375 5.515625 27.296875 
Q 5.515625 40.671875 12.859375 48.328125 
Q 20.21875 56 33.015625 56 
Q 37.15625 56 41.109375 55.140625 
Q 45.0625 54.296875 48.78125 52.59375 
z
" id="DejaVuSans-99"/>
     </defs>
     <g transform="translate(617.751562 676.353125)scale(0.2 -0.2)">
      <use xlink:href="#DejaVuSans-83"/>
      <use x="63.476562" xlink:href="#DejaVuSans-101"/>
      <use x="125" xlink:href="#DejaVuSans-109"/>
      <use x="222.412109" xlink:href="#DejaVuSans-97"/>
      <use x="283.691406" xlink:href="#DejaVuSans-110"/>
      <use x="347.070312" xlink:href="#DejaVuSans-97"/>
      <use x="408.349609" xlink:href="#DejaVuSans-32"/>
      <use x="440.136719" xlink:href="#DejaVuSans-69"/>
      <use x="503.320312" xlink:href="#DejaVuSans-112"/>
      <use x="566.796875" xlink:href="#DejaVuSans-105"/>
      <use x="594.580078" xlink:href="#DejaVuSans-100"/>
      <use x="658.056641" xlink:href="#DejaVuSans-101"/>
      <use x="719.580078" xlink:href="#DejaVuSans-109"/>
      <use x="816.992188" xlink:href="#DejaVuSans-105"/>
      <use x="844.775391" xlink:href="#DejaVuSans-111"/>
      <use x="905.957031" xlink:href="#DejaVuSans-108"/>
      <use x="933.740234" xlink:href="#DejaVuSans-243"/>
      <use x="994.921875" xlink:href="#DejaVuSans-103"/>
      <use x="1058.398438" xlink:href="#DejaVuSans-105"/>
      <use x="1086.181641" xlink:href="#DejaVuSans-99"/>
      <use x="1141.162109" xlink:href="#DejaVuSans-97"/>
     </g>
    </g>
   </g>
   <g id="matplotlib.axis_2">
    <g id="ytick_1">
     <g id="line2d_24">
      <path clip-path="url(#pa4f629b905)" d="M 180 605.291441 
L 1296 605.291441 
" style="fill:none;stroke:#b0b0b0;stroke-linecap:square;stroke-width:0.8;"/>
     </g>
     <g id="line2d_25">
      <defs>
       <path d="M 0 0 
L -3.5 0 
" id="mc5a61f42fc" style="stroke:#000000;stroke-width:0.8;"/>
      </defs>
      <g>
       <use style="stroke:#000000;stroke-width:0.8;" x="180" xlink:href="#mc5a61f42fc" y="605.291441"/>
      </g>
     </g>
     <g id="text_25">
      <!-- 0 -->
      <g transform="translate(160.275 612.889879)scale(0.2 -0.2)">
       <use xlink:href="#DejaVuSans-48"/>
      </g>
     </g>
    </g>
    <g id="ytick_2">
     <g id="line2d_26">
      <path clip-path="url(#pa4f629b905)" d="M 180 552.098702 
L 1296 552.098702 
" style="fill:none;stroke:#b0b0b0;stroke-linecap:square;stroke-width:0.8;"/>
     </g>
     <g id="line2d_27">
      <g>
       <use style="stroke:#000000;stroke-width:0.8;" x="180" xlink:href="#mc5a61f42fc" y="552.098702"/>
      </g>
     </g>
     <g id="text_26">
      <!-- 100000 -->
      <g transform="translate(96.65 559.69714)scale(0.2 -0.2)">
       <use xlink:href="#DejaVuSans-49"/>
       <use x="63.623047" xlink:href="#DejaVuSans-48"/>
       <use x="127.246094" xlink:href="#DejaVuSans-48"/>
       <use x="190.869141" xlink:href="#DejaVuSans-48"/>
       <use x="254.492188" xlink:href="#DejaVuSans-48"/>
       <use x="318.115234" xlink:href="#DejaVuSans-48"/>
      </g>
     </g>
    </g>
    <g id="ytick_3">
     <g id="line2d_28">
      <path clip-path="url(#pa4f629b905)" d="M 180 498.905964 
L 1296 498.905964 
" style="fill:none;stroke:#b0b0b0;stroke-linecap:square;stroke-width:0.8;"/>
     </g>
     <g id="line2d_29">
      <g>
       <use style="stroke:#000000;stroke-width:0.8;" x="180" xlink:href="#mc5a61f42fc" y="498.905964"/>
      </g>
     </g>
     <g id="text_27">
      <!-- 200000 -->
      <g transform="translate(96.65 506.504401)scale(0.2 -0.2)">
       <use xlink:href="#DejaVuSans-50"/>
       <use x="63.623047" xlink:href="#DejaVuSans-48"/>
       <use x="127.246094" xlink:href="#DejaVuSans-48"/>
       <use x="190.869141" xlink:href="#DejaVuSans-48"/>
       <use x="254.492188" xlink:href="#DejaVuSans-48"/>
       <use x="318.115234" xlink:href="#DejaVuSans-48"/>
      </g>
     </g>
    </g>
    <g id="ytick_4">
     <g id="line2d_30">
      <path clip-path="url(#pa4f629b905)" d="M 180 445.713225 
L 1296 445.713225 
" style="fill:none;stroke:#b0b0b0;stroke-linecap:square;stroke-width:0.8;"/>
     </g>
     <g id="line2d_31">
      <g>
       <use style="stroke:#000000;stroke-width:0.8;" x="180" xlink:href="#mc5a61f42fc" y="445.713225"/>
      </g>
     </g>
     <g id="text_28">
      <!-- 300000 -->
      <g transform="translate(96.65 453.311663)scale(0.2 -0.2)">
       <use xlink:href="#DejaVuSans-51"/>
       <use x="63.623047" xlink:href="#DejaVuSans-48"/>
       <use x="127.246094" xlink:href="#DejaVuSans-48"/>
       <use x="190.869141" xlink:href="#DejaVuSans-48"/>
       <use x="254.492188" xlink:href="#DejaVuSans-48"/>
       <use x="318.115234" xlink:href="#DejaVuSans-48"/>
      </g>
     </g>
    </g>
    <g id="ytick_5">
     <g id="line2d_32">
      <path clip-path="url(#pa4f629b905)" d="M 180 392.520487 
L 1296 392.520487 
" style="fill:none;stroke:#b0b0b0;stroke-linecap:square;stroke-width:0.8;"/>
     </g>
     <g id="line2d_33">
      <g>
       <use style="stroke:#000000;stroke-width:0.8;" x="180" xlink:href="#mc5a61f42fc" y="392.520487"/>
      </g>
     </g>
     <g id="text_29">
      <!-- 400000 -->
      <g transform="translate(96.65 400.118924)scale(0.2 -0.2)">
       <use xlink:href="#DejaVuSans-52"/>
       <use x="63.623047" xlink:href="#DejaVuSans-48"/>
       <use x="127.246094" xlink:href="#DejaVuSans-48"/>
       <use x="190.869141" xlink:href="#DejaVuSans-48"/>
       <use x="254.492188" xlink:href="#DejaVuSans-48"/>
       <use x="318.115234" xlink:href="#DejaVuSans-48"/>
      </g>
     </g>
    </g>
    <g id="ytick_6">
     <g id="line2d_34">
      <path clip-path="url(#pa4f629b905)" d="M 180 339.327748 
L 1296 339.327748 
" style="fill:none;stroke:#b0b0b0;stroke-linecap:square;stroke-width:0.8;"/>
     </g>
     <g id="line2d_35">
      <g>
       <use style="stroke:#000000;stroke-width:0.8;" x="180" xlink:href="#mc5a61f42fc" y="339.327748"/>
      </g>
     </g>
     <g id="text_30">
      <!-- 500000 -->
      <g transform="translate(96.65 346.926186)scale(0.2 -0.2)">
       <use xlink:href="#DejaVuSans-53"/>
       <use x="63.623047" xlink:href="#DejaVuSans-48"/>
       <use x="127.246094" xlink:href="#DejaVuSans-48"/>
       <use x="190.869141" xlink:href="#DejaVuSans-48"/>
       <use x="254.492188" xlink:href="#DejaVuSans-48"/>
       <use x="318.115234" xlink:href="#DejaVuSans-48"/>
      </g>
     </g>
    </g>
    <g id="ytick_7">
     <g id="line2d_36">
      <path clip-path="url(#pa4f629b905)" d="M 180 286.13501 
L 1296 286.13501 
" style="fill:none;stroke:#b0b0b0;stroke-linecap:square;stroke-width:0.8;"/>
     </g>
     <g id="line2d_37">
      <g>
       <use style="stroke:#000000;stroke-width:0.8;" x="180" xlink:href="#mc5a61f42fc" y="286.13501"/>
      </g>
     </g>
     <g id="text_31">
      <!-- 600000 -->
      <g transform="translate(96.65 293.733447)scale(0.2 -0.2)">
       <use xlink:href="#DejaVuSans-54"/>
       <use x="63.623047" xlink:href="#DejaVuSans-48"/>
       <use x="127.246094" xlink:href="#DejaVuSans-48"/>
       <use x="190.869141" xlink:href="#DejaVuSans-48"/>
       <use x="254.492188" xlink:href="#DejaVuSans-48"/>
       <use x="318.115234" xlink:href="#DejaVuSans-48"/>
      </g>
     </g>
    </g>
    <g id="ytick_8">
     <g id="line2d_38">
      <path clip-path="url(#pa4f629b905)" d="M 180 232.942271 
L 1296 232.942271 
" style="fill:none;stroke:#b0b0b0;stroke-linecap:square;stroke-width:0.8;"/>
     </g>
     <g id="line2d_39">
      <g>
       <use style="stroke:#000000;stroke-width:0.8;" x="180" xlink:href="#mc5a61f42fc" y="232.942271"/>
      </g>
     </g>
     <g id="text_32">
      <!-- 700000 -->
      <g transform="translate(96.65 240.540709)scale(0.2 -0.2)">
       <use xlink:href="#DejaVuSans-55"/>
       <use x="63.623047" xlink:href="#DejaVuSans-48"/>
       <use x="127.246094" xlink:href="#DejaVuSans-48"/>
       <use x="190.869141" xlink:href="#DejaVuSans-48"/>
       <use x="254.492188" xlink:href="#DejaVuSans-48"/>
       <use x="318.115234" xlink:href="#DejaVuSans-48"/>
      </g>
     </g>
    </g>
    <g id="ytick_9">
     <g id="line2d_40">
      <path clip-path="url(#pa4f629b905)" d="M 180 179.749533 
L 1296 179.749533 
" style="fill:none;stroke:#b0b0b0;stroke-linecap:square;stroke-width:0.8;"/>
     </g>
     <g id="line2d_41">
      <g>
       <use style="stroke:#000000;stroke-width:0.8;" x="180" xlink:href="#mc5a61f42fc" y="179.749533"/>
      </g>
     </g>
     <g id="text_33">
      <!-- 800000 -->
      <g transform="translate(96.65 187.34797)scale(0.2 -0.2)">
       <use xlink:href="#DejaVuSans-56"/>
       <use x="63.623047" xlink:href="#DejaVuSans-48"/>
       <use x="127.246094" xlink:href="#DejaVuSans-48"/>
       <use x="190.869141" xlink:href="#DejaVuSans-48"/>
       <use x="254.492188" xlink:href="#DejaVuSans-48"/>
       <use x="318.115234" xlink:href="#DejaVuSans-48"/>
      </g>
     </g>
    </g>
    <g id="ytick_10">
     <g id="line2d_42">
      <path clip-path="url(#pa4f629b905)" d="M 180 126.556794 
L 1296 126.556794 
" style="fill:none;stroke:#b0b0b0;stroke-linecap:square;stroke-width:0.8;"/>
     </g>
     <g id="line2d_43">
      <g>
       <use style="stroke:#000000;stroke-width:0.8;" x="180" xlink:href="#mc5a61f42fc" y="126.556794"/>
      </g>
     </g>
     <g id="text_34">
      <!-- 900000 -->
      <g transform="translate(96.65 134.155232)scale(0.2 -0.2)">
       <use xlink:href="#DejaVuSans-57"/>
       <use x="63.623047" xlink:href="#DejaVuSans-48"/>
       <use x="127.246094" xlink:href="#DejaVuSans-48"/>
       <use x="190.869141" xlink:href="#DejaVuSans-48"/>
       <use x="254.492188" xlink:href="#DejaVuSans-48"/>
       <use x="318.115234" xlink:href="#DejaVuSans-48"/>
      </g>
     </g>
    </g>
    <g id="text_35">
     <!-- Casos Acumulados -->
     <defs>
      <path d="M 64.40625 67.28125 
L 64.40625 56.890625 
Q 59.421875 61.53125 53.78125 63.8125 
Q 48.140625 66.109375 41.796875 66.109375 
Q 29.296875 66.109375 22.65625 58.46875 
Q 16.015625 50.828125 16.015625 36.375 
Q 16.015625 21.96875 22.65625 14.328125 
Q 29.296875 6.6875 41.796875 6.6875 
Q 48.140625 6.6875 53.78125 8.984375 
Q 59.421875 11.28125 64.40625 15.921875 
L 64.40625 5.609375 
Q 59.234375 2.09375 53.4375 0.328125 
Q 47.65625 -1.421875 41.21875 -1.421875 
Q 24.65625 -1.421875 15.125 8.703125 
Q 5.609375 18.84375 5.609375 36.375 
Q 5.609375 53.953125 15.125 64.078125 
Q 24.65625 74.21875 41.21875 74.21875 
Q 47.75 74.21875 53.53125 72.484375 
Q 59.328125 70.75 64.40625 67.28125 
z
" id="DejaVuSans-67"/>
      <path d="M 44.28125 53.078125 
L 44.28125 44.578125 
Q 40.484375 46.53125 36.375 47.5 
Q 32.28125 48.484375 27.875 48.484375 
Q 21.1875 48.484375 17.84375 46.4375 
Q 14.5 44.390625 14.5 40.28125 
Q 14.5 37.15625 16.890625 35.375 
Q 19.28125 33.59375 26.515625 31.984375 
L 29.59375 31.296875 
Q 39.15625 29.25 43.1875 25.515625 
Q 47.21875 21.78125 47.21875 15.09375 
Q 47.21875 7.46875 41.1875 3.015625 
Q 35.15625 -1.421875 24.609375 -1.421875 
Q 20.21875 -1.421875 15.453125 -0.5625 
Q 10.6875 0.296875 5.421875 2 
L 5.421875 11.28125 
Q 10.40625 8.6875 15.234375 7.390625 
Q 20.0625 6.109375 24.8125 6.109375 
Q 31.15625 6.109375 34.5625 8.28125 
Q 37.984375 10.453125 37.984375 14.40625 
Q 37.984375 18.0625 35.515625 20.015625 
Q 33.0625 21.96875 24.703125 23.78125 
L 21.578125 24.515625 
Q 13.234375 26.265625 9.515625 29.90625 
Q 5.8125 33.546875 5.8125 39.890625 
Q 5.8125 47.609375 11.28125 51.796875 
Q 16.75 56 26.8125 56 
Q 31.78125 56 36.171875 55.265625 
Q 40.578125 54.546875 44.28125 53.078125 
z
" id="DejaVuSans-115"/>
      <path d="M 34.1875 63.1875 
L 20.796875 26.90625 
L 47.609375 26.90625 
z
M 28.609375 72.90625 
L 39.796875 72.90625 
L 67.578125 0 
L 57.328125 0 
L 50.6875 18.703125 
L 17.828125 18.703125 
L 11.1875 0 
L 0.78125 0 
z
" id="DejaVuSans-65"/>
      <path d="M 8.5 21.578125 
L 8.5 54.6875 
L 17.484375 54.6875 
L 17.484375 21.921875 
Q 17.484375 14.15625 20.5 10.265625 
Q 23.53125 6.390625 29.59375 6.390625 
Q 36.859375 6.390625 41.078125 11.03125 
Q 45.3125 15.671875 45.3125 23.6875 
L 45.3125 54.6875 
L 54.296875 54.6875 
L 54.296875 0 
L 45.3125 0 
L 45.3125 8.40625 
Q 42.046875 3.421875 37.71875 1 
Q 33.40625 -1.421875 27.6875 -1.421875 
Q 18.265625 -1.421875 13.375 4.4375 
Q 8.5 10.296875 8.5 21.578125 
z
M 31.109375 56 
z
" id="DejaVuSans-117"/>
     </defs>
     <g transform="translate(88.490625 452.189062)rotate(-90)scale(0.2 -0.2)">
      <use xlink:href="#DejaVuSans-67"/>
      <use x="69.824219" xlink:href="#DejaVuSans-97"/>
      <use x="131.103516" xlink:href="#DejaVuSans-115"/>
      <use x="183.203125" xlink:href="#DejaVuSans-111"/>
      <use x="244.384766" xlink:href="#DejaVuSans-115"/>
      <use x="296.484375" xlink:href="#DejaVuSans-32"/>
      <use x="328.271484" xlink:href="#DejaVuSans-65"/>
      <use x="394.929688" xlink:href="#DejaVuSans-99"/>
      <use x="449.910156" xlink:href="#DejaVuSans-117"/>
      <use x="513.289062" xlink:href="#DejaVuSans-109"/>
      <use x="610.701172" xlink:href="#DejaVuSans-117"/>
      <use x="674.080078" xlink:href="#DejaVuSans-108"/>
      <use x="701.863281" xlink:href="#DejaVuSans-97"/>
      <use x="763.142578" xlink:href="#DejaVuSans-100"/>
      <use x="826.619141" xlink:href="#DejaVuSans-111"/>
      <use x="887.800781" xlink:href="#DejaVuSans-115"/>
     </g>
    </g>
   </g>
   <g id="line2d_44">
    <path clip-path="url(#pa4f629b905)" d="M 276.842975 605.290909 
L 322.958678 605.283994 
L 369.07438 605.215907 
L 415.190083 605.119628 
L 461.305785 604.950476 
L 507.421488 604.776003 
L 553.53719 604.523338 
L 599.652893 604.270672 
L 645.768595 603.741405 
L 691.884298 603.037133 
L 738 601.730187 
L 784.115702 599.850356 
L 830.231405 596.777943 
L 876.347107 591.416647 
L 922.46281 585.714917 
L 968.578512 574.129007 
L 1014.694215 562.307453 
L 1060.809917 547.609235 
L 1106.92562 531.432792 
L 1153.041322 519.326124 
L 1199.157025 497.099539 
L 1245.272727 475.555947 
" style="fill:none;stroke:#1f77b4;stroke-linecap:square;stroke-width:4;"/>
    <defs>
     <path d="M 0 4 
C 1.060812 4 2.078319 3.578535 2.828427 2.828427 
C 3.578535 2.078319 4 1.060812 4 0 
C 4 -1.060812 3.578535 -2.078319 2.828427 -2.828427 
C 2.078319 -3.578535 1.060812 -4 0 -4 
C -1.060812 -4 -2.078319 -3.578535 -2.828427 -2.828427 
C -3.578535 -2.078319 -4 -1.060812 -4 0 
C -4 1.060812 -3.578535 2.078319 -2.828427 2.828427 
C -2.078319 3.578535 -1.060812 4 0 4 
z
" id="md7b1b705b8" style="stroke:#1f77b4;"/>
    </defs>
    <g clip-path="url(#pa4f629b905)">
     <use style="fill:#1f77b4;stroke:#1f77b4;" x="276.842975" xlink:href="#md7b1b705b8" y="605.290909"/>
     <use style="fill:#1f77b4;stroke:#1f77b4;" x="322.958678" xlink:href="#md7b1b705b8" y="605.283994"/>
     <use style="fill:#1f77b4;stroke:#1f77b4;" x="369.07438" xlink:href="#md7b1b705b8" y="605.215907"/>
     <use style="fill:#1f77b4;stroke:#1f77b4;" x="415.190083" xlink:href="#md7b1b705b8" y="605.119628"/>
     <use style="fill:#1f77b4;stroke:#1f77b4;" x="461.305785" xlink:href="#md7b1b705b8" y="604.950476"/>
     <use style="fill:#1f77b4;stroke:#1f77b4;" x="507.421488" xlink:href="#md7b1b705b8" y="604.776003"/>
     <use style="fill:#1f77b4;stroke:#1f77b4;" x="553.53719" xlink:href="#md7b1b705b8" y="604.523338"/>
     <use style="fill:#1f77b4;stroke:#1f77b4;" x="599.652893" xlink:href="#md7b1b705b8" y="604.270672"/>
     <use style="fill:#1f77b4;stroke:#1f77b4;" x="645.768595" xlink:href="#md7b1b705b8" y="603.741405"/>
     <use style="fill:#1f77b4;stroke:#1f77b4;" x="691.884298" xlink:href="#md7b1b705b8" y="603.037133"/>
     <use style="fill:#1f77b4;stroke:#1f77b4;" x="738" xlink:href="#md7b1b705b8" y="601.730187"/>
     <use style="fill:#1f77b4;stroke:#1f77b4;" x="784.115702" xlink:href="#md7b1b705b8" y="599.850356"/>
     <use style="fill:#1f77b4;stroke:#1f77b4;" x="830.231405" xlink:href="#md7b1b705b8" y="596.777943"/>
     <use style="fill:#1f77b4;stroke:#1f77b4;" x="876.347107" xlink:href="#md7b1b705b8" y="591.416647"/>
     <use style="fill:#1f77b4;stroke:#1f77b4;" x="922.46281" xlink:href="#md7b1b705b8" y="585.714917"/>
     <use style="fill:#1f77b4;stroke:#1f77b4;" x="968.578512" xlink:href="#md7b1b705b8" y="574.129007"/>
     <use style="fill:#1f77b4;stroke:#1f77b4;" x="1014.694215" xlink:href="#md7b1b705b8" y="562.307453"/>
     <use style="fill:#1f77b4;stroke:#1f77b4;" x="1060.809917" xlink:href="#md7b1b705b8" y="547.609235"/>
     <use style="fill:#1f77b4;stroke:#1f77b4;" x="1106.92562" xlink:href="#md7b1b705b8" y="531.432792"/>
     <use style="fill:#1f77b4;stroke:#1f77b4;" x="1153.041322" xlink:href="#md7b1b705b8" y="519.326124"/>
     <use style="fill:#1f77b4;stroke:#1f77b4;" x="1199.157025" xlink:href="#md7b1b705b8" y="497.099539"/>
     <use style="fill:#1f77b4;stroke:#1f77b4;" x="1245.272727" xlink:href="#md7b1b705b8" y="475.555947"/>
    </g>
   </g>
   <g id="line2d_45">
    <path clip-path="url(#pa4f629b905)" d="M 276.842975 605.290377 
L 322.958678 605.28293 
L 369.07438 605.192503 
L 415.190083 604.94622 
L 461.305785 604.433974 
L 507.421488 603.160008 
L 553.53719 600.645055 
L 599.652893 597.014119 
L 645.768595 589.876185 
L 691.884298 578.679114 
L 738 563.476097 
L 784.115702 541.013868 
L 830.231405 513.358963 
L 876.347107 479.772536 
L 922.46281 446.905275 
L 968.578512 407.936806 
L 1014.694215 367.097549 
L 1060.809917 320.15283 
L 1106.92562 277.030541 
L 1153.041322 239.728601 
L 1199.157025 193.000908 
L 1245.272727 144.639134 
" style="fill:none;stroke:#ff7f0e;stroke-linecap:square;stroke-width:4;"/>
    <defs>
     <path d="M 0 4 
C 1.060812 4 2.078319 3.578535 2.828427 2.828427 
C 3.578535 2.078319 4 1.060812 4 0 
C 4 -1.060812 3.578535 -2.078319 2.828427 -2.828427 
C 2.078319 -3.578535 1.060812 -4 0 -4 
C -1.060812 -4 -2.078319 -3.578535 -2.828427 -2.828427 
C -3.578535 -2.078319 -4 -1.060812 -4 0 
C -4 1.060812 -3.578535 2.078319 -2.828427 2.828427 
C -2.078319 3.578535 -1.060812 4 0 4 
z
" id="m6fa48f332a" style="stroke:#ff7f0e;"/>
    </defs>
    <g clip-path="url(#pa4f629b905)">
     <use style="fill:#ff7f0e;stroke:#ff7f0e;" x="276.842975" xlink:href="#m6fa48f332a" y="605.290377"/>
     <use style="fill:#ff7f0e;stroke:#ff7f0e;" x="322.958678" xlink:href="#m6fa48f332a" y="605.28293"/>
     <use style="fill:#ff7f0e;stroke:#ff7f0e;" x="369.07438" xlink:href="#m6fa48f332a" y="605.192503"/>
     <use style="fill:#ff7f0e;stroke:#ff7f0e;" x="415.190083" xlink:href="#m6fa48f332a" y="604.94622"/>
     <use style="fill:#ff7f0e;stroke:#ff7f0e;" x="461.305785" xlink:href="#m6fa48f332a" y="604.433974"/>
     <use style="fill:#ff7f0e;stroke:#ff7f0e;" x="507.421488" xlink:href="#m6fa48f332a" y="603.160008"/>
     <use style="fill:#ff7f0e;stroke:#ff7f0e;" x="553.53719" xlink:href="#m6fa48f332a" y="600.645055"/>
     <use style="fill:#ff7f0e;stroke:#ff7f0e;" x="599.652893" xlink:href="#m6fa48f332a" y="597.014119"/>
     <use style="fill:#ff7f0e;stroke:#ff7f0e;" x="645.768595" xlink:href="#m6fa48f332a" y="589.876185"/>
     <use style="fill:#ff7f0e;stroke:#ff7f0e;" x="691.884298" xlink:href="#m6fa48f332a" y="578.679114"/>
     <use style="fill:#ff7f0e;stroke:#ff7f0e;" x="738" xlink:href="#m6fa48f332a" y="563.476097"/>
     <use style="fill:#ff7f0e;stroke:#ff7f0e;" x="784.115702" xlink:href="#m6fa48f332a" y="541.013868"/>
     <use style="fill:#ff7f0e;stroke:#ff7f0e;" x="830.231405" xlink:href="#m6fa48f332a" y="513.358963"/>
     <use style="fill:#ff7f0e;stroke:#ff7f0e;" x="876.347107" xlink:href="#m6fa48f332a" y="479.772536"/>
     <use style="fill:#ff7f0e;stroke:#ff7f0e;" x="922.46281" xlink:href="#m6fa48f332a" y="446.905275"/>
     <use style="fill:#ff7f0e;stroke:#ff7f0e;" x="968.578512" xlink:href="#m6fa48f332a" y="407.936806"/>
     <use style="fill:#ff7f0e;stroke:#ff7f0e;" x="1014.694215" xlink:href="#m6fa48f332a" y="367.097549"/>
     <use style="fill:#ff7f0e;stroke:#ff7f0e;" x="1060.809917" xlink:href="#m6fa48f332a" y="320.15283"/>
     <use style="fill:#ff7f0e;stroke:#ff7f0e;" x="1106.92562" xlink:href="#m6fa48f332a" y="277.030541"/>
     <use style="fill:#ff7f0e;stroke:#ff7f0e;" x="1153.041322" xlink:href="#m6fa48f332a" y="239.728601"/>
     <use style="fill:#ff7f0e;stroke:#ff7f0e;" x="1199.157025" xlink:href="#m6fa48f332a" y="193.000908"/>
     <use style="fill:#ff7f0e;stroke:#ff7f0e;" x="1245.272727" xlink:href="#m6fa48f332a" y="144.639134"/>
    </g>
   </g>
   <g id="line2d_46">
    <path clip-path="url(#pa4f629b905)" d="M 322.958678 605.290377 
L 369.07438 605.274419 
L 415.190083 605.190907 
L 461.305785 605.005796 
L 507.421488 604.392484 
L 553.53719 603.449376 
L 599.652893 601.50731 
L 645.768595 598.404045 
L 691.884298 591.510266 
L 738 582.03398 
L 784.115702 567.829391 
L 830.231405 548.928415 
L 876.347107 530.205103 
L 922.46281 511.937653 
L 968.578512 492.848907 
L 1014.694215 469.994647 
L 1060.809917 452.806477 
L 1106.92562 435.273619 
L 1153.041322 418.860467 
L 1199.157025 400.864832 
L 1245.272727 385.546387 
" style="fill:none;stroke:#2ca02c;stroke-linecap:square;stroke-width:4;"/>
    <defs>
     <path d="M 0 4 
C 1.060812 4 2.078319 3.578535 2.828427 2.828427 
C 3.578535 2.078319 4 1.060812 4 0 
C 4 -1.060812 3.578535 -2.078319 2.828427 -2.828427 
C 2.078319 -3.578535 1.060812 -4 0 -4 
C -1.060812 -4 -2.078319 -3.578535 -2.828427 -2.828427 
C -3.578535 -2.078319 -4 -1.060812 -4 0 
C -4 1.060812 -3.578535 2.078319 -2.828427 2.828427 
C -2.078319 3.578535 -1.060812 4 0 4 
z
" id="ma44f954b6b" style="stroke:#2ca02c;"/>
    </defs>
    <g clip-path="url(#pa4f629b905)">
     <use style="fill:#2ca02c;stroke:#2ca02c;" x="322.958678" xlink:href="#ma44f954b6b" y="605.290377"/>
     <use style="fill:#2ca02c;stroke:#2ca02c;" x="369.07438" xlink:href="#ma44f954b6b" y="605.274419"/>
     <use style="fill:#2ca02c;stroke:#2ca02c;" x="415.190083" xlink:href="#ma44f954b6b" y="605.190907"/>
     <use style="fill:#2ca02c;stroke:#2ca02c;" x="461.305785" xlink:href="#ma44f954b6b" y="605.005796"/>
     <use style="fill:#2ca02c;stroke:#2ca02c;" x="507.421488" xlink:href="#ma44f954b6b" y="604.392484"/>
     <use style="fill:#2ca02c;stroke:#2ca02c;" x="553.53719" xlink:href="#ma44f954b6b" y="603.449376"/>
     <use style="fill:#2ca02c;stroke:#2ca02c;" x="599.652893" xlink:href="#ma44f954b6b" y="601.50731"/>
     <use style="fill:#2ca02c;stroke:#2ca02c;" x="645.768595" xlink:href="#ma44f954b6b" y="598.404045"/>
     <use style="fill:#2ca02c;stroke:#2ca02c;" x="691.884298" xlink:href="#ma44f954b6b" y="591.510266"/>
     <use style="fill:#2ca02c;stroke:#2ca02c;" x="738" xlink:href="#ma44f954b6b" y="582.03398"/>
     <use style="fill:#2ca02c;stroke:#2ca02c;" x="784.115702" xlink:href="#ma44f954b6b" y="567.829391"/>
     <use style="fill:#2ca02c;stroke:#2ca02c;" x="830.231405" xlink:href="#ma44f954b6b" y="548.928415"/>
     <use style="fill:#2ca02c;stroke:#2ca02c;" x="876.347107" xlink:href="#ma44f954b6b" y="530.205103"/>
     <use style="fill:#2ca02c;stroke:#2ca02c;" x="922.46281" xlink:href="#ma44f954b6b" y="511.937653"/>
     <use style="fill:#2ca02c;stroke:#2ca02c;" x="968.578512" xlink:href="#ma44f954b6b" y="492.848907"/>
     <use style="fill:#2ca02c;stroke:#2ca02c;" x="1014.694215" xlink:href="#ma44f954b6b" y="469.994647"/>
     <use style="fill:#2ca02c;stroke:#2ca02c;" x="1060.809917" xlink:href="#ma44f954b6b" y="452.806477"/>
     <use style="fill:#2ca02c;stroke:#2ca02c;" x="1106.92562" xlink:href="#ma44f954b6b" y="435.273619"/>
     <use style="fill:#2ca02c;stroke:#2ca02c;" x="1153.041322" xlink:href="#ma44f954b6b" y="418.860467"/>
     <use style="fill:#2ca02c;stroke:#2ca02c;" x="1199.157025" xlink:href="#ma44f954b6b" y="400.864832"/>
     <use style="fill:#2ca02c;stroke:#2ca02c;" x="1245.272727" xlink:href="#ma44f954b6b" y="385.546387"/>
    </g>
   </g>
   <g id="line2d_47">
    <path clip-path="url(#pa4f629b905)" d="M 230.727273 605.290377 
L 276.842975 605.283462 
L 322.958678 605.246759 
L 369.07438 605.00952 
L 415.190083 604.228118 
L 461.305785 601.980193 
L 507.421488 598.874801 
L 553.53719 594.390121 
L 599.652893 589.416068 
L 645.768595 580.449368 
L 691.884298 568.783137 
L 738 555.562082 
L 784.115702 535.660019 
L 830.231405 508.434379 
L 876.347107 478.519847 
L 922.46281 447.039852 
L 968.578512 407.427752 
L 1014.694215 362.613933 
L 1060.809917 318.297467 
L 1106.92562 269.303231 
L 1153.041322 229.182608 
L 1199.157025 168.810446 
L 1245.272727 111.109091 
" style="fill:none;stroke:#d62728;stroke-linecap:square;stroke-width:4;"/>
    <defs>
     <path d="M 0 4 
C 1.060812 4 2.078319 3.578535 2.828427 2.828427 
C 3.578535 2.078319 4 1.060812 4 0 
C 4 -1.060812 3.578535 -2.078319 2.828427 -2.828427 
C 2.078319 -3.578535 1.060812 -4 0 -4 
C -1.060812 -4 -2.078319 -3.578535 -2.828427 -2.828427 
C -3.578535 -2.078319 -4 -1.060812 -4 0 
C -4 1.060812 -3.578535 2.078319 -2.828427 2.828427 
C -2.078319 3.578535 -1.060812 4 0 4 
z
" id="mecbafec622" style="stroke:#d62728;"/>
    </defs>
    <g clip-path="url(#pa4f629b905)">
     <use style="fill:#d62728;stroke:#d62728;" x="230.727273" xlink:href="#mecbafec622" y="605.290377"/>
     <use style="fill:#d62728;stroke:#d62728;" x="276.842975" xlink:href="#mecbafec622" y="605.283462"/>
     <use style="fill:#d62728;stroke:#d62728;" x="322.958678" xlink:href="#mecbafec622" y="605.246759"/>
     <use style="fill:#d62728;stroke:#d62728;" x="369.07438" xlink:href="#mecbafec622" y="605.00952"/>
     <use style="fill:#d62728;stroke:#d62728;" x="415.190083" xlink:href="#mecbafec622" y="604.228118"/>
     <use style="fill:#d62728;stroke:#d62728;" x="461.305785" xlink:href="#mecbafec622" y="601.980193"/>
     <use style="fill:#d62728;stroke:#d62728;" x="507.421488" xlink:href="#mecbafec622" y="598.874801"/>
     <use style="fill:#d62728;stroke:#d62728;" x="553.53719" xlink:href="#mecbafec622" y="594.390121"/>
     <use style="fill:#d62728;stroke:#d62728;" x="599.652893" xlink:href="#mecbafec622" y="589.416068"/>
     <use style="fill:#d62728;stroke:#d62728;" x="645.768595" xlink:href="#mecbafec622" y="580.449368"/>
     <use style="fill:#d62728;stroke:#d62728;" x="691.884298" xlink:href="#mecbafec622" y="568.783137"/>
     <use style="fill:#d62728;stroke:#d62728;" x="738" xlink:href="#mecbafec622" y="555.562082"/>
     <use style="fill:#d62728;stroke:#d62728;" x="784.115702" xlink:href="#mecbafec622" y="535.660019"/>
     <use style="fill:#d62728;stroke:#d62728;" x="830.231405" xlink:href="#mecbafec622" y="508.434379"/>
     <use style="fill:#d62728;stroke:#d62728;" x="876.347107" xlink:href="#mecbafec622" y="478.519847"/>
     <use style="fill:#d62728;stroke:#d62728;" x="922.46281" xlink:href="#mecbafec622" y="447.039852"/>
     <use style="fill:#d62728;stroke:#d62728;" x="968.578512" xlink:href="#mecbafec622" y="407.427752"/>
     <use style="fill:#d62728;stroke:#d62728;" x="1014.694215" xlink:href="#mecbafec622" y="362.613933"/>
     <use style="fill:#d62728;stroke:#d62728;" x="1060.809917" xlink:href="#mecbafec622" y="318.297467"/>
     <use style="fill:#d62728;stroke:#d62728;" x="1106.92562" xlink:href="#mecbafec622" y="269.303231"/>
     <use style="fill:#d62728;stroke:#d62728;" x="1153.041322" xlink:href="#mecbafec622" y="229.182608"/>
     <use style="fill:#d62728;stroke:#d62728;" x="1199.157025" xlink:href="#mecbafec622" y="168.810446"/>
     <use style="fill:#d62728;stroke:#d62728;" x="1245.272727" xlink:href="#mecbafec622" y="111.109091"/>
    </g>
   </g>
   <g id="line2d_48">
    <path clip-path="url(#pa4f629b905)" d="M 322.958678 605.283462 
L 369.07438 605.201013 
L 415.190083 605.02069 
L 461.305785 604.674405 
L 507.421488 604.20099 
L 553.53719 603.823321 
L 599.652893 603.417461 
L 645.768595 602.385522 
L 691.884298 601.208366 
L 738 599.642372 
L 784.115702 596.780603 
L 830.231405 593.350735 
L 876.347107 589.454899 
L 922.46281 585.63566 
L 968.578512 578.881246 
L 1014.694215 569.133677 
L 1060.809917 555.692404 
L 1106.92562 541.238341 
L 1153.041322 524.681037 
L 1199.157025 504.10981 
L 1245.272727 481.547046 
" style="fill:none;stroke:#9467bd;stroke-linecap:square;stroke-width:4;"/>
    <defs>
     <path d="M 0 4 
C 1.060812 4 2.078319 3.578535 2.828427 2.828427 
C 3.578535 2.078319 4 1.060812 4 0 
C 4 -1.060812 3.578535 -2.078319 2.828427 -2.828427 
C 2.078319 -3.578535 1.060812 -4 0 -4 
C -1.060812 -4 -2.078319 -3.578535 -2.828427 -2.828427 
C -3.578535 -2.078319 -4 -1.060812 -4 0 
C -4 1.060812 -3.578535 2.078319 -2.828427 2.828427 
C -2.078319 3.578535 -1.060812 4 0 4 
z
" id="mf3d979cce1" style="stroke:#9467bd;"/>
    </defs>
    <g clip-path="url(#pa4f629b905)">
     <use style="fill:#9467bd;stroke:#9467bd;" x="322.958678" xlink:href="#mf3d979cce1" y="605.283462"/>
     <use style="fill:#9467bd;stroke:#9467bd;" x="369.07438" xlink:href="#mf3d979cce1" y="605.201013"/>
     <use style="fill:#9467bd;stroke:#9467bd;" x="415.190083" xlink:href="#mf3d979cce1" y="605.02069"/>
     <use style="fill:#9467bd;stroke:#9467bd;" x="461.305785" xlink:href="#mf3d979cce1" y="604.674405"/>
     <use style="fill:#9467bd;stroke:#9467bd;" x="507.421488" xlink:href="#mf3d979cce1" y="604.20099"/>
     <use style="fill:#9467bd;stroke:#9467bd;" x="553.53719" xlink:href="#mf3d979cce1" y="603.823321"/>
     <use style="fill:#9467bd;stroke:#9467bd;" x="599.652893" xlink:href="#mf3d979cce1" y="603.417461"/>
     <use style="fill:#9467bd;stroke:#9467bd;" x="645.768595" xlink:href="#mf3d979cce1" y="602.385522"/>
     <use style="fill:#9467bd;stroke:#9467bd;" x="691.884298" xlink:href="#mf3d979cce1" y="601.208366"/>
     <use style="fill:#9467bd;stroke:#9467bd;" x="738" xlink:href="#mf3d979cce1" y="599.642372"/>
     <use style="fill:#9467bd;stroke:#9467bd;" x="784.115702" xlink:href="#mf3d979cce1" y="596.780603"/>
     <use style="fill:#9467bd;stroke:#9467bd;" x="830.231405" xlink:href="#mf3d979cce1" y="593.350735"/>
     <use style="fill:#9467bd;stroke:#9467bd;" x="876.347107" xlink:href="#mf3d979cce1" y="589.454899"/>
     <use style="fill:#9467bd;stroke:#9467bd;" x="922.46281" xlink:href="#mf3d979cce1" y="585.63566"/>
     <use style="fill:#9467bd;stroke:#9467bd;" x="968.578512" xlink:href="#mf3d979cce1" y="578.881246"/>
     <use style="fill:#9467bd;stroke:#9467bd;" x="1014.694215" xlink:href="#mf3d979cce1" y="569.133677"/>
     <use style="fill:#9467bd;stroke:#9467bd;" x="1060.809917" xlink:href="#mf3d979cce1" y="555.692404"/>
     <use style="fill:#9467bd;stroke:#9467bd;" x="1106.92562" xlink:href="#mf3d979cce1" y="541.238341"/>
     <use style="fill:#9467bd;stroke:#9467bd;" x="1153.041322" xlink:href="#mf3d979cce1" y="524.681037"/>
     <use style="fill:#9467bd;stroke:#9467bd;" x="1199.157025" xlink:href="#mf3d979cce1" y="504.10981"/>
     <use style="fill:#9467bd;stroke:#9467bd;" x="1245.272727" xlink:href="#mf3d979cce1" y="481.547046"/>
    </g>
   </g>
   <g id="patch_3">
    <path d="M 180 630 
L 180 86.4 
" style="fill:none;stroke:#000000;stroke-linecap:square;stroke-linejoin:miter;stroke-width:0.8;"/>
   </g>
   <g id="patch_4">
    <path d="M 180 630 
L 1296 630 
" style="fill:none;stroke:#000000;stroke-linecap:square;stroke-linejoin:miter;stroke-width:0.8;"/>
   </g>
   <g id="text_36">
    <!-- Fonte : https://brasil.io/covid19/  -->
    <defs>
     <path d="M 9.8125 72.90625 
L 51.703125 72.90625 
L 51.703125 64.59375 
L 19.671875 64.59375 
L 19.671875 43.109375 
L 48.578125 43.109375 
L 48.578125 34.8125 
L 19.671875 34.8125 
L 19.671875 0 
L 9.8125 0 
z
" id="DejaVuSans-70"/>
     <path d="M 18.3125 70.21875 
L 18.3125 54.6875 
L 36.8125 54.6875 
L 36.8125 47.703125 
L 18.3125 47.703125 
L 18.3125 18.015625 
Q 18.3125 11.328125 20.140625 9.421875 
Q 21.96875 7.515625 27.59375 7.515625 
L 36.8125 7.515625 
L 36.8125 0 
L 27.59375 0 
Q 17.1875 0 13.234375 3.875 
Q 9.28125 7.765625 9.28125 18.015625 
L 9.28125 47.703125 
L 2.6875 47.703125 
L 2.6875 54.6875 
L 9.28125 54.6875 
L 9.28125 70.21875 
z
" id="DejaVuSans-116"/>
     <path d="M 11.71875 12.40625 
L 22.015625 12.40625 
L 22.015625 0 
L 11.71875 0 
z
M 11.71875 51.703125 
L 22.015625 51.703125 
L 22.015625 39.3125 
L 11.71875 39.3125 
z
" id="DejaVuSans-58"/>
     <path d="M 54.890625 33.015625 
L 54.890625 0 
L 45.90625 0 
L 45.90625 32.71875 
Q 45.90625 40.484375 42.875 44.328125 
Q 39.84375 48.1875 33.796875 48.1875 
Q 26.515625 48.1875 22.3125 43.546875 
Q 18.109375 38.921875 18.109375 30.90625 
L 18.109375 0 
L 9.078125 0 
L 9.078125 75.984375 
L 18.109375 75.984375 
L 18.109375 46.1875 
Q 21.34375 51.125 25.703125 53.5625 
Q 30.078125 56 35.796875 56 
Q 45.21875 56 50.046875 50.171875 
Q 54.890625 44.34375 54.890625 33.015625 
z
" id="DejaVuSans-104"/>
     <path d="M 25.390625 72.90625 
L 33.6875 72.90625 
L 8.296875 -9.28125 
L 0 -9.28125 
z
" id="DejaVuSans-47"/>
     <path d="M 48.6875 27.296875 
Q 48.6875 37.203125 44.609375 42.84375 
Q 40.53125 48.484375 33.40625 48.484375 
Q 26.265625 48.484375 22.1875 42.84375 
Q 18.109375 37.203125 18.109375 27.296875 
Q 18.109375 17.390625 22.1875 11.75 
Q 26.265625 6.109375 33.40625 6.109375 
Q 40.53125 6.109375 44.609375 11.75 
Q 48.6875 17.390625 48.6875 27.296875 
z
M 18.109375 46.390625 
Q 20.953125 51.265625 25.265625 53.625 
Q 29.59375 56 35.59375 56 
Q 45.5625 56 51.78125 48.09375 
Q 58.015625 40.1875 58.015625 27.296875 
Q 58.015625 14.40625 51.78125 6.484375 
Q 45.5625 -1.421875 35.59375 -1.421875 
Q 29.59375 -1.421875 25.265625 0.953125 
Q 20.953125 3.328125 18.109375 8.203125 
L 18.109375 0 
L 9.078125 0 
L 9.078125 75.984375 
L 18.109375 75.984375 
z
" id="DejaVuSans-98"/>
     <path d="M 41.109375 46.296875 
Q 39.59375 47.171875 37.8125 47.578125 
Q 36.03125 48 33.890625 48 
Q 26.265625 48 22.1875 43.046875 
Q 18.109375 38.09375 18.109375 28.8125 
L 18.109375 0 
L 9.078125 0 
L 9.078125 54.6875 
L 18.109375 54.6875 
L 18.109375 46.1875 
Q 20.953125 51.171875 25.484375 53.578125 
Q 30.03125 56 36.53125 56 
Q 37.453125 56 38.578125 55.875 
Q 39.703125 55.765625 41.0625 55.515625 
z
" id="DejaVuSans-114"/>
     <path d="M 10.6875 12.40625 
L 21 12.40625 
L 21 0 
L 10.6875 0 
z
" id="DejaVuSans-46"/>
     <path d="M 2.984375 54.6875 
L 12.5 54.6875 
L 29.59375 8.796875 
L 46.6875 54.6875 
L 56.203125 54.6875 
L 35.6875 0 
L 23.484375 0 
z
" id="DejaVuSans-118"/>
    </defs>
    <g transform="translate(180 701.397656)scale(0.15 -0.15)">
     <use xlink:href="#DejaVuSans-70"/>
     <use x="53.894531" xlink:href="#DejaVuSans-111"/>
     <use x="115.076172" xlink:href="#DejaVuSans-110"/>
     <use x="178.455078" xlink:href="#DejaVuSans-116"/>
     <use x="217.664062" xlink:href="#DejaVuSans-101"/>
     <use x="279.1875" xlink:href="#DejaVuSans-32"/>
     <use x="310.974609" xlink:href="#DejaVuSans-58"/>
     <use x="344.666016" xlink:href="#DejaVuSans-32"/>
     <use x="376.453125" xlink:href="#DejaVuSans-104"/>
     <use x="439.832031" xlink:href="#DejaVuSans-116"/>
     <use x="479.041016" xlink:href="#DejaVuSans-116"/>
     <use x="518.25" xlink:href="#DejaVuSans-112"/>
     <use x="581.726562" xlink:href="#DejaVuSans-115"/>
     <use x="633.826172" xlink:href="#DejaVuSans-58"/>
     <use x="667.517578" xlink:href="#DejaVuSans-47"/>
     <use x="701.208984" xlink:href="#DejaVuSans-47"/>
     <use x="734.900391" xlink:href="#DejaVuSans-98"/>
     <use x="798.376953" xlink:href="#DejaVuSans-114"/>
     <use x="839.490234" xlink:href="#DejaVuSans-97"/>
     <use x="900.769531" xlink:href="#DejaVuSans-115"/>
     <use x="952.869141" xlink:href="#DejaVuSans-105"/>
     <use x="980.652344" xlink:href="#DejaVuSans-108"/>
     <use x="1008.435547" xlink:href="#DejaVuSans-46"/>
     <use x="1040.222656" xlink:href="#DejaVuSans-105"/>
     <use x="1068.005859" xlink:href="#DejaVuSans-111"/>
     <use x="1129.1875" xlink:href="#DejaVuSans-47"/>
     <use x="1162.878906" xlink:href="#DejaVuSans-99"/>
     <use x="1217.859375" xlink:href="#DejaVuSans-111"/>
     <use x="1279.041016" xlink:href="#DejaVuSans-118"/>
     <use x="1338.220703" xlink:href="#DejaVuSans-105"/>
     <use x="1366.003906" xlink:href="#DejaVuSans-100"/>
     <use x="1429.480469" xlink:href="#DejaVuSans-49"/>
     <use x="1493.103516" xlink:href="#DejaVuSans-57"/>
     <use x="1556.726562" xlink:href="#DejaVuSans-47"/>
     <use x="1590.417969" xlink:href="#DejaVuSans-32"/>
    </g>
    <!--             http://revistarelap.org/index.php/relap/article/view/231 -->
    <defs>
     <path d="M 54.890625 54.6875 
L 35.109375 28.078125 
L 55.90625 0 
L 45.3125 0 
L 29.390625 21.484375 
L 13.484375 0 
L 2.875 0 
L 24.125 28.609375 
L 4.6875 54.6875 
L 15.28125 54.6875 
L 29.78125 35.203125 
L 44.28125 54.6875 
z
" id="DejaVuSans-120"/>
     <path d="M 4.203125 54.6875 
L 13.1875 54.6875 
L 24.421875 12.015625 
L 35.59375 54.6875 
L 46.1875 54.6875 
L 57.421875 12.015625 
L 68.609375 54.6875 
L 77.59375 54.6875 
L 63.28125 0 
L 52.6875 0 
L 40.921875 44.828125 
L 29.109375 0 
L 18.5 0 
z
" id="DejaVuSans-119"/>
    </defs>
    <g transform="translate(180 718.194375)scale(0.15 -0.15)">
     <use xlink:href="#DejaVuSans-32"/>
     <use x="31.787109" xlink:href="#DejaVuSans-32"/>
     <use x="63.574219" xlink:href="#DejaVuSans-32"/>
     <use x="95.361328" xlink:href="#DejaVuSans-32"/>
     <use x="127.148438" xlink:href="#DejaVuSans-32"/>
     <use x="158.935547" xlink:href="#DejaVuSans-32"/>
     <use x="190.722656" xlink:href="#DejaVuSans-32"/>
     <use x="222.509766" xlink:href="#DejaVuSans-32"/>
     <use x="254.296875" xlink:href="#DejaVuSans-32"/>
     <use x="286.083984" xlink:href="#DejaVuSans-32"/>
     <use x="317.871094" xlink:href="#DejaVuSans-32"/>
     <use x="349.658203" xlink:href="#DejaVuSans-32"/>
     <use x="381.445312" xlink:href="#DejaVuSans-104"/>
     <use x="444.824219" xlink:href="#DejaVuSans-116"/>
     <use x="484.033203" xlink:href="#DejaVuSans-116"/>
     <use x="523.242188" xlink:href="#DejaVuSans-112"/>
     <use x="586.71875" xlink:href="#DejaVuSans-58"/>
     <use x="620.410156" xlink:href="#DejaVuSans-47"/>
     <use x="654.101562" xlink:href="#DejaVuSans-47"/>
     <use x="687.792969" xlink:href="#DejaVuSans-114"/>
     <use x="726.65625" xlink:href="#DejaVuSans-101"/>
     <use x="788.179688" xlink:href="#DejaVuSans-118"/>
     <use x="847.359375" xlink:href="#DejaVuSans-105"/>
     <use x="875.142578" xlink:href="#DejaVuSans-115"/>
     <use x="927.242188" xlink:href="#DejaVuSans-116"/>
     <use x="966.451172" xlink:href="#DejaVuSans-97"/>
     <use x="1027.730469" xlink:href="#DejaVuSans-114"/>
     <use x="1066.59375" xlink:href="#DejaVuSans-101"/>
     <use x="1128.117188" xlink:href="#DejaVuSans-108"/>
     <use x="1155.900391" xlink:href="#DejaVuSans-97"/>
     <use x="1217.179688" xlink:href="#DejaVuSans-112"/>
     <use x="1280.65625" xlink:href="#DejaVuSans-46"/>
     <use x="1312.443359" xlink:href="#DejaVuSans-111"/>
     <use x="1373.625" xlink:href="#DejaVuSans-114"/>
     <use x="1412.988281" xlink:href="#DejaVuSans-103"/>
     <use x="1476.464844" xlink:href="#DejaVuSans-47"/>
     <use x="1510.15625" xlink:href="#DejaVuSans-105"/>
     <use x="1537.939453" xlink:href="#DejaVuSans-110"/>
     <use x="1601.318359" xlink:href="#DejaVuSans-100"/>
     <use x="1664.794922" xlink:href="#DejaVuSans-101"/>
     <use x="1724.568359" xlink:href="#DejaVuSans-120"/>
     <use x="1783.748047" xlink:href="#DejaVuSans-46"/>
     <use x="1815.535156" xlink:href="#DejaVuSans-112"/>
     <use x="1879.011719" xlink:href="#DejaVuSans-104"/>
     <use x="1942.390625" xlink:href="#DejaVuSans-112"/>
     <use x="2005.867188" xlink:href="#DejaVuSans-47"/>
     <use x="2039.558594" xlink:href="#DejaVuSans-114"/>
     <use x="2078.421875" xlink:href="#DejaVuSans-101"/>
     <use x="2139.945312" xlink:href="#DejaVuSans-108"/>
     <use x="2167.728516" xlink:href="#DejaVuSans-97"/>
     <use x="2229.007812" xlink:href="#DejaVuSans-112"/>
     <use x="2292.484375" xlink:href="#DejaVuSans-47"/>
     <use x="2326.175781" xlink:href="#DejaVuSans-97"/>
     <use x="2387.455078" xlink:href="#DejaVuSans-114"/>
     <use x="2428.568359" xlink:href="#DejaVuSans-116"/>
     <use x="2467.777344" xlink:href="#DejaVuSans-105"/>
     <use x="2495.560547" xlink:href="#DejaVuSans-99"/>
     <use x="2550.541016" xlink:href="#DejaVuSans-108"/>
     <use x="2578.324219" xlink:href="#DejaVuSans-101"/>
     <use x="2639.847656" xlink:href="#DejaVuSans-47"/>
     <use x="2673.539062" xlink:href="#DejaVuSans-118"/>
     <use x="2732.71875" xlink:href="#DejaVuSans-105"/>
     <use x="2760.501953" xlink:href="#DejaVuSans-101"/>
     <use x="2822.025391" xlink:href="#DejaVuSans-119"/>
     <use x="2903.8125" xlink:href="#DejaVuSans-47"/>
     <use x="2937.503906" xlink:href="#DejaVuSans-50"/>
     <use x="3001.126953" xlink:href="#DejaVuSans-51"/>
     <use x="3064.75" xlink:href="#DejaVuSans-49"/>
    </g>
   </g>
   <g id="text_37">
    <!-- Casos acumulados até determinada semana epidemiológica -->
    <defs>
     <path d="M 56.203125 29.59375 
L 56.203125 25.203125 
L 14.890625 25.203125 
Q 15.484375 15.921875 20.484375 11.0625 
Q 25.484375 6.203125 34.421875 6.203125 
Q 39.59375 6.203125 44.453125 7.46875 
Q 49.3125 8.734375 54.109375 11.28125 
L 54.109375 2.78125 
Q 49.265625 0.734375 44.1875 -0.34375 
Q 39.109375 -1.421875 33.890625 -1.421875 
Q 20.796875 -1.421875 13.15625 6.1875 
Q 5.515625 13.8125 5.515625 26.8125 
Q 5.515625 40.234375 12.765625 48.109375 
Q 20.015625 56 32.328125 56 
Q 43.359375 56 49.78125 48.890625 
Q 56.203125 41.796875 56.203125 29.59375 
z
M 47.21875 32.234375 
Q 47.125 39.59375 43.09375 43.984375 
Q 39.0625 48.390625 32.421875 48.390625 
Q 24.90625 48.390625 20.390625 44.140625 
Q 15.875 39.890625 15.1875 32.171875 
z
M 38.578125 79.984375 
L 48.296875 79.984375 
L 32.375 61.625 
L 24.90625 61.625 
z
" id="DejaVuSans-233"/>
    </defs>
    <g transform="translate(435.896875 80.4)scale(0.2 -0.2)">
     <use xlink:href="#DejaVuSans-67"/>
     <use x="69.824219" xlink:href="#DejaVuSans-97"/>
     <use x="131.103516" xlink:href="#DejaVuSans-115"/>
     <use x="183.203125" xlink:href="#DejaVuSans-111"/>
     <use x="244.384766" xlink:href="#DejaVuSans-115"/>
     <use x="296.484375" xlink:href="#DejaVuSans-32"/>
     <use x="328.271484" xlink:href="#DejaVuSans-97"/>
     <use x="389.550781" xlink:href="#DejaVuSans-99"/>
     <use x="444.53125" xlink:href="#DejaVuSans-117"/>
     <use x="507.910156" xlink:href="#DejaVuSans-109"/>
     <use x="605.322266" xlink:href="#DejaVuSans-117"/>
     <use x="668.701172" xlink:href="#DejaVuSans-108"/>
     <use x="696.484375" xlink:href="#DejaVuSans-97"/>
     <use x="757.763672" xlink:href="#DejaVuSans-100"/>
     <use x="821.240234" xlink:href="#DejaVuSans-111"/>
     <use x="882.421875" xlink:href="#DejaVuSans-115"/>
     <use x="934.521484" xlink:href="#DejaVuSans-32"/>
     <use x="966.308594" xlink:href="#DejaVuSans-97"/>
     <use x="1027.587891" xlink:href="#DejaVuSans-116"/>
     <use x="1066.796875" xlink:href="#DejaVuSans-233"/>
     <use x="1128.320312" xlink:href="#DejaVuSans-32"/>
     <use x="1160.107422" xlink:href="#DejaVuSans-100"/>
     <use x="1223.583984" xlink:href="#DejaVuSans-101"/>
     <use x="1285.107422" xlink:href="#DejaVuSans-116"/>
     <use x="1324.316406" xlink:href="#DejaVuSans-101"/>
     <use x="1385.839844" xlink:href="#DejaVuSans-114"/>
     <use x="1425.203125" xlink:href="#DejaVuSans-109"/>
     <use x="1522.615234" xlink:href="#DejaVuSans-105"/>
     <use x="1550.398438" xlink:href="#DejaVuSans-110"/>
     <use x="1613.777344" xlink:href="#DejaVuSans-97"/>
     <use x="1675.056641" xlink:href="#DejaVuSans-100"/>
     <use x="1738.533203" xlink:href="#DejaVuSans-97"/>
     <use x="1799.8125" xlink:href="#DejaVuSans-32"/>
     <use x="1831.599609" xlink:href="#DejaVuSans-115"/>
     <use x="1883.699219" xlink:href="#DejaVuSans-101"/>
     <use x="1945.222656" xlink:href="#DejaVuSans-109"/>
     <use x="2042.634766" xlink:href="#DejaVuSans-97"/>
     <use x="2103.914062" xlink:href="#DejaVuSans-110"/>
     <use x="2167.292969" xlink:href="#DejaVuSans-97"/>
     <use x="2228.572266" xlink:href="#DejaVuSans-32"/>
     <use x="2260.359375" xlink:href="#DejaVuSans-101"/>
     <use x="2321.882812" xlink:href="#DejaVuSans-112"/>
     <use x="2385.359375" xlink:href="#DejaVuSans-105"/>
     <use x="2413.142578" xlink:href="#DejaVuSans-100"/>
     <use x="2476.619141" xlink:href="#DejaVuSans-101"/>
     <use x="2538.142578" xlink:href="#DejaVuSans-109"/>
     <use x="2635.554688" xlink:href="#DejaVuSans-105"/>
     <use x="2663.337891" xlink:href="#DejaVuSans-111"/>
     <use x="2724.519531" xlink:href="#DejaVuSans-108"/>
     <use x="2752.302734" xlink:href="#DejaVuSans-243"/>
     <use x="2813.484375" xlink:href="#DejaVuSans-103"/>
     <use x="2876.960938" xlink:href="#DejaVuSans-105"/>
     <use x="2904.744141" xlink:href="#DejaVuSans-99"/>
     <use x="2959.724609" xlink:href="#DejaVuSans-97"/>
    </g>
   </g>
   <g id="legend_1">
    <g id="line2d_49">
     <path d="M 193.5 106.047656 
L 223.5 106.047656 
" style="fill:none;stroke:#1f77b4;stroke-linecap:square;stroke-width:4;"/>
    </g>
    <g id="line2d_50">
     <g>
      <use style="fill:#1f77b4;stroke:#1f77b4;" x="208.5" xlink:href="#md7b1b705b8" y="106.047656"/>
     </g>
    </g>
    <g id="text_38">
     <!-- Centro-Oeste -->
     <defs>
      <path d="M 4.890625 31.390625 
L 31.203125 31.390625 
L 31.203125 23.390625 
L 4.890625 23.390625 
z
" id="DejaVuSans-45"/>
      <path d="M 39.40625 66.21875 
Q 28.65625 66.21875 22.328125 58.203125 
Q 16.015625 50.203125 16.015625 36.375 
Q 16.015625 22.609375 22.328125 14.59375 
Q 28.65625 6.59375 39.40625 6.59375 
Q 50.140625 6.59375 56.421875 14.59375 
Q 62.703125 22.609375 62.703125 36.375 
Q 62.703125 50.203125 56.421875 58.203125 
Q 50.140625 66.21875 39.40625 66.21875 
z
M 39.40625 74.21875 
Q 54.734375 74.21875 63.90625 63.9375 
Q 73.09375 53.65625 73.09375 36.375 
Q 73.09375 19.140625 63.90625 8.859375 
Q 54.734375 -1.421875 39.40625 -1.421875 
Q 24.03125 -1.421875 14.8125 8.828125 
Q 5.609375 19.09375 5.609375 36.375 
Q 5.609375 53.65625 14.8125 63.9375 
Q 24.03125 74.21875 39.40625 74.21875 
z
" id="DejaVuSans-79"/>
     </defs>
     <g transform="translate(235.5 111.297656)scale(0.15 -0.15)">
      <use xlink:href="#DejaVuSans-67"/>
      <use x="69.824219" xlink:href="#DejaVuSans-101"/>
      <use x="131.347656" xlink:href="#DejaVuSans-110"/>
      <use x="194.726562" xlink:href="#DejaVuSans-116"/>
      <use x="233.935547" xlink:href="#DejaVuSans-114"/>
      <use x="272.798828" xlink:href="#DejaVuSans-111"/>
      <use x="335.855469" xlink:href="#DejaVuSans-45"/>
      <use x="374.689453" xlink:href="#DejaVuSans-79"/>
      <use x="453.400391" xlink:href="#DejaVuSans-101"/>
      <use x="514.923828" xlink:href="#DejaVuSans-115"/>
      <use x="567.023438" xlink:href="#DejaVuSans-116"/>
      <use x="606.232422" xlink:href="#DejaVuSans-101"/>
     </g>
    </g>
    <g id="line2d_51">
     <path d="M 193.5 128.064844 
L 223.5 128.064844 
" style="fill:none;stroke:#ff7f0e;stroke-linecap:square;stroke-width:4;"/>
    </g>
    <g id="line2d_52">
     <g>
      <use style="fill:#ff7f0e;stroke:#ff7f0e;" x="208.5" xlink:href="#m6fa48f332a" y="128.064844"/>
     </g>
    </g>
    <g id="text_39">
     <!-- Nordeste -->
     <defs>
      <path d="M 9.8125 72.90625 
L 23.09375 72.90625 
L 55.421875 11.921875 
L 55.421875 72.90625 
L 64.984375 72.90625 
L 64.984375 0 
L 51.703125 0 
L 19.390625 60.984375 
L 19.390625 0 
L 9.8125 0 
z
" id="DejaVuSans-78"/>
     </defs>
     <g transform="translate(235.5 133.314844)scale(0.15 -0.15)">
      <use xlink:href="#DejaVuSans-78"/>
      <use x="74.804688" xlink:href="#DejaVuSans-111"/>
      <use x="135.986328" xlink:href="#DejaVuSans-114"/>
      <use x="175.349609" xlink:href="#DejaVuSans-100"/>
      <use x="238.826172" xlink:href="#DejaVuSans-101"/>
      <use x="300.349609" xlink:href="#DejaVuSans-115"/>
      <use x="352.449219" xlink:href="#DejaVuSans-116"/>
      <use x="391.658203" xlink:href="#DejaVuSans-101"/>
     </g>
    </g>
    <g id="line2d_53">
     <path d="M 193.5 150.082031 
L 223.5 150.082031 
" style="fill:none;stroke:#2ca02c;stroke-linecap:square;stroke-width:4;"/>
    </g>
    <g id="line2d_54">
     <g>
      <use style="fill:#2ca02c;stroke:#2ca02c;" x="208.5" xlink:href="#ma44f954b6b" y="150.082031"/>
     </g>
    </g>
    <g id="text_40">
     <!-- Norte -->
     <g transform="translate(235.5 155.332031)scale(0.15 -0.15)">
      <use xlink:href="#DejaVuSans-78"/>
      <use x="74.804688" xlink:href="#DejaVuSans-111"/>
      <use x="135.986328" xlink:href="#DejaVuSans-114"/>
      <use x="177.099609" xlink:href="#DejaVuSans-116"/>
      <use x="216.308594" xlink:href="#DejaVuSans-101"/>
     </g>
    </g>
    <g id="line2d_55">
     <path d="M 193.5 172.099219 
L 223.5 172.099219 
" style="fill:none;stroke:#d62728;stroke-linecap:square;stroke-width:4;"/>
    </g>
    <g id="line2d_56">
     <g>
      <use style="fill:#d62728;stroke:#d62728;" x="208.5" xlink:href="#mecbafec622" y="172.099219"/>
     </g>
    </g>
    <g id="text_41">
     <!-- Sudeste -->
     <g transform="translate(235.5 177.349219)scale(0.15 -0.15)">
      <use xlink:href="#DejaVuSans-83"/>
      <use x="63.476562" xlink:href="#DejaVuSans-117"/>
      <use x="126.855469" xlink:href="#DejaVuSans-100"/>
      <use x="190.332031" xlink:href="#DejaVuSans-101"/>
      <use x="251.855469" xlink:href="#DejaVuSans-115"/>
      <use x="303.955078" xlink:href="#DejaVuSans-116"/>
      <use x="343.164062" xlink:href="#DejaVuSans-101"/>
     </g>
    </g>
    <g id="line2d_57">
     <path d="M 193.5 194.116406 
L 223.5 194.116406 
" style="fill:none;stroke:#9467bd;stroke-linecap:square;stroke-width:4;"/>
    </g>
    <g id="line2d_58">
     <g>
      <use style="fill:#9467bd;stroke:#9467bd;" x="208.5" xlink:href="#mf3d979cce1" y="194.116406"/>
     </g>
    </g>
    <g id="text_42">
     <!-- Sul -->
     <g transform="translate(235.5 199.366406)scale(0.15 -0.15)">
      <use xlink:href="#DejaVuSans-83"/>
      <use x="63.476562" xlink:href="#DejaVuSans-117"/>
      <use x="126.855469" xlink:href="#DejaVuSans-108"/>
     </g>
    </g>
   </g>
  </g>
 </g>
 <defs>
  <clipPath id="pa4f629b905">
   <rect height="543.6" width="1116" x="180" y="86.4"/>
  </clipPath>
 </defs>
</svg>
