<?xml version="1.0" encoding="utf-8" standalone="no"?>
<!DOCTYPE svg PUBLIC "-//W3C//DTD SVG 1.1//EN"
  "http://www.w3.org/Graphics/SVG/1.1/DTD/svg11.dtd">
<!-- Created with matplotlib (https://matplotlib.org/) -->
<svg height="720pt" version="1.1" viewBox="0 0 1440 720" width="1440pt" xmlns="http://www.w3.org/2000/svg" xmlns:xlink="http://www.w3.org/1999/xlink">
 <defs>
  <style type="text/css">
*{stroke-linecap:butt;stroke-linejoin:round;}
  </style>
 </defs>
 <g id="figure_1">
  <g id="patch_1">
   <path d="M 0 720 
L 1440 720 
L 1440 0 
L 0 0 
z
" style="fill:#ffffff;"/>
  </g>
  <g id="axes_1">
   <g id="patch_2">
    <path d="M 180 630 
L 1296 630 
L 1296 86.4 
L 180 86.4 
z
" style="fill:#ffffff;"/>
   </g>
   <g id="matplotlib.axis_1">
    <g id="xtick_1">
     <g id="line2d_1">
      <defs>
       <path d="M 0 0 
L 0 3.5 
" id="m8388c63085" style="stroke:#000000;stroke-width:0.8;"/>
      </defs>
      <g>
       <use style="stroke:#000000;stroke-width:0.8;" x="230.727273" xlink:href="#m8388c63085" y="630"/>
      </g>
     </g>
     <g id="text_1">
      <!-- 9 -->
      <defs>
       <path d="M 10.984375 1.515625 
L 10.984375 10.5 
Q 14.703125 8.734375 18.5 7.8125 
Q 22.3125 6.890625 25.984375 6.890625 
Q 35.75 6.890625 40.890625 13.453125 
Q 46.046875 20.015625 46.78125 33.40625 
Q 43.953125 29.203125 39.59375 26.953125 
Q 35.25 24.703125 29.984375 24.703125 
Q 19.046875 24.703125 12.671875 31.3125 
Q 6.296875 37.9375 6.296875 49.421875 
Q 6.296875 60.640625 12.9375 67.421875 
Q 19.578125 74.21875 30.609375 74.21875 
Q 43.265625 74.21875 49.921875 64.515625 
Q 56.59375 54.828125 56.59375 36.375 
Q 56.59375 19.140625 48.40625 8.859375 
Q 40.234375 -1.421875 26.421875 -1.421875 
Q 22.703125 -1.421875 18.890625 -0.6875 
Q 15.09375 0.046875 10.984375 1.515625 
z
M 30.609375 32.421875 
Q 37.25 32.421875 41.125 36.953125 
Q 45.015625 41.5 45.015625 49.421875 
Q 45.015625 57.28125 41.125 61.84375 
Q 37.25 66.40625 30.609375 66.40625 
Q 23.96875 66.40625 20.09375 61.84375 
Q 16.21875 57.28125 16.21875 49.421875 
Q 16.21875 41.5 20.09375 36.953125 
Q 23.96875 32.421875 30.609375 32.421875 
z
" id="DejaVuSans-57"/>
      </defs>
      <g transform="translate(225.955398 648.397656)scale(0.15 -0.15)">
       <use xlink:href="#DejaVuSans-57"/>
      </g>
     </g>
    </g>
    <g id="xtick_2">
     <g id="line2d_2">
      <g>
       <use style="stroke:#000000;stroke-width:0.8;" x="276.842975" xlink:href="#m8388c63085" y="630"/>
      </g>
     </g>
     <g id="text_2">
      <!-- 10 -->
      <defs>
       <path d="M 12.40625 8.296875 
L 28.515625 8.296875 
L 28.515625 63.921875 
L 10.984375 60.40625 
L 10.984375 69.390625 
L 28.421875 72.90625 
L 38.28125 72.90625 
L 38.28125 8.296875 
L 54.390625 8.296875 
L 54.390625 0 
L 12.40625 0 
z
" id="DejaVuSans-49"/>
       <path d="M 31.78125 66.40625 
Q 24.171875 66.40625 20.328125 58.90625 
Q 16.5 51.421875 16.5 36.375 
Q 16.5 21.390625 20.328125 13.890625 
Q 24.171875 6.390625 31.78125 6.390625 
Q 39.453125 6.390625 43.28125 13.890625 
Q 47.125 21.390625 47.125 36.375 
Q 47.125 51.421875 43.28125 58.90625 
Q 39.453125 66.40625 31.78125 66.40625 
z
M 31.78125 74.21875 
Q 44.046875 74.21875 50.515625 64.515625 
Q 56.984375 54.828125 56.984375 36.375 
Q 56.984375 17.96875 50.515625 8.265625 
Q 44.046875 -1.421875 31.78125 -1.421875 
Q 19.53125 -1.421875 13.0625 8.265625 
Q 6.59375 17.96875 6.59375 36.375 
Q 6.59375 54.828125 13.0625 64.515625 
Q 19.53125 74.21875 31.78125 74.21875 
z
" id="DejaVuSans-48"/>
      </defs>
      <g transform="translate(267.299225 648.397656)scale(0.15 -0.15)">
       <use xlink:href="#DejaVuSans-49"/>
       <use x="63.623047" xlink:href="#DejaVuSans-48"/>
      </g>
     </g>
    </g>
    <g id="xtick_3">
     <g id="line2d_3">
      <g>
       <use style="stroke:#000000;stroke-width:0.8;" x="322.958678" xlink:href="#m8388c63085" y="630"/>
      </g>
     </g>
     <g id="text_3">
      <!-- 11 -->
      <g transform="translate(313.414928 648.397656)scale(0.15 -0.15)">
       <use xlink:href="#DejaVuSans-49"/>
       <use x="63.623047" xlink:href="#DejaVuSans-49"/>
      </g>
     </g>
    </g>
    <g id="xtick_4">
     <g id="line2d_4">
      <g>
       <use style="stroke:#000000;stroke-width:0.8;" x="369.07438" xlink:href="#m8388c63085" y="630"/>
      </g>
     </g>
     <g id="text_4">
      <!-- 12 -->
      <defs>
       <path d="M 19.1875 8.296875 
L 53.609375 8.296875 
L 53.609375 0 
L 7.328125 0 
L 7.328125 8.296875 
Q 12.9375 14.109375 22.625 23.890625 
Q 32.328125 33.6875 34.8125 36.53125 
Q 39.546875 41.84375 41.421875 45.53125 
Q 43.3125 49.21875 43.3125 52.78125 
Q 43.3125 58.59375 39.234375 62.25 
Q 35.15625 65.921875 28.609375 65.921875 
Q 23.96875 65.921875 18.8125 64.3125 
Q 13.671875 62.703125 7.8125 59.421875 
L 7.8125 69.390625 
Q 13.765625 71.78125 18.9375 73 
Q 24.125 74.21875 28.421875 74.21875 
Q 39.75 74.21875 46.484375 68.546875 
Q 53.21875 62.890625 53.21875 53.421875 
Q 53.21875 48.921875 51.53125 44.890625 
Q 49.859375 40.875 45.40625 35.40625 
Q 44.1875 33.984375 37.640625 27.21875 
Q 31.109375 20.453125 19.1875 8.296875 
z
" id="DejaVuSans-50"/>
      </defs>
      <g transform="translate(359.53063 648.397656)scale(0.15 -0.15)">
       <use xlink:href="#DejaVuSans-49"/>
       <use x="63.623047" xlink:href="#DejaVuSans-50"/>
      </g>
     </g>
    </g>
    <g id="xtick_5">
     <g id="line2d_5">
      <g>
       <use style="stroke:#000000;stroke-width:0.8;" x="415.190083" xlink:href="#m8388c63085" y="630"/>
      </g>
     </g>
     <g id="text_5">
      <!-- 13 -->
      <defs>
       <path d="M 40.578125 39.3125 
Q 47.65625 37.796875 51.625 33 
Q 55.609375 28.21875 55.609375 21.1875 
Q 55.609375 10.40625 48.1875 4.484375 
Q 40.765625 -1.421875 27.09375 -1.421875 
Q 22.515625 -1.421875 17.65625 -0.515625 
Q 12.796875 0.390625 7.625 2.203125 
L 7.625 11.71875 
Q 11.71875 9.328125 16.59375 8.109375 
Q 21.484375 6.890625 26.8125 6.890625 
Q 36.078125 6.890625 40.9375 10.546875 
Q 45.796875 14.203125 45.796875 21.1875 
Q 45.796875 27.640625 41.28125 31.265625 
Q 36.765625 34.90625 28.71875 34.90625 
L 20.21875 34.90625 
L 20.21875 43.015625 
L 29.109375 43.015625 
Q 36.375 43.015625 40.234375 45.921875 
Q 44.09375 48.828125 44.09375 54.296875 
Q 44.09375 59.90625 40.109375 62.90625 
Q 36.140625 65.921875 28.71875 65.921875 
Q 24.65625 65.921875 20.015625 65.03125 
Q 15.375 64.15625 9.8125 62.3125 
L 9.8125 71.09375 
Q 15.4375 72.65625 20.34375 73.4375 
Q 25.25 74.21875 29.59375 74.21875 
Q 40.828125 74.21875 47.359375 69.109375 
Q 53.90625 64.015625 53.90625 55.328125 
Q 53.90625 49.265625 50.4375 45.09375 
Q 46.96875 40.921875 40.578125 39.3125 
z
" id="DejaVuSans-51"/>
      </defs>
      <g transform="translate(405.646333 648.397656)scale(0.15 -0.15)">
       <use xlink:href="#DejaVuSans-49"/>
       <use x="63.623047" xlink:href="#DejaVuSans-51"/>
      </g>
     </g>
    </g>
    <g id="xtick_6">
     <g id="line2d_6">
      <g>
       <use style="stroke:#000000;stroke-width:0.8;" x="461.305785" xlink:href="#m8388c63085" y="630"/>
      </g>
     </g>
     <g id="text_6">
      <!-- 14 -->
      <defs>
       <path d="M 37.796875 64.3125 
L 12.890625 25.390625 
L 37.796875 25.390625 
z
M 35.203125 72.90625 
L 47.609375 72.90625 
L 47.609375 25.390625 
L 58.015625 25.390625 
L 58.015625 17.1875 
L 47.609375 17.1875 
L 47.609375 0 
L 37.796875 0 
L 37.796875 17.1875 
L 4.890625 17.1875 
L 4.890625 26.703125 
z
" id="DejaVuSans-52"/>
      </defs>
      <g transform="translate(451.762035 648.397656)scale(0.15 -0.15)">
       <use xlink:href="#DejaVuSans-49"/>
       <use x="63.623047" xlink:href="#DejaVuSans-52"/>
      </g>
     </g>
    </g>
    <g id="xtick_7">
     <g id="line2d_7">
      <g>
       <use style="stroke:#000000;stroke-width:0.8;" x="507.421488" xlink:href="#m8388c63085" y="630"/>
      </g>
     </g>
     <g id="text_7">
      <!-- 15 -->
      <defs>
       <path d="M 10.796875 72.90625 
L 49.515625 72.90625 
L 49.515625 64.59375 
L 19.828125 64.59375 
L 19.828125 46.734375 
Q 21.96875 47.46875 24.109375 47.828125 
Q 26.265625 48.1875 28.421875 48.1875 
Q 40.625 48.1875 47.75 41.5 
Q 54.890625 34.8125 54.890625 23.390625 
Q 54.890625 11.625 47.5625 5.09375 
Q 40.234375 -1.421875 26.90625 -1.421875 
Q 22.3125 -1.421875 17.546875 -0.640625 
Q 12.796875 0.140625 7.71875 1.703125 
L 7.71875 11.625 
Q 12.109375 9.234375 16.796875 8.0625 
Q 21.484375 6.890625 26.703125 6.890625 
Q 35.15625 6.890625 40.078125 11.328125 
Q 45.015625 15.765625 45.015625 23.390625 
Q 45.015625 31 40.078125 35.4375 
Q 35.15625 39.890625 26.703125 39.890625 
Q 22.75 39.890625 18.8125 39.015625 
Q 14.890625 38.140625 10.796875 36.28125 
z
" id="DejaVuSans-53"/>
      </defs>
      <g transform="translate(497.877738 648.397656)scale(0.15 -0.15)">
       <use xlink:href="#DejaVuSans-49"/>
       <use x="63.623047" xlink:href="#DejaVuSans-53"/>
      </g>
     </g>
    </g>
    <g id="xtick_8">
     <g id="line2d_8">
      <g>
       <use style="stroke:#000000;stroke-width:0.8;" x="553.53719" xlink:href="#m8388c63085" y="630"/>
      </g>
     </g>
     <g id="text_8">
      <!-- 16 -->
      <defs>
       <path d="M 33.015625 40.375 
Q 26.375 40.375 22.484375 35.828125 
Q 18.609375 31.296875 18.609375 23.390625 
Q 18.609375 15.53125 22.484375 10.953125 
Q 26.375 6.390625 33.015625 6.390625 
Q 39.65625 6.390625 43.53125 10.953125 
Q 47.40625 15.53125 47.40625 23.390625 
Q 47.40625 31.296875 43.53125 35.828125 
Q 39.65625 40.375 33.015625 40.375 
z
M 52.59375 71.296875 
L 52.59375 62.3125 
Q 48.875 64.0625 45.09375 64.984375 
Q 41.3125 65.921875 37.59375 65.921875 
Q 27.828125 65.921875 22.671875 59.328125 
Q 17.53125 52.734375 16.796875 39.40625 
Q 19.671875 43.65625 24.015625 45.921875 
Q 28.375 48.1875 33.59375 48.1875 
Q 44.578125 48.1875 50.953125 41.515625 
Q 57.328125 34.859375 57.328125 23.390625 
Q 57.328125 12.15625 50.6875 5.359375 
Q 44.046875 -1.421875 33.015625 -1.421875 
Q 20.359375 -1.421875 13.671875 8.265625 
Q 6.984375 17.96875 6.984375 36.375 
Q 6.984375 53.65625 15.1875 63.9375 
Q 23.390625 74.21875 37.203125 74.21875 
Q 40.921875 74.21875 44.703125 73.484375 
Q 48.484375 72.75 52.59375 71.296875 
z
" id="DejaVuSans-54"/>
      </defs>
      <g transform="translate(543.99344 648.397656)scale(0.15 -0.15)">
       <use xlink:href="#DejaVuSans-49"/>
       <use x="63.623047" xlink:href="#DejaVuSans-54"/>
      </g>
     </g>
    </g>
    <g id="xtick_9">
     <g id="line2d_9">
      <g>
       <use style="stroke:#000000;stroke-width:0.8;" x="599.652893" xlink:href="#m8388c63085" y="630"/>
      </g>
     </g>
     <g id="text_9">
      <!-- 17 -->
      <defs>
       <path d="M 8.203125 72.90625 
L 55.078125 72.90625 
L 55.078125 68.703125 
L 28.609375 0 
L 18.3125 0 
L 43.21875 64.59375 
L 8.203125 64.59375 
z
" id="DejaVuSans-55"/>
      </defs>
      <g transform="translate(590.109143 648.397656)scale(0.15 -0.15)">
       <use xlink:href="#DejaVuSans-49"/>
       <use x="63.623047" xlink:href="#DejaVuSans-55"/>
      </g>
     </g>
    </g>
    <g id="xtick_10">
     <g id="line2d_10">
      <g>
       <use style="stroke:#000000;stroke-width:0.8;" x="645.768595" xlink:href="#m8388c63085" y="630"/>
      </g>
     </g>
     <g id="text_10">
      <!-- 18 -->
      <defs>
       <path d="M 31.78125 34.625 
Q 24.75 34.625 20.71875 30.859375 
Q 16.703125 27.09375 16.703125 20.515625 
Q 16.703125 13.921875 20.71875 10.15625 
Q 24.75 6.390625 31.78125 6.390625 
Q 38.8125 6.390625 42.859375 10.171875 
Q 46.921875 13.96875 46.921875 20.515625 
Q 46.921875 27.09375 42.890625 30.859375 
Q 38.875 34.625 31.78125 34.625 
z
M 21.921875 38.8125 
Q 15.578125 40.375 12.03125 44.71875 
Q 8.5 49.078125 8.5 55.328125 
Q 8.5 64.0625 14.71875 69.140625 
Q 20.953125 74.21875 31.78125 74.21875 
Q 42.671875 74.21875 48.875 69.140625 
Q 55.078125 64.0625 55.078125 55.328125 
Q 55.078125 49.078125 51.53125 44.71875 
Q 48 40.375 41.703125 38.8125 
Q 48.828125 37.15625 52.796875 32.3125 
Q 56.78125 27.484375 56.78125 20.515625 
Q 56.78125 9.90625 50.3125 4.234375 
Q 43.84375 -1.421875 31.78125 -1.421875 
Q 19.734375 -1.421875 13.25 4.234375 
Q 6.78125 9.90625 6.78125 20.515625 
Q 6.78125 27.484375 10.78125 32.3125 
Q 14.796875 37.15625 21.921875 38.8125 
z
M 18.3125 54.390625 
Q 18.3125 48.734375 21.84375 45.5625 
Q 25.390625 42.390625 31.78125 42.390625 
Q 38.140625 42.390625 41.71875 45.5625 
Q 45.3125 48.734375 45.3125 54.390625 
Q 45.3125 60.0625 41.71875 63.234375 
Q 38.140625 66.40625 31.78125 66.40625 
Q 25.390625 66.40625 21.84375 63.234375 
Q 18.3125 60.0625 18.3125 54.390625 
z
" id="DejaVuSans-56"/>
      </defs>
      <g transform="translate(636.224845 648.397656)scale(0.15 -0.15)">
       <use xlink:href="#DejaVuSans-49"/>
       <use x="63.623047" xlink:href="#DejaVuSans-56"/>
      </g>
     </g>
    </g>
    <g id="xtick_11">
     <g id="line2d_11">
      <g>
       <use style="stroke:#000000;stroke-width:0.8;" x="691.884298" xlink:href="#m8388c63085" y="630"/>
      </g>
     </g>
     <g id="text_11">
      <!-- 19 -->
      <g transform="translate(682.340548 648.397656)scale(0.15 -0.15)">
       <use xlink:href="#DejaVuSans-49"/>
       <use x="63.623047" xlink:href="#DejaVuSans-57"/>
      </g>
     </g>
    </g>
    <g id="xtick_12">
     <g id="line2d_12">
      <g>
       <use style="stroke:#000000;stroke-width:0.8;" x="738" xlink:href="#m8388c63085" y="630"/>
      </g>
     </g>
     <g id="text_12">
      <!-- 20 -->
      <g transform="translate(728.45625 648.397656)scale(0.15 -0.15)">
       <use xlink:href="#DejaVuSans-50"/>
       <use x="63.623047" xlink:href="#DejaVuSans-48"/>
      </g>
     </g>
    </g>
    <g id="xtick_13">
     <g id="line2d_13">
      <g>
       <use style="stroke:#000000;stroke-width:0.8;" x="784.115702" xlink:href="#m8388c63085" y="630"/>
      </g>
     </g>
     <g id="text_13">
      <!-- 21 -->
      <g transform="translate(774.571952 648.397656)scale(0.15 -0.15)">
       <use xlink:href="#DejaVuSans-50"/>
       <use x="63.623047" xlink:href="#DejaVuSans-49"/>
      </g>
     </g>
    </g>
    <g id="xtick_14">
     <g id="line2d_14">
      <g>
       <use style="stroke:#000000;stroke-width:0.8;" x="830.231405" xlink:href="#m8388c63085" y="630"/>
      </g>
     </g>
     <g id="text_14">
      <!-- 22 -->
      <g transform="translate(820.687655 648.397656)scale(0.15 -0.15)">
       <use xlink:href="#DejaVuSans-50"/>
       <use x="63.623047" xlink:href="#DejaVuSans-50"/>
      </g>
     </g>
    </g>
    <g id="xtick_15">
     <g id="line2d_15">
      <g>
       <use style="stroke:#000000;stroke-width:0.8;" x="876.347107" xlink:href="#m8388c63085" y="630"/>
      </g>
     </g>
     <g id="text_15">
      <!-- 23 -->
      <g transform="translate(866.803357 648.397656)scale(0.15 -0.15)">
       <use xlink:href="#DejaVuSans-50"/>
       <use x="63.623047" xlink:href="#DejaVuSans-51"/>
      </g>
     </g>
    </g>
    <g id="xtick_16">
     <g id="line2d_16">
      <g>
       <use style="stroke:#000000;stroke-width:0.8;" x="922.46281" xlink:href="#m8388c63085" y="630"/>
      </g>
     </g>
     <g id="text_16">
      <!-- 24 -->
      <g transform="translate(912.91906 648.397656)scale(0.15 -0.15)">
       <use xlink:href="#DejaVuSans-50"/>
       <use x="63.623047" xlink:href="#DejaVuSans-52"/>
      </g>
     </g>
    </g>
    <g id="xtick_17">
     <g id="line2d_17">
      <g>
       <use style="stroke:#000000;stroke-width:0.8;" x="968.578512" xlink:href="#m8388c63085" y="630"/>
      </g>
     </g>
     <g id="text_17">
      <!-- 25 -->
      <g transform="translate(959.034762 648.397656)scale(0.15 -0.15)">
       <use xlink:href="#DejaVuSans-50"/>
       <use x="63.623047" xlink:href="#DejaVuSans-53"/>
      </g>
     </g>
    </g>
    <g id="xtick_18">
     <g id="line2d_18">
      <g>
       <use style="stroke:#000000;stroke-width:0.8;" x="1014.694215" xlink:href="#m8388c63085" y="630"/>
      </g>
     </g>
     <g id="text_18">
      <!-- 26 -->
      <g transform="translate(1005.150465 648.397656)scale(0.15 -0.15)">
       <use xlink:href="#DejaVuSans-50"/>
       <use x="63.623047" xlink:href="#DejaVuSans-54"/>
      </g>
     </g>
    </g>
    <g id="xtick_19">
     <g id="line2d_19">
      <g>
       <use style="stroke:#000000;stroke-width:0.8;" x="1060.809917" xlink:href="#m8388c63085" y="630"/>
      </g>
     </g>
     <g id="text_19">
      <!-- 27 -->
      <g transform="translate(1051.266167 648.397656)scale(0.15 -0.15)">
       <use xlink:href="#DejaVuSans-50"/>
       <use x="63.623047" xlink:href="#DejaVuSans-55"/>
      </g>
     </g>
    </g>
    <g id="xtick_20">
     <g id="line2d_20">
      <g>
       <use style="stroke:#000000;stroke-width:0.8;" x="1106.92562" xlink:href="#m8388c63085" y="630"/>
      </g>
     </g>
     <g id="text_20">
      <!-- 28 -->
      <g transform="translate(1097.38187 648.397656)scale(0.15 -0.15)">
       <use xlink:href="#DejaVuSans-50"/>
       <use x="63.623047" xlink:href="#DejaVuSans-56"/>
      </g>
     </g>
    </g>
    <g id="xtick_21">
     <g id="line2d_21">
      <g>
       <use style="stroke:#000000;stroke-width:0.8;" x="1153.041322" xlink:href="#m8388c63085" y="630"/>
      </g>
     </g>
     <g id="text_21">
      <!-- 29 -->
      <g transform="translate(1143.497572 648.397656)scale(0.15 -0.15)">
       <use xlink:href="#DejaVuSans-50"/>
       <use x="63.623047" xlink:href="#DejaVuSans-57"/>
      </g>
     </g>
    </g>
    <g id="xtick_22">
     <g id="line2d_22">
      <g>
       <use style="stroke:#000000;stroke-width:0.8;" x="1199.157025" xlink:href="#m8388c63085" y="630"/>
      </g>
     </g>
     <g id="text_22">
      <!-- 30 -->
      <g transform="translate(1189.613275 648.397656)scale(0.15 -0.15)">
       <use xlink:href="#DejaVuSans-51"/>
       <use x="63.623047" xlink:href="#DejaVuSans-48"/>
      </g>
     </g>
    </g>
    <g id="xtick_23">
     <g id="line2d_23">
      <g>
       <use style="stroke:#000000;stroke-width:0.8;" x="1245.272727" xlink:href="#m8388c63085" y="630"/>
      </g>
     </g>
     <g id="text_23">
      <!-- 31 -->
      <g transform="translate(1235.728977 648.397656)scale(0.15 -0.15)">
       <use xlink:href="#DejaVuSans-51"/>
       <use x="63.623047" xlink:href="#DejaVuSans-49"/>
      </g>
     </g>
    </g>
    <g id="text_24">
     <!-- Semana Epidemiológica -->
     <defs>
      <path d="M 53.515625 70.515625 
L 53.515625 60.890625 
Q 47.90625 63.578125 42.921875 64.890625 
Q 37.9375 66.21875 33.296875 66.21875 
Q 25.25 66.21875 20.875 63.09375 
Q 16.5 59.96875 16.5 54.203125 
Q 16.5 49.359375 19.40625 46.890625 
Q 22.3125 44.4375 30.421875 42.921875 
L 36.375 41.703125 
Q 47.40625 39.59375 52.65625 34.296875 
Q 57.90625 29 57.90625 20.125 
Q 57.90625 9.515625 50.796875 4.046875 
Q 43.703125 -1.421875 29.984375 -1.421875 
Q 24.8125 -1.421875 18.96875 -0.25 
Q 13.140625 0.921875 6.890625 3.21875 
L 6.890625 13.375 
Q 12.890625 10.015625 18.65625 8.296875 
Q 24.421875 6.59375 29.984375 6.59375 
Q 38.421875 6.59375 43.015625 9.90625 
Q 47.609375 13.234375 47.609375 19.390625 
Q 47.609375 24.75 44.3125 27.78125 
Q 41.015625 30.8125 33.5 32.328125 
L 27.484375 33.5 
Q 16.453125 35.6875 11.515625 40.375 
Q 6.59375 45.0625 6.59375 53.421875 
Q 6.59375 63.09375 13.40625 68.65625 
Q 20.21875 74.21875 32.171875 74.21875 
Q 37.3125 74.21875 42.625 73.28125 
Q 47.953125 72.359375 53.515625 70.515625 
z
" id="DejaVuSans-83"/>
      <path d="M 56.203125 29.59375 
L 56.203125 25.203125 
L 14.890625 25.203125 
Q 15.484375 15.921875 20.484375 11.0625 
Q 25.484375 6.203125 34.421875 6.203125 
Q 39.59375 6.203125 44.453125 7.46875 
Q 49.3125 8.734375 54.109375 11.28125 
L 54.109375 2.78125 
Q 49.265625 0.734375 44.1875 -0.34375 
Q 39.109375 -1.421875 33.890625 -1.421875 
Q 20.796875 -1.421875 13.15625 6.1875 
Q 5.515625 13.8125 5.515625 26.8125 
Q 5.515625 40.234375 12.765625 48.109375 
Q 20.015625 56 32.328125 56 
Q 43.359375 56 49.78125 48.890625 
Q 56.203125 41.796875 56.203125 29.59375 
z
M 47.21875 32.234375 
Q 47.125 39.59375 43.09375 43.984375 
Q 39.0625 48.390625 32.421875 48.390625 
Q 24.90625 48.390625 20.390625 44.140625 
Q 15.875 39.890625 15.1875 32.171875 
z
" id="DejaVuSans-101"/>
      <path d="M 52 44.1875 
Q 55.375 50.25 60.0625 53.125 
Q 64.75 56 71.09375 56 
Q 79.640625 56 84.28125 50.015625 
Q 88.921875 44.046875 88.921875 33.015625 
L 88.921875 0 
L 79.890625 0 
L 79.890625 32.71875 
Q 79.890625 40.578125 77.09375 44.375 
Q 74.3125 48.1875 68.609375 48.1875 
Q 61.625 48.1875 57.5625 43.546875 
Q 53.515625 38.921875 53.515625 30.90625 
L 53.515625 0 
L 44.484375 0 
L 44.484375 32.71875 
Q 44.484375 40.625 41.703125 44.40625 
Q 38.921875 48.1875 33.109375 48.1875 
Q 26.21875 48.1875 22.15625 43.53125 
Q 18.109375 38.875 18.109375 30.90625 
L 18.109375 0 
L 9.078125 0 
L 9.078125 54.6875 
L 18.109375 54.6875 
L 18.109375 46.1875 
Q 21.1875 51.21875 25.484375 53.609375 
Q 29.78125 56 35.6875 56 
Q 41.65625 56 45.828125 52.96875 
Q 50 49.953125 52 44.1875 
z
" id="DejaVuSans-109"/>
      <path d="M 34.28125 27.484375 
Q 23.390625 27.484375 19.1875 25 
Q 14.984375 22.515625 14.984375 16.5 
Q 14.984375 11.71875 18.140625 8.90625 
Q 21.296875 6.109375 26.703125 6.109375 
Q 34.1875 6.109375 38.703125 11.40625 
Q 43.21875 16.703125 43.21875 25.484375 
L 43.21875 27.484375 
z
M 52.203125 31.203125 
L 52.203125 0 
L 43.21875 0 
L 43.21875 8.296875 
Q 40.140625 3.328125 35.546875 0.953125 
Q 30.953125 -1.421875 24.3125 -1.421875 
Q 15.921875 -1.421875 10.953125 3.296875 
Q 6 8.015625 6 15.921875 
Q 6 25.140625 12.171875 29.828125 
Q 18.359375 34.515625 30.609375 34.515625 
L 43.21875 34.515625 
L 43.21875 35.40625 
Q 43.21875 41.609375 39.140625 45 
Q 35.0625 48.390625 27.6875 48.390625 
Q 23 48.390625 18.546875 47.265625 
Q 14.109375 46.140625 10.015625 43.890625 
L 10.015625 52.203125 
Q 14.9375 54.109375 19.578125 55.046875 
Q 24.21875 56 28.609375 56 
Q 40.484375 56 46.34375 49.84375 
Q 52.203125 43.703125 52.203125 31.203125 
z
" id="DejaVuSans-97"/>
      <path d="M 54.890625 33.015625 
L 54.890625 0 
L 45.90625 0 
L 45.90625 32.71875 
Q 45.90625 40.484375 42.875 44.328125 
Q 39.84375 48.1875 33.796875 48.1875 
Q 26.515625 48.1875 22.3125 43.546875 
Q 18.109375 38.921875 18.109375 30.90625 
L 18.109375 0 
L 9.078125 0 
L 9.078125 54.6875 
L 18.109375 54.6875 
L 18.109375 46.1875 
Q 21.34375 51.125 25.703125 53.5625 
Q 30.078125 56 35.796875 56 
Q 45.21875 56 50.046875 50.171875 
Q 54.890625 44.34375 54.890625 33.015625 
z
" id="DejaVuSans-110"/>
      <path id="DejaVuSans-32"/>
      <path d="M 9.8125 72.90625 
L 55.90625 72.90625 
L 55.90625 64.59375 
L 19.671875 64.59375 
L 19.671875 43.015625 
L 54.390625 43.015625 
L 54.390625 34.71875 
L 19.671875 34.71875 
L 19.671875 8.296875 
L 56.78125 8.296875 
L 56.78125 0 
L 9.8125 0 
z
" id="DejaVuSans-69"/>
      <path d="M 18.109375 8.203125 
L 18.109375 -20.796875 
L 9.078125 -20.796875 
L 9.078125 54.6875 
L 18.109375 54.6875 
L 18.109375 46.390625 
Q 20.953125 51.265625 25.265625 53.625 
Q 29.59375 56 35.59375 56 
Q 45.5625 56 51.78125 48.09375 
Q 58.015625 40.1875 58.015625 27.296875 
Q 58.015625 14.40625 51.78125 6.484375 
Q 45.5625 -1.421875 35.59375 -1.421875 
Q 29.59375 -1.421875 25.265625 0.953125 
Q 20.953125 3.328125 18.109375 8.203125 
z
M 48.6875 27.296875 
Q 48.6875 37.203125 44.609375 42.84375 
Q 40.53125 48.484375 33.40625 48.484375 
Q 26.265625 48.484375 22.1875 42.84375 
Q 18.109375 37.203125 18.109375 27.296875 
Q 18.109375 17.390625 22.1875 11.75 
Q 26.265625 6.109375 33.40625 6.109375 
Q 40.53125 6.109375 44.609375 11.75 
Q 48.6875 17.390625 48.6875 27.296875 
z
" id="DejaVuSans-112"/>
      <path d="M 9.421875 54.6875 
L 18.40625 54.6875 
L 18.40625 0 
L 9.421875 0 
z
M 9.421875 75.984375 
L 18.40625 75.984375 
L 18.40625 64.59375 
L 9.421875 64.59375 
z
" id="DejaVuSans-105"/>
      <path d="M 45.40625 46.390625 
L 45.40625 75.984375 
L 54.390625 75.984375 
L 54.390625 0 
L 45.40625 0 
L 45.40625 8.203125 
Q 42.578125 3.328125 38.25 0.953125 
Q 33.9375 -1.421875 27.875 -1.421875 
Q 17.96875 -1.421875 11.734375 6.484375 
Q 5.515625 14.40625 5.515625 27.296875 
Q 5.515625 40.1875 11.734375 48.09375 
Q 17.96875 56 27.875 56 
Q 33.9375 56 38.25 53.625 
Q 42.578125 51.265625 45.40625 46.390625 
z
M 14.796875 27.296875 
Q 14.796875 17.390625 18.875 11.75 
Q 22.953125 6.109375 30.078125 6.109375 
Q 37.203125 6.109375 41.296875 11.75 
Q 45.40625 17.390625 45.40625 27.296875 
Q 45.40625 37.203125 41.296875 42.84375 
Q 37.203125 48.484375 30.078125 48.484375 
Q 22.953125 48.484375 18.875 42.84375 
Q 14.796875 37.203125 14.796875 27.296875 
z
" id="DejaVuSans-100"/>
      <path d="M 30.609375 48.390625 
Q 23.390625 48.390625 19.1875 42.75 
Q 14.984375 37.109375 14.984375 27.296875 
Q 14.984375 17.484375 19.15625 11.84375 
Q 23.34375 6.203125 30.609375 6.203125 
Q 37.796875 6.203125 41.984375 11.859375 
Q 46.1875 17.53125 46.1875 27.296875 
Q 46.1875 37.015625 41.984375 42.703125 
Q 37.796875 48.390625 30.609375 48.390625 
z
M 30.609375 56 
Q 42.328125 56 49.015625 48.375 
Q 55.71875 40.765625 55.71875 27.296875 
Q 55.71875 13.875 49.015625 6.21875 
Q 42.328125 -1.421875 30.609375 -1.421875 
Q 18.84375 -1.421875 12.171875 6.21875 
Q 5.515625 13.875 5.515625 27.296875 
Q 5.515625 40.765625 12.171875 48.375 
Q 18.84375 56 30.609375 56 
z
" id="DejaVuSans-111"/>
      <path d="M 9.421875 75.984375 
L 18.40625 75.984375 
L 18.40625 0 
L 9.421875 0 
z
" id="DejaVuSans-108"/>
      <path d="M 30.609375 48.390625 
Q 23.390625 48.390625 19.1875 42.75 
Q 14.984375 37.109375 14.984375 27.296875 
Q 14.984375 17.484375 19.15625 11.84375 
Q 23.34375 6.203125 30.609375 6.203125 
Q 37.796875 6.203125 41.984375 11.859375 
Q 46.1875 17.53125 46.1875 27.296875 
Q 46.1875 37.015625 41.984375 42.703125 
Q 37.796875 48.390625 30.609375 48.390625 
z
M 30.609375 56 
Q 42.328125 56 49.015625 48.375 
Q 55.71875 40.765625 55.71875 27.296875 
Q 55.71875 13.875 49.015625 6.21875 
Q 42.328125 -1.421875 30.609375 -1.421875 
Q 18.84375 -1.421875 12.171875 6.21875 
Q 5.515625 13.875 5.515625 27.296875 
Q 5.515625 40.765625 12.171875 48.375 
Q 18.84375 56 30.609375 56 
z
M 37.40625 79.984375 
L 47.125 79.984375 
L 31.203125 61.625 
L 23.734375 61.625 
z
" id="DejaVuSans-243"/>
      <path d="M 45.40625 27.984375 
Q 45.40625 37.75 41.375 43.109375 
Q 37.359375 48.484375 30.078125 48.484375 
Q 22.859375 48.484375 18.828125 43.109375 
Q 14.796875 37.75 14.796875 27.984375 
Q 14.796875 18.265625 18.828125 12.890625 
Q 22.859375 7.515625 30.078125 7.515625 
Q 37.359375 7.515625 41.375 12.890625 
Q 45.40625 18.265625 45.40625 27.984375 
z
M 54.390625 6.78125 
Q 54.390625 -7.171875 48.1875 -13.984375 
Q 42 -20.796875 29.203125 -20.796875 
Q 24.46875 -20.796875 20.265625 -20.09375 
Q 16.0625 -19.390625 12.109375 -17.921875 
L 12.109375 -9.1875 
Q 16.0625 -11.328125 19.921875 -12.34375 
Q 23.78125 -13.375 27.78125 -13.375 
Q 36.625 -13.375 41.015625 -8.765625 
Q 45.40625 -4.15625 45.40625 5.171875 
L 45.40625 9.625 
Q 42.625 4.78125 38.28125 2.390625 
Q 33.9375 0 27.875 0 
Q 17.828125 0 11.671875 7.65625 
Q 5.515625 15.328125 5.515625 27.984375 
Q 5.515625 40.671875 11.671875 48.328125 
Q 17.828125 56 27.875 56 
Q 33.9375 56 38.28125 53.609375 
Q 42.625 51.21875 45.40625 46.390625 
L 45.40625 54.6875 
L 54.390625 54.6875 
z
" id="DejaVuSans-103"/>
      <path d="M 48.78125 52.59375 
L 48.78125 44.1875 
Q 44.96875 46.296875 41.140625 47.34375 
Q 37.3125 48.390625 33.40625 48.390625 
Q 24.65625 48.390625 19.8125 42.84375 
Q 14.984375 37.3125 14.984375 27.296875 
Q 14.984375 17.28125 19.8125 11.734375 
Q 24.65625 6.203125 33.40625 6.203125 
Q 37.3125 6.203125 41.140625 7.25 
Q 44.96875 8.296875 48.78125 10.40625 
L 48.78125 2.09375 
Q 45.015625 0.34375 40.984375 -0.53125 
Q 36.96875 -1.421875 32.421875 -1.421875 
Q 20.0625 -1.421875 12.78125 6.34375 
Q 5.515625 14.109375 5.515625 27.296875 
Q 5.515625 40.671875 12.859375 48.328125 
Q 20.21875 56 33.015625 56 
Q 37.15625 56 41.109375 55.140625 
Q 45.0625 54.296875 48.78125 52.59375 
z
" id="DejaVuSans-99"/>
     </defs>
     <g transform="translate(617.751562 671.514063)scale(0.2 -0.2)">
      <use xlink:href="#DejaVuSans-83"/>
      <use x="63.476562" xlink:href="#DejaVuSans-101"/>
      <use x="125" xlink:href="#DejaVuSans-109"/>
      <use x="222.412109" xlink:href="#DejaVuSans-97"/>
      <use x="283.691406" xlink:href="#DejaVuSans-110"/>
      <use x="347.070312" xlink:href="#DejaVuSans-97"/>
      <use x="408.349609" xlink:href="#DejaVuSans-32"/>
      <use x="440.136719" xlink:href="#DejaVuSans-69"/>
      <use x="503.320312" xlink:href="#DejaVuSans-112"/>
      <use x="566.796875" xlink:href="#DejaVuSans-105"/>
      <use x="594.580078" xlink:href="#DejaVuSans-100"/>
      <use x="658.056641" xlink:href="#DejaVuSans-101"/>
      <use x="719.580078" xlink:href="#DejaVuSans-109"/>
      <use x="816.992188" xlink:href="#DejaVuSans-105"/>
      <use x="844.775391" xlink:href="#DejaVuSans-111"/>
      <use x="905.957031" xlink:href="#DejaVuSans-108"/>
      <use x="933.740234" xlink:href="#DejaVuSans-243"/>
      <use x="994.921875" xlink:href="#DejaVuSans-103"/>
      <use x="1058.398438" xlink:href="#DejaVuSans-105"/>
      <use x="1086.181641" xlink:href="#DejaVuSans-99"/>
      <use x="1141.162109" xlink:href="#DejaVuSans-97"/>
     </g>
    </g>
   </g>
   <g id="matplotlib.axis_2">
    <g id="ytick_1">
     <g id="line2d_24">
      <path clip-path="url(#p0d1acbfd21)" d="M 180 605.290909 
L 1296 605.290909 
" style="fill:none;stroke:#b0b0b0;stroke-linecap:square;stroke-width:0.8;"/>
     </g>
     <g id="line2d_25">
      <defs>
       <path d="M 0 0 
L -3.5 0 
" id="m7363a98091" style="stroke:#000000;stroke-width:0.8;"/>
      </defs>
      <g>
       <use style="stroke:#000000;stroke-width:0.8;" x="180" xlink:href="#m7363a98091" y="605.290909"/>
      </g>
     </g>
     <g id="text_25">
      <!-- 0 -->
      <g transform="translate(163.45625 610.989737)scale(0.15 -0.15)">
       <use xlink:href="#DejaVuSans-48"/>
      </g>
     </g>
    </g>
    <g id="ytick_2">
     <g id="line2d_26">
      <path clip-path="url(#p0d1acbfd21)" d="M 180 573.058857 
L 1296 573.058857 
" style="fill:none;stroke:#b0b0b0;stroke-linecap:square;stroke-width:0.8;"/>
     </g>
     <g id="line2d_27">
      <g>
       <use style="stroke:#000000;stroke-width:0.8;" x="180" xlink:href="#m7363a98091" y="573.058857"/>
      </g>
     </g>
     <g id="text_26">
      <!-- 500 -->
      <g transform="translate(144.36875 578.757685)scale(0.15 -0.15)">
       <use xlink:href="#DejaVuSans-53"/>
       <use x="63.623047" xlink:href="#DejaVuSans-48"/>
       <use x="127.246094" xlink:href="#DejaVuSans-48"/>
      </g>
     </g>
    </g>
    <g id="ytick_3">
     <g id="line2d_28">
      <path clip-path="url(#p0d1acbfd21)" d="M 180 540.826805 
L 1296 540.826805 
" style="fill:none;stroke:#b0b0b0;stroke-linecap:square;stroke-width:0.8;"/>
     </g>
     <g id="line2d_29">
      <g>
       <use style="stroke:#000000;stroke-width:0.8;" x="180" xlink:href="#m7363a98091" y="540.826805"/>
      </g>
     </g>
     <g id="text_27">
      <!-- 1000 -->
      <g transform="translate(134.825 546.525634)scale(0.15 -0.15)">
       <use xlink:href="#DejaVuSans-49"/>
       <use x="63.623047" xlink:href="#DejaVuSans-48"/>
       <use x="127.246094" xlink:href="#DejaVuSans-48"/>
       <use x="190.869141" xlink:href="#DejaVuSans-48"/>
      </g>
     </g>
    </g>
    <g id="ytick_4">
     <g id="line2d_30">
      <path clip-path="url(#p0d1acbfd21)" d="M 180 508.594754 
L 1296 508.594754 
" style="fill:none;stroke:#b0b0b0;stroke-linecap:square;stroke-width:0.8;"/>
     </g>
     <g id="line2d_31">
      <g>
       <use style="stroke:#000000;stroke-width:0.8;" x="180" xlink:href="#m7363a98091" y="508.594754"/>
      </g>
     </g>
     <g id="text_28">
      <!-- 1500 -->
      <g transform="translate(134.825 514.293582)scale(0.15 -0.15)">
       <use xlink:href="#DejaVuSans-49"/>
       <use x="63.623047" xlink:href="#DejaVuSans-53"/>
       <use x="127.246094" xlink:href="#DejaVuSans-48"/>
       <use x="190.869141" xlink:href="#DejaVuSans-48"/>
      </g>
     </g>
    </g>
    <g id="ytick_5">
     <g id="line2d_32">
      <path clip-path="url(#p0d1acbfd21)" d="M 180 476.362702 
L 1296 476.362702 
" style="fill:none;stroke:#b0b0b0;stroke-linecap:square;stroke-width:0.8;"/>
     </g>
     <g id="line2d_33">
      <g>
       <use style="stroke:#000000;stroke-width:0.8;" x="180" xlink:href="#m7363a98091" y="476.362702"/>
      </g>
     </g>
     <g id="text_29">
      <!-- 2000 -->
      <g transform="translate(134.825 482.06153)scale(0.15 -0.15)">
       <use xlink:href="#DejaVuSans-50"/>
       <use x="63.623047" xlink:href="#DejaVuSans-48"/>
       <use x="127.246094" xlink:href="#DejaVuSans-48"/>
       <use x="190.869141" xlink:href="#DejaVuSans-48"/>
      </g>
     </g>
    </g>
    <g id="ytick_6">
     <g id="line2d_34">
      <path clip-path="url(#p0d1acbfd21)" d="M 180 444.13065 
L 1296 444.13065 
" style="fill:none;stroke:#b0b0b0;stroke-linecap:square;stroke-width:0.8;"/>
     </g>
     <g id="line2d_35">
      <g>
       <use style="stroke:#000000;stroke-width:0.8;" x="180" xlink:href="#m7363a98091" y="444.13065"/>
      </g>
     </g>
     <g id="text_30">
      <!-- 2500 -->
      <g transform="translate(134.825 449.829478)scale(0.15 -0.15)">
       <use xlink:href="#DejaVuSans-50"/>
       <use x="63.623047" xlink:href="#DejaVuSans-53"/>
       <use x="127.246094" xlink:href="#DejaVuSans-48"/>
       <use x="190.869141" xlink:href="#DejaVuSans-48"/>
      </g>
     </g>
    </g>
    <g id="ytick_7">
     <g id="line2d_36">
      <path clip-path="url(#p0d1acbfd21)" d="M 180 411.898598 
L 1296 411.898598 
" style="fill:none;stroke:#b0b0b0;stroke-linecap:square;stroke-width:0.8;"/>
     </g>
     <g id="line2d_37">
      <g>
       <use style="stroke:#000000;stroke-width:0.8;" x="180" xlink:href="#m7363a98091" y="411.898598"/>
      </g>
     </g>
     <g id="text_31">
      <!-- 3000 -->
      <g transform="translate(134.825 417.597426)scale(0.15 -0.15)">
       <use xlink:href="#DejaVuSans-51"/>
       <use x="63.623047" xlink:href="#DejaVuSans-48"/>
       <use x="127.246094" xlink:href="#DejaVuSans-48"/>
       <use x="190.869141" xlink:href="#DejaVuSans-48"/>
      </g>
     </g>
    </g>
    <g id="ytick_8">
     <g id="line2d_38">
      <path clip-path="url(#p0d1acbfd21)" d="M 180 379.666546 
L 1296 379.666546 
" style="fill:none;stroke:#b0b0b0;stroke-linecap:square;stroke-width:0.8;"/>
     </g>
     <g id="line2d_39">
      <g>
       <use style="stroke:#000000;stroke-width:0.8;" x="180" xlink:href="#m7363a98091" y="379.666546"/>
      </g>
     </g>
     <g id="text_32">
      <!-- 3500 -->
      <g transform="translate(134.825 385.365375)scale(0.15 -0.15)">
       <use xlink:href="#DejaVuSans-51"/>
       <use x="63.623047" xlink:href="#DejaVuSans-53"/>
       <use x="127.246094" xlink:href="#DejaVuSans-48"/>
       <use x="190.869141" xlink:href="#DejaVuSans-48"/>
      </g>
     </g>
    </g>
    <g id="ytick_9">
     <g id="line2d_40">
      <path clip-path="url(#p0d1acbfd21)" d="M 180 347.434495 
L 1296 347.434495 
" style="fill:none;stroke:#b0b0b0;stroke-linecap:square;stroke-width:0.8;"/>
     </g>
     <g id="line2d_41">
      <g>
       <use style="stroke:#000000;stroke-width:0.8;" x="180" xlink:href="#m7363a98091" y="347.434495"/>
      </g>
     </g>
     <g id="text_33">
      <!-- 4000 -->
      <g transform="translate(134.825 353.133323)scale(0.15 -0.15)">
       <use xlink:href="#DejaVuSans-52"/>
       <use x="63.623047" xlink:href="#DejaVuSans-48"/>
       <use x="127.246094" xlink:href="#DejaVuSans-48"/>
       <use x="190.869141" xlink:href="#DejaVuSans-48"/>
      </g>
     </g>
    </g>
    <g id="ytick_10">
     <g id="line2d_42">
      <path clip-path="url(#p0d1acbfd21)" d="M 180 315.202443 
L 1296 315.202443 
" style="fill:none;stroke:#b0b0b0;stroke-linecap:square;stroke-width:0.8;"/>
     </g>
     <g id="line2d_43">
      <g>
       <use style="stroke:#000000;stroke-width:0.8;" x="180" xlink:href="#m7363a98091" y="315.202443"/>
      </g>
     </g>
     <g id="text_34">
      <!-- 4500 -->
      <g transform="translate(134.825 320.901271)scale(0.15 -0.15)">
       <use xlink:href="#DejaVuSans-52"/>
       <use x="63.623047" xlink:href="#DejaVuSans-53"/>
       <use x="127.246094" xlink:href="#DejaVuSans-48"/>
       <use x="190.869141" xlink:href="#DejaVuSans-48"/>
      </g>
     </g>
    </g>
    <g id="ytick_11">
     <g id="line2d_44">
      <path clip-path="url(#p0d1acbfd21)" d="M 180 282.970391 
L 1296 282.970391 
" style="fill:none;stroke:#b0b0b0;stroke-linecap:square;stroke-width:0.8;"/>
     </g>
     <g id="line2d_45">
      <g>
       <use style="stroke:#000000;stroke-width:0.8;" x="180" xlink:href="#m7363a98091" y="282.970391"/>
      </g>
     </g>
     <g id="text_35">
      <!-- 5000 -->
      <g transform="translate(134.825 288.669219)scale(0.15 -0.15)">
       <use xlink:href="#DejaVuSans-53"/>
       <use x="63.623047" xlink:href="#DejaVuSans-48"/>
       <use x="127.246094" xlink:href="#DejaVuSans-48"/>
       <use x="190.869141" xlink:href="#DejaVuSans-48"/>
      </g>
     </g>
    </g>
    <g id="ytick_12">
     <g id="line2d_46">
      <path clip-path="url(#p0d1acbfd21)" d="M 180 250.738339 
L 1296 250.738339 
" style="fill:none;stroke:#b0b0b0;stroke-linecap:square;stroke-width:0.8;"/>
     </g>
     <g id="line2d_47">
      <g>
       <use style="stroke:#000000;stroke-width:0.8;" x="180" xlink:href="#m7363a98091" y="250.738339"/>
      </g>
     </g>
     <g id="text_36">
      <!-- 5500 -->
      <g transform="translate(134.825 256.437167)scale(0.15 -0.15)">
       <use xlink:href="#DejaVuSans-53"/>
       <use x="63.623047" xlink:href="#DejaVuSans-53"/>
       <use x="127.246094" xlink:href="#DejaVuSans-48"/>
       <use x="190.869141" xlink:href="#DejaVuSans-48"/>
      </g>
     </g>
    </g>
    <g id="ytick_13">
     <g id="line2d_48">
      <path clip-path="url(#p0d1acbfd21)" d="M 180 218.506288 
L 1296 218.506288 
" style="fill:none;stroke:#b0b0b0;stroke-linecap:square;stroke-width:0.8;"/>
     </g>
     <g id="line2d_49">
      <g>
       <use style="stroke:#000000;stroke-width:0.8;" x="180" xlink:href="#m7363a98091" y="218.506288"/>
      </g>
     </g>
     <g id="text_37">
      <!-- 6000 -->
      <g transform="translate(134.825 224.205116)scale(0.15 -0.15)">
       <use xlink:href="#DejaVuSans-54"/>
       <use x="63.623047" xlink:href="#DejaVuSans-48"/>
       <use x="127.246094" xlink:href="#DejaVuSans-48"/>
       <use x="190.869141" xlink:href="#DejaVuSans-48"/>
      </g>
     </g>
    </g>
    <g id="ytick_14">
     <g id="line2d_50">
      <path clip-path="url(#p0d1acbfd21)" d="M 180 186.274236 
L 1296 186.274236 
" style="fill:none;stroke:#b0b0b0;stroke-linecap:square;stroke-width:0.8;"/>
     </g>
     <g id="line2d_51">
      <g>
       <use style="stroke:#000000;stroke-width:0.8;" x="180" xlink:href="#m7363a98091" y="186.274236"/>
      </g>
     </g>
     <g id="text_38">
      <!-- 6500 -->
      <g transform="translate(134.825 191.973064)scale(0.15 -0.15)">
       <use xlink:href="#DejaVuSans-54"/>
       <use x="63.623047" xlink:href="#DejaVuSans-53"/>
       <use x="127.246094" xlink:href="#DejaVuSans-48"/>
       <use x="190.869141" xlink:href="#DejaVuSans-48"/>
      </g>
     </g>
    </g>
    <g id="ytick_15">
     <g id="line2d_52">
      <path clip-path="url(#p0d1acbfd21)" d="M 180 154.042184 
L 1296 154.042184 
" style="fill:none;stroke:#b0b0b0;stroke-linecap:square;stroke-width:0.8;"/>
     </g>
     <g id="line2d_53">
      <g>
       <use style="stroke:#000000;stroke-width:0.8;" x="180" xlink:href="#m7363a98091" y="154.042184"/>
      </g>
     </g>
     <g id="text_39">
      <!-- 7000 -->
      <g transform="translate(134.825 159.741012)scale(0.15 -0.15)">
       <use xlink:href="#DejaVuSans-55"/>
       <use x="63.623047" xlink:href="#DejaVuSans-48"/>
       <use x="127.246094" xlink:href="#DejaVuSans-48"/>
       <use x="190.869141" xlink:href="#DejaVuSans-48"/>
      </g>
     </g>
    </g>
    <g id="ytick_16">
     <g id="line2d_54">
      <path clip-path="url(#p0d1acbfd21)" d="M 180 121.810132 
L 1296 121.810132 
" style="fill:none;stroke:#b0b0b0;stroke-linecap:square;stroke-width:0.8;"/>
     </g>
     <g id="line2d_55">
      <g>
       <use style="stroke:#000000;stroke-width:0.8;" x="180" xlink:href="#m7363a98091" y="121.810132"/>
      </g>
     </g>
     <g id="text_40">
      <!-- 7500 -->
      <g transform="translate(134.825 127.50896)scale(0.15 -0.15)">
       <use xlink:href="#DejaVuSans-55"/>
       <use x="63.623047" xlink:href="#DejaVuSans-53"/>
       <use x="127.246094" xlink:href="#DejaVuSans-48"/>
       <use x="190.869141" xlink:href="#DejaVuSans-48"/>
      </g>
     </g>
    </g>
    <g id="ytick_17">
     <g id="line2d_56">
      <path clip-path="url(#p0d1acbfd21)" d="M 180 89.57808 
L 1296 89.57808 
" style="fill:none;stroke:#b0b0b0;stroke-linecap:square;stroke-width:0.8;"/>
     </g>
     <g id="line2d_57">
      <g>
       <use style="stroke:#000000;stroke-width:0.8;" x="180" xlink:href="#m7363a98091" y="89.57808"/>
      </g>
     </g>
     <g id="text_41">
      <!-- 8000 -->
      <g transform="translate(134.825 95.276908)scale(0.15 -0.15)">
       <use xlink:href="#DejaVuSans-56"/>
       <use x="63.623047" xlink:href="#DejaVuSans-48"/>
       <use x="127.246094" xlink:href="#DejaVuSans-48"/>
       <use x="190.869141" xlink:href="#DejaVuSans-48"/>
      </g>
     </g>
    </g>
    <g id="text_42">
     <!-- Novos Óbitos -->
     <defs>
      <path d="M 9.8125 72.90625 
L 23.09375 72.90625 
L 55.421875 11.921875 
L 55.421875 72.90625 
L 64.984375 72.90625 
L 64.984375 0 
L 51.703125 0 
L 19.390625 60.984375 
L 19.390625 0 
L 9.8125 0 
z
" id="DejaVuSans-78"/>
      <path d="M 2.984375 54.6875 
L 12.5 54.6875 
L 29.59375 8.796875 
L 46.6875 54.6875 
L 56.203125 54.6875 
L 35.6875 0 
L 23.484375 0 
z
" id="DejaVuSans-118"/>
      <path d="M 44.28125 53.078125 
L 44.28125 44.578125 
Q 40.484375 46.53125 36.375 47.5 
Q 32.28125 48.484375 27.875 48.484375 
Q 21.1875 48.484375 17.84375 46.4375 
Q 14.5 44.390625 14.5 40.28125 
Q 14.5 37.15625 16.890625 35.375 
Q 19.28125 33.59375 26.515625 31.984375 
L 29.59375 31.296875 
Q 39.15625 29.25 43.1875 25.515625 
Q 47.21875 21.78125 47.21875 15.09375 
Q 47.21875 7.46875 41.1875 3.015625 
Q 35.15625 -1.421875 24.609375 -1.421875 
Q 20.21875 -1.421875 15.453125 -0.5625 
Q 10.6875 0.296875 5.421875 2 
L 5.421875 11.28125 
Q 10.40625 8.6875 15.234375 7.390625 
Q 20.0625 6.109375 24.8125 6.109375 
Q 31.15625 6.109375 34.5625 8.28125 
Q 37.984375 10.453125 37.984375 14.40625 
Q 37.984375 18.0625 35.515625 20.015625 
Q 33.0625 21.96875 24.703125 23.78125 
L 21.578125 24.515625 
Q 13.234375 26.265625 9.515625 29.90625 
Q 5.8125 33.546875 5.8125 39.890625 
Q 5.8125 47.609375 11.28125 51.796875 
Q 16.75 56 26.8125 56 
Q 31.78125 56 36.171875 55.265625 
Q 40.578125 54.546875 44.28125 53.078125 
z
" id="DejaVuSans-115"/>
      <path d="M 39.40625 66.21875 
Q 28.65625 66.21875 22.328125 58.203125 
Q 16.015625 50.203125 16.015625 36.375 
Q 16.015625 22.609375 22.328125 14.59375 
Q 28.65625 6.59375 39.40625 6.59375 
Q 50.140625 6.59375 56.421875 14.59375 
Q 62.703125 22.609375 62.703125 36.375 
Q 62.703125 50.203125 56.421875 58.203125 
Q 50.140625 66.21875 39.40625 66.21875 
z
M 39.40625 74.21875 
Q 54.734375 74.21875 63.90625 63.9375 
Q 73.09375 53.65625 73.09375 36.375 
Q 73.09375 19.140625 63.90625 8.859375 
Q 54.734375 -1.421875 39.40625 -1.421875 
Q 24.03125 -1.421875 14.8125 8.828125 
Q 5.609375 19.09375 5.609375 36.375 
Q 5.609375 53.65625 14.8125 63.9375 
Q 24.03125 74.21875 39.40625 74.21875 
z
M 42.09375 92.734375 
L 51.125 92.734375 
L 39.984375 79.84375 
L 32.515625 79.84375 
z
" id="DejaVuSans-211"/>
      <path d="M 48.6875 27.296875 
Q 48.6875 37.203125 44.609375 42.84375 
Q 40.53125 48.484375 33.40625 48.484375 
Q 26.265625 48.484375 22.1875 42.84375 
Q 18.109375 37.203125 18.109375 27.296875 
Q 18.109375 17.390625 22.1875 11.75 
Q 26.265625 6.109375 33.40625 6.109375 
Q 40.53125 6.109375 44.609375 11.75 
Q 48.6875 17.390625 48.6875 27.296875 
z
M 18.109375 46.390625 
Q 20.953125 51.265625 25.265625 53.625 
Q 29.59375 56 35.59375 56 
Q 45.5625 56 51.78125 48.09375 
Q 58.015625 40.1875 58.015625 27.296875 
Q 58.015625 14.40625 51.78125 6.484375 
Q 45.5625 -1.421875 35.59375 -1.421875 
Q 29.59375 -1.421875 25.265625 0.953125 
Q 20.953125 3.328125 18.109375 8.203125 
L 18.109375 0 
L 9.078125 0 
L 9.078125 75.984375 
L 18.109375 75.984375 
z
" id="DejaVuSans-98"/>
      <path d="M 18.3125 70.21875 
L 18.3125 54.6875 
L 36.8125 54.6875 
L 36.8125 47.703125 
L 18.3125 47.703125 
L 18.3125 18.015625 
Q 18.3125 11.328125 20.140625 9.421875 
Q 21.96875 7.515625 27.59375 7.515625 
L 36.8125 7.515625 
L 36.8125 0 
L 27.59375 0 
Q 17.1875 0 13.234375 3.875 
Q 9.28125 7.765625 9.28125 18.015625 
L 9.28125 47.703125 
L 2.6875 47.703125 
L 2.6875 54.6875 
L 9.28125 54.6875 
L 9.28125 70.21875 
z
" id="DejaVuSans-116"/>
     </defs>
     <g transform="translate(128.745312 391.335938)rotate(-90)scale(0.1 -0.1)">
      <use xlink:href="#DejaVuSans-78"/>
      <use x="74.804688" xlink:href="#DejaVuSans-111"/>
      <use x="135.986328" xlink:href="#DejaVuSans-118"/>
      <use x="195.166016" xlink:href="#DejaVuSans-111"/>
      <use x="256.347656" xlink:href="#DejaVuSans-115"/>
      <use x="308.447266" xlink:href="#DejaVuSans-32"/>
      <use x="340.234375" xlink:href="#DejaVuSans-211"/>
      <use x="418.945312" xlink:href="#DejaVuSans-98"/>
      <use x="482.421875" xlink:href="#DejaVuSans-105"/>
      <use x="510.205078" xlink:href="#DejaVuSans-116"/>
      <use x="549.414062" xlink:href="#DejaVuSans-111"/>
      <use x="610.595703" xlink:href="#DejaVuSans-115"/>
     </g>
    </g>
   </g>
   <g id="line2d_58">
    <path clip-path="url(#p0d1acbfd21)" d="M 276.842975 605.290909 
L 322.958678 605.290909 
L 369.07438 605.290909 
L 415.190083 605.226445 
L 461.305785 604.646268 
L 507.421488 604.130555 
L 553.53719 603.808235 
L 599.652893 604.323948 
L 645.768595 604.388412 
L 691.884298 603.228058 
L 738 602.00324 
L 784.115702 600.649494 
L 830.231405 598.006465 
L 876.347107 596.588255 
L 922.46281 591.237735 
L 968.578512 583.179722 
L 1014.694215 574.928316 
L 1060.809917 566.354591 
L 1106.92562 559.199075 
L 1153.041322 556.104798 
L 1199.157025 553.203913 
L 1245.272727 548.111249 
" style="fill:none;stroke:#1f77b4;stroke-linecap:square;stroke-width:4;"/>
    <defs>
     <path d="M 0 4 
C 1.060812 4 2.078319 3.578535 2.828427 2.828427 
C 3.578535 2.078319 4 1.060812 4 0 
C 4 -1.060812 3.578535 -2.078319 2.828427 -2.828427 
C 2.078319 -3.578535 1.060812 -4 0 -4 
C -1.060812 -4 -2.078319 -3.578535 -2.828427 -2.828427 
C -3.578535 -2.078319 -4 -1.060812 -4 0 
C -4 1.060812 -3.578535 2.078319 -2.828427 2.828427 
C -2.078319 3.578535 -1.060812 4 0 4 
z
" id="m1ed4a4701c" style="stroke:#1f77b4;"/>
    </defs>
    <g clip-path="url(#p0d1acbfd21)">
     <use style="fill:#1f77b4;stroke:#1f77b4;" x="276.842975" xlink:href="#m1ed4a4701c" y="605.290909"/>
     <use style="fill:#1f77b4;stroke:#1f77b4;" x="322.958678" xlink:href="#m1ed4a4701c" y="605.290909"/>
     <use style="fill:#1f77b4;stroke:#1f77b4;" x="369.07438" xlink:href="#m1ed4a4701c" y="605.290909"/>
     <use style="fill:#1f77b4;stroke:#1f77b4;" x="415.190083" xlink:href="#m1ed4a4701c" y="605.226445"/>
     <use style="fill:#1f77b4;stroke:#1f77b4;" x="461.305785" xlink:href="#m1ed4a4701c" y="604.646268"/>
     <use style="fill:#1f77b4;stroke:#1f77b4;" x="507.421488" xlink:href="#m1ed4a4701c" y="604.130555"/>
     <use style="fill:#1f77b4;stroke:#1f77b4;" x="553.53719" xlink:href="#m1ed4a4701c" y="603.808235"/>
     <use style="fill:#1f77b4;stroke:#1f77b4;" x="599.652893" xlink:href="#m1ed4a4701c" y="604.323948"/>
     <use style="fill:#1f77b4;stroke:#1f77b4;" x="645.768595" xlink:href="#m1ed4a4701c" y="604.388412"/>
     <use style="fill:#1f77b4;stroke:#1f77b4;" x="691.884298" xlink:href="#m1ed4a4701c" y="603.228058"/>
     <use style="fill:#1f77b4;stroke:#1f77b4;" x="738" xlink:href="#m1ed4a4701c" y="602.00324"/>
     <use style="fill:#1f77b4;stroke:#1f77b4;" x="784.115702" xlink:href="#m1ed4a4701c" y="600.649494"/>
     <use style="fill:#1f77b4;stroke:#1f77b4;" x="830.231405" xlink:href="#m1ed4a4701c" y="598.006465"/>
     <use style="fill:#1f77b4;stroke:#1f77b4;" x="876.347107" xlink:href="#m1ed4a4701c" y="596.588255"/>
     <use style="fill:#1f77b4;stroke:#1f77b4;" x="922.46281" xlink:href="#m1ed4a4701c" y="591.237735"/>
     <use style="fill:#1f77b4;stroke:#1f77b4;" x="968.578512" xlink:href="#m1ed4a4701c" y="583.179722"/>
     <use style="fill:#1f77b4;stroke:#1f77b4;" x="1014.694215" xlink:href="#m1ed4a4701c" y="574.928316"/>
     <use style="fill:#1f77b4;stroke:#1f77b4;" x="1060.809917" xlink:href="#m1ed4a4701c" y="566.354591"/>
     <use style="fill:#1f77b4;stroke:#1f77b4;" x="1106.92562" xlink:href="#m1ed4a4701c" y="559.199075"/>
     <use style="fill:#1f77b4;stroke:#1f77b4;" x="1153.041322" xlink:href="#m1ed4a4701c" y="556.104798"/>
     <use style="fill:#1f77b4;stroke:#1f77b4;" x="1199.157025" xlink:href="#m1ed4a4701c" y="553.203913"/>
     <use style="fill:#1f77b4;stroke:#1f77b4;" x="1245.272727" xlink:href="#m1ed4a4701c" y="548.111249"/>
    </g>
   </g>
   <g id="line2d_59">
    <path clip-path="url(#p0d1acbfd21)" d="M 276.842975 605.290909 
L 322.958678 605.290909 
L 369.07438 605.290909 
L 415.190083 604.646268 
L 461.305785 602.00324 
L 507.421488 594.396476 
L 553.53719 584.72686 
L 599.652893 574.025819 
L 645.768595 552.430344 
L 691.884298 531.415046 
L 738 505.887261 
L 784.115702 476.49163 
L 830.231405 468.884866 
L 876.347107 445.871181 
L 922.46281 444.581899 
L 968.578512 458.441681 
L 1014.694215 451.092773 
L 1060.809917 448.643137 
L 1106.92562 457.603648 
L 1153.041322 467.982368 
L 1199.157025 481.455366 
L 1245.272727 488.417489 
" style="fill:none;stroke:#ff7f0e;stroke-linecap:square;stroke-width:4;"/>
    <defs>
     <path d="M 0 4 
C 1.060812 4 2.078319 3.578535 2.828427 2.828427 
C 3.578535 2.078319 4 1.060812 4 0 
C 4 -1.060812 3.578535 -2.078319 2.828427 -2.828427 
C 2.078319 -3.578535 1.060812 -4 0 -4 
C -1.060812 -4 -2.078319 -3.578535 -2.828427 -2.828427 
C -3.578535 -2.078319 -4 -1.060812 -4 0 
C -4 1.060812 -3.578535 2.078319 -2.828427 2.828427 
C -2.078319 3.578535 -1.060812 4 0 4 
z
" id="m7129274530" style="stroke:#ff7f0e;"/>
    </defs>
    <g clip-path="url(#p0d1acbfd21)">
     <use style="fill:#ff7f0e;stroke:#ff7f0e;" x="276.842975" xlink:href="#m7129274530" y="605.290909"/>
     <use style="fill:#ff7f0e;stroke:#ff7f0e;" x="322.958678" xlink:href="#m7129274530" y="605.290909"/>
     <use style="fill:#ff7f0e;stroke:#ff7f0e;" x="369.07438" xlink:href="#m7129274530" y="605.290909"/>
     <use style="fill:#ff7f0e;stroke:#ff7f0e;" x="415.190083" xlink:href="#m7129274530" y="604.646268"/>
     <use style="fill:#ff7f0e;stroke:#ff7f0e;" x="461.305785" xlink:href="#m7129274530" y="602.00324"/>
     <use style="fill:#ff7f0e;stroke:#ff7f0e;" x="507.421488" xlink:href="#m7129274530" y="594.396476"/>
     <use style="fill:#ff7f0e;stroke:#ff7f0e;" x="553.53719" xlink:href="#m7129274530" y="584.72686"/>
     <use style="fill:#ff7f0e;stroke:#ff7f0e;" x="599.652893" xlink:href="#m7129274530" y="574.025819"/>
     <use style="fill:#ff7f0e;stroke:#ff7f0e;" x="645.768595" xlink:href="#m7129274530" y="552.430344"/>
     <use style="fill:#ff7f0e;stroke:#ff7f0e;" x="691.884298" xlink:href="#m7129274530" y="531.415046"/>
     <use style="fill:#ff7f0e;stroke:#ff7f0e;" x="738" xlink:href="#m7129274530" y="505.887261"/>
     <use style="fill:#ff7f0e;stroke:#ff7f0e;" x="784.115702" xlink:href="#m7129274530" y="476.49163"/>
     <use style="fill:#ff7f0e;stroke:#ff7f0e;" x="830.231405" xlink:href="#m7129274530" y="468.884866"/>
     <use style="fill:#ff7f0e;stroke:#ff7f0e;" x="876.347107" xlink:href="#m7129274530" y="445.871181"/>
     <use style="fill:#ff7f0e;stroke:#ff7f0e;" x="922.46281" xlink:href="#m7129274530" y="444.581899"/>
     <use style="fill:#ff7f0e;stroke:#ff7f0e;" x="968.578512" xlink:href="#m7129274530" y="458.441681"/>
     <use style="fill:#ff7f0e;stroke:#ff7f0e;" x="1014.694215" xlink:href="#m7129274530" y="451.092773"/>
     <use style="fill:#ff7f0e;stroke:#ff7f0e;" x="1060.809917" xlink:href="#m7129274530" y="448.643137"/>
     <use style="fill:#ff7f0e;stroke:#ff7f0e;" x="1106.92562" xlink:href="#m7129274530" y="457.603648"/>
     <use style="fill:#ff7f0e;stroke:#ff7f0e;" x="1153.041322" xlink:href="#m7129274530" y="467.982368"/>
     <use style="fill:#ff7f0e;stroke:#ff7f0e;" x="1199.157025" xlink:href="#m7129274530" y="481.455366"/>
     <use style="fill:#ff7f0e;stroke:#ff7f0e;" x="1245.272727" xlink:href="#m7129274530" y="488.417489"/>
    </g>
   </g>
   <g id="line2d_60">
    <path clip-path="url(#p0d1acbfd21)" d="M 322.958678 605.290909 
L 369.07438 605.290909 
L 415.190083 605.226445 
L 461.305785 604.323948 
L 507.421488 601.423063 
L 553.53719 596.137006 
L 599.652893 591.94684 
L 645.768595 574.477068 
L 691.884298 550.625349 
L 738 530.705941 
L 784.115702 510.786533 
L 830.231405 522.325608 
L 876.347107 530.383621 
L 922.46281 538.054849 
L 968.578512 550.496421 
L 1014.694215 565.903342 
L 1060.809917 564.356203 
L 1106.92562 572.672073 
L 1153.041322 569.900116 
L 1199.157025 568.804226 
L 1245.272727 582.083832 
" style="fill:none;stroke:#2ca02c;stroke-linecap:square;stroke-width:4;"/>
    <defs>
     <path d="M 0 4 
C 1.060812 4 2.078319 3.578535 2.828427 2.828427 
C 3.578535 2.078319 4 1.060812 4 0 
C 4 -1.060812 3.578535 -2.078319 2.828427 -2.828427 
C 2.078319 -3.578535 1.060812 -4 0 -4 
C -1.060812 -4 -2.078319 -3.578535 -2.828427 -2.828427 
C -3.578535 -2.078319 -4 -1.060812 -4 0 
C -4 1.060812 -3.578535 2.078319 -2.828427 2.828427 
C -2.078319 3.578535 -1.060812 4 0 4 
z
" id="m227c093572" style="stroke:#2ca02c;"/>
    </defs>
    <g clip-path="url(#p0d1acbfd21)">
     <use style="fill:#2ca02c;stroke:#2ca02c;" x="322.958678" xlink:href="#m227c093572" y="605.290909"/>
     <use style="fill:#2ca02c;stroke:#2ca02c;" x="369.07438" xlink:href="#m227c093572" y="605.290909"/>
     <use style="fill:#2ca02c;stroke:#2ca02c;" x="415.190083" xlink:href="#m227c093572" y="605.226445"/>
     <use style="fill:#2ca02c;stroke:#2ca02c;" x="461.305785" xlink:href="#m227c093572" y="604.323948"/>
     <use style="fill:#2ca02c;stroke:#2ca02c;" x="507.421488" xlink:href="#m227c093572" y="601.423063"/>
     <use style="fill:#2ca02c;stroke:#2ca02c;" x="553.53719" xlink:href="#m227c093572" y="596.137006"/>
     <use style="fill:#2ca02c;stroke:#2ca02c;" x="599.652893" xlink:href="#m227c093572" y="591.94684"/>
     <use style="fill:#2ca02c;stroke:#2ca02c;" x="645.768595" xlink:href="#m227c093572" y="574.477068"/>
     <use style="fill:#2ca02c;stroke:#2ca02c;" x="691.884298" xlink:href="#m227c093572" y="550.625349"/>
     <use style="fill:#2ca02c;stroke:#2ca02c;" x="738" xlink:href="#m227c093572" y="530.705941"/>
     <use style="fill:#2ca02c;stroke:#2ca02c;" x="784.115702" xlink:href="#m227c093572" y="510.786533"/>
     <use style="fill:#2ca02c;stroke:#2ca02c;" x="830.231405" xlink:href="#m227c093572" y="522.325608"/>
     <use style="fill:#2ca02c;stroke:#2ca02c;" x="876.347107" xlink:href="#m227c093572" y="530.383621"/>
     <use style="fill:#2ca02c;stroke:#2ca02c;" x="922.46281" xlink:href="#m227c093572" y="538.054849"/>
     <use style="fill:#2ca02c;stroke:#2ca02c;" x="968.578512" xlink:href="#m227c093572" y="550.496421"/>
     <use style="fill:#2ca02c;stroke:#2ca02c;" x="1014.694215" xlink:href="#m227c093572" y="565.903342"/>
     <use style="fill:#2ca02c;stroke:#2ca02c;" x="1060.809917" xlink:href="#m227c093572" y="564.356203"/>
     <use style="fill:#2ca02c;stroke:#2ca02c;" x="1106.92562" xlink:href="#m227c093572" y="572.672073"/>
     <use style="fill:#2ca02c;stroke:#2ca02c;" x="1153.041322" xlink:href="#m227c093572" y="569.900116"/>
     <use style="fill:#2ca02c;stroke:#2ca02c;" x="1199.157025" xlink:href="#m227c093572" y="568.804226"/>
     <use style="fill:#2ca02c;stroke:#2ca02c;" x="1245.272727" xlink:href="#m227c093572" y="582.083832"/>
    </g>
   </g>
   <g id="line2d_61">
    <path clip-path="url(#p0d1acbfd21)" d="M 230.727273 605.290909 
L 276.842975 605.290909 
L 322.958678 605.290909 
L 369.07438 604.51734 
L 415.190083 600.90735 
L 461.305785 589.174883 
L 507.421488 578.796163 
L 553.53719 559.843716 
L 599.652893 544.372331 
L 645.768595 517.813121 
L 691.884298 489.126594 
L 738 465.274876 
L 784.115702 420.988037 
L 830.231405 407.643967 
L 876.347107 398.361137 
L 922.46281 426.016237 
L 968.578512 373.735849 
L 1014.694215 399.972739 
L 1060.809917 404.162906 
L 1106.92562 406.032365 
L 1153.041322 407.192719 
L 1199.157025 387.660095 
L 1245.272727 411.318421 
" style="fill:none;stroke:#d62728;stroke-linecap:square;stroke-width:4;"/>
    <defs>
     <path d="M 0 4 
C 1.060812 4 2.078319 3.578535 2.828427 2.828427 
C 3.578535 2.078319 4 1.060812 4 0 
C 4 -1.060812 3.578535 -2.078319 2.828427 -2.828427 
C 2.078319 -3.578535 1.060812 -4 0 -4 
C -1.060812 -4 -2.078319 -3.578535 -2.828427 -2.828427 
C -3.578535 -2.078319 -4 -1.060812 -4 0 
C -4 1.060812 -3.578535 2.078319 -2.828427 2.828427 
C -2.078319 3.578535 -1.060812 4 0 4 
z
" id="mf8023d14a2" style="stroke:#d62728;"/>
    </defs>
    <g clip-path="url(#p0d1acbfd21)">
     <use style="fill:#d62728;stroke:#d62728;" x="230.727273" xlink:href="#mf8023d14a2" y="605.290909"/>
     <use style="fill:#d62728;stroke:#d62728;" x="276.842975" xlink:href="#mf8023d14a2" y="605.290909"/>
     <use style="fill:#d62728;stroke:#d62728;" x="322.958678" xlink:href="#mf8023d14a2" y="605.290909"/>
     <use style="fill:#d62728;stroke:#d62728;" x="369.07438" xlink:href="#mf8023d14a2" y="604.51734"/>
     <use style="fill:#d62728;stroke:#d62728;" x="415.190083" xlink:href="#mf8023d14a2" y="600.90735"/>
     <use style="fill:#d62728;stroke:#d62728;" x="461.305785" xlink:href="#mf8023d14a2" y="589.174883"/>
     <use style="fill:#d62728;stroke:#d62728;" x="507.421488" xlink:href="#mf8023d14a2" y="578.796163"/>
     <use style="fill:#d62728;stroke:#d62728;" x="553.53719" xlink:href="#mf8023d14a2" y="559.843716"/>
     <use style="fill:#d62728;stroke:#d62728;" x="599.652893" xlink:href="#mf8023d14a2" y="544.372331"/>
     <use style="fill:#d62728;stroke:#d62728;" x="645.768595" xlink:href="#mf8023d14a2" y="517.813121"/>
     <use style="fill:#d62728;stroke:#d62728;" x="691.884298" xlink:href="#mf8023d14a2" y="489.126594"/>
     <use style="fill:#d62728;stroke:#d62728;" x="738" xlink:href="#mf8023d14a2" y="465.274876"/>
     <use style="fill:#d62728;stroke:#d62728;" x="784.115702" xlink:href="#mf8023d14a2" y="420.988037"/>
     <use style="fill:#d62728;stroke:#d62728;" x="830.231405" xlink:href="#mf8023d14a2" y="407.643967"/>
     <use style="fill:#d62728;stroke:#d62728;" x="876.347107" xlink:href="#mf8023d14a2" y="398.361137"/>
     <use style="fill:#d62728;stroke:#d62728;" x="922.46281" xlink:href="#mf8023d14a2" y="426.016237"/>
     <use style="fill:#d62728;stroke:#d62728;" x="968.578512" xlink:href="#mf8023d14a2" y="373.735849"/>
     <use style="fill:#d62728;stroke:#d62728;" x="1014.694215" xlink:href="#mf8023d14a2" y="399.972739"/>
     <use style="fill:#d62728;stroke:#d62728;" x="1060.809917" xlink:href="#mf8023d14a2" y="404.162906"/>
     <use style="fill:#d62728;stroke:#d62728;" x="1106.92562" xlink:href="#mf8023d14a2" y="406.032365"/>
     <use style="fill:#d62728;stroke:#d62728;" x="1153.041322" xlink:href="#mf8023d14a2" y="407.192719"/>
     <use style="fill:#d62728;stroke:#d62728;" x="1199.157025" xlink:href="#mf8023d14a2" y="387.660095"/>
     <use style="fill:#d62728;stroke:#d62728;" x="1245.272727" xlink:href="#mf8023d14a2" y="411.318421"/>
    </g>
   </g>
   <g id="line2d_62">
    <path clip-path="url(#p0d1acbfd21)" d="M 322.958678 605.290909 
L 369.07438 605.290909 
L 415.190083 604.968589 
L 461.305785 604.066091 
L 507.421488 602.776809 
L 553.53719 602.712345 
L 599.652893 602.518953 
L 645.768595 601.358599 
L 691.884298 601.358599 
L 738 600.520565 
L 784.115702 599.682532 
L 830.231405 598.457714 
L 876.347107 595.87915 
L 922.46281 594.46094 
L 968.578512 589.43274 
L 1014.694215 584.340075 
L 1060.809917 577.893665 
L 1106.92562 567.772801 
L 1153.041322 556.749439 
L 1199.157025 548.175713 
L 1245.272727 541.600375 
" style="fill:none;stroke:#9467bd;stroke-linecap:square;stroke-width:4;"/>
    <defs>
     <path d="M 0 4 
C 1.060812 4 2.078319 3.578535 2.828427 2.828427 
C 3.578535 2.078319 4 1.060812 4 0 
C 4 -1.060812 3.578535 -2.078319 2.828427 -2.828427 
C 2.078319 -3.578535 1.060812 -4 0 -4 
C -1.060812 -4 -2.078319 -3.578535 -2.828427 -2.828427 
C -3.578535 -2.078319 -4 -1.060812 -4 0 
C -4 1.060812 -3.578535 2.078319 -2.828427 2.828427 
C -2.078319 3.578535 -1.060812 4 0 4 
z
" id="m8e54e26ac1" style="stroke:#9467bd;"/>
    </defs>
    <g clip-path="url(#p0d1acbfd21)">
     <use style="fill:#9467bd;stroke:#9467bd;" x="322.958678" xlink:href="#m8e54e26ac1" y="605.290909"/>
     <use style="fill:#9467bd;stroke:#9467bd;" x="369.07438" xlink:href="#m8e54e26ac1" y="605.290909"/>
     <use style="fill:#9467bd;stroke:#9467bd;" x="415.190083" xlink:href="#m8e54e26ac1" y="604.968589"/>
     <use style="fill:#9467bd;stroke:#9467bd;" x="461.305785" xlink:href="#m8e54e26ac1" y="604.066091"/>
     <use style="fill:#9467bd;stroke:#9467bd;" x="507.421488" xlink:href="#m8e54e26ac1" y="602.776809"/>
     <use style="fill:#9467bd;stroke:#9467bd;" x="553.53719" xlink:href="#m8e54e26ac1" y="602.712345"/>
     <use style="fill:#9467bd;stroke:#9467bd;" x="599.652893" xlink:href="#m8e54e26ac1" y="602.518953"/>
     <use style="fill:#9467bd;stroke:#9467bd;" x="645.768595" xlink:href="#m8e54e26ac1" y="601.358599"/>
     <use style="fill:#9467bd;stroke:#9467bd;" x="691.884298" xlink:href="#m8e54e26ac1" y="601.358599"/>
     <use style="fill:#9467bd;stroke:#9467bd;" x="738" xlink:href="#m8e54e26ac1" y="600.520565"/>
     <use style="fill:#9467bd;stroke:#9467bd;" x="784.115702" xlink:href="#m8e54e26ac1" y="599.682532"/>
     <use style="fill:#9467bd;stroke:#9467bd;" x="830.231405" xlink:href="#m8e54e26ac1" y="598.457714"/>
     <use style="fill:#9467bd;stroke:#9467bd;" x="876.347107" xlink:href="#m8e54e26ac1" y="595.87915"/>
     <use style="fill:#9467bd;stroke:#9467bd;" x="922.46281" xlink:href="#m8e54e26ac1" y="594.46094"/>
     <use style="fill:#9467bd;stroke:#9467bd;" x="968.578512" xlink:href="#m8e54e26ac1" y="589.43274"/>
     <use style="fill:#9467bd;stroke:#9467bd;" x="1014.694215" xlink:href="#m8e54e26ac1" y="584.340075"/>
     <use style="fill:#9467bd;stroke:#9467bd;" x="1060.809917" xlink:href="#m8e54e26ac1" y="577.893665"/>
     <use style="fill:#9467bd;stroke:#9467bd;" x="1106.92562" xlink:href="#m8e54e26ac1" y="567.772801"/>
     <use style="fill:#9467bd;stroke:#9467bd;" x="1153.041322" xlink:href="#m8e54e26ac1" y="556.749439"/>
     <use style="fill:#9467bd;stroke:#9467bd;" x="1199.157025" xlink:href="#m8e54e26ac1" y="548.175713"/>
     <use style="fill:#9467bd;stroke:#9467bd;" x="1245.272727" xlink:href="#m8e54e26ac1" y="541.600375"/>
    </g>
   </g>
   <g id="line2d_63">
    <path clip-path="url(#p0d1acbfd21)" d="M 230.727273 605.290909 
L 276.842975 605.290909 
L 322.958678 605.290909 
L 369.07438 604.130555 
L 415.190083 599.037891 
L 461.305785 584.017755 
L 507.421488 560.423893 
L 553.53719 525.742205 
L 599.652893 495.766397 
L 645.768595 429.04605 
L 691.884298 354.718938 
L 738 282.776999 
L 784.115702 186.725484 
L 830.231405 173.123559 
L 876.347107 143.792391 
L 922.46281 170.931779 
L 968.578512 134.18724 
L 1014.694215 150.238802 
L 1060.809917 137.861694 
L 1106.92562 143.212215 
L 1153.041322 135.218666 
L 1199.157025 111.109091 
L 1245.272727 145.532922 
" style="fill:none;stroke:#b88a5c;stroke-dasharray:25.6,6.4,4,6.4;stroke-dashoffset:0;stroke-width:4;"/>
    <defs>
     <path d="M 0 4 
C 1.060812 4 2.078319 3.578535 2.828427 2.828427 
C 3.578535 2.078319 4 1.060812 4 0 
C 4 -1.060812 3.578535 -2.078319 2.828427 -2.828427 
C 2.078319 -3.578535 1.060812 -4 0 -4 
C -1.060812 -4 -2.078319 -3.578535 -2.828427 -2.828427 
C -3.578535 -2.078319 -4 -1.060812 -4 0 
C -4 1.060812 -3.578535 2.078319 -2.828427 2.828427 
C -2.078319 3.578535 -1.060812 4 0 4 
z
" id="m74b701e556" style="stroke:#b88a5c;"/>
    </defs>
    <g clip-path="url(#p0d1acbfd21)">
     <use style="fill:#b88a5c;stroke:#b88a5c;" x="230.727273" xlink:href="#m74b701e556" y="605.290909"/>
     <use style="fill:#b88a5c;stroke:#b88a5c;" x="276.842975" xlink:href="#m74b701e556" y="605.290909"/>
     <use style="fill:#b88a5c;stroke:#b88a5c;" x="322.958678" xlink:href="#m74b701e556" y="605.290909"/>
     <use style="fill:#b88a5c;stroke:#b88a5c;" x="369.07438" xlink:href="#m74b701e556" y="604.130555"/>
     <use style="fill:#b88a5c;stroke:#b88a5c;" x="415.190083" xlink:href="#m74b701e556" y="599.037891"/>
     <use style="fill:#b88a5c;stroke:#b88a5c;" x="461.305785" xlink:href="#m74b701e556" y="584.017755"/>
     <use style="fill:#b88a5c;stroke:#b88a5c;" x="507.421488" xlink:href="#m74b701e556" y="560.423893"/>
     <use style="fill:#b88a5c;stroke:#b88a5c;" x="553.53719" xlink:href="#m74b701e556" y="525.742205"/>
     <use style="fill:#b88a5c;stroke:#b88a5c;" x="599.652893" xlink:href="#m74b701e556" y="495.766397"/>
     <use style="fill:#b88a5c;stroke:#b88a5c;" x="645.768595" xlink:href="#m74b701e556" y="429.04605"/>
     <use style="fill:#b88a5c;stroke:#b88a5c;" x="691.884298" xlink:href="#m74b701e556" y="354.718938"/>
     <use style="fill:#b88a5c;stroke:#b88a5c;" x="738" xlink:href="#m74b701e556" y="282.776999"/>
     <use style="fill:#b88a5c;stroke:#b88a5c;" x="784.115702" xlink:href="#m74b701e556" y="186.725484"/>
     <use style="fill:#b88a5c;stroke:#b88a5c;" x="830.231405" xlink:href="#m74b701e556" y="173.123559"/>
     <use style="fill:#b88a5c;stroke:#b88a5c;" x="876.347107" xlink:href="#m74b701e556" y="143.792391"/>
     <use style="fill:#b88a5c;stroke:#b88a5c;" x="922.46281" xlink:href="#m74b701e556" y="170.931779"/>
     <use style="fill:#b88a5c;stroke:#b88a5c;" x="968.578512" xlink:href="#m74b701e556" y="134.18724"/>
     <use style="fill:#b88a5c;stroke:#b88a5c;" x="1014.694215" xlink:href="#m74b701e556" y="150.238802"/>
     <use style="fill:#b88a5c;stroke:#b88a5c;" x="1060.809917" xlink:href="#m74b701e556" y="137.861694"/>
     <use style="fill:#b88a5c;stroke:#b88a5c;" x="1106.92562" xlink:href="#m74b701e556" y="143.212215"/>
     <use style="fill:#b88a5c;stroke:#b88a5c;" x="1153.041322" xlink:href="#m74b701e556" y="135.218666"/>
     <use style="fill:#b88a5c;stroke:#b88a5c;" x="1199.157025" xlink:href="#m74b701e556" y="111.109091"/>
     <use style="fill:#b88a5c;stroke:#b88a5c;" x="1245.272727" xlink:href="#m74b701e556" y="145.532922"/>
    </g>
   </g>
   <g id="patch_3">
    <path d="M 180 630 
L 180 86.4 
" style="fill:none;stroke:#000000;stroke-linecap:square;stroke-linejoin:miter;stroke-width:0.8;"/>
   </g>
   <g id="patch_4">
    <path d="M 180 630 
L 1296 630 
" style="fill:none;stroke:#000000;stroke-linecap:square;stroke-linejoin:miter;stroke-width:0.8;"/>
   </g>
   <g id="text_43">
    <!-- Fonte : https://brasil.io/covid19/  -->
    <defs>
     <path d="M 9.8125 72.90625 
L 51.703125 72.90625 
L 51.703125 64.59375 
L 19.671875 64.59375 
L 19.671875 43.109375 
L 48.578125 43.109375 
L 48.578125 34.8125 
L 19.671875 34.8125 
L 19.671875 0 
L 9.8125 0 
z
" id="DejaVuSans-70"/>
     <path d="M 11.71875 12.40625 
L 22.015625 12.40625 
L 22.015625 0 
L 11.71875 0 
z
M 11.71875 51.703125 
L 22.015625 51.703125 
L 22.015625 39.3125 
L 11.71875 39.3125 
z
" id="DejaVuSans-58"/>
     <path d="M 54.890625 33.015625 
L 54.890625 0 
L 45.90625 0 
L 45.90625 32.71875 
Q 45.90625 40.484375 42.875 44.328125 
Q 39.84375 48.1875 33.796875 48.1875 
Q 26.515625 48.1875 22.3125 43.546875 
Q 18.109375 38.921875 18.109375 30.90625 
L 18.109375 0 
L 9.078125 0 
L 9.078125 75.984375 
L 18.109375 75.984375 
L 18.109375 46.1875 
Q 21.34375 51.125 25.703125 53.5625 
Q 30.078125 56 35.796875 56 
Q 45.21875 56 50.046875 50.171875 
Q 54.890625 44.34375 54.890625 33.015625 
z
" id="DejaVuSans-104"/>
     <path d="M 25.390625 72.90625 
L 33.6875 72.90625 
L 8.296875 -9.28125 
L 0 -9.28125 
z
" id="DejaVuSans-47"/>
     <path d="M 41.109375 46.296875 
Q 39.59375 47.171875 37.8125 47.578125 
Q 36.03125 48 33.890625 48 
Q 26.265625 48 22.1875 43.046875 
Q 18.109375 38.09375 18.109375 28.8125 
L 18.109375 0 
L 9.078125 0 
L 9.078125 54.6875 
L 18.109375 54.6875 
L 18.109375 46.1875 
Q 20.953125 51.171875 25.484375 53.578125 
Q 30.03125 56 36.53125 56 
Q 37.453125 56 38.578125 55.875 
Q 39.703125 55.765625 41.0625 55.515625 
z
" id="DejaVuSans-114"/>
     <path d="M 10.6875 12.40625 
L 21 12.40625 
L 21 0 
L 10.6875 0 
z
" id="DejaVuSans-46"/>
    </defs>
    <g transform="translate(180 701.397656)scale(0.15 -0.15)">
     <use xlink:href="#DejaVuSans-70"/>
     <use x="53.894531" xlink:href="#DejaVuSans-111"/>
     <use x="115.076172" xlink:href="#DejaVuSans-110"/>
     <use x="178.455078" xlink:href="#DejaVuSans-116"/>
     <use x="217.664062" xlink:href="#DejaVuSans-101"/>
     <use x="279.1875" xlink:href="#DejaVuSans-32"/>
     <use x="310.974609" xlink:href="#DejaVuSans-58"/>
     <use x="344.666016" xlink:href="#DejaVuSans-32"/>
     <use x="376.453125" xlink:href="#DejaVuSans-104"/>
     <use x="439.832031" xlink:href="#DejaVuSans-116"/>
     <use x="479.041016" xlink:href="#DejaVuSans-116"/>
     <use x="518.25" xlink:href="#DejaVuSans-112"/>
     <use x="581.726562" xlink:href="#DejaVuSans-115"/>
     <use x="633.826172" xlink:href="#DejaVuSans-58"/>
     <use x="667.517578" xlink:href="#DejaVuSans-47"/>
     <use x="701.208984" xlink:href="#DejaVuSans-47"/>
     <use x="734.900391" xlink:href="#DejaVuSans-98"/>
     <use x="798.376953" xlink:href="#DejaVuSans-114"/>
     <use x="839.490234" xlink:href="#DejaVuSans-97"/>
     <use x="900.769531" xlink:href="#DejaVuSans-115"/>
     <use x="952.869141" xlink:href="#DejaVuSans-105"/>
     <use x="980.652344" xlink:href="#DejaVuSans-108"/>
     <use x="1008.435547" xlink:href="#DejaVuSans-46"/>
     <use x="1040.222656" xlink:href="#DejaVuSans-105"/>
     <use x="1068.005859" xlink:href="#DejaVuSans-111"/>
     <use x="1129.1875" xlink:href="#DejaVuSans-47"/>
     <use x="1162.878906" xlink:href="#DejaVuSans-99"/>
     <use x="1217.859375" xlink:href="#DejaVuSans-111"/>
     <use x="1279.041016" xlink:href="#DejaVuSans-118"/>
     <use x="1338.220703" xlink:href="#DejaVuSans-105"/>
     <use x="1366.003906" xlink:href="#DejaVuSans-100"/>
     <use x="1429.480469" xlink:href="#DejaVuSans-49"/>
     <use x="1493.103516" xlink:href="#DejaVuSans-57"/>
     <use x="1556.726562" xlink:href="#DejaVuSans-47"/>
     <use x="1590.417969" xlink:href="#DejaVuSans-32"/>
    </g>
    <!--             http://revistarelap.org/index.php/relap/article/view/231 -->
    <defs>
     <path d="M 54.890625 54.6875 
L 35.109375 28.078125 
L 55.90625 0 
L 45.3125 0 
L 29.390625 21.484375 
L 13.484375 0 
L 2.875 0 
L 24.125 28.609375 
L 4.6875 54.6875 
L 15.28125 54.6875 
L 29.78125 35.203125 
L 44.28125 54.6875 
z
" id="DejaVuSans-120"/>
     <path d="M 4.203125 54.6875 
L 13.1875 54.6875 
L 24.421875 12.015625 
L 35.59375 54.6875 
L 46.1875 54.6875 
L 57.421875 12.015625 
L 68.609375 54.6875 
L 77.59375 54.6875 
L 63.28125 0 
L 52.6875 0 
L 40.921875 44.828125 
L 29.109375 0 
L 18.5 0 
z
" id="DejaVuSans-119"/>
    </defs>
    <g transform="translate(180 718.194375)scale(0.15 -0.15)">
     <use xlink:href="#DejaVuSans-32"/>
     <use x="31.787109" xlink:href="#DejaVuSans-32"/>
     <use x="63.574219" xlink:href="#DejaVuSans-32"/>
     <use x="95.361328" xlink:href="#DejaVuSans-32"/>
     <use x="127.148438" xlink:href="#DejaVuSans-32"/>
     <use x="158.935547" xlink:href="#DejaVuSans-32"/>
     <use x="190.722656" xlink:href="#DejaVuSans-32"/>
     <use x="222.509766" xlink:href="#DejaVuSans-32"/>
     <use x="254.296875" xlink:href="#DejaVuSans-32"/>
     <use x="286.083984" xlink:href="#DejaVuSans-32"/>
     <use x="317.871094" xlink:href="#DejaVuSans-32"/>
     <use x="349.658203" xlink:href="#DejaVuSans-32"/>
     <use x="381.445312" xlink:href="#DejaVuSans-104"/>
     <use x="444.824219" xlink:href="#DejaVuSans-116"/>
     <use x="484.033203" xlink:href="#DejaVuSans-116"/>
     <use x="523.242188" xlink:href="#DejaVuSans-112"/>
     <use x="586.71875" xlink:href="#DejaVuSans-58"/>
     <use x="620.410156" xlink:href="#DejaVuSans-47"/>
     <use x="654.101562" xlink:href="#DejaVuSans-47"/>
     <use x="687.792969" xlink:href="#DejaVuSans-114"/>
     <use x="726.65625" xlink:href="#DejaVuSans-101"/>
     <use x="788.179688" xlink:href="#DejaVuSans-118"/>
     <use x="847.359375" xlink:href="#DejaVuSans-105"/>
     <use x="875.142578" xlink:href="#DejaVuSans-115"/>
     <use x="927.242188" xlink:href="#DejaVuSans-116"/>
     <use x="966.451172" xlink:href="#DejaVuSans-97"/>
     <use x="1027.730469" xlink:href="#DejaVuSans-114"/>
     <use x="1066.59375" xlink:href="#DejaVuSans-101"/>
     <use x="1128.117188" xlink:href="#DejaVuSans-108"/>
     <use x="1155.900391" xlink:href="#DejaVuSans-97"/>
     <use x="1217.179688" xlink:href="#DejaVuSans-112"/>
     <use x="1280.65625" xlink:href="#DejaVuSans-46"/>
     <use x="1312.443359" xlink:href="#DejaVuSans-111"/>
     <use x="1373.625" xlink:href="#DejaVuSans-114"/>
     <use x="1412.988281" xlink:href="#DejaVuSans-103"/>
     <use x="1476.464844" xlink:href="#DejaVuSans-47"/>
     <use x="1510.15625" xlink:href="#DejaVuSans-105"/>
     <use x="1537.939453" xlink:href="#DejaVuSans-110"/>
     <use x="1601.318359" xlink:href="#DejaVuSans-100"/>
     <use x="1664.794922" xlink:href="#DejaVuSans-101"/>
     <use x="1724.568359" xlink:href="#DejaVuSans-120"/>
     <use x="1783.748047" xlink:href="#DejaVuSans-46"/>
     <use x="1815.535156" xlink:href="#DejaVuSans-112"/>
     <use x="1879.011719" xlink:href="#DejaVuSans-104"/>
     <use x="1942.390625" xlink:href="#DejaVuSans-112"/>
     <use x="2005.867188" xlink:href="#DejaVuSans-47"/>
     <use x="2039.558594" xlink:href="#DejaVuSans-114"/>
     <use x="2078.421875" xlink:href="#DejaVuSans-101"/>
     <use x="2139.945312" xlink:href="#DejaVuSans-108"/>
     <use x="2167.728516" xlink:href="#DejaVuSans-97"/>
     <use x="2229.007812" xlink:href="#DejaVuSans-112"/>
     <use x="2292.484375" xlink:href="#DejaVuSans-47"/>
     <use x="2326.175781" xlink:href="#DejaVuSans-97"/>
     <use x="2387.455078" xlink:href="#DejaVuSans-114"/>
     <use x="2428.568359" xlink:href="#DejaVuSans-116"/>
     <use x="2467.777344" xlink:href="#DejaVuSans-105"/>
     <use x="2495.560547" xlink:href="#DejaVuSans-99"/>
     <use x="2550.541016" xlink:href="#DejaVuSans-108"/>
     <use x="2578.324219" xlink:href="#DejaVuSans-101"/>
     <use x="2639.847656" xlink:href="#DejaVuSans-47"/>
     <use x="2673.539062" xlink:href="#DejaVuSans-118"/>
     <use x="2732.71875" xlink:href="#DejaVuSans-105"/>
     <use x="2760.501953" xlink:href="#DejaVuSans-101"/>
     <use x="2822.025391" xlink:href="#DejaVuSans-119"/>
     <use x="2903.8125" xlink:href="#DejaVuSans-47"/>
     <use x="2937.503906" xlink:href="#DejaVuSans-50"/>
     <use x="3001.126953" xlink:href="#DejaVuSans-51"/>
     <use x="3064.75" xlink:href="#DejaVuSans-49"/>
    </g>
   </g>
   <g id="text_44">
    <!-- Novos Óbitos registrados por semana epidemiológica -->
    <g transform="translate(470.460938 80.4)scale(0.2 -0.2)">
     <use xlink:href="#DejaVuSans-78"/>
     <use x="74.804688" xlink:href="#DejaVuSans-111"/>
     <use x="135.986328" xlink:href="#DejaVuSans-118"/>
     <use x="195.166016" xlink:href="#DejaVuSans-111"/>
     <use x="256.347656" xlink:href="#DejaVuSans-115"/>
     <use x="308.447266" xlink:href="#DejaVuSans-32"/>
     <use x="340.234375" xlink:href="#DejaVuSans-211"/>
     <use x="418.945312" xlink:href="#DejaVuSans-98"/>
     <use x="482.421875" xlink:href="#DejaVuSans-105"/>
     <use x="510.205078" xlink:href="#DejaVuSans-116"/>
     <use x="549.414062" xlink:href="#DejaVuSans-111"/>
     <use x="610.595703" xlink:href="#DejaVuSans-115"/>
     <use x="662.695312" xlink:href="#DejaVuSans-32"/>
     <use x="694.482422" xlink:href="#DejaVuSans-114"/>
     <use x="733.345703" xlink:href="#DejaVuSans-101"/>
     <use x="794.869141" xlink:href="#DejaVuSans-103"/>
     <use x="858.345703" xlink:href="#DejaVuSans-105"/>
     <use x="886.128906" xlink:href="#DejaVuSans-115"/>
     <use x="938.228516" xlink:href="#DejaVuSans-116"/>
     <use x="977.4375" xlink:href="#DejaVuSans-114"/>
     <use x="1018.550781" xlink:href="#DejaVuSans-97"/>
     <use x="1079.830078" xlink:href="#DejaVuSans-100"/>
     <use x="1143.306641" xlink:href="#DejaVuSans-111"/>
     <use x="1204.488281" xlink:href="#DejaVuSans-115"/>
     <use x="1256.587891" xlink:href="#DejaVuSans-32"/>
     <use x="1288.375" xlink:href="#DejaVuSans-112"/>
     <use x="1351.851562" xlink:href="#DejaVuSans-111"/>
     <use x="1413.033203" xlink:href="#DejaVuSans-114"/>
     <use x="1454.146484" xlink:href="#DejaVuSans-32"/>
     <use x="1485.933594" xlink:href="#DejaVuSans-115"/>
     <use x="1538.033203" xlink:href="#DejaVuSans-101"/>
     <use x="1599.556641" xlink:href="#DejaVuSans-109"/>
     <use x="1696.96875" xlink:href="#DejaVuSans-97"/>
     <use x="1758.248047" xlink:href="#DejaVuSans-110"/>
     <use x="1821.626953" xlink:href="#DejaVuSans-97"/>
     <use x="1882.90625" xlink:href="#DejaVuSans-32"/>
     <use x="1914.693359" xlink:href="#DejaVuSans-101"/>
     <use x="1976.216797" xlink:href="#DejaVuSans-112"/>
     <use x="2039.693359" xlink:href="#DejaVuSans-105"/>
     <use x="2067.476562" xlink:href="#DejaVuSans-100"/>
     <use x="2130.953125" xlink:href="#DejaVuSans-101"/>
     <use x="2192.476562" xlink:href="#DejaVuSans-109"/>
     <use x="2289.888672" xlink:href="#DejaVuSans-105"/>
     <use x="2317.671875" xlink:href="#DejaVuSans-111"/>
     <use x="2378.853516" xlink:href="#DejaVuSans-108"/>
     <use x="2406.636719" xlink:href="#DejaVuSans-243"/>
     <use x="2467.818359" xlink:href="#DejaVuSans-103"/>
     <use x="2531.294922" xlink:href="#DejaVuSans-105"/>
     <use x="2559.078125" xlink:href="#DejaVuSans-99"/>
     <use x="2614.058594" xlink:href="#DejaVuSans-97"/>
    </g>
   </g>
   <g id="legend_1">
    <g id="line2d_64">
     <path d="M 193.5 106.047656 
L 223.5 106.047656 
" style="fill:none;stroke:#1f77b4;stroke-linecap:square;stroke-width:4;"/>
    </g>
    <g id="line2d_65">
     <g>
      <use style="fill:#1f77b4;stroke:#1f77b4;" x="208.5" xlink:href="#m1ed4a4701c" y="106.047656"/>
     </g>
    </g>
    <g id="text_45">
     <!-- Centro-Oeste -->
     <defs>
      <path d="M 64.40625 67.28125 
L 64.40625 56.890625 
Q 59.421875 61.53125 53.78125 63.8125 
Q 48.140625 66.109375 41.796875 66.109375 
Q 29.296875 66.109375 22.65625 58.46875 
Q 16.015625 50.828125 16.015625 36.375 
Q 16.015625 21.96875 22.65625 14.328125 
Q 29.296875 6.6875 41.796875 6.6875 
Q 48.140625 6.6875 53.78125 8.984375 
Q 59.421875 11.28125 64.40625 15.921875 
L 64.40625 5.609375 
Q 59.234375 2.09375 53.4375 0.328125 
Q 47.65625 -1.421875 41.21875 -1.421875 
Q 24.65625 -1.421875 15.125 8.703125 
Q 5.609375 18.84375 5.609375 36.375 
Q 5.609375 53.953125 15.125 64.078125 
Q 24.65625 74.21875 41.21875 74.21875 
Q 47.75 74.21875 53.53125 72.484375 
Q 59.328125 70.75 64.40625 67.28125 
z
" id="DejaVuSans-67"/>
      <path d="M 4.890625 31.390625 
L 31.203125 31.390625 
L 31.203125 23.390625 
L 4.890625 23.390625 
z
" id="DejaVuSans-45"/>
      <path d="M 39.40625 66.21875 
Q 28.65625 66.21875 22.328125 58.203125 
Q 16.015625 50.203125 16.015625 36.375 
Q 16.015625 22.609375 22.328125 14.59375 
Q 28.65625 6.59375 39.40625 6.59375 
Q 50.140625 6.59375 56.421875 14.59375 
Q 62.703125 22.609375 62.703125 36.375 
Q 62.703125 50.203125 56.421875 58.203125 
Q 50.140625 66.21875 39.40625 66.21875 
z
M 39.40625 74.21875 
Q 54.734375 74.21875 63.90625 63.9375 
Q 73.09375 53.65625 73.09375 36.375 
Q 73.09375 19.140625 63.90625 8.859375 
Q 54.734375 -1.421875 39.40625 -1.421875 
Q 24.03125 -1.421875 14.8125 8.828125 
Q 5.609375 19.09375 5.609375 36.375 
Q 5.609375 53.65625 14.8125 63.9375 
Q 24.03125 74.21875 39.40625 74.21875 
z
" id="DejaVuSans-79"/>
     </defs>
     <g transform="translate(235.5 111.297656)scale(0.15 -0.15)">
      <use xlink:href="#DejaVuSans-67"/>
      <use x="69.824219" xlink:href="#DejaVuSans-101"/>
      <use x="131.347656" xlink:href="#DejaVuSans-110"/>
      <use x="194.726562" xlink:href="#DejaVuSans-116"/>
      <use x="233.935547" xlink:href="#DejaVuSans-114"/>
      <use x="272.798828" xlink:href="#DejaVuSans-111"/>
      <use x="335.855469" xlink:href="#DejaVuSans-45"/>
      <use x="374.689453" xlink:href="#DejaVuSans-79"/>
      <use x="453.400391" xlink:href="#DejaVuSans-101"/>
      <use x="514.923828" xlink:href="#DejaVuSans-115"/>
      <use x="567.023438" xlink:href="#DejaVuSans-116"/>
      <use x="606.232422" xlink:href="#DejaVuSans-101"/>
     </g>
    </g>
    <g id="line2d_66">
     <path d="M 193.5 128.064844 
L 223.5 128.064844 
" style="fill:none;stroke:#ff7f0e;stroke-linecap:square;stroke-width:4;"/>
    </g>
    <g id="line2d_67">
     <g>
      <use style="fill:#ff7f0e;stroke:#ff7f0e;" x="208.5" xlink:href="#m7129274530" y="128.064844"/>
     </g>
    </g>
    <g id="text_46">
     <!-- Nordeste -->
     <g transform="translate(235.5 133.314844)scale(0.15 -0.15)">
      <use xlink:href="#DejaVuSans-78"/>
      <use x="74.804688" xlink:href="#DejaVuSans-111"/>
      <use x="135.986328" xlink:href="#DejaVuSans-114"/>
      <use x="175.349609" xlink:href="#DejaVuSans-100"/>
      <use x="238.826172" xlink:href="#DejaVuSans-101"/>
      <use x="300.349609" xlink:href="#DejaVuSans-115"/>
      <use x="352.449219" xlink:href="#DejaVuSans-116"/>
      <use x="391.658203" xlink:href="#DejaVuSans-101"/>
     </g>
    </g>
    <g id="line2d_68">
     <path d="M 193.5 150.082031 
L 223.5 150.082031 
" style="fill:none;stroke:#2ca02c;stroke-linecap:square;stroke-width:4;"/>
    </g>
    <g id="line2d_69">
     <g>
      <use style="fill:#2ca02c;stroke:#2ca02c;" x="208.5" xlink:href="#m227c093572" y="150.082031"/>
     </g>
    </g>
    <g id="text_47">
     <!-- Norte -->
     <g transform="translate(235.5 155.332031)scale(0.15 -0.15)">
      <use xlink:href="#DejaVuSans-78"/>
      <use x="74.804688" xlink:href="#DejaVuSans-111"/>
      <use x="135.986328" xlink:href="#DejaVuSans-114"/>
      <use x="177.099609" xlink:href="#DejaVuSans-116"/>
      <use x="216.308594" xlink:href="#DejaVuSans-101"/>
     </g>
    </g>
    <g id="line2d_70">
     <path d="M 193.5 172.099219 
L 223.5 172.099219 
" style="fill:none;stroke:#d62728;stroke-linecap:square;stroke-width:4;"/>
    </g>
    <g id="line2d_71">
     <g>
      <use style="fill:#d62728;stroke:#d62728;" x="208.5" xlink:href="#mf8023d14a2" y="172.099219"/>
     </g>
    </g>
    <g id="text_48">
     <!-- Sudeste -->
     <defs>
      <path d="M 8.5 21.578125 
L 8.5 54.6875 
L 17.484375 54.6875 
L 17.484375 21.921875 
Q 17.484375 14.15625 20.5 10.265625 
Q 23.53125 6.390625 29.59375 6.390625 
Q 36.859375 6.390625 41.078125 11.03125 
Q 45.3125 15.671875 45.3125 23.6875 
L 45.3125 54.6875 
L 54.296875 54.6875 
L 54.296875 0 
L 45.3125 0 
L 45.3125 8.40625 
Q 42.046875 3.421875 37.71875 1 
Q 33.40625 -1.421875 27.6875 -1.421875 
Q 18.265625 -1.421875 13.375 4.4375 
Q 8.5 10.296875 8.5 21.578125 
z
M 31.109375 56 
z
" id="DejaVuSans-117"/>
     </defs>
     <g transform="translate(235.5 177.349219)scale(0.15 -0.15)">
      <use xlink:href="#DejaVuSans-83"/>
      <use x="63.476562" xlink:href="#DejaVuSans-117"/>
      <use x="126.855469" xlink:href="#DejaVuSans-100"/>
      <use x="190.332031" xlink:href="#DejaVuSans-101"/>
      <use x="251.855469" xlink:href="#DejaVuSans-115"/>
      <use x="303.955078" xlink:href="#DejaVuSans-116"/>
      <use x="343.164062" xlink:href="#DejaVuSans-101"/>
     </g>
    </g>
    <g id="line2d_72">
     <path d="M 193.5 194.116406 
L 223.5 194.116406 
" style="fill:none;stroke:#9467bd;stroke-linecap:square;stroke-width:4;"/>
    </g>
    <g id="line2d_73">
     <g>
      <use style="fill:#9467bd;stroke:#9467bd;" x="208.5" xlink:href="#m8e54e26ac1" y="194.116406"/>
     </g>
    </g>
    <g id="text_49">
     <!-- Sul -->
     <g transform="translate(235.5 199.366406)scale(0.15 -0.15)">
      <use xlink:href="#DejaVuSans-83"/>
      <use x="63.476562" xlink:href="#DejaVuSans-117"/>
      <use x="126.855469" xlink:href="#DejaVuSans-108"/>
     </g>
    </g>
    <g id="line2d_74">
     <path d="M 193.5 216.133594 
L 223.5 216.133594 
" style="fill:none;stroke:#b88a5c;stroke-dasharray:25.6,6.4,4,6.4;stroke-dashoffset:0;stroke-width:4;"/>
    </g>
    <g id="line2d_75">
     <g>
      <use style="fill:#b88a5c;stroke:#b88a5c;" x="208.5" xlink:href="#m74b701e556" y="216.133594"/>
     </g>
    </g>
    <g id="text_50">
     <!-- Brasil -->
     <defs>
      <path d="M 19.671875 34.8125 
L 19.671875 8.109375 
L 35.5 8.109375 
Q 43.453125 8.109375 47.28125 11.40625 
Q 51.125 14.703125 51.125 21.484375 
Q 51.125 28.328125 47.28125 31.5625 
Q 43.453125 34.8125 35.5 34.8125 
z
M 19.671875 64.796875 
L 19.671875 42.828125 
L 34.28125 42.828125 
Q 41.5 42.828125 45.03125 45.53125 
Q 48.578125 48.25 48.578125 53.8125 
Q 48.578125 59.328125 45.03125 62.0625 
Q 41.5 64.796875 34.28125 64.796875 
z
M 9.8125 72.90625 
L 35.015625 72.90625 
Q 46.296875 72.90625 52.390625 68.21875 
Q 58.5 63.53125 58.5 54.890625 
Q 58.5 48.1875 55.375 44.234375 
Q 52.25 40.28125 46.1875 39.3125 
Q 53.46875 37.75 57.5 32.78125 
Q 61.53125 27.828125 61.53125 20.40625 
Q 61.53125 10.640625 54.890625 5.3125 
Q 48.25 0 35.984375 0 
L 9.8125 0 
z
" id="DejaVuSans-66"/>
     </defs>
     <g transform="translate(235.5 221.383594)scale(0.15 -0.15)">
      <use xlink:href="#DejaVuSans-66"/>
      <use x="68.603516" xlink:href="#DejaVuSans-114"/>
      <use x="109.716797" xlink:href="#DejaVuSans-97"/>
      <use x="170.996094" xlink:href="#DejaVuSans-115"/>
      <use x="223.095703" xlink:href="#DejaVuSans-105"/>
      <use x="250.878906" xlink:href="#DejaVuSans-108"/>
     </g>
    </g>
   </g>
  </g>
 </g>
 <defs>
  <clipPath id="p0d1acbfd21">
   <rect height="543.6" width="1116" x="180" y="86.4"/>
  </clipPath>
 </defs>
</svg>
