<?xml version="1.0" encoding="utf-8" standalone="no"?>
<!DOCTYPE svg PUBLIC "-//W3C//DTD SVG 1.1//EN"
  "http://www.w3.org/Graphics/SVG/1.1/DTD/svg11.dtd">
<!-- Created with matplotlib (https://matplotlib.org/) -->
<svg height="504pt" version="1.1" viewBox="0 0 936 504" width="936pt" xmlns="http://www.w3.org/2000/svg" xmlns:xlink="http://www.w3.org/1999/xlink">
 <defs>
  <style type="text/css">
*{stroke-linecap:butt;stroke-linejoin:round;white-space:pre;}
  </style>
 </defs>
 <g id="figure_1">
  <g id="patch_1">
   <path d="M 0 504 
L 936 504 
L 936 0 
L 0 0 
z
" style="fill:#ffffff;"/>
  </g>
  <g id="axes_1">
   <g id="patch_2">
    <path d="M 117 448.56 
L 842.4 448.56 
L 842.4 60.48 
L 117 60.48 
z
" style="fill:#ffffff;"/>
   </g>
   <g id="matplotlib.axis_1">
    <g id="xtick_1">
     <g id="line2d_1">
      <defs>
       <path d="M 0 0 
L 0 3.5 
" id="m30df2a1c11" style="stroke:#000000;stroke-width:0.8;"/>
      </defs>
      <g>
       <use style="stroke:#000000;stroke-width:0.8;" x="149.972727" xlink:href="#m30df2a1c11" y="448.56"/>
      </g>
     </g>
     <g id="text_1">
      <!-- 9 -->
      <defs>
       <path d="M 10.984375 1.515625 
L 10.984375 10.5 
Q 14.703125 8.734375 18.5 7.8125 
Q 22.3125 6.890625 25.984375 6.890625 
Q 35.75 6.890625 40.890625 13.453125 
Q 46.046875 20.015625 46.78125 33.40625 
Q 43.953125 29.203125 39.59375 26.953125 
Q 35.25 24.703125 29.984375 24.703125 
Q 19.046875 24.703125 12.671875 31.3125 
Q 6.296875 37.9375 6.296875 49.421875 
Q 6.296875 60.640625 12.9375 67.421875 
Q 19.578125 74.21875 30.609375 74.21875 
Q 43.265625 74.21875 49.921875 64.515625 
Q 56.59375 54.828125 56.59375 36.375 
Q 56.59375 19.140625 48.40625 8.859375 
Q 40.234375 -1.421875 26.421875 -1.421875 
Q 22.703125 -1.421875 18.890625 -0.6875 
Q 15.09375 0.046875 10.984375 1.515625 
z
M 30.609375 32.421875 
Q 37.25 32.421875 41.125 36.953125 
Q 45.015625 41.5 45.015625 49.421875 
Q 45.015625 57.28125 41.125 61.84375 
Q 37.25 66.40625 30.609375 66.40625 
Q 23.96875 66.40625 20.09375 61.84375 
Q 16.21875 57.28125 16.21875 49.421875 
Q 16.21875 41.5 20.09375 36.953125 
Q 23.96875 32.421875 30.609375 32.421875 
z
" id="DejaVuSans-57"/>
      </defs>
      <g transform="translate(146.791477 463.158437)scale(0.1 -0.1)">
       <use xlink:href="#DejaVuSans-57"/>
      </g>
     </g>
    </g>
    <g id="xtick_2">
     <g id="line2d_2">
      <g>
       <use style="stroke:#000000;stroke-width:0.8;" x="179.947934" xlink:href="#m30df2a1c11" y="448.56"/>
      </g>
     </g>
     <g id="text_2">
      <!-- 10 -->
      <defs>
       <path d="M 12.40625 8.296875 
L 28.515625 8.296875 
L 28.515625 63.921875 
L 10.984375 60.40625 
L 10.984375 69.390625 
L 28.421875 72.90625 
L 38.28125 72.90625 
L 38.28125 8.296875 
L 54.390625 8.296875 
L 54.390625 0 
L 12.40625 0 
z
" id="DejaVuSans-49"/>
       <path d="M 31.78125 66.40625 
Q 24.171875 66.40625 20.328125 58.90625 
Q 16.5 51.421875 16.5 36.375 
Q 16.5 21.390625 20.328125 13.890625 
Q 24.171875 6.390625 31.78125 6.390625 
Q 39.453125 6.390625 43.28125 13.890625 
Q 47.125 21.390625 47.125 36.375 
Q 47.125 51.421875 43.28125 58.90625 
Q 39.453125 66.40625 31.78125 66.40625 
z
M 31.78125 74.21875 
Q 44.046875 74.21875 50.515625 64.515625 
Q 56.984375 54.828125 56.984375 36.375 
Q 56.984375 17.96875 50.515625 8.265625 
Q 44.046875 -1.421875 31.78125 -1.421875 
Q 19.53125 -1.421875 13.0625 8.265625 
Q 6.59375 17.96875 6.59375 36.375 
Q 6.59375 54.828125 13.0625 64.515625 
Q 19.53125 74.21875 31.78125 74.21875 
z
" id="DejaVuSans-48"/>
      </defs>
      <g transform="translate(173.585434 463.158437)scale(0.1 -0.1)">
       <use xlink:href="#DejaVuSans-49"/>
       <use x="63.623047" xlink:href="#DejaVuSans-48"/>
      </g>
     </g>
    </g>
    <g id="xtick_3">
     <g id="line2d_3">
      <g>
       <use style="stroke:#000000;stroke-width:0.8;" x="209.92314" xlink:href="#m30df2a1c11" y="448.56"/>
      </g>
     </g>
     <g id="text_3">
      <!-- 11 -->
      <g transform="translate(203.56064 463.158437)scale(0.1 -0.1)">
       <use xlink:href="#DejaVuSans-49"/>
       <use x="63.623047" xlink:href="#DejaVuSans-49"/>
      </g>
     </g>
    </g>
    <g id="xtick_4">
     <g id="line2d_4">
      <g>
       <use style="stroke:#000000;stroke-width:0.8;" x="239.898347" xlink:href="#m30df2a1c11" y="448.56"/>
      </g>
     </g>
     <g id="text_4">
      <!-- 12 -->
      <defs>
       <path d="M 19.1875 8.296875 
L 53.609375 8.296875 
L 53.609375 0 
L 7.328125 0 
L 7.328125 8.296875 
Q 12.9375 14.109375 22.625 23.890625 
Q 32.328125 33.6875 34.8125 36.53125 
Q 39.546875 41.84375 41.421875 45.53125 
Q 43.3125 49.21875 43.3125 52.78125 
Q 43.3125 58.59375 39.234375 62.25 
Q 35.15625 65.921875 28.609375 65.921875 
Q 23.96875 65.921875 18.8125 64.3125 
Q 13.671875 62.703125 7.8125 59.421875 
L 7.8125 69.390625 
Q 13.765625 71.78125 18.9375 73 
Q 24.125 74.21875 28.421875 74.21875 
Q 39.75 74.21875 46.484375 68.546875 
Q 53.21875 62.890625 53.21875 53.421875 
Q 53.21875 48.921875 51.53125 44.890625 
Q 49.859375 40.875 45.40625 35.40625 
Q 44.1875 33.984375 37.640625 27.21875 
Q 31.109375 20.453125 19.1875 8.296875 
z
" id="DejaVuSans-50"/>
      </defs>
      <g transform="translate(233.535847 463.158437)scale(0.1 -0.1)">
       <use xlink:href="#DejaVuSans-49"/>
       <use x="63.623047" xlink:href="#DejaVuSans-50"/>
      </g>
     </g>
    </g>
    <g id="xtick_5">
     <g id="line2d_5">
      <g>
       <use style="stroke:#000000;stroke-width:0.8;" x="269.873554" xlink:href="#m30df2a1c11" y="448.56"/>
      </g>
     </g>
     <g id="text_5">
      <!-- 13 -->
      <defs>
       <path d="M 40.578125 39.3125 
Q 47.65625 37.796875 51.625 33 
Q 55.609375 28.21875 55.609375 21.1875 
Q 55.609375 10.40625 48.1875 4.484375 
Q 40.765625 -1.421875 27.09375 -1.421875 
Q 22.515625 -1.421875 17.65625 -0.515625 
Q 12.796875 0.390625 7.625 2.203125 
L 7.625 11.71875 
Q 11.71875 9.328125 16.59375 8.109375 
Q 21.484375 6.890625 26.8125 6.890625 
Q 36.078125 6.890625 40.9375 10.546875 
Q 45.796875 14.203125 45.796875 21.1875 
Q 45.796875 27.640625 41.28125 31.265625 
Q 36.765625 34.90625 28.71875 34.90625 
L 20.21875 34.90625 
L 20.21875 43.015625 
L 29.109375 43.015625 
Q 36.375 43.015625 40.234375 45.921875 
Q 44.09375 48.828125 44.09375 54.296875 
Q 44.09375 59.90625 40.109375 62.90625 
Q 36.140625 65.921875 28.71875 65.921875 
Q 24.65625 65.921875 20.015625 65.03125 
Q 15.375 64.15625 9.8125 62.3125 
L 9.8125 71.09375 
Q 15.4375 72.65625 20.34375 73.4375 
Q 25.25 74.21875 29.59375 74.21875 
Q 40.828125 74.21875 47.359375 69.109375 
Q 53.90625 64.015625 53.90625 55.328125 
Q 53.90625 49.265625 50.4375 45.09375 
Q 46.96875 40.921875 40.578125 39.3125 
z
" id="DejaVuSans-51"/>
      </defs>
      <g transform="translate(263.511054 463.158437)scale(0.1 -0.1)">
       <use xlink:href="#DejaVuSans-49"/>
       <use x="63.623047" xlink:href="#DejaVuSans-51"/>
      </g>
     </g>
    </g>
    <g id="xtick_6">
     <g id="line2d_6">
      <g>
       <use style="stroke:#000000;stroke-width:0.8;" x="299.84876" xlink:href="#m30df2a1c11" y="448.56"/>
      </g>
     </g>
     <g id="text_6">
      <!-- 14 -->
      <defs>
       <path d="M 37.796875 64.3125 
L 12.890625 25.390625 
L 37.796875 25.390625 
z
M 35.203125 72.90625 
L 47.609375 72.90625 
L 47.609375 25.390625 
L 58.015625 25.390625 
L 58.015625 17.1875 
L 47.609375 17.1875 
L 47.609375 0 
L 37.796875 0 
L 37.796875 17.1875 
L 4.890625 17.1875 
L 4.890625 26.703125 
z
" id="DejaVuSans-52"/>
      </defs>
      <g transform="translate(293.48626 463.158437)scale(0.1 -0.1)">
       <use xlink:href="#DejaVuSans-49"/>
       <use x="63.623047" xlink:href="#DejaVuSans-52"/>
      </g>
     </g>
    </g>
    <g id="xtick_7">
     <g id="line2d_7">
      <g>
       <use style="stroke:#000000;stroke-width:0.8;" x="329.823967" xlink:href="#m30df2a1c11" y="448.56"/>
      </g>
     </g>
     <g id="text_7">
      <!-- 15 -->
      <defs>
       <path d="M 10.796875 72.90625 
L 49.515625 72.90625 
L 49.515625 64.59375 
L 19.828125 64.59375 
L 19.828125 46.734375 
Q 21.96875 47.46875 24.109375 47.828125 
Q 26.265625 48.1875 28.421875 48.1875 
Q 40.625 48.1875 47.75 41.5 
Q 54.890625 34.8125 54.890625 23.390625 
Q 54.890625 11.625 47.5625 5.09375 
Q 40.234375 -1.421875 26.90625 -1.421875 
Q 22.3125 -1.421875 17.546875 -0.640625 
Q 12.796875 0.140625 7.71875 1.703125 
L 7.71875 11.625 
Q 12.109375 9.234375 16.796875 8.0625 
Q 21.484375 6.890625 26.703125 6.890625 
Q 35.15625 6.890625 40.078125 11.328125 
Q 45.015625 15.765625 45.015625 23.390625 
Q 45.015625 31 40.078125 35.4375 
Q 35.15625 39.890625 26.703125 39.890625 
Q 22.75 39.890625 18.8125 39.015625 
Q 14.890625 38.140625 10.796875 36.28125 
z
" id="DejaVuSans-53"/>
      </defs>
      <g transform="translate(323.461467 463.158437)scale(0.1 -0.1)">
       <use xlink:href="#DejaVuSans-49"/>
       <use x="63.623047" xlink:href="#DejaVuSans-53"/>
      </g>
     </g>
    </g>
    <g id="xtick_8">
     <g id="line2d_8">
      <g>
       <use style="stroke:#000000;stroke-width:0.8;" x="359.799174" xlink:href="#m30df2a1c11" y="448.56"/>
      </g>
     </g>
     <g id="text_8">
      <!-- 16 -->
      <defs>
       <path d="M 33.015625 40.375 
Q 26.375 40.375 22.484375 35.828125 
Q 18.609375 31.296875 18.609375 23.390625 
Q 18.609375 15.53125 22.484375 10.953125 
Q 26.375 6.390625 33.015625 6.390625 
Q 39.65625 6.390625 43.53125 10.953125 
Q 47.40625 15.53125 47.40625 23.390625 
Q 47.40625 31.296875 43.53125 35.828125 
Q 39.65625 40.375 33.015625 40.375 
z
M 52.59375 71.296875 
L 52.59375 62.3125 
Q 48.875 64.0625 45.09375 64.984375 
Q 41.3125 65.921875 37.59375 65.921875 
Q 27.828125 65.921875 22.671875 59.328125 
Q 17.53125 52.734375 16.796875 39.40625 
Q 19.671875 43.65625 24.015625 45.921875 
Q 28.375 48.1875 33.59375 48.1875 
Q 44.578125 48.1875 50.953125 41.515625 
Q 57.328125 34.859375 57.328125 23.390625 
Q 57.328125 12.15625 50.6875 5.359375 
Q 44.046875 -1.421875 33.015625 -1.421875 
Q 20.359375 -1.421875 13.671875 8.265625 
Q 6.984375 17.96875 6.984375 36.375 
Q 6.984375 53.65625 15.1875 63.9375 
Q 23.390625 74.21875 37.203125 74.21875 
Q 40.921875 74.21875 44.703125 73.484375 
Q 48.484375 72.75 52.59375 71.296875 
z
" id="DejaVuSans-54"/>
      </defs>
      <g transform="translate(353.436674 463.158437)scale(0.1 -0.1)">
       <use xlink:href="#DejaVuSans-49"/>
       <use x="63.623047" xlink:href="#DejaVuSans-54"/>
      </g>
     </g>
    </g>
    <g id="xtick_9">
     <g id="line2d_9">
      <g>
       <use style="stroke:#000000;stroke-width:0.8;" x="389.77438" xlink:href="#m30df2a1c11" y="448.56"/>
      </g>
     </g>
     <g id="text_9">
      <!-- 17 -->
      <defs>
       <path d="M 8.203125 72.90625 
L 55.078125 72.90625 
L 55.078125 68.703125 
L 28.609375 0 
L 18.3125 0 
L 43.21875 64.59375 
L 8.203125 64.59375 
z
" id="DejaVuSans-55"/>
      </defs>
      <g transform="translate(383.41188 463.158437)scale(0.1 -0.1)">
       <use xlink:href="#DejaVuSans-49"/>
       <use x="63.623047" xlink:href="#DejaVuSans-55"/>
      </g>
     </g>
    </g>
    <g id="xtick_10">
     <g id="line2d_10">
      <g>
       <use style="stroke:#000000;stroke-width:0.8;" x="419.749587" xlink:href="#m30df2a1c11" y="448.56"/>
      </g>
     </g>
     <g id="text_10">
      <!-- 18 -->
      <defs>
       <path d="M 31.78125 34.625 
Q 24.75 34.625 20.71875 30.859375 
Q 16.703125 27.09375 16.703125 20.515625 
Q 16.703125 13.921875 20.71875 10.15625 
Q 24.75 6.390625 31.78125 6.390625 
Q 38.8125 6.390625 42.859375 10.171875 
Q 46.921875 13.96875 46.921875 20.515625 
Q 46.921875 27.09375 42.890625 30.859375 
Q 38.875 34.625 31.78125 34.625 
z
M 21.921875 38.8125 
Q 15.578125 40.375 12.03125 44.71875 
Q 8.5 49.078125 8.5 55.328125 
Q 8.5 64.0625 14.71875 69.140625 
Q 20.953125 74.21875 31.78125 74.21875 
Q 42.671875 74.21875 48.875 69.140625 
Q 55.078125 64.0625 55.078125 55.328125 
Q 55.078125 49.078125 51.53125 44.71875 
Q 48 40.375 41.703125 38.8125 
Q 48.828125 37.15625 52.796875 32.3125 
Q 56.78125 27.484375 56.78125 20.515625 
Q 56.78125 9.90625 50.3125 4.234375 
Q 43.84375 -1.421875 31.78125 -1.421875 
Q 19.734375 -1.421875 13.25 4.234375 
Q 6.78125 9.90625 6.78125 20.515625 
Q 6.78125 27.484375 10.78125 32.3125 
Q 14.796875 37.15625 21.921875 38.8125 
z
M 18.3125 54.390625 
Q 18.3125 48.734375 21.84375 45.5625 
Q 25.390625 42.390625 31.78125 42.390625 
Q 38.140625 42.390625 41.71875 45.5625 
Q 45.3125 48.734375 45.3125 54.390625 
Q 45.3125 60.0625 41.71875 63.234375 
Q 38.140625 66.40625 31.78125 66.40625 
Q 25.390625 66.40625 21.84375 63.234375 
Q 18.3125 60.0625 18.3125 54.390625 
z
" id="DejaVuSans-56"/>
      </defs>
      <g transform="translate(413.387087 463.158437)scale(0.1 -0.1)">
       <use xlink:href="#DejaVuSans-49"/>
       <use x="63.623047" xlink:href="#DejaVuSans-56"/>
      </g>
     </g>
    </g>
    <g id="xtick_11">
     <g id="line2d_11">
      <g>
       <use style="stroke:#000000;stroke-width:0.8;" x="449.724793" xlink:href="#m30df2a1c11" y="448.56"/>
      </g>
     </g>
     <g id="text_11">
      <!-- 19 -->
      <g transform="translate(443.362293 463.158437)scale(0.1 -0.1)">
       <use xlink:href="#DejaVuSans-49"/>
       <use x="63.623047" xlink:href="#DejaVuSans-57"/>
      </g>
     </g>
    </g>
    <g id="xtick_12">
     <g id="line2d_12">
      <g>
       <use style="stroke:#000000;stroke-width:0.8;" x="479.7" xlink:href="#m30df2a1c11" y="448.56"/>
      </g>
     </g>
     <g id="text_12">
      <!-- 20 -->
      <g transform="translate(473.3375 463.158437)scale(0.1 -0.1)">
       <use xlink:href="#DejaVuSans-50"/>
       <use x="63.623047" xlink:href="#DejaVuSans-48"/>
      </g>
     </g>
    </g>
    <g id="xtick_13">
     <g id="line2d_13">
      <g>
       <use style="stroke:#000000;stroke-width:0.8;" x="509.675207" xlink:href="#m30df2a1c11" y="448.56"/>
      </g>
     </g>
     <g id="text_13">
      <!-- 21 -->
      <g transform="translate(503.312707 463.158437)scale(0.1 -0.1)">
       <use xlink:href="#DejaVuSans-50"/>
       <use x="63.623047" xlink:href="#DejaVuSans-49"/>
      </g>
     </g>
    </g>
    <g id="xtick_14">
     <g id="line2d_14">
      <g>
       <use style="stroke:#000000;stroke-width:0.8;" x="539.650413" xlink:href="#m30df2a1c11" y="448.56"/>
      </g>
     </g>
     <g id="text_14">
      <!-- 22 -->
      <g transform="translate(533.287913 463.158437)scale(0.1 -0.1)">
       <use xlink:href="#DejaVuSans-50"/>
       <use x="63.623047" xlink:href="#DejaVuSans-50"/>
      </g>
     </g>
    </g>
    <g id="xtick_15">
     <g id="line2d_15">
      <g>
       <use style="stroke:#000000;stroke-width:0.8;" x="569.62562" xlink:href="#m30df2a1c11" y="448.56"/>
      </g>
     </g>
     <g id="text_15">
      <!-- 23 -->
      <g transform="translate(563.26312 463.158437)scale(0.1 -0.1)">
       <use xlink:href="#DejaVuSans-50"/>
       <use x="63.623047" xlink:href="#DejaVuSans-51"/>
      </g>
     </g>
    </g>
    <g id="xtick_16">
     <g id="line2d_16">
      <g>
       <use style="stroke:#000000;stroke-width:0.8;" x="599.600826" xlink:href="#m30df2a1c11" y="448.56"/>
      </g>
     </g>
     <g id="text_16">
      <!-- 24 -->
      <g transform="translate(593.238326 463.158437)scale(0.1 -0.1)">
       <use xlink:href="#DejaVuSans-50"/>
       <use x="63.623047" xlink:href="#DejaVuSans-52"/>
      </g>
     </g>
    </g>
    <g id="xtick_17">
     <g id="line2d_17">
      <g>
       <use style="stroke:#000000;stroke-width:0.8;" x="629.576033" xlink:href="#m30df2a1c11" y="448.56"/>
      </g>
     </g>
     <g id="text_17">
      <!-- 25 -->
      <g transform="translate(623.213533 463.158437)scale(0.1 -0.1)">
       <use xlink:href="#DejaVuSans-50"/>
       <use x="63.623047" xlink:href="#DejaVuSans-53"/>
      </g>
     </g>
    </g>
    <g id="xtick_18">
     <g id="line2d_18">
      <g>
       <use style="stroke:#000000;stroke-width:0.8;" x="659.55124" xlink:href="#m30df2a1c11" y="448.56"/>
      </g>
     </g>
     <g id="text_18">
      <!-- 26 -->
      <g transform="translate(653.18874 463.158437)scale(0.1 -0.1)">
       <use xlink:href="#DejaVuSans-50"/>
       <use x="63.623047" xlink:href="#DejaVuSans-54"/>
      </g>
     </g>
    </g>
    <g id="xtick_19">
     <g id="line2d_19">
      <g>
       <use style="stroke:#000000;stroke-width:0.8;" x="689.526446" xlink:href="#m30df2a1c11" y="448.56"/>
      </g>
     </g>
     <g id="text_19">
      <!-- 27 -->
      <g transform="translate(683.163946 463.158437)scale(0.1 -0.1)">
       <use xlink:href="#DejaVuSans-50"/>
       <use x="63.623047" xlink:href="#DejaVuSans-55"/>
      </g>
     </g>
    </g>
    <g id="xtick_20">
     <g id="line2d_20">
      <g>
       <use style="stroke:#000000;stroke-width:0.8;" x="719.501653" xlink:href="#m30df2a1c11" y="448.56"/>
      </g>
     </g>
     <g id="text_20">
      <!-- 28 -->
      <g transform="translate(713.139153 463.158437)scale(0.1 -0.1)">
       <use xlink:href="#DejaVuSans-50"/>
       <use x="63.623047" xlink:href="#DejaVuSans-56"/>
      </g>
     </g>
    </g>
    <g id="xtick_21">
     <g id="line2d_21">
      <g>
       <use style="stroke:#000000;stroke-width:0.8;" x="749.47686" xlink:href="#m30df2a1c11" y="448.56"/>
      </g>
     </g>
     <g id="text_21">
      <!-- 29 -->
      <g transform="translate(743.11436 463.158437)scale(0.1 -0.1)">
       <use xlink:href="#DejaVuSans-50"/>
       <use x="63.623047" xlink:href="#DejaVuSans-57"/>
      </g>
     </g>
    </g>
    <g id="xtick_22">
     <g id="line2d_22">
      <g>
       <use style="stroke:#000000;stroke-width:0.8;" x="779.452066" xlink:href="#m30df2a1c11" y="448.56"/>
      </g>
     </g>
     <g id="text_22">
      <!-- 30 -->
      <g transform="translate(773.089566 463.158437)scale(0.1 -0.1)">
       <use xlink:href="#DejaVuSans-51"/>
       <use x="63.623047" xlink:href="#DejaVuSans-48"/>
      </g>
     </g>
    </g>
    <g id="xtick_23">
     <g id="line2d_23">
      <g>
       <use style="stroke:#000000;stroke-width:0.8;" x="809.427273" xlink:href="#m30df2a1c11" y="448.56"/>
      </g>
     </g>
     <g id="text_23">
      <!-- 31 -->
      <g transform="translate(803.064773 463.158437)scale(0.1 -0.1)">
       <use xlink:href="#DejaVuSans-51"/>
       <use x="63.623047" xlink:href="#DejaVuSans-49"/>
      </g>
     </g>
    </g>
    <g id="text_24">
     <!-- Semana Epidemiológica -->
     <defs>
      <path d="M 53.515625 70.515625 
L 53.515625 60.890625 
Q 47.90625 63.578125 42.921875 64.890625 
Q 37.9375 66.21875 33.296875 66.21875 
Q 25.25 66.21875 20.875 63.09375 
Q 16.5 59.96875 16.5 54.203125 
Q 16.5 49.359375 19.40625 46.890625 
Q 22.3125 44.4375 30.421875 42.921875 
L 36.375 41.703125 
Q 47.40625 39.59375 52.65625 34.296875 
Q 57.90625 29 57.90625 20.125 
Q 57.90625 9.515625 50.796875 4.046875 
Q 43.703125 -1.421875 29.984375 -1.421875 
Q 24.8125 -1.421875 18.96875 -0.25 
Q 13.140625 0.921875 6.890625 3.21875 
L 6.890625 13.375 
Q 12.890625 10.015625 18.65625 8.296875 
Q 24.421875 6.59375 29.984375 6.59375 
Q 38.421875 6.59375 43.015625 9.90625 
Q 47.609375 13.234375 47.609375 19.390625 
Q 47.609375 24.75 44.3125 27.78125 
Q 41.015625 30.8125 33.5 32.328125 
L 27.484375 33.5 
Q 16.453125 35.6875 11.515625 40.375 
Q 6.59375 45.0625 6.59375 53.421875 
Q 6.59375 63.09375 13.40625 68.65625 
Q 20.21875 74.21875 32.171875 74.21875 
Q 37.3125 74.21875 42.625 73.28125 
Q 47.953125 72.359375 53.515625 70.515625 
z
" id="DejaVuSans-83"/>
      <path d="M 56.203125 29.59375 
L 56.203125 25.203125 
L 14.890625 25.203125 
Q 15.484375 15.921875 20.484375 11.0625 
Q 25.484375 6.203125 34.421875 6.203125 
Q 39.59375 6.203125 44.453125 7.46875 
Q 49.3125 8.734375 54.109375 11.28125 
L 54.109375 2.78125 
Q 49.265625 0.734375 44.1875 -0.34375 
Q 39.109375 -1.421875 33.890625 -1.421875 
Q 20.796875 -1.421875 13.15625 6.1875 
Q 5.515625 13.8125 5.515625 26.8125 
Q 5.515625 40.234375 12.765625 48.109375 
Q 20.015625 56 32.328125 56 
Q 43.359375 56 49.78125 48.890625 
Q 56.203125 41.796875 56.203125 29.59375 
z
M 47.21875 32.234375 
Q 47.125 39.59375 43.09375 43.984375 
Q 39.0625 48.390625 32.421875 48.390625 
Q 24.90625 48.390625 20.390625 44.140625 
Q 15.875 39.890625 15.1875 32.171875 
z
" id="DejaVuSans-101"/>
      <path d="M 52 44.1875 
Q 55.375 50.25 60.0625 53.125 
Q 64.75 56 71.09375 56 
Q 79.640625 56 84.28125 50.015625 
Q 88.921875 44.046875 88.921875 33.015625 
L 88.921875 0 
L 79.890625 0 
L 79.890625 32.71875 
Q 79.890625 40.578125 77.09375 44.375 
Q 74.3125 48.1875 68.609375 48.1875 
Q 61.625 48.1875 57.5625 43.546875 
Q 53.515625 38.921875 53.515625 30.90625 
L 53.515625 0 
L 44.484375 0 
L 44.484375 32.71875 
Q 44.484375 40.625 41.703125 44.40625 
Q 38.921875 48.1875 33.109375 48.1875 
Q 26.21875 48.1875 22.15625 43.53125 
Q 18.109375 38.875 18.109375 30.90625 
L 18.109375 0 
L 9.078125 0 
L 9.078125 54.6875 
L 18.109375 54.6875 
L 18.109375 46.1875 
Q 21.1875 51.21875 25.484375 53.609375 
Q 29.78125 56 35.6875 56 
Q 41.65625 56 45.828125 52.96875 
Q 50 49.953125 52 44.1875 
z
" id="DejaVuSans-109"/>
      <path d="M 34.28125 27.484375 
Q 23.390625 27.484375 19.1875 25 
Q 14.984375 22.515625 14.984375 16.5 
Q 14.984375 11.71875 18.140625 8.90625 
Q 21.296875 6.109375 26.703125 6.109375 
Q 34.1875 6.109375 38.703125 11.40625 
Q 43.21875 16.703125 43.21875 25.484375 
L 43.21875 27.484375 
z
M 52.203125 31.203125 
L 52.203125 0 
L 43.21875 0 
L 43.21875 8.296875 
Q 40.140625 3.328125 35.546875 0.953125 
Q 30.953125 -1.421875 24.3125 -1.421875 
Q 15.921875 -1.421875 10.953125 3.296875 
Q 6 8.015625 6 15.921875 
Q 6 25.140625 12.171875 29.828125 
Q 18.359375 34.515625 30.609375 34.515625 
L 43.21875 34.515625 
L 43.21875 35.40625 
Q 43.21875 41.609375 39.140625 45 
Q 35.0625 48.390625 27.6875 48.390625 
Q 23 48.390625 18.546875 47.265625 
Q 14.109375 46.140625 10.015625 43.890625 
L 10.015625 52.203125 
Q 14.9375 54.109375 19.578125 55.046875 
Q 24.21875 56 28.609375 56 
Q 40.484375 56 46.34375 49.84375 
Q 52.203125 43.703125 52.203125 31.203125 
z
" id="DejaVuSans-97"/>
      <path d="M 54.890625 33.015625 
L 54.890625 0 
L 45.90625 0 
L 45.90625 32.71875 
Q 45.90625 40.484375 42.875 44.328125 
Q 39.84375 48.1875 33.796875 48.1875 
Q 26.515625 48.1875 22.3125 43.546875 
Q 18.109375 38.921875 18.109375 30.90625 
L 18.109375 0 
L 9.078125 0 
L 9.078125 54.6875 
L 18.109375 54.6875 
L 18.109375 46.1875 
Q 21.34375 51.125 25.703125 53.5625 
Q 30.078125 56 35.796875 56 
Q 45.21875 56 50.046875 50.171875 
Q 54.890625 44.34375 54.890625 33.015625 
z
" id="DejaVuSans-110"/>
      <path id="DejaVuSans-32"/>
      <path d="M 9.8125 72.90625 
L 55.90625 72.90625 
L 55.90625 64.59375 
L 19.671875 64.59375 
L 19.671875 43.015625 
L 54.390625 43.015625 
L 54.390625 34.71875 
L 19.671875 34.71875 
L 19.671875 8.296875 
L 56.78125 8.296875 
L 56.78125 0 
L 9.8125 0 
z
" id="DejaVuSans-69"/>
      <path d="M 18.109375 8.203125 
L 18.109375 -20.796875 
L 9.078125 -20.796875 
L 9.078125 54.6875 
L 18.109375 54.6875 
L 18.109375 46.390625 
Q 20.953125 51.265625 25.265625 53.625 
Q 29.59375 56 35.59375 56 
Q 45.5625 56 51.78125 48.09375 
Q 58.015625 40.1875 58.015625 27.296875 
Q 58.015625 14.40625 51.78125 6.484375 
Q 45.5625 -1.421875 35.59375 -1.421875 
Q 29.59375 -1.421875 25.265625 0.953125 
Q 20.953125 3.328125 18.109375 8.203125 
z
M 48.6875 27.296875 
Q 48.6875 37.203125 44.609375 42.84375 
Q 40.53125 48.484375 33.40625 48.484375 
Q 26.265625 48.484375 22.1875 42.84375 
Q 18.109375 37.203125 18.109375 27.296875 
Q 18.109375 17.390625 22.1875 11.75 
Q 26.265625 6.109375 33.40625 6.109375 
Q 40.53125 6.109375 44.609375 11.75 
Q 48.6875 17.390625 48.6875 27.296875 
z
" id="DejaVuSans-112"/>
      <path d="M 9.421875 54.6875 
L 18.40625 54.6875 
L 18.40625 0 
L 9.421875 0 
z
M 9.421875 75.984375 
L 18.40625 75.984375 
L 18.40625 64.59375 
L 9.421875 64.59375 
z
" id="DejaVuSans-105"/>
      <path d="M 45.40625 46.390625 
L 45.40625 75.984375 
L 54.390625 75.984375 
L 54.390625 0 
L 45.40625 0 
L 45.40625 8.203125 
Q 42.578125 3.328125 38.25 0.953125 
Q 33.9375 -1.421875 27.875 -1.421875 
Q 17.96875 -1.421875 11.734375 6.484375 
Q 5.515625 14.40625 5.515625 27.296875 
Q 5.515625 40.1875 11.734375 48.09375 
Q 17.96875 56 27.875 56 
Q 33.9375 56 38.25 53.625 
Q 42.578125 51.265625 45.40625 46.390625 
z
M 14.796875 27.296875 
Q 14.796875 17.390625 18.875 11.75 
Q 22.953125 6.109375 30.078125 6.109375 
Q 37.203125 6.109375 41.296875 11.75 
Q 45.40625 17.390625 45.40625 27.296875 
Q 45.40625 37.203125 41.296875 42.84375 
Q 37.203125 48.484375 30.078125 48.484375 
Q 22.953125 48.484375 18.875 42.84375 
Q 14.796875 37.203125 14.796875 27.296875 
z
" id="DejaVuSans-100"/>
      <path d="M 30.609375 48.390625 
Q 23.390625 48.390625 19.1875 42.75 
Q 14.984375 37.109375 14.984375 27.296875 
Q 14.984375 17.484375 19.15625 11.84375 
Q 23.34375 6.203125 30.609375 6.203125 
Q 37.796875 6.203125 41.984375 11.859375 
Q 46.1875 17.53125 46.1875 27.296875 
Q 46.1875 37.015625 41.984375 42.703125 
Q 37.796875 48.390625 30.609375 48.390625 
z
M 30.609375 56 
Q 42.328125 56 49.015625 48.375 
Q 55.71875 40.765625 55.71875 27.296875 
Q 55.71875 13.875 49.015625 6.21875 
Q 42.328125 -1.421875 30.609375 -1.421875 
Q 18.84375 -1.421875 12.171875 6.21875 
Q 5.515625 13.875 5.515625 27.296875 
Q 5.515625 40.765625 12.171875 48.375 
Q 18.84375 56 30.609375 56 
z
" id="DejaVuSans-111"/>
      <path d="M 9.421875 75.984375 
L 18.40625 75.984375 
L 18.40625 0 
L 9.421875 0 
z
" id="DejaVuSans-108"/>
      <path d="M 30.609375 48.390625 
Q 23.390625 48.390625 19.1875 42.75 
Q 14.984375 37.109375 14.984375 27.296875 
Q 14.984375 17.484375 19.15625 11.84375 
Q 23.34375 6.203125 30.609375 6.203125 
Q 37.796875 6.203125 41.984375 11.859375 
Q 46.1875 17.53125 46.1875 27.296875 
Q 46.1875 37.015625 41.984375 42.703125 
Q 37.796875 48.390625 30.609375 48.390625 
z
M 30.609375 56 
Q 42.328125 56 49.015625 48.375 
Q 55.71875 40.765625 55.71875 27.296875 
Q 55.71875 13.875 49.015625 6.21875 
Q 42.328125 -1.421875 30.609375 -1.421875 
Q 18.84375 -1.421875 12.171875 6.21875 
Q 5.515625 13.875 5.515625 27.296875 
Q 5.515625 40.765625 12.171875 48.375 
Q 18.84375 56 30.609375 56 
z
M 37.40625 79.984375 
L 47.125 79.984375 
L 31.203125 61.625 
L 23.734375 61.625 
z
" id="DejaVuSans-243"/>
      <path d="M 45.40625 27.984375 
Q 45.40625 37.75 41.375 43.109375 
Q 37.359375 48.484375 30.078125 48.484375 
Q 22.859375 48.484375 18.828125 43.109375 
Q 14.796875 37.75 14.796875 27.984375 
Q 14.796875 18.265625 18.828125 12.890625 
Q 22.859375 7.515625 30.078125 7.515625 
Q 37.359375 7.515625 41.375 12.890625 
Q 45.40625 18.265625 45.40625 27.984375 
z
M 54.390625 6.78125 
Q 54.390625 -7.171875 48.1875 -13.984375 
Q 42 -20.796875 29.203125 -20.796875 
Q 24.46875 -20.796875 20.265625 -20.09375 
Q 16.0625 -19.390625 12.109375 -17.921875 
L 12.109375 -9.1875 
Q 16.0625 -11.328125 19.921875 -12.34375 
Q 23.78125 -13.375 27.78125 -13.375 
Q 36.625 -13.375 41.015625 -8.765625 
Q 45.40625 -4.15625 45.40625 5.171875 
L 45.40625 9.625 
Q 42.625 4.78125 38.28125 2.390625 
Q 33.9375 0 27.875 0 
Q 17.828125 0 11.671875 7.65625 
Q 5.515625 15.328125 5.515625 27.984375 
Q 5.515625 40.671875 11.671875 48.328125 
Q 17.828125 56 27.875 56 
Q 33.9375 56 38.28125 53.609375 
Q 42.625 51.21875 45.40625 46.390625 
L 45.40625 54.6875 
L 54.390625 54.6875 
z
" id="DejaVuSans-103"/>
      <path d="M 48.78125 52.59375 
L 48.78125 44.1875 
Q 44.96875 46.296875 41.140625 47.34375 
Q 37.3125 48.390625 33.40625 48.390625 
Q 24.65625 48.390625 19.8125 42.84375 
Q 14.984375 37.3125 14.984375 27.296875 
Q 14.984375 17.28125 19.8125 11.734375 
Q 24.65625 6.203125 33.40625 6.203125 
Q 37.3125 6.203125 41.140625 7.25 
Q 44.96875 8.296875 48.78125 10.40625 
L 48.78125 2.09375 
Q 45.015625 0.34375 40.984375 -0.53125 
Q 36.96875 -1.421875 32.421875 -1.421875 
Q 20.0625 -1.421875 12.78125 6.34375 
Q 5.515625 14.109375 5.515625 27.296875 
Q 5.515625 40.671875 12.859375 48.328125 
Q 20.21875 56 33.015625 56 
Q 37.15625 56 41.109375 55.140625 
Q 45.0625 54.296875 48.78125 52.59375 
z
" id="DejaVuSans-99"/>
     </defs>
     <g transform="translate(419.575781 477.236562)scale(0.1 -0.1)">
      <use xlink:href="#DejaVuSans-83"/>
      <use x="63.476562" xlink:href="#DejaVuSans-101"/>
      <use x="125" xlink:href="#DejaVuSans-109"/>
      <use x="222.412109" xlink:href="#DejaVuSans-97"/>
      <use x="283.691406" xlink:href="#DejaVuSans-110"/>
      <use x="347.070312" xlink:href="#DejaVuSans-97"/>
      <use x="408.349609" xlink:href="#DejaVuSans-32"/>
      <use x="440.136719" xlink:href="#DejaVuSans-69"/>
      <use x="503.320312" xlink:href="#DejaVuSans-112"/>
      <use x="566.796875" xlink:href="#DejaVuSans-105"/>
      <use x="594.580078" xlink:href="#DejaVuSans-100"/>
      <use x="658.056641" xlink:href="#DejaVuSans-101"/>
      <use x="719.580078" xlink:href="#DejaVuSans-109"/>
      <use x="816.992188" xlink:href="#DejaVuSans-105"/>
      <use x="844.775391" xlink:href="#DejaVuSans-111"/>
      <use x="905.957031" xlink:href="#DejaVuSans-108"/>
      <use x="933.740234" xlink:href="#DejaVuSans-243"/>
      <use x="994.921875" xlink:href="#DejaVuSans-103"/>
      <use x="1058.398438" xlink:href="#DejaVuSans-105"/>
      <use x="1086.181641" xlink:href="#DejaVuSans-99"/>
      <use x="1141.162109" xlink:href="#DejaVuSans-97"/>
     </g>
    </g>
   </g>
   <g id="matplotlib.axis_2">
    <g id="ytick_1">
     <g id="line2d_24">
      <defs>
       <path d="M 0 0 
L -3.5 0 
" id="m56abab1e56" style="stroke:#000000;stroke-width:0.8;"/>
      </defs>
      <g>
       <use style="stroke:#000000;stroke-width:0.8;" x="117" xlink:href="#m56abab1e56" y="430.92"/>
      </g>
     </g>
     <g id="text_25">
      <!-- 0 -->
      <g transform="translate(103.6375 434.719219)scale(0.1 -0.1)">
       <use xlink:href="#DejaVuSans-48"/>
      </g>
     </g>
    </g>
    <g id="ytick_2">
     <g id="line2d_25">
      <g>
       <use style="stroke:#000000;stroke-width:0.8;" x="117" xlink:href="#m56abab1e56" y="380.911779"/>
      </g>
     </g>
     <g id="text_26">
      <!-- 25000 -->
      <g transform="translate(78.1875 384.710997)scale(0.1 -0.1)">
       <use xlink:href="#DejaVuSans-50"/>
       <use x="63.623047" xlink:href="#DejaVuSans-53"/>
       <use x="127.246094" xlink:href="#DejaVuSans-48"/>
       <use x="190.869141" xlink:href="#DejaVuSans-48"/>
       <use x="254.492188" xlink:href="#DejaVuSans-48"/>
      </g>
     </g>
    </g>
    <g id="ytick_3">
     <g id="line2d_26">
      <g>
       <use style="stroke:#000000;stroke-width:0.8;" x="117" xlink:href="#m56abab1e56" y="330.903557"/>
      </g>
     </g>
     <g id="text_27">
      <!-- 50000 -->
      <g transform="translate(78.1875 334.702776)scale(0.1 -0.1)">
       <use xlink:href="#DejaVuSans-53"/>
       <use x="63.623047" xlink:href="#DejaVuSans-48"/>
       <use x="127.246094" xlink:href="#DejaVuSans-48"/>
       <use x="190.869141" xlink:href="#DejaVuSans-48"/>
       <use x="254.492188" xlink:href="#DejaVuSans-48"/>
      </g>
     </g>
    </g>
    <g id="ytick_4">
     <g id="line2d_27">
      <g>
       <use style="stroke:#000000;stroke-width:0.8;" x="117" xlink:href="#m56abab1e56" y="280.895336"/>
      </g>
     </g>
     <g id="text_28">
      <!-- 75000 -->
      <g transform="translate(78.1875 284.694555)scale(0.1 -0.1)">
       <use xlink:href="#DejaVuSans-55"/>
       <use x="63.623047" xlink:href="#DejaVuSans-53"/>
       <use x="127.246094" xlink:href="#DejaVuSans-48"/>
       <use x="190.869141" xlink:href="#DejaVuSans-48"/>
       <use x="254.492188" xlink:href="#DejaVuSans-48"/>
      </g>
     </g>
    </g>
    <g id="ytick_5">
     <g id="line2d_28">
      <g>
       <use style="stroke:#000000;stroke-width:0.8;" x="117" xlink:href="#m56abab1e56" y="230.887115"/>
      </g>
     </g>
     <g id="text_29">
      <!-- 100000 -->
      <g transform="translate(71.825 234.686334)scale(0.1 -0.1)">
       <use xlink:href="#DejaVuSans-49"/>
       <use x="63.623047" xlink:href="#DejaVuSans-48"/>
       <use x="127.246094" xlink:href="#DejaVuSans-48"/>
       <use x="190.869141" xlink:href="#DejaVuSans-48"/>
       <use x="254.492188" xlink:href="#DejaVuSans-48"/>
       <use x="318.115234" xlink:href="#DejaVuSans-48"/>
      </g>
     </g>
    </g>
    <g id="ytick_6">
     <g id="line2d_29">
      <g>
       <use style="stroke:#000000;stroke-width:0.8;" x="117" xlink:href="#m56abab1e56" y="180.878893"/>
      </g>
     </g>
     <g id="text_30">
      <!-- 125000 -->
      <g transform="translate(71.825 184.678112)scale(0.1 -0.1)">
       <use xlink:href="#DejaVuSans-49"/>
       <use x="63.623047" xlink:href="#DejaVuSans-50"/>
       <use x="127.246094" xlink:href="#DejaVuSans-53"/>
       <use x="190.869141" xlink:href="#DejaVuSans-48"/>
       <use x="254.492188" xlink:href="#DejaVuSans-48"/>
       <use x="318.115234" xlink:href="#DejaVuSans-48"/>
      </g>
     </g>
    </g>
    <g id="ytick_7">
     <g id="line2d_30">
      <g>
       <use style="stroke:#000000;stroke-width:0.8;" x="117" xlink:href="#m56abab1e56" y="130.870672"/>
      </g>
     </g>
     <g id="text_31">
      <!-- 150000 -->
      <g transform="translate(71.825 134.669891)scale(0.1 -0.1)">
       <use xlink:href="#DejaVuSans-49"/>
       <use x="63.623047" xlink:href="#DejaVuSans-53"/>
       <use x="127.246094" xlink:href="#DejaVuSans-48"/>
       <use x="190.869141" xlink:href="#DejaVuSans-48"/>
       <use x="254.492188" xlink:href="#DejaVuSans-48"/>
       <use x="318.115234" xlink:href="#DejaVuSans-48"/>
      </g>
     </g>
    </g>
    <g id="ytick_8">
     <g id="line2d_31">
      <g>
       <use style="stroke:#000000;stroke-width:0.8;" x="117" xlink:href="#m56abab1e56" y="80.862451"/>
      </g>
     </g>
     <g id="text_32">
      <!-- 175000 -->
      <g transform="translate(71.825 84.66167)scale(0.1 -0.1)">
       <use xlink:href="#DejaVuSans-49"/>
       <use x="63.623047" xlink:href="#DejaVuSans-55"/>
       <use x="127.246094" xlink:href="#DejaVuSans-53"/>
       <use x="190.869141" xlink:href="#DejaVuSans-48"/>
       <use x="254.492188" xlink:href="#DejaVuSans-48"/>
       <use x="318.115234" xlink:href="#DejaVuSans-48"/>
      </g>
     </g>
    </g>
    <g id="text_33">
     <!-- Número de Casos Acumulados -->
     <defs>
      <path d="M 9.8125 72.90625 
L 23.09375 72.90625 
L 55.421875 11.921875 
L 55.421875 72.90625 
L 64.984375 72.90625 
L 64.984375 0 
L 51.703125 0 
L 19.390625 60.984375 
L 19.390625 0 
L 9.8125 0 
z
" id="DejaVuSans-78"/>
      <path d="M 8.5 21.578125 
L 8.5 54.6875 
L 17.484375 54.6875 
L 17.484375 21.921875 
Q 17.484375 14.15625 20.5 10.265625 
Q 23.53125 6.390625 29.59375 6.390625 
Q 36.859375 6.390625 41.078125 11.03125 
Q 45.3125 15.671875 45.3125 23.6875 
L 45.3125 54.6875 
L 54.296875 54.6875 
L 54.296875 0 
L 45.3125 0 
L 45.3125 8.40625 
Q 42.046875 3.421875 37.71875 1 
Q 33.40625 -1.421875 27.6875 -1.421875 
Q 18.265625 -1.421875 13.375 4.4375 
Q 8.5 10.296875 8.5 21.578125 
z
M 31.109375 56 
z
M 37.796875 79.984375 
L 47.515625 79.984375 
L 31.59375 61.625 
L 24.125 61.625 
z
" id="DejaVuSans-250"/>
      <path d="M 41.109375 46.296875 
Q 39.59375 47.171875 37.8125 47.578125 
Q 36.03125 48 33.890625 48 
Q 26.265625 48 22.1875 43.046875 
Q 18.109375 38.09375 18.109375 28.8125 
L 18.109375 0 
L 9.078125 0 
L 9.078125 54.6875 
L 18.109375 54.6875 
L 18.109375 46.1875 
Q 20.953125 51.171875 25.484375 53.578125 
Q 30.03125 56 36.53125 56 
Q 37.453125 56 38.578125 55.875 
Q 39.703125 55.765625 41.0625 55.515625 
z
" id="DejaVuSans-114"/>
      <path d="M 64.40625 67.28125 
L 64.40625 56.890625 
Q 59.421875 61.53125 53.78125 63.8125 
Q 48.140625 66.109375 41.796875 66.109375 
Q 29.296875 66.109375 22.65625 58.46875 
Q 16.015625 50.828125 16.015625 36.375 
Q 16.015625 21.96875 22.65625 14.328125 
Q 29.296875 6.6875 41.796875 6.6875 
Q 48.140625 6.6875 53.78125 8.984375 
Q 59.421875 11.28125 64.40625 15.921875 
L 64.40625 5.609375 
Q 59.234375 2.09375 53.4375 0.328125 
Q 47.65625 -1.421875 41.21875 -1.421875 
Q 24.65625 -1.421875 15.125 8.703125 
Q 5.609375 18.84375 5.609375 36.375 
Q 5.609375 53.953125 15.125 64.078125 
Q 24.65625 74.21875 41.21875 74.21875 
Q 47.75 74.21875 53.53125 72.484375 
Q 59.328125 70.75 64.40625 67.28125 
z
" id="DejaVuSans-67"/>
      <path d="M 44.28125 53.078125 
L 44.28125 44.578125 
Q 40.484375 46.53125 36.375 47.5 
Q 32.28125 48.484375 27.875 48.484375 
Q 21.1875 48.484375 17.84375 46.4375 
Q 14.5 44.390625 14.5 40.28125 
Q 14.5 37.15625 16.890625 35.375 
Q 19.28125 33.59375 26.515625 31.984375 
L 29.59375 31.296875 
Q 39.15625 29.25 43.1875 25.515625 
Q 47.21875 21.78125 47.21875 15.09375 
Q 47.21875 7.46875 41.1875 3.015625 
Q 35.15625 -1.421875 24.609375 -1.421875 
Q 20.21875 -1.421875 15.453125 -0.5625 
Q 10.6875 0.296875 5.421875 2 
L 5.421875 11.28125 
Q 10.40625 8.6875 15.234375 7.390625 
Q 20.0625 6.109375 24.8125 6.109375 
Q 31.15625 6.109375 34.5625 8.28125 
Q 37.984375 10.453125 37.984375 14.40625 
Q 37.984375 18.0625 35.515625 20.015625 
Q 33.0625 21.96875 24.703125 23.78125 
L 21.578125 24.515625 
Q 13.234375 26.265625 9.515625 29.90625 
Q 5.8125 33.546875 5.8125 39.890625 
Q 5.8125 47.609375 11.28125 51.796875 
Q 16.75 56 26.8125 56 
Q 31.78125 56 36.171875 55.265625 
Q 40.578125 54.546875 44.28125 53.078125 
z
" id="DejaVuSans-115"/>
      <path d="M 34.1875 63.1875 
L 20.796875 26.90625 
L 47.609375 26.90625 
z
M 28.609375 72.90625 
L 39.796875 72.90625 
L 67.578125 0 
L 57.328125 0 
L 50.6875 18.703125 
L 17.828125 18.703125 
L 11.1875 0 
L 0.78125 0 
z
" id="DejaVuSans-65"/>
      <path d="M 8.5 21.578125 
L 8.5 54.6875 
L 17.484375 54.6875 
L 17.484375 21.921875 
Q 17.484375 14.15625 20.5 10.265625 
Q 23.53125 6.390625 29.59375 6.390625 
Q 36.859375 6.390625 41.078125 11.03125 
Q 45.3125 15.671875 45.3125 23.6875 
L 45.3125 54.6875 
L 54.296875 54.6875 
L 54.296875 0 
L 45.3125 0 
L 45.3125 8.40625 
Q 42.046875 3.421875 37.71875 1 
Q 33.40625 -1.421875 27.6875 -1.421875 
Q 18.265625 -1.421875 13.375 4.4375 
Q 8.5 10.296875 8.5 21.578125 
z
M 31.109375 56 
z
" id="DejaVuSans-117"/>
     </defs>
     <g transform="translate(65.745312 330.999687)rotate(-90)scale(0.1 -0.1)">
      <use xlink:href="#DejaVuSans-78"/>
      <use x="74.804688" xlink:href="#DejaVuSans-250"/>
      <use x="138.183594" xlink:href="#DejaVuSans-109"/>
      <use x="235.595703" xlink:href="#DejaVuSans-101"/>
      <use x="297.119141" xlink:href="#DejaVuSans-114"/>
      <use x="338.201172" xlink:href="#DejaVuSans-111"/>
      <use x="399.382812" xlink:href="#DejaVuSans-32"/>
      <use x="431.169922" xlink:href="#DejaVuSans-100"/>
      <use x="494.646484" xlink:href="#DejaVuSans-101"/>
      <use x="556.169922" xlink:href="#DejaVuSans-32"/>
      <use x="587.957031" xlink:href="#DejaVuSans-67"/>
      <use x="657.78125" xlink:href="#DejaVuSans-97"/>
      <use x="719.060547" xlink:href="#DejaVuSans-115"/>
      <use x="771.160156" xlink:href="#DejaVuSans-111"/>
      <use x="832.341797" xlink:href="#DejaVuSans-115"/>
      <use x="884.441406" xlink:href="#DejaVuSans-32"/>
      <use x="916.228516" xlink:href="#DejaVuSans-65"/>
      <use x="984.621094" xlink:href="#DejaVuSans-99"/>
      <use x="1039.601562" xlink:href="#DejaVuSans-117"/>
      <use x="1102.980469" xlink:href="#DejaVuSans-109"/>
      <use x="1200.392578" xlink:href="#DejaVuSans-117"/>
      <use x="1263.771484" xlink:href="#DejaVuSans-108"/>
      <use x="1291.554688" xlink:href="#DejaVuSans-97"/>
      <use x="1352.833984" xlink:href="#DejaVuSans-100"/>
      <use x="1416.310547" xlink:href="#DejaVuSans-111"/>
      <use x="1477.492188" xlink:href="#DejaVuSans-115"/>
     </g>
    </g>
   </g>
   <g id="line2d_32">
    <path clip-path="url(#pb2ac7b929d)" d="M 149.972727 430.92 
L 179.947934 430.92 
L 209.92314 430.918 
L 239.898347 430.905998 
L 269.873554 430.891995 
L 299.84876 430.873992 
L 329.823967 430.823984 
L 359.799174 430.655957 
L 389.77438 429.917835 
L 419.749587 428.177549 
L 449.724793 426.579286 
L 479.7 423.732818 
L 509.675207 419.658149 
L 539.650413 412.470967 
L 569.62562 401.279127 
L 599.600826 389.139131 
L 629.576033 375.514891 
L 659.55124 363.866977 
L 689.526446 352.397091 
L 719.501653 341.639322 
L 749.47686 331.737695 
L 779.452066 321.442002 
L 809.427273 308.915943 
" style="fill:none;stroke:#1f77b4;stroke-linecap:square;stroke-width:1.5;"/>
    <defs>
     <path d="M 0 3 
C 0.795609 3 1.55874 2.683901 2.12132 2.12132 
C 2.683901 1.55874 3 0.795609 3 0 
C 3 -0.795609 2.683901 -1.55874 2.12132 -2.12132 
C 1.55874 -2.683901 0.795609 -3 0 -3 
C -0.795609 -3 -1.55874 -2.683901 -2.12132 -2.12132 
C -2.683901 -1.55874 -3 -0.795609 -3 0 
C -3 0.795609 -2.683901 1.55874 -2.12132 2.12132 
C -1.55874 2.683901 -0.795609 3 0 3 
z
" id="m5a4f566918" style="stroke:#1f77b4;"/>
    </defs>
    <g clip-path="url(#pb2ac7b929d)">
     <use style="fill:#1f77b4;stroke:#1f77b4;" x="149.972727" xlink:href="#m5a4f566918" y="430.92"/>
     <use style="fill:#1f77b4;stroke:#1f77b4;" x="179.947934" xlink:href="#m5a4f566918" y="430.92"/>
     <use style="fill:#1f77b4;stroke:#1f77b4;" x="209.92314" xlink:href="#m5a4f566918" y="430.918"/>
     <use style="fill:#1f77b4;stroke:#1f77b4;" x="239.898347" xlink:href="#m5a4f566918" y="430.905998"/>
     <use style="fill:#1f77b4;stroke:#1f77b4;" x="269.873554" xlink:href="#m5a4f566918" y="430.891995"/>
     <use style="fill:#1f77b4;stroke:#1f77b4;" x="299.84876" xlink:href="#m5a4f566918" y="430.873992"/>
     <use style="fill:#1f77b4;stroke:#1f77b4;" x="329.823967" xlink:href="#m5a4f566918" y="430.823984"/>
     <use style="fill:#1f77b4;stroke:#1f77b4;" x="359.799174" xlink:href="#m5a4f566918" y="430.655957"/>
     <use style="fill:#1f77b4;stroke:#1f77b4;" x="389.77438" xlink:href="#m5a4f566918" y="429.917835"/>
     <use style="fill:#1f77b4;stroke:#1f77b4;" x="419.749587" xlink:href="#m5a4f566918" y="428.177549"/>
     <use style="fill:#1f77b4;stroke:#1f77b4;" x="449.724793" xlink:href="#m5a4f566918" y="426.579286"/>
     <use style="fill:#1f77b4;stroke:#1f77b4;" x="479.7" xlink:href="#m5a4f566918" y="423.732818"/>
     <use style="fill:#1f77b4;stroke:#1f77b4;" x="509.675207" xlink:href="#m5a4f566918" y="419.658149"/>
     <use style="fill:#1f77b4;stroke:#1f77b4;" x="539.650413" xlink:href="#m5a4f566918" y="412.470967"/>
     <use style="fill:#1f77b4;stroke:#1f77b4;" x="569.62562" xlink:href="#m5a4f566918" y="401.279127"/>
     <use style="fill:#1f77b4;stroke:#1f77b4;" x="599.600826" xlink:href="#m5a4f566918" y="389.139131"/>
     <use style="fill:#1f77b4;stroke:#1f77b4;" x="629.576033" xlink:href="#m5a4f566918" y="375.514891"/>
     <use style="fill:#1f77b4;stroke:#1f77b4;" x="659.55124" xlink:href="#m5a4f566918" y="363.866977"/>
     <use style="fill:#1f77b4;stroke:#1f77b4;" x="689.526446" xlink:href="#m5a4f566918" y="352.397091"/>
     <use style="fill:#1f77b4;stroke:#1f77b4;" x="719.501653" xlink:href="#m5a4f566918" y="341.639322"/>
     <use style="fill:#1f77b4;stroke:#1f77b4;" x="749.47686" xlink:href="#m5a4f566918" y="331.737695"/>
     <use style="fill:#1f77b4;stroke:#1f77b4;" x="779.452066" xlink:href="#m5a4f566918" y="321.442002"/>
     <use style="fill:#1f77b4;stroke:#1f77b4;" x="809.427273" xlink:href="#m5a4f566918" y="308.915943"/>
    </g>
   </g>
   <g id="line2d_33">
    <path clip-path="url(#pb2ac7b929d)" d="M 149.972727 430.92 
L 179.947934 430.915999 
L 209.92314 430.905998 
L 239.898347 430.837987 
L 269.873554 430.665958 
L 299.84876 430.24789 
L 329.823967 429.63979 
L 359.799174 428.519605 
L 389.77438 426.687304 
L 419.749587 424.28891 
L 449.724793 420.570299 
L 479.7 414.289266 
L 509.675207 404.915725 
L 539.650413 395.662204 
L 569.62562 376.118991 
L 599.600826 359.332231 
L 629.576033 340.297102 
L 659.55124 300.410544 
L 689.526446 259.921888 
L 719.501653 222.509738 
L 749.47686 190.404459 
L 779.452066 138.073856 
L 809.427273 93.012448 
" style="fill:none;stroke:#ff7f0e;stroke-linecap:square;stroke-width:1.5;"/>
    <defs>
     <path d="M 0 3 
C 0.795609 3 1.55874 2.683901 2.12132 2.12132 
C 2.683901 1.55874 3 0.795609 3 0 
C 3 -0.795609 2.683901 -1.55874 2.12132 -2.12132 
C 1.55874 -2.683901 0.795609 -3 0 -3 
C -0.795609 -3 -1.55874 -2.683901 -2.12132 -2.12132 
C -2.683901 -1.55874 -3 -0.795609 -3 0 
C -3 0.795609 -2.683901 1.55874 -2.12132 2.12132 
C -1.55874 2.683901 -0.795609 3 0 3 
z
" id="m9902c63474" style="stroke:#ff7f0e;"/>
    </defs>
    <g clip-path="url(#pb2ac7b929d)">
     <use style="fill:#ff7f0e;stroke:#ff7f0e;" x="149.972727" xlink:href="#m9902c63474" y="430.92"/>
     <use style="fill:#ff7f0e;stroke:#ff7f0e;" x="179.947934" xlink:href="#m9902c63474" y="430.915999"/>
     <use style="fill:#ff7f0e;stroke:#ff7f0e;" x="209.92314" xlink:href="#m9902c63474" y="430.905998"/>
     <use style="fill:#ff7f0e;stroke:#ff7f0e;" x="239.898347" xlink:href="#m9902c63474" y="430.837987"/>
     <use style="fill:#ff7f0e;stroke:#ff7f0e;" x="269.873554" xlink:href="#m9902c63474" y="430.665958"/>
     <use style="fill:#ff7f0e;stroke:#ff7f0e;" x="299.84876" xlink:href="#m9902c63474" y="430.24789"/>
     <use style="fill:#ff7f0e;stroke:#ff7f0e;" x="329.823967" xlink:href="#m9902c63474" y="429.63979"/>
     <use style="fill:#ff7f0e;stroke:#ff7f0e;" x="359.799174" xlink:href="#m9902c63474" y="428.519605"/>
     <use style="fill:#ff7f0e;stroke:#ff7f0e;" x="389.77438" xlink:href="#m9902c63474" y="426.687304"/>
     <use style="fill:#ff7f0e;stroke:#ff7f0e;" x="419.749587" xlink:href="#m9902c63474" y="424.28891"/>
     <use style="fill:#ff7f0e;stroke:#ff7f0e;" x="449.724793" xlink:href="#m9902c63474" y="420.570299"/>
     <use style="fill:#ff7f0e;stroke:#ff7f0e;" x="479.7" xlink:href="#m9902c63474" y="414.289266"/>
     <use style="fill:#ff7f0e;stroke:#ff7f0e;" x="509.675207" xlink:href="#m9902c63474" y="404.915725"/>
     <use style="fill:#ff7f0e;stroke:#ff7f0e;" x="539.650413" xlink:href="#m9902c63474" y="395.662204"/>
     <use style="fill:#ff7f0e;stroke:#ff7f0e;" x="569.62562" xlink:href="#m9902c63474" y="376.118991"/>
     <use style="fill:#ff7f0e;stroke:#ff7f0e;" x="599.600826" xlink:href="#m9902c63474" y="359.332231"/>
     <use style="fill:#ff7f0e;stroke:#ff7f0e;" x="629.576033" xlink:href="#m9902c63474" y="340.297102"/>
     <use style="fill:#ff7f0e;stroke:#ff7f0e;" x="659.55124" xlink:href="#m9902c63474" y="300.410544"/>
     <use style="fill:#ff7f0e;stroke:#ff7f0e;" x="689.526446" xlink:href="#m9902c63474" y="259.921888"/>
     <use style="fill:#ff7f0e;stroke:#ff7f0e;" x="719.501653" xlink:href="#m9902c63474" y="222.509738"/>
     <use style="fill:#ff7f0e;stroke:#ff7f0e;" x="749.47686" xlink:href="#m9902c63474" y="190.404459"/>
     <use style="fill:#ff7f0e;stroke:#ff7f0e;" x="779.452066" xlink:href="#m9902c63474" y="138.073856"/>
     <use style="fill:#ff7f0e;stroke:#ff7f0e;" x="809.427273" xlink:href="#m9902c63474" y="93.012448"/>
    </g>
   </g>
   <g id="line2d_34">
    <path clip-path="url(#pb2ac7b929d)" d="M 149.972727 430.92 
L 179.947934 430.92 
L 209.92314 430.92 
L 239.898347 430.751972 
L 269.873554 430.275894 
L 299.84876 429.429755 
L 329.823967 427.583451 
L 359.799174 424.794993 
L 389.77438 419.584136 
L 419.749587 414.299268 
L 449.724793 399.156778 
L 479.7 383.322175 
L 509.675207 360.66445 
L 539.650413 335.260274 
L 569.62562 303.749093 
L 599.600826 278.036866 
L 629.576033 246.095615 
L 659.55124 216.756792 
L 689.526446 187.952056 
L 719.501653 158.873276 
L 749.47686 136.927668 
L 779.452066 107.178777 
L 809.427273 78.12 
" style="fill:none;stroke:#2ca02c;stroke-linecap:square;stroke-width:1.5;"/>
    <defs>
     <path d="M 0 3 
C 0.795609 3 1.55874 2.683901 2.12132 2.12132 
C 2.683901 1.55874 3 0.795609 3 0 
C 3 -0.795609 2.683901 -1.55874 2.12132 -2.12132 
C 1.55874 -2.683901 0.795609 -3 0 -3 
C -0.795609 -3 -1.55874 -2.683901 -2.12132 -2.12132 
C -2.683901 -1.55874 -3 -0.795609 -3 0 
C -3 0.795609 -2.683901 1.55874 -2.12132 2.12132 
C -1.55874 2.683901 -0.795609 3 0 3 
z
" id="mab599d6118" style="stroke:#2ca02c;"/>
    </defs>
    <g clip-path="url(#pb2ac7b929d)">
     <use style="fill:#2ca02c;stroke:#2ca02c;" x="149.972727" xlink:href="#mab599d6118" y="430.92"/>
     <use style="fill:#2ca02c;stroke:#2ca02c;" x="179.947934" xlink:href="#mab599d6118" y="430.92"/>
     <use style="fill:#2ca02c;stroke:#2ca02c;" x="209.92314" xlink:href="#mab599d6118" y="430.92"/>
     <use style="fill:#2ca02c;stroke:#2ca02c;" x="239.898347" xlink:href="#mab599d6118" y="430.751972"/>
     <use style="fill:#2ca02c;stroke:#2ca02c;" x="269.873554" xlink:href="#mab599d6118" y="430.275894"/>
     <use style="fill:#2ca02c;stroke:#2ca02c;" x="299.84876" xlink:href="#mab599d6118" y="429.429755"/>
     <use style="fill:#2ca02c;stroke:#2ca02c;" x="329.823967" xlink:href="#mab599d6118" y="427.583451"/>
     <use style="fill:#2ca02c;stroke:#2ca02c;" x="359.799174" xlink:href="#mab599d6118" y="424.794993"/>
     <use style="fill:#2ca02c;stroke:#2ca02c;" x="389.77438" xlink:href="#mab599d6118" y="419.584136"/>
     <use style="fill:#2ca02c;stroke:#2ca02c;" x="419.749587" xlink:href="#mab599d6118" y="414.299268"/>
     <use style="fill:#2ca02c;stroke:#2ca02c;" x="449.724793" xlink:href="#mab599d6118" y="399.156778"/>
     <use style="fill:#2ca02c;stroke:#2ca02c;" x="479.7" xlink:href="#mab599d6118" y="383.322175"/>
     <use style="fill:#2ca02c;stroke:#2ca02c;" x="509.675207" xlink:href="#mab599d6118" y="360.66445"/>
     <use style="fill:#2ca02c;stroke:#2ca02c;" x="539.650413" xlink:href="#mab599d6118" y="335.260274"/>
     <use style="fill:#2ca02c;stroke:#2ca02c;" x="569.62562" xlink:href="#mab599d6118" y="303.749093"/>
     <use style="fill:#2ca02c;stroke:#2ca02c;" x="599.600826" xlink:href="#mab599d6118" y="278.036866"/>
     <use style="fill:#2ca02c;stroke:#2ca02c;" x="629.576033" xlink:href="#mab599d6118" y="246.095615"/>
     <use style="fill:#2ca02c;stroke:#2ca02c;" x="659.55124" xlink:href="#mab599d6118" y="216.756792"/>
     <use style="fill:#2ca02c;stroke:#2ca02c;" x="689.526446" xlink:href="#mab599d6118" y="187.952056"/>
     <use style="fill:#2ca02c;stroke:#2ca02c;" x="719.501653" xlink:href="#mab599d6118" y="158.873276"/>
     <use style="fill:#2ca02c;stroke:#2ca02c;" x="749.47686" xlink:href="#mab599d6118" y="136.927668"/>
     <use style="fill:#2ca02c;stroke:#2ca02c;" x="779.452066" xlink:href="#mab599d6118" y="107.178777"/>
     <use style="fill:#2ca02c;stroke:#2ca02c;" x="809.427273" xlink:href="#mab599d6118" y="78.12"/>
    </g>
   </g>
   <g id="line2d_35">
    <path clip-path="url(#pb2ac7b929d)" d="M 149.972727 430.92 
L 179.947934 430.92 
L 209.92314 430.92 
L 239.898347 430.915999 
L 269.873554 430.889995 
L 299.84876 430.729969 
L 329.823967 430.123869 
L 359.799174 428.509604 
L 389.77438 426.473269 
L 419.749587 422.838671 
L 449.724793 415.719501 
L 479.7 405.931892 
L 509.675207 388.531031 
L 539.650413 361.630609 
L 569.62562 335.718349 
L 599.600826 313.182644 
L 629.576033 291.551088 
L 659.55124 274.664312 
L 689.526446 252.776713 
L 719.501653 234.091642 
L 749.47686 218.701111 
L 779.452066 203.756655 
L 809.427273 187.718018 
" style="fill:none;stroke:#d62728;stroke-linecap:square;stroke-width:1.5;"/>
    <defs>
     <path d="M 0 3 
C 0.795609 3 1.55874 2.683901 2.12132 2.12132 
C 2.683901 1.55874 3 0.795609 3 0 
C 3 -0.795609 2.683901 -1.55874 2.12132 -2.12132 
C 1.55874 -2.683901 0.795609 -3 0 -3 
C -0.795609 -3 -1.55874 -2.683901 -2.12132 -2.12132 
C -2.683901 -1.55874 -3 -0.795609 -3 0 
C -3 0.795609 -2.683901 1.55874 -2.12132 2.12132 
C -1.55874 2.683901 -0.795609 3 0 3 
z
" id="mc8c06b3fbd" style="stroke:#d62728;"/>
    </defs>
    <g clip-path="url(#pb2ac7b929d)">
     <use style="fill:#d62728;stroke:#d62728;" x="149.972727" xlink:href="#mc8c06b3fbd" y="430.92"/>
     <use style="fill:#d62728;stroke:#d62728;" x="179.947934" xlink:href="#mc8c06b3fbd" y="430.92"/>
     <use style="fill:#d62728;stroke:#d62728;" x="209.92314" xlink:href="#mc8c06b3fbd" y="430.92"/>
     <use style="fill:#d62728;stroke:#d62728;" x="239.898347" xlink:href="#mc8c06b3fbd" y="430.915999"/>
     <use style="fill:#d62728;stroke:#d62728;" x="269.873554" xlink:href="#mc8c06b3fbd" y="430.889995"/>
     <use style="fill:#d62728;stroke:#d62728;" x="299.84876" xlink:href="#mc8c06b3fbd" y="430.729969"/>
     <use style="fill:#d62728;stroke:#d62728;" x="329.823967" xlink:href="#mc8c06b3fbd" y="430.123869"/>
     <use style="fill:#d62728;stroke:#d62728;" x="359.799174" xlink:href="#mc8c06b3fbd" y="428.509604"/>
     <use style="fill:#d62728;stroke:#d62728;" x="389.77438" xlink:href="#mc8c06b3fbd" y="426.473269"/>
     <use style="fill:#d62728;stroke:#d62728;" x="419.749587" xlink:href="#mc8c06b3fbd" y="422.838671"/>
     <use style="fill:#d62728;stroke:#d62728;" x="449.724793" xlink:href="#mc8c06b3fbd" y="415.719501"/>
     <use style="fill:#d62728;stroke:#d62728;" x="479.7" xlink:href="#mc8c06b3fbd" y="405.931892"/>
     <use style="fill:#d62728;stroke:#d62728;" x="509.675207" xlink:href="#mc8c06b3fbd" y="388.531031"/>
     <use style="fill:#d62728;stroke:#d62728;" x="539.650413" xlink:href="#mc8c06b3fbd" y="361.630609"/>
     <use style="fill:#d62728;stroke:#d62728;" x="569.62562" xlink:href="#mc8c06b3fbd" y="335.718349"/>
     <use style="fill:#d62728;stroke:#d62728;" x="599.600826" xlink:href="#mc8c06b3fbd" y="313.182644"/>
     <use style="fill:#d62728;stroke:#d62728;" x="629.576033" xlink:href="#mc8c06b3fbd" y="291.551088"/>
     <use style="fill:#d62728;stroke:#d62728;" x="659.55124" xlink:href="#mc8c06b3fbd" y="274.664312"/>
     <use style="fill:#d62728;stroke:#d62728;" x="689.526446" xlink:href="#mc8c06b3fbd" y="252.776713"/>
     <use style="fill:#d62728;stroke:#d62728;" x="719.501653" xlink:href="#mc8c06b3fbd" y="234.091642"/>
     <use style="fill:#d62728;stroke:#d62728;" x="749.47686" xlink:href="#mc8c06b3fbd" y="218.701111"/>
     <use style="fill:#d62728;stroke:#d62728;" x="779.452066" xlink:href="#mc8c06b3fbd" y="203.756655"/>
     <use style="fill:#d62728;stroke:#d62728;" x="809.427273" xlink:href="#mc8c06b3fbd" y="187.718018"/>
    </g>
   </g>
   <g id="line2d_36">
    <path clip-path="url(#pb2ac7b929d)" d="M 149.972727 430.92 
L 179.947934 430.92 
L 209.92314 430.92 
L 239.898347 430.918 
L 269.873554 430.891995 
L 299.84876 430.851989 
L 329.823967 430.717967 
L 359.799174 430.447922 
L 389.77438 429.921836 
L 419.749587 428.581616 
L 449.724793 426.607291 
L 479.7 422.792664 
L 509.675207 415.901531 
L 539.650413 405.19177 
L 569.62562 391.339493 
L 599.600826 376.002972 
L 629.576033 357.86599 
L 659.55124 342.421451 
L 689.526446 326.290799 
L 719.501653 310.05813 
L 749.47686 296.955976 
L 779.452066 279.449098 
L 809.427273 263.970554 
" style="fill:none;stroke:#9467bd;stroke-linecap:square;stroke-width:1.5;"/>
    <defs>
     <path d="M 0 3 
C 0.795609 3 1.55874 2.683901 2.12132 2.12132 
C 2.683901 1.55874 3 0.795609 3 0 
C 3 -0.795609 2.683901 -1.55874 2.12132 -2.12132 
C 1.55874 -2.683901 0.795609 -3 0 -3 
C -0.795609 -3 -1.55874 -2.683901 -2.12132 -2.12132 
C -2.683901 -1.55874 -3 -0.795609 -3 0 
C -3 0.795609 -2.683901 1.55874 -2.12132 2.12132 
C -1.55874 2.683901 -0.795609 3 0 3 
z
" id="me270d8b0bf" style="stroke:#9467bd;"/>
    </defs>
    <g clip-path="url(#pb2ac7b929d)">
     <use style="fill:#9467bd;stroke:#9467bd;" x="149.972727" xlink:href="#me270d8b0bf" y="430.92"/>
     <use style="fill:#9467bd;stroke:#9467bd;" x="179.947934" xlink:href="#me270d8b0bf" y="430.92"/>
     <use style="fill:#9467bd;stroke:#9467bd;" x="209.92314" xlink:href="#me270d8b0bf" y="430.92"/>
     <use style="fill:#9467bd;stroke:#9467bd;" x="239.898347" xlink:href="#me270d8b0bf" y="430.918"/>
     <use style="fill:#9467bd;stroke:#9467bd;" x="269.873554" xlink:href="#me270d8b0bf" y="430.891995"/>
     <use style="fill:#9467bd;stroke:#9467bd;" x="299.84876" xlink:href="#me270d8b0bf" y="430.851989"/>
     <use style="fill:#9467bd;stroke:#9467bd;" x="329.823967" xlink:href="#me270d8b0bf" y="430.717967"/>
     <use style="fill:#9467bd;stroke:#9467bd;" x="359.799174" xlink:href="#me270d8b0bf" y="430.447922"/>
     <use style="fill:#9467bd;stroke:#9467bd;" x="389.77438" xlink:href="#me270d8b0bf" y="429.921836"/>
     <use style="fill:#9467bd;stroke:#9467bd;" x="419.749587" xlink:href="#me270d8b0bf" y="428.581616"/>
     <use style="fill:#9467bd;stroke:#9467bd;" x="449.724793" xlink:href="#me270d8b0bf" y="426.607291"/>
     <use style="fill:#9467bd;stroke:#9467bd;" x="479.7" xlink:href="#me270d8b0bf" y="422.792664"/>
     <use style="fill:#9467bd;stroke:#9467bd;" x="509.675207" xlink:href="#me270d8b0bf" y="415.901531"/>
     <use style="fill:#9467bd;stroke:#9467bd;" x="539.650413" xlink:href="#me270d8b0bf" y="405.19177"/>
     <use style="fill:#9467bd;stroke:#9467bd;" x="569.62562" xlink:href="#me270d8b0bf" y="391.339493"/>
     <use style="fill:#9467bd;stroke:#9467bd;" x="599.600826" xlink:href="#me270d8b0bf" y="376.002972"/>
     <use style="fill:#9467bd;stroke:#9467bd;" x="629.576033" xlink:href="#me270d8b0bf" y="357.86599"/>
     <use style="fill:#9467bd;stroke:#9467bd;" x="659.55124" xlink:href="#me270d8b0bf" y="342.421451"/>
     <use style="fill:#9467bd;stroke:#9467bd;" x="689.526446" xlink:href="#me270d8b0bf" y="326.290799"/>
     <use style="fill:#9467bd;stroke:#9467bd;" x="719.501653" xlink:href="#me270d8b0bf" y="310.05813"/>
     <use style="fill:#9467bd;stroke:#9467bd;" x="749.47686" xlink:href="#me270d8b0bf" y="296.955976"/>
     <use style="fill:#9467bd;stroke:#9467bd;" x="779.452066" xlink:href="#me270d8b0bf" y="279.449098"/>
     <use style="fill:#9467bd;stroke:#9467bd;" x="809.427273" xlink:href="#me270d8b0bf" y="263.970554"/>
    </g>
   </g>
   <g id="line2d_37">
    <path clip-path="url(#pb2ac7b929d)" d="M 149.972727 430.92 
L 179.947934 430.92 
L 209.92314 430.905998 
L 239.898347 430.853989 
L 269.873554 430.783978 
L 299.84876 430.567942 
L 329.823967 429.287732 
L 359.799174 426.533279 
L 389.77438 421.904518 
L 419.749587 414.627321 
L 449.724793 405.975899 
L 479.7 393.93792 
L 509.675207 377.339191 
L 539.650413 364.055007 
L 569.62562 352.185056 
L 599.600826 341.56331 
L 629.576033 328.66719 
L 659.55124 316.723226 
L 689.526446 303.985132 
L 719.501653 288.15653 
L 749.47686 273.876182 
L 779.452066 257.387471 
L 809.427273 237.396185 
" style="fill:none;stroke:#8c564b;stroke-linecap:square;stroke-width:1.5;"/>
    <defs>
     <path d="M 0 3 
C 0.795609 3 1.55874 2.683901 2.12132 2.12132 
C 2.683901 1.55874 3 0.795609 3 0 
C 3 -0.795609 2.683901 -1.55874 2.12132 -2.12132 
C 1.55874 -2.683901 0.795609 -3 0 -3 
C -0.795609 -3 -1.55874 -2.683901 -2.12132 -2.12132 
C -2.683901 -1.55874 -3 -0.795609 -3 0 
C -3 0.795609 -2.683901 1.55874 -2.12132 2.12132 
C -1.55874 2.683901 -0.795609 3 0 3 
z
" id="mee0571647e" style="stroke:#8c564b;"/>
    </defs>
    <g clip-path="url(#pb2ac7b929d)">
     <use style="fill:#8c564b;stroke:#8c564b;" x="149.972727" xlink:href="#mee0571647e" y="430.92"/>
     <use style="fill:#8c564b;stroke:#8c564b;" x="179.947934" xlink:href="#mee0571647e" y="430.92"/>
     <use style="fill:#8c564b;stroke:#8c564b;" x="209.92314" xlink:href="#mee0571647e" y="430.905998"/>
     <use style="fill:#8c564b;stroke:#8c564b;" x="239.898347" xlink:href="#mee0571647e" y="430.853989"/>
     <use style="fill:#8c564b;stroke:#8c564b;" x="269.873554" xlink:href="#mee0571647e" y="430.783978"/>
     <use style="fill:#8c564b;stroke:#8c564b;" x="299.84876" xlink:href="#mee0571647e" y="430.567942"/>
     <use style="fill:#8c564b;stroke:#8c564b;" x="329.823967" xlink:href="#mee0571647e" y="429.287732"/>
     <use style="fill:#8c564b;stroke:#8c564b;" x="359.799174" xlink:href="#mee0571647e" y="426.533279"/>
     <use style="fill:#8c564b;stroke:#8c564b;" x="389.77438" xlink:href="#mee0571647e" y="421.904518"/>
     <use style="fill:#8c564b;stroke:#8c564b;" x="419.749587" xlink:href="#mee0571647e" y="414.627321"/>
     <use style="fill:#8c564b;stroke:#8c564b;" x="449.724793" xlink:href="#mee0571647e" y="405.975899"/>
     <use style="fill:#8c564b;stroke:#8c564b;" x="479.7" xlink:href="#mee0571647e" y="393.93792"/>
     <use style="fill:#8c564b;stroke:#8c564b;" x="509.675207" xlink:href="#mee0571647e" y="377.339191"/>
     <use style="fill:#8c564b;stroke:#8c564b;" x="539.650413" xlink:href="#mee0571647e" y="364.055007"/>
     <use style="fill:#8c564b;stroke:#8c564b;" x="569.62562" xlink:href="#mee0571647e" y="352.185056"/>
     <use style="fill:#8c564b;stroke:#8c564b;" x="599.600826" xlink:href="#mee0571647e" y="341.56331"/>
     <use style="fill:#8c564b;stroke:#8c564b;" x="629.576033" xlink:href="#mee0571647e" y="328.66719"/>
     <use style="fill:#8c564b;stroke:#8c564b;" x="659.55124" xlink:href="#mee0571647e" y="316.723226"/>
     <use style="fill:#8c564b;stroke:#8c564b;" x="689.526446" xlink:href="#mee0571647e" y="303.985132"/>
     <use style="fill:#8c564b;stroke:#8c564b;" x="719.501653" xlink:href="#mee0571647e" y="288.15653"/>
     <use style="fill:#8c564b;stroke:#8c564b;" x="749.47686" xlink:href="#mee0571647e" y="273.876182"/>
     <use style="fill:#8c564b;stroke:#8c564b;" x="779.452066" xlink:href="#mee0571647e" y="257.387471"/>
     <use style="fill:#8c564b;stroke:#8c564b;" x="809.427273" xlink:href="#mee0571647e" y="237.396185"/>
    </g>
   </g>
   <g id="line2d_38">
    <path clip-path="url(#pb2ac7b929d)" d="M 149.972727 430.92 
L 179.947934 430.92 
L 209.92314 430.92 
L 239.898347 430.911999 
L 269.873554 430.897996 
L 299.84876 430.871992 
L 329.823967 430.831986 
L 359.799174 430.631953 
L 389.77438 430.257891 
L 419.749587 429.435756 
L 449.724793 428.36358 
L 479.7 426.415259 
L 509.675207 424.138885 
L 539.650413 421.056378 
L 569.62562 415.961541 
L 599.600826 410.610661 
L 629.576033 402.387309 
L 659.55124 392.5977 
L 689.526446 378.753424 
L 719.501653 364.98316 
L 749.47686 352.315077 
L 779.452066 338.816858 
L 809.427273 324.916573 
" style="fill:none;stroke:#e377c2;stroke-linecap:square;stroke-width:1.5;"/>
    <defs>
     <path d="M 0 3 
C 0.795609 3 1.55874 2.683901 2.12132 2.12132 
C 2.683901 1.55874 3 0.795609 3 0 
C 3 -0.795609 2.683901 -1.55874 2.12132 -2.12132 
C 1.55874 -2.683901 0.795609 -3 0 -3 
C -0.795609 -3 -1.55874 -2.683901 -2.12132 -2.12132 
C -2.683901 -1.55874 -3 -0.795609 -3 0 
C -3 0.795609 -2.683901 1.55874 -2.12132 2.12132 
C -1.55874 2.683901 -0.795609 3 0 3 
z
" id="m9976853f74" style="stroke:#e377c2;"/>
    </defs>
    <g clip-path="url(#pb2ac7b929d)">
     <use style="fill:#e377c2;stroke:#e377c2;" x="149.972727" xlink:href="#m9976853f74" y="430.92"/>
     <use style="fill:#e377c2;stroke:#e377c2;" x="179.947934" xlink:href="#m9976853f74" y="430.92"/>
     <use style="fill:#e377c2;stroke:#e377c2;" x="209.92314" xlink:href="#m9976853f74" y="430.92"/>
     <use style="fill:#e377c2;stroke:#e377c2;" x="239.898347" xlink:href="#m9976853f74" y="430.911999"/>
     <use style="fill:#e377c2;stroke:#e377c2;" x="269.873554" xlink:href="#m9976853f74" y="430.897996"/>
     <use style="fill:#e377c2;stroke:#e377c2;" x="299.84876" xlink:href="#m9976853f74" y="430.871992"/>
     <use style="fill:#e377c2;stroke:#e377c2;" x="329.823967" xlink:href="#m9976853f74" y="430.831986"/>
     <use style="fill:#e377c2;stroke:#e377c2;" x="359.799174" xlink:href="#m9976853f74" y="430.631953"/>
     <use style="fill:#e377c2;stroke:#e377c2;" x="389.77438" xlink:href="#m9976853f74" y="430.257891"/>
     <use style="fill:#e377c2;stroke:#e377c2;" x="419.749587" xlink:href="#m9976853f74" y="429.435756"/>
     <use style="fill:#e377c2;stroke:#e377c2;" x="449.724793" xlink:href="#m9976853f74" y="428.36358"/>
     <use style="fill:#e377c2;stroke:#e377c2;" x="479.7" xlink:href="#m9976853f74" y="426.415259"/>
     <use style="fill:#e377c2;stroke:#e377c2;" x="509.675207" xlink:href="#m9976853f74" y="424.138885"/>
     <use style="fill:#e377c2;stroke:#e377c2;" x="539.650413" xlink:href="#m9976853f74" y="421.056378"/>
     <use style="fill:#e377c2;stroke:#e377c2;" x="569.62562" xlink:href="#m9976853f74" y="415.961541"/>
     <use style="fill:#e377c2;stroke:#e377c2;" x="599.600826" xlink:href="#m9976853f74" y="410.610661"/>
     <use style="fill:#e377c2;stroke:#e377c2;" x="629.576033" xlink:href="#m9976853f74" y="402.387309"/>
     <use style="fill:#e377c2;stroke:#e377c2;" x="659.55124" xlink:href="#m9976853f74" y="392.5977"/>
     <use style="fill:#e377c2;stroke:#e377c2;" x="689.526446" xlink:href="#m9976853f74" y="378.753424"/>
     <use style="fill:#e377c2;stroke:#e377c2;" x="719.501653" xlink:href="#m9976853f74" y="364.98316"/>
     <use style="fill:#e377c2;stroke:#e377c2;" x="749.47686" xlink:href="#m9976853f74" y="352.315077"/>
     <use style="fill:#e377c2;stroke:#e377c2;" x="779.452066" xlink:href="#m9976853f74" y="338.816858"/>
     <use style="fill:#e377c2;stroke:#e377c2;" x="809.427273" xlink:href="#m9976853f74" y="324.916573"/>
    </g>
   </g>
   <g id="line2d_39">
    <path clip-path="url(#pb2ac7b929d)" d="M 149.972727 430.92 
L 179.947934 430.92 
L 209.92314 430.918 
L 239.898347 430.901997 
L 269.873554 430.783978 
L 299.84876 430.489929 
L 329.823967 430.341905 
L 359.799174 429.797816 
L 389.77438 429.269729 
L 419.749587 428.135542 
L 449.724793 427.081369 
L 479.7 424.911012 
L 509.675207 421.720488 
L 539.650413 416.113566 
L 569.62562 412.018893 
L 599.600826 402.57334 
L 629.576033 392.333656 
L 659.55124 382.310009 
L 689.526446 361.618607 
L 719.501653 352.065036 
L 749.47686 343.373607 
L 779.452066 336.706511 
L 809.427273 326.926904 
" style="fill:none;stroke:#7f7f7f;stroke-linecap:square;stroke-width:1.5;"/>
    <defs>
     <path d="M 0 3 
C 0.795609 3 1.55874 2.683901 2.12132 2.12132 
C 2.683901 1.55874 3 0.795609 3 0 
C 3 -0.795609 2.683901 -1.55874 2.12132 -2.12132 
C 1.55874 -2.683901 0.795609 -3 0 -3 
C -0.795609 -3 -1.55874 -2.683901 -2.12132 -2.12132 
C -2.683901 -1.55874 -3 -0.795609 -3 0 
C -3 0.795609 -2.683901 1.55874 -2.12132 2.12132 
C -1.55874 2.683901 -0.795609 3 0 3 
z
" id="m873a68a482" style="stroke:#7f7f7f;"/>
    </defs>
    <g clip-path="url(#pb2ac7b929d)">
     <use style="fill:#7f7f7f;stroke:#7f7f7f;" x="149.972727" xlink:href="#m873a68a482" y="430.92"/>
     <use style="fill:#7f7f7f;stroke:#7f7f7f;" x="179.947934" xlink:href="#m873a68a482" y="430.92"/>
     <use style="fill:#7f7f7f;stroke:#7f7f7f;" x="209.92314" xlink:href="#m873a68a482" y="430.918"/>
     <use style="fill:#7f7f7f;stroke:#7f7f7f;" x="239.898347" xlink:href="#m873a68a482" y="430.901997"/>
     <use style="fill:#7f7f7f;stroke:#7f7f7f;" x="269.873554" xlink:href="#m873a68a482" y="430.783978"/>
     <use style="fill:#7f7f7f;stroke:#7f7f7f;" x="299.84876" xlink:href="#m873a68a482" y="430.489929"/>
     <use style="fill:#7f7f7f;stroke:#7f7f7f;" x="329.823967" xlink:href="#m873a68a482" y="430.341905"/>
     <use style="fill:#7f7f7f;stroke:#7f7f7f;" x="359.799174" xlink:href="#m873a68a482" y="429.797816"/>
     <use style="fill:#7f7f7f;stroke:#7f7f7f;" x="389.77438" xlink:href="#m873a68a482" y="429.269729"/>
     <use style="fill:#7f7f7f;stroke:#7f7f7f;" x="419.749587" xlink:href="#m873a68a482" y="428.135542"/>
     <use style="fill:#7f7f7f;stroke:#7f7f7f;" x="449.724793" xlink:href="#m873a68a482" y="427.081369"/>
     <use style="fill:#7f7f7f;stroke:#7f7f7f;" x="479.7" xlink:href="#m873a68a482" y="424.911012"/>
     <use style="fill:#7f7f7f;stroke:#7f7f7f;" x="509.675207" xlink:href="#m873a68a482" y="421.720488"/>
     <use style="fill:#7f7f7f;stroke:#7f7f7f;" x="539.650413" xlink:href="#m873a68a482" y="416.113566"/>
     <use style="fill:#7f7f7f;stroke:#7f7f7f;" x="569.62562" xlink:href="#m873a68a482" y="412.018893"/>
     <use style="fill:#7f7f7f;stroke:#7f7f7f;" x="599.600826" xlink:href="#m873a68a482" y="402.57334"/>
     <use style="fill:#7f7f7f;stroke:#7f7f7f;" x="629.576033" xlink:href="#m873a68a482" y="392.333656"/>
     <use style="fill:#7f7f7f;stroke:#7f7f7f;" x="659.55124" xlink:href="#m873a68a482" y="382.310009"/>
     <use style="fill:#7f7f7f;stroke:#7f7f7f;" x="689.526446" xlink:href="#m873a68a482" y="361.618607"/>
     <use style="fill:#7f7f7f;stroke:#7f7f7f;" x="719.501653" xlink:href="#m873a68a482" y="352.065036"/>
     <use style="fill:#7f7f7f;stroke:#7f7f7f;" x="749.47686" xlink:href="#m873a68a482" y="343.373607"/>
     <use style="fill:#7f7f7f;stroke:#7f7f7f;" x="779.452066" xlink:href="#m873a68a482" y="336.706511"/>
     <use style="fill:#7f7f7f;stroke:#7f7f7f;" x="809.427273" xlink:href="#m873a68a482" y="326.926904"/>
    </g>
   </g>
   <g id="line2d_40">
    <path clip-path="url(#pb2ac7b929d)" d="M 149.972727 430.92 
L 179.947934 430.92 
L 209.92314 430.918 
L 239.898347 430.899997 
L 269.873554 430.887995 
L 299.84876 430.855989 
L 329.823967 430.831986 
L 359.799174 430.777977 
L 389.77438 430.611949 
L 419.749587 429.717802 
L 449.724793 427.743478 
L 479.7 424.648969 
L 509.675207 420.656313 
L 539.650413 417.307762 
L 569.62562 412.97305 
L 599.600826 405.183769 
L 629.576033 394.015933 
L 659.55124 384.274331 
L 689.526446 371.388213 
L 719.501653 358.816146 
L 749.47686 344.761836 
L 779.452066 326.374813 
L 809.427273 311.45236 
" style="fill:none;stroke:#bcbd22;stroke-linecap:square;stroke-width:1.5;"/>
    <defs>
     <path d="M 0 3 
C 0.795609 3 1.55874 2.683901 2.12132 2.12132 
C 2.683901 1.55874 3 0.795609 3 0 
C 3 -0.795609 2.683901 -1.55874 2.12132 -2.12132 
C 1.55874 -2.683901 0.795609 -3 0 -3 
C -0.795609 -3 -1.55874 -2.683901 -2.12132 -2.12132 
C -2.683901 -1.55874 -3 -0.795609 -3 0 
C -3 0.795609 -2.683901 1.55874 -2.12132 2.12132 
C -1.55874 2.683901 -0.795609 3 0 3 
z
" id="m5510d76760" style="stroke:#bcbd22;"/>
    </defs>
    <g clip-path="url(#pb2ac7b929d)">
     <use style="fill:#bcbd22;stroke:#bcbd22;" x="149.972727" xlink:href="#m5510d76760" y="430.92"/>
     <use style="fill:#bcbd22;stroke:#bcbd22;" x="179.947934" xlink:href="#m5510d76760" y="430.92"/>
     <use style="fill:#bcbd22;stroke:#bcbd22;" x="209.92314" xlink:href="#m5510d76760" y="430.918"/>
     <use style="fill:#bcbd22;stroke:#bcbd22;" x="239.898347" xlink:href="#m5510d76760" y="430.899997"/>
     <use style="fill:#bcbd22;stroke:#bcbd22;" x="269.873554" xlink:href="#m5510d76760" y="430.887995"/>
     <use style="fill:#bcbd22;stroke:#bcbd22;" x="299.84876" xlink:href="#m5510d76760" y="430.855989"/>
     <use style="fill:#bcbd22;stroke:#bcbd22;" x="329.823967" xlink:href="#m5510d76760" y="430.831986"/>
     <use style="fill:#bcbd22;stroke:#bcbd22;" x="359.799174" xlink:href="#m5510d76760" y="430.777977"/>
     <use style="fill:#bcbd22;stroke:#bcbd22;" x="389.77438" xlink:href="#m5510d76760" y="430.611949"/>
     <use style="fill:#bcbd22;stroke:#bcbd22;" x="419.749587" xlink:href="#m5510d76760" y="429.717802"/>
     <use style="fill:#bcbd22;stroke:#bcbd22;" x="449.724793" xlink:href="#m5510d76760" y="427.743478"/>
     <use style="fill:#bcbd22;stroke:#bcbd22;" x="479.7" xlink:href="#m5510d76760" y="424.648969"/>
     <use style="fill:#bcbd22;stroke:#bcbd22;" x="509.675207" xlink:href="#m5510d76760" y="420.656313"/>
     <use style="fill:#bcbd22;stroke:#bcbd22;" x="539.650413" xlink:href="#m5510d76760" y="417.307762"/>
     <use style="fill:#bcbd22;stroke:#bcbd22;" x="569.62562" xlink:href="#m5510d76760" y="412.97305"/>
     <use style="fill:#bcbd22;stroke:#bcbd22;" x="599.600826" xlink:href="#m5510d76760" y="405.183769"/>
     <use style="fill:#bcbd22;stroke:#bcbd22;" x="629.576033" xlink:href="#m5510d76760" y="394.015933"/>
     <use style="fill:#bcbd22;stroke:#bcbd22;" x="659.55124" xlink:href="#m5510d76760" y="384.274331"/>
     <use style="fill:#bcbd22;stroke:#bcbd22;" x="689.526446" xlink:href="#m5510d76760" y="371.388213"/>
     <use style="fill:#bcbd22;stroke:#bcbd22;" x="719.501653" xlink:href="#m5510d76760" y="358.816146"/>
     <use style="fill:#bcbd22;stroke:#bcbd22;" x="749.47686" xlink:href="#m5510d76760" y="344.761836"/>
     <use style="fill:#bcbd22;stroke:#bcbd22;" x="779.452066" xlink:href="#m5510d76760" y="326.374813"/>
     <use style="fill:#bcbd22;stroke:#bcbd22;" x="809.427273" xlink:href="#m5510d76760" y="311.45236"/>
    </g>
   </g>
   <g id="patch_3">
    <path d="M 117 448.56 
L 117 60.48 
" style="fill:none;stroke:#000000;stroke-linecap:square;stroke-linejoin:miter;stroke-width:0.8;"/>
   </g>
   <g id="patch_4">
    <path d="M 117 448.56 
L 842.4 448.56 
" style="fill:none;stroke:#000000;stroke-linecap:square;stroke-linejoin:miter;stroke-width:0.8;"/>
   </g>
   <g id="text_34">
    <!-- Avanço do Coronavírus na Região Nordeste -->
    <defs>
     <path d="M 2.984375 54.6875 
L 12.5 54.6875 
L 29.59375 8.796875 
L 46.6875 54.6875 
L 56.203125 54.6875 
L 35.6875 0 
L 23.484375 0 
z
" id="DejaVuSans-118"/>
     <path d="M 48.78125 52.59375 
L 48.78125 44.1875 
Q 44.96875 46.296875 41.140625 47.34375 
Q 37.3125 48.390625 33.40625 48.390625 
Q 24.65625 48.390625 19.8125 42.84375 
Q 14.984375 37.3125 14.984375 27.296875 
Q 14.984375 17.28125 19.8125 11.734375 
Q 24.65625 6.203125 33.40625 6.203125 
Q 37.3125 6.203125 41.140625 7.25 
Q 44.96875 8.296875 48.78125 10.40625 
L 48.78125 2.09375 
Q 45.015625 0.34375 40.984375 -0.53125 
Q 36.96875 -1.421875 32.421875 -1.421875 
Q 20.0625 -1.421875 12.78125 6.34375 
Q 5.515625 14.109375 5.515625 27.296875 
Q 5.515625 40.671875 12.859375 48.328125 
Q 20.21875 56 33.015625 56 
Q 37.15625 56 41.109375 55.140625 
Q 45.0625 54.296875 48.78125 52.59375 
z
M 36.078125 0 
Q 38.765625 -3.03125 40.078125 -5.59375 
Q 41.40625 -8.15625 41.40625 -10.5 
Q 41.40625 -14.84375 38.46875 -17.0625 
Q 35.546875 -19.28125 29.78125 -19.28125 
Q 27.546875 -19.28125 25.421875 -18.984375 
Q 23.296875 -18.703125 21.1875 -18.109375 
L 21.1875 -11.71875 
Q 22.859375 -12.546875 24.65625 -12.90625 
Q 26.46875 -13.28125 28.765625 -13.28125 
Q 31.640625 -13.28125 33.109375 -12.109375 
Q 34.578125 -10.9375 34.578125 -8.6875 
Q 34.578125 -7.234375 33.515625 -5.109375 
Q 32.46875 -2.984375 30.28125 0 
z
" id="DejaVuSans-231"/>
     <path d="M 20.703125 79.984375 
L 30.421875 79.984375 
L 14.5 61.625 
L 7.03125 61.625 
z
M 9.421875 54.6875 
L 18.40625 54.6875 
L 18.40625 0 
L 9.421875 0 
z
M 13.921875 56 
z
" id="DejaVuSans-237"/>
     <path d="M 44.390625 34.1875 
Q 47.5625 33.109375 50.5625 29.59375 
Q 53.5625 26.078125 56.59375 19.921875 
L 66.609375 0 
L 56 0 
L 46.6875 18.703125 
Q 43.0625 26.03125 39.671875 28.421875 
Q 36.28125 30.8125 30.421875 30.8125 
L 19.671875 30.8125 
L 19.671875 0 
L 9.8125 0 
L 9.8125 72.90625 
L 32.078125 72.90625 
Q 44.578125 72.90625 50.734375 67.671875 
Q 56.890625 62.453125 56.890625 51.90625 
Q 56.890625 45.015625 53.6875 40.46875 
Q 50.484375 35.9375 44.390625 34.1875 
z
M 19.671875 64.796875 
L 19.671875 38.921875 
L 32.078125 38.921875 
Q 39.203125 38.921875 42.84375 42.21875 
Q 46.484375 45.515625 46.484375 51.90625 
Q 46.484375 58.296875 42.84375 61.546875 
Q 39.203125 64.796875 32.078125 64.796875 
z
" id="DejaVuSans-82"/>
     <path d="M 34.28125 27.484375 
Q 23.390625 27.484375 19.1875 25 
Q 14.984375 22.515625 14.984375 16.5 
Q 14.984375 11.71875 18.140625 8.90625 
Q 21.296875 6.109375 26.703125 6.109375 
Q 34.1875 6.109375 38.703125 11.40625 
Q 43.21875 16.703125 43.21875 25.484375 
L 43.21875 27.484375 
z
M 52.203125 31.203125 
L 52.203125 0 
L 43.21875 0 
L 43.21875 8.296875 
Q 40.140625 3.328125 35.546875 0.953125 
Q 30.953125 -1.421875 24.3125 -1.421875 
Q 15.921875 -1.421875 10.953125 3.296875 
Q 6 8.015625 6 15.921875 
Q 6 25.140625 12.171875 29.828125 
Q 18.359375 34.515625 30.609375 34.515625 
L 43.21875 34.515625 
L 43.21875 35.40625 
Q 43.21875 41.609375 39.140625 45 
Q 35.0625 48.390625 27.6875 48.390625 
Q 23 48.390625 18.546875 47.265625 
Q 14.109375 46.140625 10.015625 43.890625 
L 10.015625 52.203125 
Q 14.9375 54.109375 19.578125 55.046875 
Q 24.21875 56 28.609375 56 
Q 40.484375 56 46.34375 49.84375 
Q 52.203125 43.703125 52.203125 31.203125 
z
M 28.8125 66.890625 
L 26.03125 69.578125 
Q 24.953125 70.5625 24.140625 71.015625 
Q 23.34375 71.484375 22.703125 71.484375 
Q 20.84375 71.484375 19.96875 69.703125 
Q 19.09375 67.921875 19 63.921875 
L 12.890625 63.921875 
Q 12.984375 70.515625 15.46875 74.09375 
Q 17.96875 77.6875 22.40625 77.6875 
Q 24.265625 77.6875 25.828125 77 
Q 27.390625 76.3125 29.203125 74.703125 
L 31.984375 72.015625 
Q 33.0625 71.046875 33.859375 70.578125 
Q 34.671875 70.125 35.296875 70.125 
Q 37.15625 70.125 38.03125 71.90625 
Q 38.921875 73.6875 39.015625 77.6875 
L 45.125 77.6875 
Q 45.015625 71.09375 42.53125 67.5 
Q 40.046875 63.921875 35.59375 63.921875 
Q 33.734375 63.921875 32.171875 64.59375 
Q 30.609375 65.28125 28.8125 66.890625 
z
" id="DejaVuSans-227"/>
     <path d="M 18.3125 70.21875 
L 18.3125 54.6875 
L 36.8125 54.6875 
L 36.8125 47.703125 
L 18.3125 47.703125 
L 18.3125 18.015625 
Q 18.3125 11.328125 20.140625 9.421875 
Q 21.96875 7.515625 27.59375 7.515625 
L 36.8125 7.515625 
L 36.8125 0 
L 27.59375 0 
Q 17.1875 0 13.234375 3.875 
Q 9.28125 7.765625 9.28125 18.015625 
L 9.28125 47.703125 
L 2.6875 47.703125 
L 2.6875 54.6875 
L 9.28125 54.6875 
L 9.28125 70.21875 
z
" id="DejaVuSans-116"/>
    </defs>
    <g transform="translate(316.373438 54.48)scale(0.15 -0.15)">
     <use xlink:href="#DejaVuSans-65"/>
     <use x="68.330078" xlink:href="#DejaVuSans-118"/>
     <use x="127.509766" xlink:href="#DejaVuSans-97"/>
     <use x="188.789062" xlink:href="#DejaVuSans-110"/>
     <use x="252.167969" xlink:href="#DejaVuSans-231"/>
     <use x="307.148438" xlink:href="#DejaVuSans-111"/>
     <use x="368.330078" xlink:href="#DejaVuSans-32"/>
     <use x="400.117188" xlink:href="#DejaVuSans-100"/>
     <use x="463.59375" xlink:href="#DejaVuSans-111"/>
     <use x="524.775391" xlink:href="#DejaVuSans-32"/>
     <use x="556.5625" xlink:href="#DejaVuSans-67"/>
     <use x="626.386719" xlink:href="#DejaVuSans-111"/>
     <use x="687.568359" xlink:href="#DejaVuSans-114"/>
     <use x="728.650391" xlink:href="#DejaVuSans-111"/>
     <use x="789.832031" xlink:href="#DejaVuSans-110"/>
     <use x="853.210938" xlink:href="#DejaVuSans-97"/>
     <use x="914.490234" xlink:href="#DejaVuSans-118"/>
     <use x="973.669922" xlink:href="#DejaVuSans-237"/>
     <use x="1001.453125" xlink:href="#DejaVuSans-114"/>
     <use x="1042.566406" xlink:href="#DejaVuSans-117"/>
     <use x="1105.945312" xlink:href="#DejaVuSans-115"/>
     <use x="1158.044922" xlink:href="#DejaVuSans-32"/>
     <use x="1189.832031" xlink:href="#DejaVuSans-110"/>
     <use x="1253.210938" xlink:href="#DejaVuSans-97"/>
     <use x="1314.490234" xlink:href="#DejaVuSans-32"/>
     <use x="1346.277344" xlink:href="#DejaVuSans-82"/>
     <use x="1415.697266" xlink:href="#DejaVuSans-101"/>
     <use x="1477.220703" xlink:href="#DejaVuSans-103"/>
     <use x="1540.697266" xlink:href="#DejaVuSans-105"/>
     <use x="1568.480469" xlink:href="#DejaVuSans-227"/>
     <use x="1629.759766" xlink:href="#DejaVuSans-111"/>
     <use x="1690.941406" xlink:href="#DejaVuSans-32"/>
     <use x="1722.728516" xlink:href="#DejaVuSans-78"/>
     <use x="1797.533203" xlink:href="#DejaVuSans-111"/>
     <use x="1858.714844" xlink:href="#DejaVuSans-114"/>
     <use x="1899.8125" xlink:href="#DejaVuSans-100"/>
     <use x="1963.289062" xlink:href="#DejaVuSans-101"/>
     <use x="2024.8125" xlink:href="#DejaVuSans-115"/>
     <use x="2076.912109" xlink:href="#DejaVuSans-116"/>
     <use x="2116.121094" xlink:href="#DejaVuSans-101"/>
    </g>
   </g>
   <g id="legend_1">
    <g id="line2d_41">
     <path d="M 126 73.578438 
L 146 73.578438 
" style="fill:none;stroke:#1f77b4;stroke-linecap:square;stroke-width:1.5;"/>
    </g>
    <g id="line2d_42">
     <g>
      <use style="fill:#1f77b4;stroke:#1f77b4;" x="136" xlink:href="#m5a4f566918" y="73.578438"/>
     </g>
    </g>
    <g id="text_35">
     <!-- AL -->
     <defs>
      <path d="M 9.8125 72.90625 
L 19.671875 72.90625 
L 19.671875 8.296875 
L 55.171875 8.296875 
L 55.171875 0 
L 9.8125 0 
z
" id="DejaVuSans-76"/>
     </defs>
     <g transform="translate(154 77.078438)scale(0.1 -0.1)">
      <use xlink:href="#DejaVuSans-65"/>
      <use x="68.408203" xlink:href="#DejaVuSans-76"/>
     </g>
    </g>
    <g id="line2d_43">
     <path d="M 126 88.256563 
L 146 88.256563 
" style="fill:none;stroke:#ff7f0e;stroke-linecap:square;stroke-width:1.5;"/>
    </g>
    <g id="line2d_44">
     <g>
      <use style="fill:#ff7f0e;stroke:#ff7f0e;" x="136" xlink:href="#m9902c63474" y="88.256563"/>
     </g>
    </g>
    <g id="text_36">
     <!-- BA -->
     <defs>
      <path d="M 19.671875 34.8125 
L 19.671875 8.109375 
L 35.5 8.109375 
Q 43.453125 8.109375 47.28125 11.40625 
Q 51.125 14.703125 51.125 21.484375 
Q 51.125 28.328125 47.28125 31.5625 
Q 43.453125 34.8125 35.5 34.8125 
z
M 19.671875 64.796875 
L 19.671875 42.828125 
L 34.28125 42.828125 
Q 41.5 42.828125 45.03125 45.53125 
Q 48.578125 48.25 48.578125 53.8125 
Q 48.578125 59.328125 45.03125 62.0625 
Q 41.5 64.796875 34.28125 64.796875 
z
M 9.8125 72.90625 
L 35.015625 72.90625 
Q 46.296875 72.90625 52.390625 68.21875 
Q 58.5 63.53125 58.5 54.890625 
Q 58.5 48.1875 55.375 44.234375 
Q 52.25 40.28125 46.1875 39.3125 
Q 53.46875 37.75 57.5 32.78125 
Q 61.53125 27.828125 61.53125 20.40625 
Q 61.53125 10.640625 54.890625 5.3125 
Q 48.25 0 35.984375 0 
L 9.8125 0 
z
" id="DejaVuSans-66"/>
     </defs>
     <g transform="translate(154 91.756563)scale(0.1 -0.1)">
      <use xlink:href="#DejaVuSans-66"/>
      <use x="68.603516" xlink:href="#DejaVuSans-65"/>
     </g>
    </g>
    <g id="line2d_45">
     <path d="M 126 102.934687 
L 146 102.934687 
" style="fill:none;stroke:#2ca02c;stroke-linecap:square;stroke-width:1.5;"/>
    </g>
    <g id="line2d_46">
     <g>
      <use style="fill:#2ca02c;stroke:#2ca02c;" x="136" xlink:href="#mab599d6118" y="102.934687"/>
     </g>
    </g>
    <g id="text_37">
     <!-- CE -->
     <g transform="translate(154 106.434687)scale(0.1 -0.1)">
      <use xlink:href="#DejaVuSans-67"/>
      <use x="69.824219" xlink:href="#DejaVuSans-69"/>
     </g>
    </g>
    <g id="line2d_47">
     <path d="M 126 117.612813 
L 146 117.612813 
" style="fill:none;stroke:#d62728;stroke-linecap:square;stroke-width:1.5;"/>
    </g>
    <g id="line2d_48">
     <g>
      <use style="fill:#d62728;stroke:#d62728;" x="136" xlink:href="#mc8c06b3fbd" y="117.612813"/>
     </g>
    </g>
    <g id="text_38">
     <!-- MA -->
     <defs>
      <path d="M 9.8125 72.90625 
L 24.515625 72.90625 
L 43.109375 23.296875 
L 61.8125 72.90625 
L 76.515625 72.90625 
L 76.515625 0 
L 66.890625 0 
L 66.890625 64.015625 
L 48.09375 14.015625 
L 38.1875 14.015625 
L 19.390625 64.015625 
L 19.390625 0 
L 9.8125 0 
z
" id="DejaVuSans-77"/>
     </defs>
     <g transform="translate(154 121.112813)scale(0.1 -0.1)">
      <use xlink:href="#DejaVuSans-77"/>
      <use x="86.279297" xlink:href="#DejaVuSans-65"/>
     </g>
    </g>
    <g id="line2d_49">
     <path d="M 126 132.290938 
L 146 132.290938 
" style="fill:none;stroke:#9467bd;stroke-linecap:square;stroke-width:1.5;"/>
    </g>
    <g id="line2d_50">
     <g>
      <use style="fill:#9467bd;stroke:#9467bd;" x="136" xlink:href="#me270d8b0bf" y="132.290938"/>
     </g>
    </g>
    <g id="text_39">
     <!-- PB -->
     <defs>
      <path d="M 19.671875 64.796875 
L 19.671875 37.40625 
L 32.078125 37.40625 
Q 38.96875 37.40625 42.71875 40.96875 
Q 46.484375 44.53125 46.484375 51.125 
Q 46.484375 57.671875 42.71875 61.234375 
Q 38.96875 64.796875 32.078125 64.796875 
z
M 9.8125 72.90625 
L 32.078125 72.90625 
Q 44.34375 72.90625 50.609375 67.359375 
Q 56.890625 61.8125 56.890625 51.125 
Q 56.890625 40.328125 50.609375 34.8125 
Q 44.34375 29.296875 32.078125 29.296875 
L 19.671875 29.296875 
L 19.671875 0 
L 9.8125 0 
z
" id="DejaVuSans-80"/>
     </defs>
     <g transform="translate(154 135.790938)scale(0.1 -0.1)">
      <use xlink:href="#DejaVuSans-80"/>
      <use x="60.302734" xlink:href="#DejaVuSans-66"/>
     </g>
    </g>
    <g id="line2d_51">
     <path d="M 126 146.969063 
L 146 146.969063 
" style="fill:none;stroke:#8c564b;stroke-linecap:square;stroke-width:1.5;"/>
    </g>
    <g id="line2d_52">
     <g>
      <use style="fill:#8c564b;stroke:#8c564b;" x="136" xlink:href="#mee0571647e" y="146.969063"/>
     </g>
    </g>
    <g id="text_40">
     <!-- PE -->
     <g transform="translate(154 150.469063)scale(0.1 -0.1)">
      <use xlink:href="#DejaVuSans-80"/>
      <use x="60.302734" xlink:href="#DejaVuSans-69"/>
     </g>
    </g>
    <g id="line2d_53">
     <path d="M 126 161.647187 
L 146 161.647187 
" style="fill:none;stroke:#e377c2;stroke-linecap:square;stroke-width:1.5;"/>
    </g>
    <g id="line2d_54">
     <g>
      <use style="fill:#e377c2;stroke:#e377c2;" x="136" xlink:href="#m9976853f74" y="161.647187"/>
     </g>
    </g>
    <g id="text_41">
     <!-- PI -->
     <defs>
      <path d="M 9.8125 72.90625 
L 19.671875 72.90625 
L 19.671875 0 
L 9.8125 0 
z
" id="DejaVuSans-73"/>
     </defs>
     <g transform="translate(154 165.147187)scale(0.1 -0.1)">
      <use xlink:href="#DejaVuSans-80"/>
      <use x="60.302734" xlink:href="#DejaVuSans-73"/>
     </g>
    </g>
    <g id="line2d_55">
     <path d="M 126 176.325312 
L 146 176.325312 
" style="fill:none;stroke:#7f7f7f;stroke-linecap:square;stroke-width:1.5;"/>
    </g>
    <g id="line2d_56">
     <g>
      <use style="fill:#7f7f7f;stroke:#7f7f7f;" x="136" xlink:href="#m873a68a482" y="176.325312"/>
     </g>
    </g>
    <g id="text_42">
     <!-- RN -->
     <g transform="translate(154 179.825312)scale(0.1 -0.1)">
      <use xlink:href="#DejaVuSans-82"/>
      <use x="69.482422" xlink:href="#DejaVuSans-78"/>
     </g>
    </g>
    <g id="line2d_57">
     <path d="M 126 191.003438 
L 146 191.003438 
" style="fill:none;stroke:#bcbd22;stroke-linecap:square;stroke-width:1.5;"/>
    </g>
    <g id="line2d_58">
     <g>
      <use style="fill:#bcbd22;stroke:#bcbd22;" x="136" xlink:href="#m5510d76760" y="191.003438"/>
     </g>
    </g>
    <g id="text_43">
     <!-- SE -->
     <g transform="translate(154 194.503438)scale(0.1 -0.1)">
      <use xlink:href="#DejaVuSans-83"/>
      <use x="63.476562" xlink:href="#DejaVuSans-69"/>
     </g>
    </g>
   </g>
  </g>
 </g>
 <defs>
  <clipPath id="pb2ac7b929d">
   <rect height="388.08" width="725.4" x="117" y="60.48"/>
  </clipPath>
 </defs>
</svg>
